# MagicaVoxel @ Ephtracy

# group
o 

# material
mtllib diamond.mtl
usemtl palette

# normals
vn -1 0 0
vn 1 0 0
vn 0 0 1
vn 0 0 -1
vn 0 -1 0
vn 0 1 0

# texcoords
vt 0.611328 0.5
vt 0.958984 0.5
vt 0.970703 0.5
vt 0.974609 0.5
vt 0.978516 0.5

# verts
v -0.6 0.5 0
v -0.6 0.5 -0.1
v -0.6 1 0
v -0.6 1 -0.1
v -0.5 0.3 0
v -0.5 0.3 -0.1
v -0.5 0.5 0
v -0.5 0.5 -0.1
v -0.5 1 0
v -0.5 1 -0.1
v -0.5 1.2 0
v -0.5 1.2 -0.1
v -0.4 0.2 0
v -0.4 0.2 -0.1
v -0.4 0.3 0
v -0.4 0.3 -0.1
v -0.4 1.2 0
v -0.4 1.2 -0.1
v -0.4 1.3 0
v -0.4 1.3 -0.1
v -0.3 0.1 0
v -0.3 0.1 -0.1
v -0.3 0.2 0
v -0.3 0.2 -0.1
v -0.3 1.3 0
v -0.3 1.3 -0.1
v -0.3 1.4 0
v -0.3 1.4 -0.1
v -0.2 1.4 0
v -0.2 1.4 -0.1
v -0.2 1.5 0
v -0.2 1.5 -0.1
v 0.2 1.4 0
v 0.2 1.4 -0.1
v 0.2 1.5 0
v 0.2 1.5 -0.1
v 0.3 0.1 0
v 0.3 0.1 -0.1
v 0.3 0.2 0
v 0.3 0.2 -0.1
v 0.3 1.3 0
v 0.3 1.3 -0.1
v 0.3 1.4 0
v 0.3 1.4 -0.1
v 0.4 0.2 0
v 0.4 0.2 -0.1
v 0.4 0.3 0
v 0.4 0.3 -0.1
v 0.4 1.2 0
v 0.4 1.2 -0.1
v 0.4 1.3 0
v 0.4 1.3 -0.1
v 0.5 0.3 0
v 0.5 0.3 -0.1
v 0.5 0.5 0
v 0.5 0.5 -0.1
v 0.5 1 0
v 0.5 1 -0.1
v 0.5 1.2 0
v 0.5 1.2 -0.1
v 0.6 0.5 0
v 0.6 0.5 -0.1
v 0.6 1 0
v 0.6 1 -0.1
v -0.6 0.5 0
v -0.6 1 0
v -0.5 0.3 0
v -0.5 0.5 0
v -0.5 0.7 0
v -0.5 1 0
v -0.5 1.2 0
v -0.4 0.2 0
v -0.4 0.3 0
v -0.4 0.5 0
v -0.4 0.8 0
v -0.4 1 0
v -0.4 1.2 0
v -0.4 1.3 0
v -0.3 0.1 0
v -0.3 0.2 0
v -0.3 0.3 0
v -0.3 0.5 0
v -0.3 0.7 0
v -0.3 0.8 0
v -0.3 1 0
v -0.3 1.2 0
v -0.3 1.3 0
v -0.3 1.4 0
v -0.2 0.5 0
v -0.2 0.6 0
v -0.2 0.7 0
v -0.2 0.8 0
v -0.2 1 0
v -0.2 1.2 0
v -0.2 1.3 0
v -0.2 1.4 0
v -0.2 1.5 0
v -0.1 1 0
v -0.1 1.2 0
v 0.1 1.1 0
v 0.1 1.2 0
v 0.1 1.3 0
v 0.1 1.4 0
v 0.2 0.4 0
v 0.2 0.6 0
v 0.2 0.7 0
v 0.2 0.8 0
v 0.2 0.9 0
v 0.2 1 0
v 0.2 1.2 0
v 0.2 1.3 0
v 0.2 1.4 0
v 0.2 1.5 0
v 0.3 0.1 0
v 0.3 0.2 0
v 0.3 0.3 0
v 0.3 0.4 0
v 0.3 0.5 0
v 0.3 0.6 0
v 0.3 0.7 0
v 0.3 0.9 0
v 0.3 1 0
v 0.3 1.1 0
v 0.3 1.2 0
v 0.3 1.3 0
v 0.3 1.4 0
v 0.4 0.2 0
v 0.4 0.3 0
v 0.4 0.5 0
v 0.4 1 0
v 0.4 1.2 0
v 0.4 1.3 0
v 0.5 0.3 0
v 0.5 0.5 0
v 0.5 1 0
v 0.5 1.2 0
v 0.6 0.5 0
v 0.6 1 0
v -0.6 0.5 -0.1
v -0.6 1 -0.1
v -0.5 0.3 -0.1
v -0.5 0.5 -0.1
v -0.5 0.7 -0.1
v -0.5 1 -0.1
v -0.5 1.2 -0.1
v -0.4 0.2 -0.1
v -0.4 0.3 -0.1
v -0.4 0.5 -0.1
v -0.4 0.8 -0.1
v -0.4 1 -0.1
v -0.4 1.2 -0.1
v -0.4 1.3 -0.1
v -0.3 0.1 -0.1
v -0.3 0.2 -0.1
v -0.3 0.3 -0.1
v -0.3 0.5 -0.1
v -0.3 0.7 -0.1
v -0.3 0.8 -0.1
v -0.3 1 -0.1
v -0.3 1.2 -0.1
v -0.3 1.3 -0.1
v -0.3 1.4 -0.1
v -0.2 0.5 -0.1
v -0.2 0.6 -0.1
v -0.2 0.7 -0.1
v -0.2 0.8 -0.1
v -0.2 1 -0.1
v -0.2 1.2 -0.1
v -0.2 1.3 -0.1
v -0.2 1.4 -0.1
v -0.2 1.5 -0.1
v -0.1 1 -0.1
v -0.1 1.2 -0.1
v 0.1 1.1 -0.1
v 0.1 1.2 -0.1
v 0.1 1.3 -0.1
v 0.1 1.4 -0.1
v 0.2 0.4 -0.1
v 0.2 0.6 -0.1
v 0.2 0.7 -0.1
v 0.2 0.8 -0.1
v 0.2 0.9 -0.1
v 0.2 1 -0.1
v 0.2 1.2 -0.1
v 0.2 1.3 -0.1
v 0.2 1.4 -0.1
v 0.2 1.5 -0.1
v 0.3 0.1 -0.1
v 0.3 0.2 -0.1
v 0.3 0.3 -0.1
v 0.3 0.4 -0.1
v 0.3 0.5 -0.1
v 0.3 0.6 -0.1
v 0.3 0.7 -0.1
v 0.3 0.9 -0.1
v 0.3 1 -0.1
v 0.3 1.1 -0.1
v 0.3 1.2 -0.1
v 0.3 1.3 -0.1
v 0.3 1.4 -0.1
v 0.4 0.2 -0.1
v 0.4 0.3 -0.1
v 0.4 0.5 -0.1
v 0.4 1 -0.1
v 0.4 1.2 -0.1
v 0.4 1.3 -0.1
v 0.5 0.3 -0.1
v 0.5 0.5 -0.1
v 0.5 1 -0.1
v 0.5 1.2 -0.1
v 0.6 0.5 -0.1
v 0.6 1 -0.1
v -0.3 0.1 0
v 0.3 0.1 0
v -0.3 0.1 -0.1
v 0.3 0.1 -0.1
v -0.4 0.2 0
v -0.3 0.2 0
v 0.3 0.2 0
v 0.4 0.2 0
v -0.4 0.2 -0.1
v -0.3 0.2 -0.1
v 0.3 0.2 -0.1
v 0.4 0.2 -0.1
v -0.5 0.3 0
v -0.4 0.3 0
v 0.4 0.3 0
v 0.5 0.3 0
v -0.5 0.3 -0.1
v -0.4 0.3 -0.1
v 0.4 0.3 -0.1
v 0.5 0.3 -0.1
v -0.6 0.5 0
v -0.5 0.5 0
v 0.5 0.5 0
v 0.6 0.5 0
v -0.6 0.5 -0.1
v -0.5 0.5 -0.1
v 0.5 0.5 -0.1
v 0.6 0.5 -0.1
v -0.6 1 0
v -0.5 1 0
v 0.5 1 0
v 0.6 1 0
v -0.6 1 -0.1
v -0.5 1 -0.1
v 0.5 1 -0.1
v 0.6 1 -0.1
v -0.5 1.2 0
v -0.4 1.2 0
v 0.4 1.2 0
v 0.5 1.2 0
v -0.5 1.2 -0.1
v -0.4 1.2 -0.1
v 0.4 1.2 -0.1
v 0.5 1.2 -0.1
v -0.4 1.3 0
v -0.3 1.3 0
v 0.3 1.3 0
v 0.4 1.3 0
v -0.4 1.3 -0.1
v -0.3 1.3 -0.1
v 0.3 1.3 -0.1
v 0.4 1.3 -0.1
v -0.3 1.4 0
v -0.2 1.4 0
v 0.2 1.4 0
v 0.3 1.4 0
v -0.3 1.4 -0.1
v -0.2 1.4 -0.1
v 0.2 1.4 -0.1
v 0.3 1.4 -0.1
v -0.2 1.5 0
v 0.2 1.5 0
v -0.2 1.5 -0.1
v 0.2 1.5 -0.1

# faces
f 3/1/1 2/1/1 1/1/1
f 4/1/1 2/1/1 3/1/1
f 7/1/1 6/1/1 5/1/1
f 8/1/1 6/1/1 7/1/1
f 11/1/1 10/1/1 9/1/1
f 12/1/1 10/1/1 11/1/1
f 15/1/1 14/1/1 13/1/1
f 16/1/1 14/1/1 15/1/1
f 19/1/1 18/1/1 17/1/1
f 20/1/1 18/1/1 19/1/1
f 23/1/1 22/1/1 21/1/1
f 24/1/1 22/1/1 23/1/1
f 27/1/1 26/1/1 25/1/1
f 28/1/1 26/1/1 27/1/1
f 31/1/1 30/1/1 29/1/1
f 32/1/1 30/1/1 31/1/1
f 33/1/2 34/1/2 35/1/2
f 35/1/2 34/1/2 36/1/2
f 37/1/2 38/1/2 39/1/2
f 39/1/2 38/1/2 40/1/2
f 41/1/2 42/1/2 43/1/2
f 43/1/2 42/1/2 44/1/2
f 45/1/2 46/1/2 47/1/2
f 47/1/2 46/1/2 48/1/2
f 49/1/2 50/1/2 51/1/2
f 51/1/2 50/1/2 52/1/2
f 53/1/2 54/1/2 55/1/2
f 55/1/2 54/1/2 56/1/2
f 57/1/2 58/1/2 59/1/2
f 59/1/2 58/1/2 60/1/2
f 61/1/2 62/1/2 63/1/2
f 63/1/2 62/1/2 64/1/2
f 68/1/3 66/1/3 65/1/3
f 69/1/3 66/1/3 68/1/3
f 70/1/3 66/1/3 69/1/3
f 73/1/3 68/1/3 67/1/3
f 74/4/3 69/4/3 68/4/3
f 74/1/3 68/1/3 73/1/3
f 75/2/3 70/2/3 69/2/3
f 76/1/3 71/1/3 70/1/3
f 76/2/3 70/2/3 75/2/3
f 77/1/3 71/1/3 76/1/3
f 80/1/3 73/1/3 72/1/3
f 81/3/3 74/3/3 73/3/3
f 81/1/3 73/1/3 80/1/3
f 82/4/3 69/4/3 74/4/3
f 82/3/3 74/3/3 81/3/3
f 83/2/3 75/2/3 69/2/3
f 83/4/3 69/4/3 82/4/3
f 84/4/3 76/4/3 75/4/3
f 84/2/3 75/2/3 83/2/3
f 85/2/3 77/2/3 76/2/3
f 85/4/3 76/4/3 84/4/3
f 86/1/3 78/1/3 77/1/3
f 86/2/3 77/2/3 85/2/3
f 87/1/3 78/1/3 86/1/3
f 89/4/3 82/4/3 81/4/3
f 89/4/3 81/4/3 80/4/3
f 89/3/3 83/3/3 82/3/3
f 90/3/3 83/3/3 89/3/3
f 91/4/3 85/4/3 84/4/3
f 91/3/3 83/3/3 90/3/3
f 91/4/3 86/4/3 85/4/3
f 91/4/3 84/4/3 83/4/3
f 92/4/3 86/4/3 91/4/3
f 93/4/3 86/4/3 92/4/3
f 94/2/3 87/2/3 86/2/3
f 94/4/3 86/4/3 93/4/3
f 95/1/3 88/1/3 87/1/3
f 95/2/3 87/2/3 94/2/3
f 96/1/3 88/1/3 95/1/3
f 98/4/3 94/4/3 93/4/3
f 98/5/3 93/5/3 92/5/3
f 98/4/3 95/4/3 94/4/3
f 99/4/3 95/4/3 98/4/3
f 100/5/3 99/5/3 98/5/3
f 101/4/3 95/4/3 99/4/3
f 101/5/3 99/5/3 100/5/3
f 102/2/3 96/2/3 95/2/3
f 102/4/3 95/4/3 101/4/3
f 103/1/3 97/1/3 96/1/3
f 103/2/3 96/2/3 102/2/3
f 104/4/3 90/4/3 89/4/3
f 104/4/3 89/4/3 80/4/3
f 105/3/3 91/3/3 90/3/3
f 105/4/3 90/4/3 104/4/3
f 105/3/3 92/3/3 91/3/3
f 106/3/3 92/3/3 105/3/3
f 107/5/3 100/5/3 98/5/3
f 107/3/3 92/3/3 106/3/3
f 107/5/3 98/5/3 92/5/3
f 108/5/3 100/5/3 107/5/3
f 109/5/3 100/5/3 108/5/3
f 110/5/3 102/5/3 101/5/3
f 110/4/3 101/4/3 100/4/3
f 110/5/3 103/5/3 102/5/3
f 111/5/3 103/5/3 110/5/3
f 112/1/3 97/1/3 103/1/3
f 112/5/3 103/5/3 111/5/3
f 113/1/3 97/1/3 112/1/3
f 114/1/3 80/1/3 79/1/3
f 115/4/3 104/4/3 80/4/3
f 115/1/3 80/1/3 114/1/3
f 116/4/3 104/4/3 115/4/3
f 117/3/3 105/3/3 104/3/3
f 117/4/3 104/4/3 116/4/3
f 118/3/3 105/3/3 117/3/3
f 119/4/3 106/4/3 105/4/3
f 119/3/3 105/3/3 118/3/3
f 120/3/3 108/3/3 107/3/3
f 120/4/3 106/4/3 119/4/3
f 120/3/3 107/3/3 106/3/3
f 121/4/3 109/4/3 108/4/3
f 121/3/3 108/3/3 120/3/3
f 122/5/3 100/5/3 109/5/3
f 122/4/3 109/4/3 121/4/3
f 123/4/3 111/4/3 110/4/3
f 123/5/3 100/5/3 122/5/3
f 123/4/3 110/4/3 100/4/3
f 124/4/3 111/4/3 123/4/3
f 125/1/3 112/1/3 111/1/3
f 125/4/3 111/4/3 124/4/3
f 126/1/3 112/1/3 125/1/3
f 127/1/3 116/1/3 115/1/3
f 128/3/3 118/3/3 117/3/3
f 128/1/3 116/1/3 127/1/3
f 128/3/3 117/3/3 116/3/3
f 129/4/3 121/4/3 120/4/3
f 129/3/3 118/3/3 128/3/3
f 129/4/3 122/4/3 121/4/3
f 129/4/3 124/4/3 123/4/3
f 129/4/3 120/4/3 119/4/3
f 129/4/3 123/4/3 122/4/3
f 129/4/3 119/4/3 118/4/3
f 130/4/3 124/4/3 129/4/3
f 131/1/3 125/1/3 124/1/3
f 131/4/3 124/4/3 130/4/3
f 132/1/3 125/1/3 131/1/3
f 133/1/3 129/1/3 128/1/3
f 134/4/3 130/4/3 129/4/3
f 134/1/3 129/1/3 133/1/3
f 135/1/3 131/1/3 130/1/3
f 135/4/3 130/4/3 134/4/3
f 136/1/3 131/1/3 135/1/3
f 137/1/3 135/1/3 134/1/3
f 138/1/3 135/1/3 137/1/3
f 139/1/4 140/1/4 142/1/4
f 142/1/4 140/1/4 143/1/4
f 143/1/4 140/1/4 144/1/4
f 141/1/4 142/1/4 147/1/4
f 142/4/4 143/4/4 148/4/4
f 147/1/4 142/1/4 148/1/4
f 143/2/4 144/2/4 149/2/4
f 144/1/4 145/1/4 150/1/4
f 149/2/4 144/2/4 150/2/4
f 150/1/4 145/1/4 151/1/4
f 146/1/4 147/1/4 154/1/4
f 147/3/4 148/3/4 155/3/4
f 154/1/4 147/1/4 155/1/4
f 148/4/4 143/4/4 156/4/4
f 155/3/4 148/3/4 156/3/4
f 143/2/4 149/2/4 157/2/4
f 156/4/4 143/4/4 157/4/4
f 149/4/4 150/4/4 158/4/4
f 157/2/4 149/2/4 158/2/4
f 150/2/4 151/2/4 159/2/4
f 158/4/4 150/4/4 159/4/4
f 151/1/4 152/1/4 160/1/4
f 159/2/4 151/2/4 160/2/4
f 160/1/4 152/1/4 161/1/4
f 155/4/4 156/4/4 163/4/4
f 154/4/4 155/4/4 163/4/4
f 156/3/4 157/3/4 163/3/4
f 163/3/4 157/3/4 164/3/4
f 158/4/4 159/4/4 165/4/4
f 164/3/4 157/3/4 165/3/4
f 159/4/4 160/4/4 165/4/4
f 157/4/4 158/4/4 165/4/4
f 165/4/4 160/4/4 166/4/4
f 166/4/4 160/4/4 167/4/4
f 160/2/4 161/2/4 168/2/4
f 167/4/4 160/4/4 168/4/4
f 161/1/4 162/1/4 169/1/4
f 168/2/4 161/2/4 169/2/4
f 169/1/4 162/1/4 170/1/4
f 167/4/4 168/4/4 172/4/4
f 166/5/4 167/5/4 172/5/4
f 168/4/4 169/4/4 172/4/4
f 172/4/4 169/4/4 173/4/4
f 172/5/4 173/5/4 174/5/4
f 173/4/4 169/4/4 175/4/4
f 174/5/4 173/5/4 175/5/4
f 169/2/4 170/2/4 176/2/4
f 175/4/4 169/4/4 176/4/4
f 170/1/4 171/1/4 177/1/4
f 176/2/4 170/2/4 177/2/4
f 163/4/4 164/4/4 178/4/4
f 154/4/4 163/4/4 178/4/4
f 164/3/4 165/3/4 179/3/4
f 178/4/4 164/4/4 179/4/4
f 165/3/4 166/3/4 179/3/4
f 179/3/4 166/3/4 180/3/4
f 172/5/4 174/5/4 181/5/4
f 180/3/4 166/3/4 181/3/4
f 166/5/4 172/5/4 181/5/4
f 181/5/4 174/5/4 182/5/4
f 182/5/4 174/5/4 183/5/4
f 175/5/4 176/5/4 184/5/4
f 174/4/4 175/4/4 184/4/4
f 176/5/4 177/5/4 184/5/4
f 184/5/4 177/5/4 185/5/4
f 177/1/4 171/1/4 186/1/4
f 185/5/4 177/5/4 186/5/4
f 186/1/4 171/1/4 187/1/4
f 153/1/4 154/1/4 188/1/4
f 154/4/4 178/4/4 189/4/4
f 188/1/4 154/1/4 189/1/4
f 189/4/4 178/4/4 190/4/4
f 178/3/4 179/3/4 191/3/4
f 190/4/4 178/4/4 191/4/4
f 191/3/4 179/3/4 192/3/4
f 179/4/4 180/4/4 193/4/4
f 192/3/4 179/3/4 193/3/4
f 181/3/4 182/3/4 194/3/4
f 193/4/4 180/4/4 194/4/4
f 180/3/4 181/3/4 194/3/4
f 182/4/4 183/4/4 195/4/4
f 194/3/4 182/3/4 195/3/4
f 183/5/4 174/5/4 196/5/4
f 195/4/4 183/4/4 196/4/4
f 184/4/4 185/4/4 197/4/4
f 196/5/4 174/5/4 197/5/4
f 174/4/4 184/4/4 197/4/4
f 197/4/4 185/4/4 198/4/4
f 185/1/4 186/1/4 199/1/4
f 198/4/4 185/4/4 199/4/4
f 199/1/4 186/1/4 200/1/4
f 189/1/4 190/1/4 201/1/4
f 191/3/4 192/3/4 202/3/4
f 201/1/4 190/1/4 202/1/4
f 190/3/4 191/3/4 202/3/4
f 194/4/4 195/4/4 203/4/4
f 202/3/4 192/3/4 203/3/4
f 195/4/4 196/4/4 203/4/4
f 197/4/4 198/4/4 203/4/4
f 193/4/4 194/4/4 203/4/4
f 196/4/4 197/4/4 203/4/4
f 192/4/4 193/4/4 203/4/4
f 203/4/4 198/4/4 204/4/4
f 198/1/4 199/1/4 205/1/4
f 204/4/4 198/4/4 205/4/4
f 205/1/4 199/1/4 206/1/4
f 202/1/4 203/1/4 207/1/4
f 203/4/4 204/4/4 208/4/4
f 207/1/4 203/1/4 208/1/4
f 204/1/4 205/1/4 209/1/4
f 208/4/4 204/4/4 209/4/4
f 209/1/4 205/1/4 210/1/4
f 208/1/4 209/1/4 211/1/4
f 211/1/4 209/1/4 212/1/4
f 215/1/5 214/1/5 213/1/5
f 216/1/5 214/1/5 215/1/5
f 221/1/5 218/1/5 217/1/5
f 222/1/5 218/1/5 221/1/5
f 223/1/5 220/1/5 219/1/5
f 224/1/5 220/1/5 223/1/5
f 229/1/5 226/1/5 225/1/5
f 230/1/5 226/1/5 229/1/5
f 231/1/5 228/1/5 227/1/5
f 232/1/5 228/1/5 231/1/5
f 237/1/5 234/1/5 233/1/5
f 238/1/5 234/1/5 237/1/5
f 239/1/5 236/1/5 235/1/5
f 240/1/5 236/1/5 239/1/5
f 241/1/6 242/1/6 245/1/6
f 245/1/6 242/1/6 246/1/6
f 243/1/6 244/1/6 247/1/6
f 247/1/6 244/1/6 248/1/6
f 249/1/6 250/1/6 253/1/6
f 253/1/6 250/1/6 254/1/6
f 251/1/6 252/1/6 255/1/6
f 255/1/6 252/1/6 256/1/6
f 257/1/6 258/1/6 261/1/6
f 261/1/6 258/1/6 262/1/6
f 259/1/6 260/1/6 263/1/6
f 263/1/6 260/1/6 264/1/6
f 265/1/6 266/1/6 269/1/6
f 269/1/6 266/1/6 270/1/6
f 267/1/6 268/1/6 271/1/6
f 271/1/6 268/1/6 272/1/6
f 273/1/6 274/1/6 275/1/6
f 275/1/6 274/1/6 276/1/6
