# Blender 4.4.1
# www.blender.org
mtllib sword.mtl
o Object_64
v -0.088670 2.292166 -0.006201
v -0.088670 2.292166 -0.006201
v -0.088670 2.292166 -0.006201
v -0.088670 1.861548 0.424422
v -0.088670 1.861548 0.424422
v -0.088670 1.861548 0.424422
v -0.088670 1.867985 -0.428035
v -0.088670 1.867985 -0.428035
v -0.088670 1.867985 -0.428035
v -0.088670 1.566607 -0.130831
v -0.088670 1.566607 -0.130831
v -0.088670 1.566607 -0.130831
v -0.088670 1.425062 -0.276878
v -0.088670 1.425062 -0.276878
v -0.088670 1.425062 -0.276878
v -0.088670 1.275586 -0.131250
v -0.088670 1.275586 -0.131250
v -0.088670 1.275586 -0.131250
v -0.088670 1.131566 -0.277299
v -0.088670 1.131566 -0.277299
v -0.088670 1.131566 -0.277299
v -0.088670 0.982836 -0.132409
v -0.088670 0.982836 -0.132409
v -0.088670 0.982836 -0.132409
v -0.088670 0.817084 -0.294803
v -0.088670 0.817084 -0.294803
v -0.088670 0.817084 -0.294803
v -0.088670 0.966903 -0.442543
v -0.088670 0.966903 -0.442543
v -0.088670 0.966903 -0.442543
v -0.088670 0.670744 -0.738117
v -0.088670 0.670744 -0.738117
v -0.088670 0.670744 -0.738117
v -0.088670 0.817244 -0.880802
v -0.088670 0.817244 -0.880802
v -0.088670 0.817244 -0.880802
v -0.088670 0.537325 -1.163751
v -0.088670 0.537325 -1.163751
v -0.088670 0.537325 -1.163751
v -0.088670 0.255473 -0.882227
v -0.088670 0.255473 -0.882227
v -0.088670 0.255473 -0.882227
v -0.088670 0.402999 -0.734551
v -0.088670 0.402999 -0.734551
v -0.088670 0.402999 -0.734551
v -0.088670 0.257255 -0.590824
v -0.088670 0.257255 -0.590824
v -0.088670 0.257255 -0.590824
v -0.088670 0.406411 -0.441806
v -0.088670 0.406411 -0.441806
v -0.088670 0.406411 -0.441806
v -0.088670 0.241828 -0.279500
v -0.088670 0.241828 -0.279500
v -0.088670 0.241828 -0.279500
v -0.088670 0.095183 -0.425644
v -0.088670 0.095183 -0.425644
v -0.088670 0.095183 -0.425644
v -0.088670 -0.050560 -0.281925
v -0.088670 -0.050560 -0.281925
v -0.088670 -0.050560 -0.281925
v -0.088670 -0.196467 -0.427692
v -0.088670 -0.196467 -0.427692
v -0.088670 -0.196467 -0.427692
v -0.088670 -0.345971 -0.282046
v -0.088670 -0.345971 -0.282046
v -0.088670 -0.345971 -0.282046
v -0.088670 -0.489979 -0.426041
v -0.088670 -0.489979 -0.426041
v -0.088670 -0.489979 -0.426041
v -0.088670 -0.641441 -0.280256
v -0.088670 -0.641441 -0.280256
v -0.088670 -0.641441 -0.280256
v -0.088670 -0.784093 -0.424380
v -0.088670 -0.784093 -0.424380
v -0.088670 -0.784093 -0.424380
v -0.088670 -0.933898 -0.280240
v -0.088670 -0.933898 -0.280240
v -0.088670 -0.933898 -0.280240
v -0.088670 -1.079731 -0.427111
v -0.088670 -1.079731 -0.427111
v -0.088670 -1.079731 -0.427111
v -0.088670 -1.228788 -0.281911
v -0.088670 -1.228788 -0.281911
v -0.088670 -1.228788 -0.281911
v -0.088670 -1.376272 -0.427158
v -0.088670 -1.376272 -0.427158
v -0.088670 -1.376272 -0.427158
v -0.088670 -1.526614 -0.280856
v -0.088670 -1.526614 -0.280856
v -0.088670 -1.526614 -0.280856
v -0.088670 -1.671429 -0.427337
v -0.088670 -1.671429 -0.427337
v -0.088670 -1.671429 -0.427337
v -0.088670 -1.819932 -0.280882
v -0.088670 -1.819932 -0.280882
v -0.088670 -1.819932 -0.280882
v -0.088670 -1.975108 -0.433971
v -0.088670 -1.975108 -0.433971
v -0.088670 -1.975108 -0.433971
v -0.088670 -2.402122 -0.007145
v -0.088670 -2.402122 -0.007145
v -0.088670 -2.402122 -0.007145
v -0.088670 -1.963412 0.429870
v -0.088670 -1.963412 0.429870
v -0.088670 -1.963412 0.429870
v -0.088670 -1.818061 0.283316
v -0.088670 -1.818061 0.283316
v -0.088670 -1.818061 0.283316
v -0.088670 -1.669869 0.428204
v -0.088670 -1.669869 0.428204
v -0.088670 -1.669869 0.428204
v -0.088670 -1.521820 0.282204
v -0.088670 -1.521820 0.282204
v -0.088670 -1.521820 0.282204
v -0.088670 -1.375504 0.429393
v -0.088670 -1.375504 0.429393
v -0.088670 -1.375504 0.429393
v -0.088670 -1.225849 0.281650
v -0.088670 -1.225849 0.281650
v -0.088670 -1.225849 0.281650
v -0.088670 -1.081239 0.429099
v -0.088670 -1.081239 0.429099
v -0.088670 -1.081239 0.429099
v -0.088670 -0.932250 0.280849
v -0.088670 -0.932250 0.280849
v -0.088670 -0.932250 0.280849
v -0.088670 -0.785291 0.429076
v -0.088670 -0.785291 0.429076
v -0.088670 -0.785291 0.429076
v -0.088670 -0.637179 0.281693
v -0.088670 -0.637179 0.281693
v -0.088670 -0.637179 0.281693
v -0.088670 -0.490014 0.428351
v -0.088670 -0.490014 0.428351
v -0.088670 -0.490014 0.428351
v -0.088670 -0.346107 0.283806
v -0.088670 -0.346107 0.283806
v -0.088670 -0.346107 0.283806
v -0.088670 -0.198210 0.428485
v -0.088670 -0.198210 0.428485
v -0.088670 -0.198210 0.428485
v -0.088670 -0.048617 0.282083
v -0.088670 -0.048617 0.282083
v -0.088670 -0.048617 0.282083
v -0.088670 0.096854 0.428357
v -0.088670 0.096854 0.428357
v -0.088670 0.096854 0.428357
v -0.088670 0.245727 0.279958
v -0.088670 0.245727 0.279958
v -0.088670 0.245727 0.279958
v -0.088670 0.405555 0.442987
v -0.088670 0.405555 0.442987
v -0.088670 0.405555 0.442987
v -0.088670 0.256987 0.590451
v -0.088670 0.256987 0.590451
v -0.088670 0.256987 0.590451
v -0.088670 0.406109 0.739894
v -0.088670 0.406109 0.739894
v -0.088670 0.406109 0.739894
v -0.088670 0.258386 0.886877
v -0.088670 0.258386 0.886877
v -0.088670 0.258386 0.886877
v -0.088670 0.540616 1.163826
v -0.088670 0.540616 1.163826
v -0.088670 0.540616 1.163826
v -0.088670 0.817373 0.885675
v -0.088670 0.817373 0.885675
v -0.088670 0.817373 0.885675
v -0.088670 0.671918 0.737909
v -0.088670 0.671918 0.737909
v -0.088670 0.671918 0.737909
v -0.088670 0.966341 0.443637
v -0.088670 0.966341 0.443637
v -0.088670 0.966341 0.443637
v -0.088670 0.819382 0.296702
v -0.088670 0.819382 0.296702
v -0.088670 0.819382 0.296702
v -0.088670 0.981121 0.133258
v -0.088670 0.981121 0.133258
v -0.088670 0.981121 0.133258
v -0.088670 1.131650 0.282552
v -0.088670 1.131650 0.282552
v -0.088670 1.131650 0.282552
v -0.088670 1.277592 0.136099
v -0.088670 1.277592 0.136099
v -0.088670 1.277592 0.136099
v -0.088670 1.423909 0.282302
v -0.088670 1.423909 0.282302
v -0.088670 1.423909 0.282302
v -0.088670 1.572502 0.135376
v -0.088670 1.572502 0.135376
v -0.088670 1.572502 0.135376
v 0.111844 2.292166 -0.006201
v 0.111844 2.292166 -0.006201
v 0.111844 1.861548 0.424422
v 0.111844 1.861548 0.424422
v 0.111844 1.867985 -0.428035
v 0.111844 1.867985 -0.428035
v 0.111844 1.566607 -0.130831
v 0.111844 1.566607 -0.130831
v 0.111844 1.425062 -0.276878
v 0.111844 1.425062 -0.276878
v 0.111844 1.275586 -0.131250
v 0.111844 1.275586 -0.131250
v 0.111844 1.131566 -0.277299
v 0.111844 1.131566 -0.277299
v 0.111844 0.982836 -0.132409
v 0.111844 0.982836 -0.132409
v 0.111844 0.817084 -0.294803
v 0.111844 0.817084 -0.294803
v 0.111844 0.817084 -0.294803
v 0.111844 0.966903 -0.442543
v 0.111844 0.966903 -0.442543
v 0.111844 0.670744 -0.738117
v 0.111844 0.670744 -0.738117
v 0.111844 0.817244 -0.880802
v 0.111844 0.817244 -0.880802
v 0.111844 0.537325 -1.163751
v 0.111844 0.537325 -1.163751
v 0.111844 0.255473 -0.882227
v 0.111844 0.255473 -0.882227
v 0.111844 0.402999 -0.734551
v 0.111844 0.402999 -0.734551
v 0.111844 0.257255 -0.590824
v 0.111844 0.257255 -0.590824
v 0.111844 0.406411 -0.441806
v 0.111844 0.406411 -0.441806
v 0.111844 0.241828 -0.279500
v 0.111844 0.241828 -0.279500
v 0.111844 0.095183 -0.425644
v 0.111844 0.095183 -0.425644
v 0.111844 -0.050560 -0.281925
v 0.111844 -0.050560 -0.281925
v 0.111844 -0.196467 -0.427692
v 0.111844 -0.196467 -0.427692
v 0.111844 -0.345971 -0.282046
v 0.111844 -0.345971 -0.282046
v 0.111844 -0.489979 -0.426041
v 0.111844 -0.489979 -0.426041
v 0.111844 -0.641441 -0.280256
v 0.111844 -0.641441 -0.280256
v 0.111844 -0.784093 -0.424380
v 0.111844 -0.784093 -0.424380
v 0.111844 -0.933898 -0.280240
v 0.111844 -0.933898 -0.280240
v 0.111844 -1.079731 -0.427111
v 0.111844 -1.079731 -0.427111
v 0.111844 -1.228788 -0.281911
v 0.111844 -1.228788 -0.281911
v 0.111844 -1.376272 -0.427158
v 0.111844 -1.376272 -0.427158
v 0.111844 -1.526614 -0.280856
v 0.111844 -1.526614 -0.280856
v 0.111844 -1.671429 -0.427337
v 0.111844 -1.671429 -0.427337
v 0.111844 -1.819932 -0.280882
v 0.111844 -1.819932 -0.280882
v 0.111844 -1.975108 -0.433971
v 0.111844 -1.975108 -0.433971
v 0.111844 -2.402122 -0.007145
v 0.111844 -2.402122 -0.007145
v 0.111844 -1.963412 0.429870
v 0.111844 -1.963412 0.429870
v 0.111844 -1.818061 0.283316
v 0.111844 -1.818061 0.283316
v 0.111844 -1.669869 0.428204
v 0.111844 -1.669869 0.428204
v 0.111844 -1.521820 0.282204
v 0.111844 -1.521820 0.282204
v 0.111844 -1.375504 0.429393
v 0.111844 -1.375504 0.429393
v 0.111844 -1.225849 0.281650
v 0.111844 -1.225849 0.281650
v 0.111844 -1.081239 0.429099
v 0.111844 -1.081239 0.429099
v 0.111844 -0.932250 0.280849
v 0.111844 -0.932250 0.280849
v 0.111844 -0.785291 0.429076
v 0.111844 -0.785291 0.429076
v 0.111844 -0.637179 0.281693
v 0.111844 -0.637179 0.281693
v 0.111844 -0.490014 0.428351
v 0.111844 -0.490014 0.428351
v 0.111844 -0.346107 0.283806
v 0.111844 -0.346107 0.283806
v 0.111844 -0.198210 0.428485
v 0.111844 -0.198210 0.428485
v 0.111844 -0.048617 0.282083
v 0.111844 -0.048617 0.282083
v 0.111844 0.096854 0.428357
v 0.111844 0.096854 0.428357
v 0.111844 0.096854 0.428357
v 0.111844 0.245727 0.279958
v 0.111844 0.245727 0.279958
v 0.111844 0.245727 0.279958
v 0.111844 0.405555 0.442987
v 0.111844 0.405555 0.442987
v 0.111844 0.256987 0.590451
v 0.111844 0.256987 0.590451
v 0.111844 0.406109 0.739894
v 0.111844 0.406109 0.739894
v 0.111844 0.258386 0.886877
v 0.111844 0.258386 0.886877
v 0.111844 0.540616 1.163826
v 0.111844 0.540616 1.163826
v 0.111844 0.817373 0.885675
v 0.111844 0.817373 0.885675
v 0.111844 0.671918 0.737909
v 0.111844 0.671918 0.737909
v 0.111844 0.966341 0.443637
v 0.111844 0.966341 0.443637
v 0.111844 0.819382 0.296702
v 0.111844 0.819382 0.296702
v 0.111844 0.981121 0.133258
v 0.111844 0.981121 0.133258
v 0.111844 1.131650 0.282552
v 0.111844 1.131650 0.282552
v 0.111844 1.277592 0.136099
v 0.111844 1.277592 0.136099
v 0.111844 1.423909 0.282302
v 0.111844 1.423909 0.282302
v 0.111844 1.572502 0.135376
v 0.111844 1.572502 0.135376
vn -0.0000 0.7071 0.7071
vn -0.0000 0.7051 -0.7091
vn -0.0000 -0.7022 -0.7120
vn -0.0000 0.7181 -0.6960
vn -0.0000 -0.6978 -0.7163
vn -0.0000 0.7120 -0.7021
vn -0.0000 0.6998 -0.7143
vn -0.0000 0.7021 0.7120
vn -0.0000 0.7064 -0.7078
vn -0.0000 0.6977 0.7164
vn -0.0000 0.7109 -0.7033
vn -0.0000 -0.7067 -0.7075
vn -0.0000 -0.7075 0.7067
vn -0.0000 -0.7068 0.7074
vn -0.0000 0.7059 -0.7083
vn -0.0000 -0.7021 -0.7120
vn -0.0000 0.7068 -0.7074
vn -0.0000 0.7071 -0.7071
vn -0.0000 -0.6935 -0.7205
vn -0.0000 0.7107 -0.7035
vn -0.0000 -0.6933 -0.7206
vn -0.0000 0.7096 -0.7046
vn -0.0000 0.7017 -0.7125
vn -0.0000 -0.6974 -0.7167
vn -0.0000 0.7111 -0.7031
vn -0.0000 0.7023 -0.7119
vn -0.0000 -0.7070 -0.7073
vn -0.0000 -0.7057 0.7085
vn -0.0000 0.7100 0.7042
vn -0.0000 -0.6991 0.7150
vn -0.0000 0.7022 0.7120
vn -0.0000 -0.7092 0.7050
vn -0.0000 0.7025 0.7116
vn -0.0000 -0.7139 0.7002
vn -0.0000 0.7053 0.7089
vn -0.0000 -0.7101 0.7041
vn -0.0000 0.7054 0.7089
vn -0.0000 -0.7059 0.7083
vn -0.0000 0.7087 0.7055
vn -0.0000 -0.6993 0.7148
vn -0.0000 0.6994 0.7147
vn -0.0000 -0.7091 0.7052
vn -0.0000 0.7060 0.7082
vn -0.0000 -0.7141 0.7001
vn -0.0000 -0.7045 -0.7097
vn -0.0000 -0.7079 0.7063
vn -0.0000 -0.7053 -0.7089
vn -0.0000 -0.7004 0.7138
vn -0.0000 0.7089 0.7053
vn -0.0000 0.7127 -0.7015
vn -0.0000 0.7069 0.7073
vn -0.0000 0.7070 -0.7072
vn -0.0000 0.7108 0.7034
vn -0.0000 -0.7042 0.7100
vn -0.0000 0.7083 0.7059
vn -0.0000 0.7031 0.7111
vn -0.0000 -0.7071 0.7071
vn -1.0000 -0.0000 -0.0000
vn 1.0000 -0.0000 -0.0000
vt 0.734135 0.185230
vt 0.734135 0.053488
vt 0.777511 0.053488
vt 0.777511 0.185230
vt 0.821857 0.053488
vt 0.821857 0.182901
vt 0.778480 0.182901
vt 0.778480 0.053488
vt 0.823102 0.479611
vt 0.823102 0.388045
vt 0.866479 0.388045
vt 0.866479 0.479611
vt 0.999239 0.004380
vt 0.999239 0.048378
vt 0.955862 0.048378
vt 0.955862 0.004380
vt 0.911517 0.048378
vt 0.911517 0.003233
vt 0.954894 0.003233
vt 0.954894 0.048378
vt 0.616376 0.954288
vt 0.616376 0.998660
vt 0.572999 0.998660
vt 0.572999 0.954288
vt 0.920586 0.226231
vt 0.920586 0.181313
vt 0.963963 0.181313
vt 0.963963 0.226231
vt 0.744954 0.318972
vt 0.744954 0.369170
vt 0.701577 0.369170
vt 0.701577 0.318972
vt 0.858169 0.906819
vt 0.858169 0.861301
vt 0.901546 0.861301
vt 0.901546 0.906819
vt 0.867493 0.053488
vt 0.867493 0.144004
vt 0.824116 0.144004
vt 0.824116 0.053488
vt 0.706035 0.998528
vt 0.706035 0.954288
vt 0.749412 0.954288
vt 0.749412 0.998528
vt 0.858169 0.860333
vt 0.858169 0.774231
vt 0.901546 0.774231
vt 0.901546 0.860333
vt 0.901546 0.687084
vt 0.901546 0.773263
vt 0.858169 0.773263
vt 0.858169 0.687084
vt 0.902514 0.814163
vt 0.902514 0.769006
vt 0.945891 0.769006
vt 0.945891 0.814163
vt 0.660721 0.954288
vt 0.660721 0.998569
vt 0.617344 0.998569
vt 0.617344 0.954288
vt 0.834614 0.377994
vt 0.834614 0.332383
vt 0.877990 0.332383
vt 0.877990 0.377994
vt 0.734135 0.052519
vt 0.734135 0.002514
vt 0.777512 0.002514
vt 0.777512 0.052519
vt 0.946860 0.555824
vt 0.946860 0.511037
vt 0.990237 0.511037
vt 0.990237 0.555824
vt 0.661690 0.998567
vt 0.661690 0.954288
vt 0.705067 0.954288
vt 0.705067 0.998567
vt 0.527685 0.954288
vt 0.527685 0.998905
vt 0.484308 0.998905
vt 0.484308 0.954288
vt 0.858169 0.952940
vt 0.858169 0.907788
vt 0.901546 0.907788
vt 0.901546 0.952940
vt 0.769478 0.998343
vt 0.769478 0.954288
vt 0.812855 0.954288
vt 0.812855 0.998343
vt 0.876241 0.226791
vt 0.876241 0.181313
vt 0.919618 0.181313
vt 0.919618 0.226791
vt 0.999516 0.434094
vt 0.999516 0.477962
vt 0.956139 0.477962
vt 0.956139 0.434094
vt 0.956185 0.105070
vt 0.956185 0.150042
vt 0.912808 0.150042
vt 0.912808 0.105070
vt 0.946860 0.814163
vt 0.946860 0.769388
vt 0.990237 0.769388
vt 0.990237 0.814163
vt 0.911793 0.479109
vt 0.911793 0.434094
vt 0.955170 0.434094
vt 0.955170 0.479109
vt 0.946860 0.859911
vt 0.946860 0.815131
vt 0.990237 0.815131
vt 0.990237 0.859911
vt 0.878959 0.377994
vt 0.878959 0.332613
vt 0.922336 0.332613
vt 0.922336 0.377994
vt 0.528653 0.998848
vt 0.528653 0.954288
vt 0.572030 0.954288
vt 0.572030 0.998848
vt 0.515968 0.414026
vt 0.484308 0.381879
vt 0.515213 0.351441
vt 0.546873 0.383588
vt 0.790268 0.377994
vt 0.790268 0.330839
vt 0.833645 0.330839
vt 0.833645 0.377994
vt 0.745922 0.509572
vt 0.745922 0.378963
vt 0.789299 0.378963
vt 0.789299 0.509572
vt 0.701577 0.509572
vt 0.701577 0.375615
vt 0.744954 0.375614
vt 0.744954 0.509572
vt 0.902514 0.998325
vt 0.902514 0.953673
vt 0.945891 0.953673
vt 0.945891 0.998325
vt 0.945239 0.640292
vt 0.945239 0.595458
vt 0.988616 0.595458
vt 0.988616 0.640292
vt 0.956185 0.059120
vt 0.956185 0.104102
vt 0.912808 0.104102
vt 0.912808 0.059120
vt 0.923304 0.377994
vt 0.923304 0.333097
vt 0.966681 0.333097
vt 0.966681 0.377994
vt 0.867171 0.048378
vt 0.867171 0.002885
vt 0.910548 0.002885
vt 0.910548 0.048378
vt 0.990237 0.952320
vt 0.990237 0.996998
vt 0.946860 0.996998
vt 0.946860 0.952320
vt 0.876241 0.319862
vt 0.876241 0.274394
vt 0.919618 0.274394
vt 0.919618 0.319862
vt 0.902514 0.952704
vt 0.902514 0.907550
vt 0.945891 0.907550
vt 0.945891 0.952704
vt 0.945891 0.815131
vt 0.945891 0.860333
vt 0.902514 0.860333
vt 0.902514 0.815131
vt 0.963963 0.273684
vt 0.963963 0.318629
vt 0.920586 0.318629
vt 0.920586 0.273684
vt 0.813823 0.998412
vt 0.813823 0.954288
vt 0.857200 0.954288
vt 0.857200 0.998412
vt 0.946860 0.905637
vt 0.946860 0.860880
vt 0.990237 0.860880
vt 0.990237 0.905637
vt 0.902514 0.906582
vt 0.902514 0.861301
vt 0.945891 0.861301
vt 0.945891 0.906582
vt 0.858169 0.998536
vt 0.858169 0.953909
vt 0.901546 0.953909
vt 0.901546 0.998536
vt 0.919618 0.227953
vt 0.919618 0.273425
vt 0.876241 0.273425
vt 0.876241 0.227953
vt 0.778480 0.051903
vt 0.778480 0.002514
vt 0.821857 0.002514
vt 0.821857 0.051903
vt 0.902514 0.555824
vt 0.902514 0.510541
vt 0.945891 0.510541
vt 0.945891 0.555824
vt 0.831895 0.226984
vt 0.831895 0.181313
vt 0.875272 0.181313
vt 0.875272 0.226984
vt 0.911793 0.433125
vt 0.911793 0.388045
vt 0.955170 0.388045
vt 0.955170 0.433125
vt 0.867448 0.473585
vt 0.867448 0.388045
vt 0.910825 0.388045
vt 0.910825 0.473585
vt 0.868462 0.144004
vt 0.868462 0.059121
vt 0.911839 0.059121
vt 0.911839 0.144004
vt 0.988616 0.641261
vt 0.988616 0.686116
vt 0.945239 0.686116
vt 0.945239 0.641261
vt 0.875272 0.227953
vt 0.875272 0.318004
vt 0.831895 0.318004
vt 0.831895 0.227953
vt 0.920586 0.272715
vt 0.920586 0.227759
vt 0.963963 0.227759
vt 0.963963 0.272715
vt 0.745922 0.374646
vt 0.745922 0.324903
vt 0.789299 0.324903
vt 0.789299 0.374646
vt 0.822826 0.048378
vt 0.822826 0.002514
vt 0.866202 0.002514
vt 0.866203 0.048378
vt 0.946860 0.768420
vt 0.946860 0.723693
vt 0.990237 0.723693
vt 0.990237 0.768420
vt 0.946860 0.951352
vt 0.946860 0.906606
vt 0.990237 0.906606
vt 0.990237 0.951352
vt 0.945891 0.687084
vt 0.945891 0.732290
vt 0.902515 0.732290
vt 0.902515 0.687084
vt 0.858169 0.598970
vt 0.858169 0.510541
vt 0.901546 0.510541
vt 0.901546 0.598970
vt 0.000484 0.857218
vt 0.179079 0.912175
vt 0.064517 0.974855
vt 0.156739 0.870657
vt 0.196169 0.848738
vt 0.174570 0.809771
vt 0.214080 0.787462
vt 0.039743 0.835959
vt 0.192900 0.748017
vt 0.018680 0.796389
vt 0.232103 0.725907
vt 0.057988 0.774537
vt 0.210485 0.686705
vt 0.036334 0.735216
vt 0.249514 0.664375
vt 0.076101 0.713136
vt 0.228273 0.626001
vt 0.054289 0.674153
vt 0.267744 0.603428
vt 0.094121 0.652243
vt 0.246612 0.564780
vt 0.072290 0.612725
vt 0.285935 0.542604
vt 0.111889 0.590944
vt 0.264551 0.503454
vt 0.090397 0.551479
vt 0.303245 0.481942
vt 0.129150 0.530398
vt 0.000484 0.291980
vt 0.080159 0.345891
vt 0.040608 0.367512
vt 0.096881 0.290881
vt 0.075158 0.251645
vt 0.241266 0.263852
vt 0.314197 0.219008
vt 0.335652 0.257841
vt 0.219538 0.223470
vt 0.353574 0.196941
vt 0.258869 0.202186
vt 0.331968 0.158621
vt 0.237523 0.162867
vt 0.412104 0.114349
vt 0.277115 0.141063
vt 0.350640 0.000484
vt 0.234900 0.063375
vt 0.141707 0.364225
vt 0.102005 0.385991
vt 0.296474 0.279798
vt 0.197441 0.287369
vt 0.175983 0.247872
vt 0.281827 0.442616
vt 0.108113 0.490902
vt 0.325525 0.418324
vt 0.126083 0.429664
vt 0.319985 0.324142
vt 0.147599 0.468754
vt 0.165713 0.407379
vt 0.386082 0.436834
vt 0.347387 0.458346
vt 0.403104 0.381475
vt 0.359762 0.302028
vt 0.483339 0.435052
vt 0.407764 0.476436
vt 0.441630 0.359743
vt 0.822826 0.166385
vt 0.822826 0.053488
vt 0.823148 0.143134
vt 0.702073 0.186198
vt 0.830927 0.318004
vt 0.701577 0.318004
vt 0.701577 0.317874
vt 0.620286 0.865025
vt 0.644543 0.953320
vt 0.484308 0.862030
vt 0.569412 0.838010
vt 0.557378 0.794435
vt 0.662811 0.853738
vt 0.600437 0.782264
vt 0.651116 0.810134
vt 0.588212 0.739240
vt 0.693903 0.798380
vt 0.632300 0.726600
vt 0.682268 0.754995
vt 0.618537 0.678799
vt 0.730436 0.740866
vt 0.484308 0.534553
vt 0.566408 0.510541
vt 0.578545 0.553957
vt 0.550833 0.604343
vt 0.507570 0.616186
vt 0.821215 0.419658
vt 0.822133 0.477577
vt 0.790268 0.509572
vt 0.790268 0.388045
vt 0.858169 0.686116
vt 0.858583 0.599938
vt 0.903738 0.600159
vt 0.943925 0.641877
vt 0.944270 0.686116
vt 0.801579 0.678877
vt 0.742494 0.784758
vt 0.829582 0.760084
vt 0.857200 0.709166
vt 0.845469 0.666467
vt 0.622512 0.541598
vt 0.634650 0.585225
vt 0.575272 0.691014
vt 0.682312 0.572281
vt 0.788332 0.630659
vt 0.700608 0.414731
vt 0.513733 0.417135
vt 0.668926 0.383266
vt 0.606005 0.509572
vt 0.700291 0.351229
vt 0.546922 0.320135
vt 0.668728 0.319180
vt 0.515294 0.287590
vt 0.700591 0.287549
vt 0.546737 0.255707
vt 0.668652 0.255153
vt 0.515348 0.223440
vt 0.700570 0.223891
vt 0.547141 0.191914
vt 0.668521 0.191639
vt 0.515982 0.159486
vt 0.700608 0.159869
vt 0.515665 0.095860
vt 0.700495 0.095993
vt 0.668747 0.127807
vt 0.547181 0.128647
vt 0.546837 0.064728
vt 0.669246 0.064840
vt 0.515351 0.032365
vt 0.700566 0.032867
vt 0.668917 0.000484
vt 0.546906 0.000822
vt 0.670030 0.528498
vt 0.831414 0.618420
vt 0.819684 0.575722
vt 0.713013 0.516494
vt 0.701577 0.185230
vt 0.701577 0.000484
vt 0.732984 0.032189
vt 0.733166 0.154201
s 0
usemtl 
f 2/1/1 4/2/1 195/3/1
f 2/1/1 195/3/1 194/4/1
f 7/5/2 1/6/2 193/7/2
f 7/5/2 193/7/2 197/8/2
f 11/9/3 8/10/3 198/11/3
f 11/9/3 198/11/3 200/12/3
f 13/13/4 10/14/4 199/15/4
f 13/13/4 199/15/4 201/16/4
f 17/17/5 14/18/5 202/19/5
f 17/17/5 202/19/5 204/20/5
f 19/21/6 16/22/6 203/23/6
f 19/21/6 203/23/6 205/24/6
f 23/25/5 20/26/5 206/27/5
f 23/25/5 206/27/5 208/28/5
f 25/29/7 22/30/7 207/31/7
f 25/29/7 207/31/7 209/32/7
f 30/33/8 27/34/8 211/35/8
f 30/33/8 211/35/8 213/36/8
f 31/37/9 28/38/9 212/39/9
f 31/37/9 212/39/9 214/40/9
f 36/41/10 33/42/10 215/43/10
f 36/41/10 215/43/10 217/44/10
f 37/45/11 34/46/11 216/47/11
f 37/45/11 216/47/11 218/48/11
f 40/49/12 38/50/12 219/51/12
f 40/49/12 219/51/12 220/52/12
f 45/53/13 42/54/13 221/55/13
f 45/53/13 221/55/13 223/56/13
f 46/57/3 43/58/3 222/59/3
f 46/57/3 222/59/3 224/60/3
f 51/61/14 48/62/14 225/63/14
f 51/61/14 225/63/14 227/64/14
f 53/65/3 49/66/3 226/67/3
f 53/65/3 226/67/3 229/68/3
f 55/69/15 52/70/15 228/71/15
f 55/69/15 228/71/15 230/72/15
f 59/73/16 56/74/16 231/75/16
f 59/73/16 231/75/16 233/76/16
f 61/77/17 58/78/17 232/79/17
f 61/77/17 232/79/17 234/80/17
f 65/81/5 62/82/5 235/83/5
f 65/81/5 235/83/5 237/84/5
f 67/85/18 64/86/18 236/87/18
f 67/85/18 236/87/18 238/88/18
f 71/89/19 68/90/19 239/91/19
f 71/89/19 239/91/19 241/92/19
f 73/93/20 70/94/20 240/95/20
f 73/93/20 240/95/20 242/96/20
f 77/97/21 74/98/21 243/99/21
f 77/97/21 243/99/21 245/100/21
f 79/101/22 76/102/22 244/103/22
f 79/101/22 244/103/22 246/104/22
f 83/105/5 80/106/5 247/107/5
f 83/105/5 247/107/5 249/108/5
f 85/109/23 82/110/23 248/111/23
f 85/109/23 248/111/23 250/112/23
f 89/113/24 86/114/24 251/115/24
f 89/113/24 251/115/24 253/116/24
f 91/117/25 88/118/25 252/119/25
f 91/117/25 252/119/25 254/120/25
f 95/121/3 92/122/3 255/123/3
f 95/121/3 255/123/3 257/124/3
f 97/125/26 94/126/26 256/127/26
f 97/125/26 256/127/26 258/128/26
f 100/129/27 98/130/27 259/131/27
f 100/129/27 259/131/27 260/132/27
f 105/133/28 102/134/28 261/135/28
f 105/133/28 261/135/28 263/136/28
f 106/137/29 103/138/29 262/139/29
f 106/137/29 262/139/29 264/140/29
f 111/141/30 108/142/30 265/143/30
f 111/141/30 265/143/30 267/144/30
f 113/145/31 110/146/31 266/147/31
f 113/145/31 266/147/31 268/148/31
f 117/149/32 114/150/32 269/151/32
f 117/149/32 269/151/32 271/152/32
f 119/153/33 116/154/33 270/155/33
f 119/153/33 270/155/33 272/156/33
f 123/157/34 120/158/34 273/159/34
f 123/157/34 273/159/34 275/160/34
f 125/161/35 122/162/35 274/163/35
f 125/161/35 274/163/35 276/164/35
f 129/165/36 126/166/36 277/167/36
f 129/165/36 277/167/36 279/168/36
f 131/169/37 128/170/37 278/171/37
f 131/169/37 278/171/37 280/172/37
f 135/173/38 132/174/38 281/175/38
f 135/173/38 281/175/38 283/176/38
f 136/177/39 133/178/39 282/179/39
f 136/177/39 282/179/39 284/180/39
f 141/181/40 138/182/40 285/183/40
f 141/181/40 285/183/40 287/184/40
f 143/185/41 140/186/41 286/187/41
f 143/185/41 286/187/41 288/188/41
f 147/189/42 144/190/42 289/191/42
f 147/189/42 289/191/42 292/192/42
f 149/193/43 146/194/43 291/195/43
f 149/193/43 291/195/43 294/196/43
f 153/197/44 150/198/44 295/199/44
f 153/197/44 295/199/44 297/200/44
f 154/201/45 151/202/45 296/203/45
f 154/201/45 296/203/45 298/204/45
f 159/205/46 156/206/46 299/207/46
f 159/205/46 299/207/46 301/208/46
f 160/209/47 157/210/47 300/211/47
f 160/209/47 300/211/47 302/212/47
f 165/213/48 162/214/48 303/215/48
f 165/213/48 303/215/48 305/216/48
f 167/217/49 163/218/49 304/219/49
f 167/217/49 304/219/49 307/220/49
f 169/221/50 166/222/50 306/223/50
f 169/221/50 306/223/50 308/224/50
f 174/225/51 171/226/51 309/227/51
f 174/225/51 309/227/51 311/228/51
f 175/229/52 172/230/52 310/231/52
f 175/229/52 310/231/52 312/232/52
f 178/233/53 176/234/53 313/235/53
f 178/233/53 313/235/53 314/236/53
f 183/237/54 180/238/54 315/239/54
f 183/237/54 315/239/54 317/240/54
f 184/241/55 181/242/55 316/243/55
f 184/241/55 316/243/55 318/244/55
f 189/245/14 186/246/14 319/247/14
f 189/245/14 319/247/14 321/248/14
f 191/249/56 188/250/56 320/251/56
f 191/249/56 320/251/56 322/252/56
f 6/253/57 192/254/57 323/255/57
f 6/253/57 323/255/57 196/256/57
f 104/257/58 99/258/58 101/259/58
f 99/258/58 104/257/58 96/260/58
f 96/260/58 104/257/58 93/261/58
f 93/261/58 104/257/58 90/262/58
f 90/262/58 104/257/58 87/263/58
f 87/263/58 104/257/58 107/264/58
f 107/264/58 84/265/58 87/263/58
f 84/265/58 107/264/58 109/266/58
f 84/265/58 109/266/58 81/267/58
f 81/267/58 109/266/58 112/268/58
f 81/267/58 112/268/58 78/269/58
f 78/269/58 112/268/58 115/270/58
f 78/269/58 115/270/58 75/271/58
f 75/271/58 115/270/58 118/272/58
f 75/271/58 118/272/58 72/273/58
f 72/273/58 118/272/58 121/274/58
f 72/273/58 121/274/58 69/275/58
f 69/275/58 121/274/58 124/276/58
f 69/275/58 124/276/58 66/277/58
f 66/277/58 124/276/58 127/278/58
f 66/277/58 127/278/58 63/279/58
f 63/279/58 127/278/58 130/280/58
f 63/279/58 130/280/58 60/281/58
f 60/281/58 130/280/58 134/282/58
f 60/281/58 134/282/58 57/283/58
f 57/283/58 134/282/58 137/284/58
f 164/285/58 158/286/58 161/287/58
f 158/286/58 164/285/58 170/288/58
f 170/288/58 164/285/58 168/289/58
f 179/290/58 18/291/58 21/292/58
f 18/291/58 179/290/58 182/293/58
f 18/291/58 182/293/58 15/294/58
f 15/294/58 182/293/58 185/295/58
f 185/295/58 12/296/58 15/294/58
f 12/296/58 185/295/58 187/297/58
f 12/296/58 187/297/58 9/298/58
f 9/298/58 187/297/58 190/299/58
f 9/298/58 190/299/58 3/300/58
f 3/300/58 190/299/58 5/301/58
f 158/286/58 152/302/58 155/303/58
f 152/302/58 158/286/58 24/304/58
f 24/304/58 158/286/58 21/292/58
f 21/292/58 158/286/58 177/305/58
f 21/292/58 177/305/58 179/290/58
f 177/305/58 158/286/58 173/306/58
f 173/306/58 158/286/58 170/288/58
f 137/284/58 54/307/58 57/283/58
f 54/307/58 137/284/58 139/308/58
f 54/307/58 139/308/58 50/309/58
f 145/310/58 26/311/58 142/312/58
f 26/311/58 145/310/58 148/313/58
f 26/311/58 148/313/58 24/304/58
f 24/304/58 148/313/58 152/302/58
f 50/309/58 44/314/58 47/315/58
f 44/314/58 50/309/58 32/316/58
f 32/316/58 50/309/58 29/317/58
f 29/317/58 50/309/58 142/312/58
f 142/312/58 50/309/58 139/308/58
f 29/317/58 142/312/58 26/311/58
f 44/314/58 39/318/58 41/319/58
f 39/318/58 44/314/58 35/320/58
f 35/320/58 44/314/58 32/316/58
f 290/321/59 210/322/59 293/323/59
f 195/324/59 197/325/59 193/326/59 194/327/59
f 200/328/59 198/329/59 196/330/59 323/331/59
f 321/332/59 202/333/59 200/328/59 323/331/59
f 202/333/59 321/332/59 319/334/59 204/335/59
f 317/336/59 206/337/59 204/335/59 319/334/59
f 206/337/59 317/336/59 315/338/59 208/339/59
f 313/340/59 211/341/59 208/339/59 315/338/59
f 305/342/59 303/343/59 301/344/59 309/345/59 307/346/59
f 215/347/59 223/348/59 221/349/59 217/350/59
f 219/351/58 221/352/58 223/353/58 215/354/58 217/355/58
f 227/356/58 213/357/58 215/358/58 223/359/58 225/360/58
f 299/361/59 297/362/59 311/363/59 309/345/59 301/344/59
f 297/362/59 295/364/59 313/340/59 311/363/59
f 213/357/59 211/341/59 229/365/59 227/356/59
f 211/341/59 313/340/59 295/364/59 229/365/59
f 263/366/59 259/367/59 257/124/59 265/368/59
f 263/366/59 261/369/59 259/367/59
f 255/123/59 267/370/59 265/368/59 257/124/59
f 267/370/59 255/123/59 253/371/59 269/372/59
f 251/373/59 271/374/59 269/372/59 253/371/59
f 271/374/59 251/373/59 249/375/59 273/376/59
f 247/377/59 275/378/59 273/376/59 249/375/59
f 275/378/59 247/377/59 245/379/59 277/380/59
f 243/381/59 279/382/59 277/380/59 245/379/59
f 239/383/59 283/384/59 281/385/59 241/386/59
f 279/382/59 243/381/59 241/386/59 281/385/59
f 283/384/59 239/383/59 237/387/59 285/388/59
f 235/389/59 287/390/59 285/388/59 237/387/59
f 235/389/58 287/390/58 289/391/58 233/392/58
f 292/393/58 295/364/58 229/365/58 231/394/58 233/395/58 289/396/58
f 231/397/59 292/398/59 289/399/59 233/400/59
l 227 215
