# Blender 4.4.1
# www.blender.org
mtllib arrow.mtl
o 円柱
v 0.000000 0.000000 -0.050000
v 0.000000 0.800000 -0.050000
v 0.009755 0.000000 -0.049039
v 0.009755 0.800000 -0.049039
v 0.019134 0.000000 -0.046194
v 0.019134 0.800000 -0.046194
v 0.027779 0.000000 -0.041573
v 0.027779 0.800000 -0.041573
v 0.035355 0.000000 -0.035355
v 0.035355 0.800000 -0.035355
v 0.041573 0.000000 -0.027779
v 0.041573 0.800000 -0.027779
v 0.046194 0.000000 -0.019134
v 0.046194 0.800000 -0.019134
v 0.049039 0.000000 -0.009755
v 0.049039 0.800000 -0.009755
v 0.050000 0.000000 0.000000
v 0.050000 0.800000 0.000000
v 0.049039 0.000000 0.009755
v 0.049039 0.800000 0.009755
v 0.046194 0.000000 0.019134
v 0.046194 0.800000 0.019134
v 0.041573 0.000000 0.027779
v 0.041573 0.800000 0.027779
v 0.035355 0.000000 0.035355
v 0.035355 0.800000 0.035355
v 0.027779 0.000000 0.041573
v 0.027779 0.800000 0.041573
v 0.019134 0.000000 0.046194
v 0.019134 0.800000 0.046194
v 0.009755 0.000000 0.049039
v 0.009755 0.800000 0.049039
v 0.000000 0.000000 0.050000
v 0.000000 0.800000 0.050000
v -0.009755 0.000000 0.049039
v -0.009755 0.800000 0.049039
v -0.019134 0.000000 0.046194
v -0.019134 0.800000 0.046194
v -0.027779 0.000000 0.041573
v -0.027779 0.800000 0.041573
v -0.035355 0.000000 0.035355
v -0.035355 0.800000 0.035355
v -0.041573 0.000000 0.027779
v -0.041573 0.800000 0.027779
v -0.046194 0.000000 0.019134
v -0.046194 0.800000 0.019134
v -0.049039 0.000000 0.009755
v -0.049039 0.800000 0.009755
v -0.050000 0.000000 0.000000
v -0.050000 0.800000 0.000000
v -0.049039 0.000000 -0.009755
v -0.049039 0.800000 -0.009755
v -0.046194 0.000000 -0.019134
v -0.046194 0.800000 -0.019134
v -0.041573 0.000000 -0.027779
v -0.041573 0.800000 -0.027779
v -0.035355 0.000000 -0.035355
v -0.035355 0.800000 -0.035355
v -0.027779 0.000000 -0.041573
v -0.027779 0.800000 -0.041573
v -0.019134 0.000000 -0.046194
v -0.019134 0.800000 -0.046194
v -0.009755 0.000000 -0.049039
v -0.009755 0.800000 -0.049039
v 0.000000 0.710000 -0.100000
v 0.019509 0.710000 -0.098079
v 0.038268 0.710000 -0.092388
v 0.055557 0.710000 -0.083147
v 0.070711 0.710000 -0.070711
v 0.083147 0.710000 -0.055557
v 0.092388 0.710000 -0.038268
v 0.098079 0.710000 -0.019509
v 0.100000 0.710000 0.000000
v 0.098079 0.710000 0.019509
v 0.092388 0.710000 0.038268
v 0.083147 0.710000 0.055557
v 0.070711 0.710000 0.070711
v 0.055557 0.710000 0.083147
v 0.038268 0.710000 0.092388
v 0.019509 0.710000 0.098079
v 0.000000 0.710000 0.100000
v -0.019509 0.710000 0.098079
v -0.038268 0.710000 0.092388
v -0.055557 0.710000 0.083147
v -0.070711 0.710000 0.070711
v -0.083147 0.710000 0.055557
v -0.092388 0.710000 0.038268
v -0.098079 0.710000 0.019509
v -0.100000 0.710000 0.000000
v -0.098079 0.710000 -0.019509
v -0.092388 0.710000 -0.038268
v -0.083147 0.710000 -0.055557
v -0.070711 0.710000 -0.070711
v -0.055557 0.710000 -0.083147
v -0.038268 0.710000 -0.092388
v -0.019509 0.710000 -0.098079
v 0.000000 0.910000 0.000000
vn 0.0980 -0.0000 -0.9952
vn 0.2903 -0.0000 -0.9569
vn 0.4714 -0.0000 -0.8819
vn 0.6344 -0.0000 -0.7730
vn 0.7730 -0.0000 -0.6344
vn 0.8819 -0.0000 -0.4714
vn 0.9569 -0.0000 -0.2903
vn 0.9952 -0.0000 -0.0980
vn 0.9952 -0.0000 0.0980
vn 0.9569 -0.0000 0.2903
vn 0.8819 -0.0000 0.4714
vn 0.7730 -0.0000 0.6344
vn 0.6344 -0.0000 0.7730
vn 0.4714 -0.0000 0.8819
vn 0.2903 -0.0000 0.9569
vn 0.0980 -0.0000 0.9952
vn -0.0980 -0.0000 0.9952
vn -0.2903 -0.0000 0.9569
vn -0.4714 -0.0000 0.8819
vn -0.6344 -0.0000 0.7730
vn -0.7730 -0.0000 0.6344
vn -0.8819 -0.0000 0.4714
vn -0.9569 -0.0000 0.2903
vn -0.9952 -0.0000 0.0980
vn -0.9952 -0.0000 -0.0980
vn -0.9569 -0.0000 -0.2903
vn -0.8819 -0.0000 -0.4714
vn -0.7730 -0.0000 -0.6344
vn -0.6344 -0.0000 -0.7730
vn -0.4714 -0.0000 -0.8819
vn -0.0000 1.0000 -0.0000
vn -0.2903 -0.0000 -0.9569
vn -0.0980 -0.0000 -0.9952
vn -0.0000 -1.0000 -0.0000
vn 0.0878 0.4455 -0.8910
vn 0.2599 0.4455 -0.8567
vn 0.4220 0.4455 -0.7896
vn 0.5680 0.4455 -0.6921
vn 0.6921 0.4455 -0.5680
vn 0.7896 0.4455 -0.4220
vn 0.8567 0.4455 -0.2599
vn 0.8910 0.4455 -0.0878
vn 0.8910 0.4455 0.0878
vn 0.8567 0.4455 0.2599
vn 0.7896 0.4455 0.4220
vn 0.6921 0.4455 0.5680
vn 0.5680 0.4455 0.6921
vn 0.4220 0.4455 0.7896
vn 0.2599 0.4455 0.8567
vn 0.0878 0.4455 0.8910
vn -0.0878 0.4455 0.8910
vn -0.2599 0.4455 0.8567
vn -0.4220 0.4455 0.7896
vn -0.5680 0.4455 0.6921
vn -0.6921 0.4455 0.5680
vn -0.7896 0.4455 0.4220
vn -0.8567 0.4455 0.2599
vn -0.8910 0.4455 0.0878
vn -0.8910 0.4455 -0.0878
vn -0.8567 0.4455 -0.2599
vn -0.7896 0.4455 -0.4220
vn -0.6921 0.4455 -0.5680
vn -0.5680 0.4455 -0.6921
vn -0.4220 0.4455 -0.7896
vn -0.2599 0.4455 -0.8567
vn -0.0878 0.4455 -0.8910
vt 0.584324 0.528375
vt 0.573874 0.526371
vt 0.573836 0.525735
vt 0.585154 0.526869
vt 0.573707 0.525400
vt 0.585892 0.525230
vt 0.573528 0.524902
vt 0.586528 0.523449
vt 0.573264 0.524411
vt 0.587050 0.521524
vt 0.573070 0.524141
vt 0.587444 0.519450
vt 0.572409 0.523690
vt 0.587689 0.517220
vt 0.571770 0.523352
vt 0.587775 0.514828
vt 0.571293 0.523261
vt 0.587681 0.512267
vt 0.570448 0.523143
vt 0.587379 0.509527
vt 0.569707 0.523258
vt 0.586844 0.506599
vt 0.568466 0.523483
vt 0.586040 0.503473
vt 0.567112 0.523837
vt 0.584936 0.500138
vt 0.564954 0.524548
vt 0.564599 0.486549
vt 0.562603 0.535830
vt 0.565992 0.525410
vt 0.563708 0.536060
vt 0.566676 0.526332
vt 0.564850 0.536283
vt 0.567044 0.526700
vt 0.565991 0.536470
vt 0.567667 0.527306
vt 0.567143 0.536618
vt 0.568045 0.527508
vt 0.568305 0.536717
vt 0.568663 0.527998
vt 0.569483 0.536761
vt 0.569279 0.528430
vt 0.570677 0.536739
vt 0.569672 0.528633
vt 0.571881 0.536639
vt 0.570417 0.528876
vt 0.573098 0.536453
vt 0.570817 0.528980
vt 0.574318 0.536172
vt 0.571179 0.529014
vt 0.575537 0.535788
vt 0.571810 0.528947
vt 0.576752 0.535293
vt 0.572083 0.528849
vt 0.577950 0.534682
vt 0.572584 0.528501
vt 0.579128 0.533947
vt 0.573044 0.528116
vt 0.580274 0.533089
vt 0.573283 0.527853
vt 0.581375 0.532105
vt 0.573605 0.527245
vt 0.582424 0.530989
vt 0.573793 0.526674
vt 0.583410 0.529746
vt 0.989245 0.192735
vt 0.999782 0.245205
vt 0.999882 0.298722
vt 0.989538 0.351230
vt 0.969150 0.400712
vt 0.939499 0.445265
vt 0.901727 0.483177
vt 0.857284 0.512992
vt 0.807322 0.535213
vt 0.753174 0.543186
vt 0.698369 0.541663
vt 0.644914 0.529478
vt 0.523479 0.448338
vt 0.490603 0.402839
vt 0.469653 0.353590
vt 0.458714 0.301200
vt 0.458206 0.247683
vt 0.468148 0.195095
vt 0.488158 0.145457
vt 0.517468 0.100676
vt 0.554951 0.062475
vt 0.599167 0.032319
vt 0.647763 0.009219
vt 0.700743 0.000118
vt 0.754342 0.000118
vt 0.806911 0.010575
vt 0.856429 0.031086
vt 0.900995 0.060864
vt 0.938895 0.098764
vt 0.968673 0.143330
vt 0.334101 0.433005
vt 0.229044 0.229310
vt 0.370764 0.409432
vt 0.402302 0.379344
vt 0.427573 0.343829
vt 0.445663 0.304173
vt 0.455919 0.261809
vt 0.457969 0.218269
vt 0.451739 0.175129
vt 0.437454 0.133948
vt 0.415631 0.096217
vt 0.387060 0.063299
vt 0.352773 0.036386
vt 0.314011 0.016450
vt 0.272176 0.004214
vt 0.229306 0.000118
vt 0.185911 0.004214
vt 0.144076 0.016450
vt 0.105314 0.036386
vt 0.071028 0.063299
vt 0.042456 0.096217
vt 0.020633 0.133948
vt 0.006349 0.175129
vt 0.000118 0.218269
vt 0.002168 0.261809
vt 0.012424 0.304173
vt 0.030514 0.343829
vt 0.055786 0.379344
vt 0.087323 0.409432
vt 0.123987 0.433005
vt 0.164450 0.449210
vt 0.207250 0.457462
vt 0.250838 0.457462
vt 0.333858 0.482646
vt 0.370100 0.506862
vt 0.400921 0.537684
vt 0.425137 0.573926
vt 0.441818 0.614196
vt 0.450321 0.656946
vt 0.450321 0.700534
vt 0.441818 0.743284
vt 0.425137 0.783554
vt 0.400921 0.819796
vt 0.370100 0.850617
vt 0.333858 0.874834
vt 0.293588 0.891514
vt 0.250838 0.900017
vt 0.207250 0.900017
vt 0.164499 0.891514
vt 0.124229 0.874834
vt 0.087987 0.850617
vt 0.057166 0.819796
vt 0.032950 0.783554
vt 0.016270 0.743284
vt 0.007766 0.700534
vt 0.007766 0.656946
vt 0.016270 0.614196
vt 0.032950 0.573926
vt 0.057166 0.537684
vt 0.087987 0.506862
vt 0.124229 0.482646
vt 0.164499 0.465966
vt 0.293588 0.465966
vt 0.293637 0.449210
s 0
f 1/1/1 2/2/1 4/3/1 3/4/1
f 3/4/2 4/3/2 6/5/2 5/6/2
f 5/6/3 6/5/3 8/7/3 7/8/3
f 7/8/4 8/7/4 10/9/4 9/10/4
f 9/10/5 10/9/5 12/11/5 11/12/5
f 11/12/6 12/11/6 14/13/6 13/14/6
f 13/14/7 14/13/7 16/15/7 15/16/7
f 15/16/8 16/15/8 18/17/8 17/18/8
f 17/18/9 18/17/9 20/19/9 19/20/9
f 19/20/10 20/19/10 22/21/10 21/22/10
f 21/22/11 22/21/11 24/23/11 23/24/11
f 23/24/12 24/23/12 26/25/12 25/26/12
f 25/26/13 26/25/13 28/27/13 27/28/13
f 27/29/14 28/27/14 30/30/14 29/31/14
f 29/31/15 30/30/15 32/32/15 31/33/15
f 31/33/16 32/32/16 34/34/16 33/35/16
f 33/35/17 34/34/17 36/36/17 35/37/17
f 35/37/18 36/36/18 38/38/18 37/39/18
f 37/39/19 38/38/19 40/40/19 39/41/19
f 39/41/20 40/40/20 42/42/20 41/43/20
f 41/43/21 42/42/21 44/44/21 43/45/21
f 43/45/22 44/44/22 46/46/22 45/47/22
f 45/47/23 46/46/23 48/48/23 47/49/23
f 47/49/24 48/48/24 50/50/24 49/51/24
f 49/51/25 50/50/25 52/52/25 51/53/25
f 51/53/26 52/52/26 54/54/26 53/55/26
f 53/55/27 54/54/27 56/56/27 55/57/27
f 55/57/28 56/56/28 58/58/28 57/59/28
f 57/59/29 58/58/29 60/60/29 59/61/29
f 59/61/30 60/60/30 62/62/30 61/63/30
f 4/3/31 2/2/31 64/64/31 62/62/31 60/60/31 58/58/31 56/56/31 54/54/31 52/52/31 50/50/31 48/48/31 46/46/31 44/44/31 42/42/31 40/40/31 38/38/31 36/36/31 34/34/31 32/32/31 30/30/31 28/27/31 26/25/31 24/23/31 22/21/31 20/19/31 18/17/31 16/15/31 14/13/31 12/11/31 10/9/31 8/7/31 6/5/31
f 61/63/32 62/62/32 64/64/32 63/65/32
f 63/65/33 64/64/33 2/2/33 1/1/33
f 1/66/34 3/67/34 5/68/34 7/69/34 9/70/34 11/71/34 13/72/34 15/73/34 17/74/34 19/75/34 21/76/34 23/77/34 25/26/34 27/28/34 29/78/34 31/79/34 33/80/34 35/81/34 37/82/34 39/83/34 41/84/34 43/85/34 45/86/34 47/87/34 49/88/34 51/89/34 53/90/34 55/91/34 57/92/34 59/93/34 61/94/34 63/95/34
f 65/96/35 97/97/35 66/98/35
f 66/98/36 97/97/36 67/99/36
f 67/99/37 97/97/37 68/100/37
f 68/100/38 97/97/38 69/101/38
f 69/101/39 97/97/39 70/102/39
f 70/102/40 97/97/40 71/103/40
f 71/103/41 97/97/41 72/104/41
f 72/104/42 97/97/42 73/105/42
f 73/105/43 97/97/43 74/106/43
f 74/106/44 97/97/44 75/107/44
f 75/107/45 97/97/45 76/108/45
f 76/108/46 97/97/46 77/109/46
f 77/109/47 97/97/47 78/110/47
f 78/111/48 97/97/48 79/112/48
f 79/112/49 97/97/49 80/113/49
f 80/113/50 97/97/50 81/114/50
f 81/114/51 97/97/51 82/115/51
f 82/115/52 97/97/52 83/116/52
f 83/116/53 97/97/53 84/117/53
f 84/117/54 97/97/54 85/118/54
f 85/118/55 97/97/55 86/119/55
f 86/119/56 97/97/56 87/120/56
f 87/120/57 97/97/57 88/121/57
f 88/121/58 97/97/58 89/122/58
f 89/122/59 97/97/59 90/123/59
f 90/123/60 97/97/60 91/124/60
f 91/124/61 97/97/61 92/125/61
f 92/125/62 97/97/62 93/126/62
f 93/126/63 97/97/63 94/127/63
f 94/127/64 97/97/64 95/128/64
f 65/129/34 66/130/34 67/131/34 68/132/34 69/133/34 70/134/34 71/135/34 72/136/34 73/137/34 74/138/34 75/139/34 76/140/34 77/141/34 78/142/34 79/143/34 80/144/34 81/145/34 82/146/34 83/147/34 84/148/34 85/149/34 86/150/34 87/151/34 88/152/34 89/153/34 90/154/34 91/155/34 92/156/34 93/157/34 94/127/34 95/128/34 96/158/34
f 95/128/65 97/97/65 96/159/65
f 96/159/66 97/97/66 65/96/66
