# Blender 4.4.1
# www.blender.org
mtllib torus.mtl
o トーラス
v 0.500000 0.000000 0.000000
v 0.486603 0.050000 0.000000
v 0.450000 0.086603 0.000000
v 0.400000 0.100000 0.000000
v 0.350000 0.086603 0.000000
v 0.313397 0.050000 0.000000
v 0.300000 0.000000 0.000000
v 0.313397 -0.050000 0.000000
v 0.350000 -0.086603 0.000000
v 0.400000 -0.100000 0.000000
v 0.450000 -0.086603 0.000000
v 0.486603 -0.050000 0.000000
v 0.495722 0.000000 -0.065263
v 0.482440 0.050000 -0.063514
v 0.446150 0.086603 -0.058737
v 0.396578 0.100000 -0.052210
v 0.347006 0.086603 -0.045684
v 0.310716 0.050000 -0.040907
v 0.297433 0.000000 -0.039158
v 0.310716 -0.050000 -0.040907
v 0.347006 -0.086603 -0.045684
v 0.396578 -0.100000 -0.052210
v 0.446150 -0.086603 -0.058737
v 0.482440 -0.050000 -0.063514
v 0.482963 0.000000 -0.129409
v 0.470022 0.050000 -0.125942
v 0.434667 0.086603 -0.116469
v 0.386370 0.100000 -0.103528
v 0.338074 0.086603 -0.090587
v 0.302719 0.050000 -0.081113
v 0.289778 0.000000 -0.077646
v 0.302719 -0.050000 -0.081113
v 0.338074 -0.086603 -0.090587
v 0.386370 -0.100000 -0.103528
v 0.434667 -0.086603 -0.116469
v 0.470022 -0.050000 -0.125942
v 0.461940 0.000000 -0.191342
v 0.449562 0.050000 -0.186215
v 0.415746 0.086603 -0.172208
v 0.369552 0.100000 -0.153073
v 0.323358 0.086603 -0.133939
v 0.289542 0.050000 -0.119932
v 0.277164 0.000000 -0.114805
v 0.289542 -0.050000 -0.119932
v 0.323358 -0.086603 -0.133939
v 0.369552 -0.100000 -0.153073
v 0.415746 -0.086603 -0.172208
v 0.449562 -0.050000 -0.186215
v 0.433013 0.000000 -0.250000
v 0.421410 0.050000 -0.243301
v 0.389711 0.086603 -0.225000
v 0.346410 0.100000 -0.200000
v 0.303109 0.086603 -0.175000
v 0.271410 0.050000 -0.156699
v 0.259808 0.000000 -0.150000
v 0.271410 -0.050000 -0.156699
v 0.303109 -0.086603 -0.175000
v 0.346410 -0.100000 -0.200000
v 0.389711 -0.086603 -0.225000
v 0.421410 -0.050000 -0.243301
v 0.396677 0.000000 -0.304381
v 0.386048 0.050000 -0.296225
v 0.357009 0.086603 -0.273943
v 0.317341 0.100000 -0.243505
v 0.277674 0.086603 -0.213066
v 0.248635 0.050000 -0.190784
v 0.238006 0.000000 -0.182628
v 0.248635 -0.050000 -0.190784
v 0.277674 -0.086603 -0.213066
v 0.317341 -0.100000 -0.243505
v 0.357009 -0.086603 -0.273943
v 0.386048 -0.050000 -0.296225
v 0.353553 0.000000 -0.353553
v 0.344080 0.050000 -0.344080
v 0.318198 0.086603 -0.318198
v 0.282843 0.100000 -0.282843
v 0.247487 0.086603 -0.247487
v 0.221605 0.050000 -0.221605
v 0.212132 0.000000 -0.212132
v 0.221605 -0.050000 -0.221605
v 0.247487 -0.086603 -0.247487
v 0.282843 -0.100000 -0.282843
v 0.318198 -0.086603 -0.318198
v 0.344080 -0.050000 -0.344080
v 0.304381 0.000000 -0.396677
v 0.296225 0.050000 -0.386048
v 0.273943 0.086603 -0.357009
v 0.243505 0.100000 -0.317341
v 0.213067 0.086603 -0.277674
v 0.190784 0.050000 -0.248635
v 0.182628 0.000000 -0.238006
v 0.190784 -0.050000 -0.248635
v 0.213067 -0.086603 -0.277674
v 0.243505 -0.100000 -0.317341
v 0.273943 -0.086603 -0.357009
v 0.296225 -0.050000 -0.386048
v 0.250000 0.000000 -0.433013
v 0.243301 0.050000 -0.421410
v 0.225000 0.086603 -0.389711
v 0.200000 0.100000 -0.346410
v 0.175000 0.086603 -0.303109
v 0.156699 0.050000 -0.271410
v 0.150000 0.000000 -0.259808
v 0.156699 -0.050000 -0.271410
v 0.175000 -0.086603 -0.303109
v 0.200000 -0.100000 -0.346410
v 0.225000 -0.086603 -0.389711
v 0.243301 -0.050000 -0.421410
v 0.191342 0.000000 -0.461940
v 0.186215 0.050000 -0.449562
v 0.172208 0.086603 -0.415746
v 0.153073 0.100000 -0.369552
v 0.133939 0.086603 -0.323358
v 0.119932 0.050000 -0.289541
v 0.114805 0.000000 -0.277164
v 0.119932 -0.050000 -0.289541
v 0.133939 -0.086603 -0.323358
v 0.153073 -0.100000 -0.369552
v 0.172208 -0.086603 -0.415746
v 0.186215 -0.050000 -0.449562
v 0.129410 0.000000 -0.482963
v 0.125942 0.050000 -0.470022
v 0.116469 0.086603 -0.434667
v 0.103528 0.100000 -0.386370
v 0.090587 0.086603 -0.338074
v 0.081113 0.050000 -0.302719
v 0.077646 0.000000 -0.289778
v 0.081113 -0.050000 -0.302719
v 0.090587 -0.086603 -0.338074
v 0.103528 -0.100000 -0.386370
v 0.116469 -0.086603 -0.434667
v 0.125942 -0.050000 -0.470022
v 0.065263 0.000000 -0.495722
v 0.063514 0.050000 -0.482440
v 0.058737 0.086603 -0.446150
v 0.052210 0.100000 -0.396578
v 0.045684 0.086603 -0.347006
v 0.040907 0.050000 -0.310716
v 0.039158 0.000000 -0.297433
v 0.040907 -0.050000 -0.310716
v 0.045684 -0.086603 -0.347006
v 0.052210 -0.100000 -0.396578
v 0.058737 -0.086603 -0.446150
v 0.063514 -0.050000 -0.482440
v 0.000000 0.000000 -0.500000
v 0.000000 0.050000 -0.486603
v 0.000000 0.086603 -0.450000
v 0.000000 0.100000 -0.400000
v 0.000000 0.086603 -0.350000
v 0.000000 0.050000 -0.313397
v 0.000000 0.000000 -0.300000
v 0.000000 -0.050000 -0.313397
v 0.000000 -0.086603 -0.350000
v 0.000000 -0.100000 -0.400000
v 0.000000 -0.086603 -0.450000
v 0.000000 -0.050000 -0.486603
v -0.065263 0.000000 -0.495722
v -0.063514 0.050000 -0.482440
v -0.058737 0.086603 -0.446150
v -0.052211 0.100000 -0.396578
v -0.045684 0.086603 -0.347006
v -0.040907 0.050000 -0.310716
v -0.039158 0.000000 -0.297433
v -0.040907 -0.050000 -0.310716
v -0.045684 -0.086603 -0.347006
v -0.052211 -0.100000 -0.396578
v -0.058737 -0.086603 -0.446150
v -0.063514 -0.050000 -0.482440
v -0.129409 0.000000 -0.482963
v -0.125942 0.050000 -0.470022
v -0.116469 0.086603 -0.434667
v -0.103528 0.100000 -0.386370
v -0.090587 0.086603 -0.338074
v -0.081113 0.050000 -0.302719
v -0.077646 0.000000 -0.289778
v -0.081113 -0.050000 -0.302719
v -0.090587 -0.086603 -0.338074
v -0.103528 -0.100000 -0.386370
v -0.116469 -0.086603 -0.434667
v -0.125942 -0.050000 -0.470022
v -0.191342 0.000000 -0.461940
v -0.186215 0.050000 -0.449562
v -0.172208 0.086603 -0.415746
v -0.153073 0.100000 -0.369552
v -0.133939 0.086603 -0.323358
v -0.119932 0.050000 -0.289541
v -0.114805 0.000000 -0.277164
v -0.119932 -0.050000 -0.289541
v -0.133939 -0.086603 -0.323358
v -0.153073 -0.100000 -0.369552
v -0.172208 -0.086603 -0.415746
v -0.186215 -0.050000 -0.449562
v -0.250000 0.000000 -0.433013
v -0.243301 0.050000 -0.421410
v -0.225000 0.086603 -0.389711
v -0.200000 0.100000 -0.346410
v -0.175000 0.086603 -0.303109
v -0.156699 0.050000 -0.271410
v -0.150000 0.000000 -0.259808
v -0.156699 -0.050000 -0.271410
v -0.175000 -0.086603 -0.303109
v -0.200000 -0.100000 -0.346410
v -0.225000 -0.086603 -0.389711
v -0.243301 -0.050000 -0.421410
v -0.304381 0.000000 -0.396677
v -0.296225 0.050000 -0.386048
v -0.273943 0.086603 -0.357009
v -0.243505 0.100000 -0.317341
v -0.213067 0.086603 -0.277674
v -0.190784 0.050000 -0.248635
v -0.182628 0.000000 -0.238006
v -0.190784 -0.050000 -0.248635
v -0.213067 -0.086603 -0.277674
v -0.243505 -0.100000 -0.317341
v -0.273943 -0.086603 -0.357009
v -0.296225 -0.050000 -0.386048
v -0.353554 0.000000 -0.353553
v -0.344080 0.050000 -0.344080
v -0.318198 0.086603 -0.318198
v -0.282843 0.100000 -0.282843
v -0.247487 0.086603 -0.247487
v -0.221606 0.050000 -0.221605
v -0.212132 0.000000 -0.212132
v -0.221606 -0.050000 -0.221605
v -0.247487 -0.086603 -0.247487
v -0.282843 -0.100000 -0.282843
v -0.318198 -0.086603 -0.318198
v -0.344080 -0.050000 -0.344080
v -0.396677 0.000000 -0.304381
v -0.386048 0.050000 -0.296225
v -0.357009 0.086603 -0.273943
v -0.317341 0.100000 -0.243505
v -0.277674 0.086603 -0.213067
v -0.248635 0.050000 -0.190784
v -0.238006 0.000000 -0.182628
v -0.248635 -0.050000 -0.190784
v -0.277674 -0.086603 -0.213067
v -0.317341 -0.100000 -0.243505
v -0.357009 -0.086603 -0.273943
v -0.386048 -0.050000 -0.296225
v -0.433013 0.000000 -0.250000
v -0.421410 0.050000 -0.243301
v -0.389711 0.086603 -0.225000
v -0.346410 0.100000 -0.200000
v -0.303109 0.086603 -0.175000
v -0.271410 0.050000 -0.156699
v -0.259808 0.000000 -0.150000
v -0.271410 -0.050000 -0.156699
v -0.303109 -0.086603 -0.175000
v -0.346410 -0.100000 -0.200000
v -0.389711 -0.086603 -0.225000
v -0.421410 -0.050000 -0.243301
v -0.461940 0.000000 -0.191342
v -0.449562 0.050000 -0.186215
v -0.415746 0.086603 -0.172208
v -0.369552 0.100000 -0.153073
v -0.323358 0.086603 -0.133939
v -0.289541 0.050000 -0.119932
v -0.277164 0.000000 -0.114805
v -0.289541 -0.050000 -0.119932
v -0.323358 -0.086603 -0.133939
v -0.369552 -0.100000 -0.153073
v -0.415746 -0.086603 -0.172208
v -0.449562 -0.050000 -0.186215
v -0.482963 0.000000 -0.129409
v -0.470022 0.050000 -0.125942
v -0.434667 0.086603 -0.116469
v -0.386370 0.100000 -0.103528
v -0.338074 0.086603 -0.090587
v -0.302719 0.050000 -0.081113
v -0.289778 0.000000 -0.077646
v -0.302719 -0.050000 -0.081113
v -0.338074 -0.086603 -0.090587
v -0.386370 -0.100000 -0.103528
v -0.434667 -0.086603 -0.116469
v -0.470022 -0.050000 -0.125942
v -0.495722 0.000000 -0.065263
v -0.482440 0.050000 -0.063514
v -0.446150 0.086603 -0.058737
v -0.396578 0.100000 -0.052211
v -0.347006 0.086603 -0.045684
v -0.310716 0.050000 -0.040907
v -0.297433 0.000000 -0.039158
v -0.310716 -0.050000 -0.040907
v -0.347006 -0.086603 -0.045684
v -0.396578 -0.100000 -0.052211
v -0.446150 -0.086603 -0.058737
v -0.482440 -0.050000 -0.063514
v -0.500000 0.000000 -0.000000
v -0.486603 0.050000 -0.000000
v -0.450000 0.086603 -0.000000
v -0.400000 0.100000 -0.000000
v -0.350000 0.086603 -0.000000
v -0.313397 0.050000 -0.000000
v -0.300000 0.000000 -0.000000
v -0.313397 -0.050000 -0.000000
v -0.350000 -0.086603 -0.000000
v -0.400000 -0.100000 -0.000000
v -0.450000 -0.086603 -0.000000
v -0.486603 -0.050000 -0.000000
v -0.495722 0.000000 0.065263
v -0.482440 0.050000 0.063514
v -0.446150 0.086603 0.058737
v -0.396578 0.100000 0.052211
v -0.347006 0.086603 0.045684
v -0.310716 0.050000 0.040907
v -0.297433 0.000000 0.039158
v -0.310716 -0.050000 0.040907
v -0.347006 -0.086603 0.045684
v -0.396578 -0.100000 0.052211
v -0.446150 -0.086603 0.058737
v -0.482440 -0.050000 0.063514
v -0.482963 0.000000 0.129409
v -0.470022 0.050000 0.125942
v -0.434667 0.086603 0.116469
v -0.386370 0.100000 0.103528
v -0.338074 0.086603 0.090587
v -0.302719 0.050000 0.081113
v -0.289778 0.000000 0.077646
v -0.302719 -0.050000 0.081113
v -0.338074 -0.086603 0.090587
v -0.386370 -0.100000 0.103528
v -0.434667 -0.086603 0.116469
v -0.470022 -0.050000 0.125942
v -0.461940 0.000000 0.191342
v -0.449562 0.050000 0.186215
v -0.415746 0.086603 0.172207
v -0.369552 0.100000 0.153073
v -0.323358 0.086603 0.133939
v -0.289542 0.050000 0.119932
v -0.277164 0.000000 0.114805
v -0.289542 -0.050000 0.119932
v -0.323358 -0.086603 0.133939
v -0.369552 -0.100000 0.153073
v -0.415746 -0.086603 0.172207
v -0.449562 -0.050000 0.186215
v -0.433013 0.000000 0.250000
v -0.421410 0.050000 0.243301
v -0.389711 0.086603 0.225000
v -0.346410 0.100000 0.200000
v -0.303109 0.086603 0.175000
v -0.271410 0.050000 0.156699
v -0.259808 0.000000 0.150000
v -0.271410 -0.050000 0.156699
v -0.303109 -0.086603 0.175000
v -0.346410 -0.100000 0.200000
v -0.389711 -0.086603 0.225000
v -0.421410 -0.050000 0.243301
v -0.396677 0.000000 0.304381
v -0.386048 0.050000 0.296225
v -0.357009 0.086603 0.273943
v -0.317341 0.100000 0.243505
v -0.277674 0.086603 0.213067
v -0.248635 0.050000 0.190784
v -0.238006 0.000000 0.182628
v -0.248635 -0.050000 0.190784
v -0.277674 -0.086603 0.213067
v -0.317341 -0.100000 0.243505
v -0.357009 -0.086603 0.273943
v -0.386048 -0.050000 0.296225
v -0.353554 0.000000 0.353553
v -0.344080 0.050000 0.344080
v -0.318198 0.086603 0.318198
v -0.282843 0.100000 0.282843
v -0.247487 0.086603 0.247487
v -0.221606 0.050000 0.221605
v -0.212132 0.000000 0.212132
v -0.221606 -0.050000 0.221605
v -0.247487 -0.086603 0.247487
v -0.282843 -0.100000 0.282843
v -0.318198 -0.086603 0.318198
v -0.344080 -0.050000 0.344080
v -0.304381 0.000000 0.396677
v -0.296225 0.050000 0.386048
v -0.273943 0.086603 0.357009
v -0.243505 0.100000 0.317341
v -0.213067 0.086603 0.277674
v -0.190784 0.050000 0.248635
v -0.182629 0.000000 0.238006
v -0.190784 -0.050000 0.248635
v -0.213067 -0.086603 0.277674
v -0.243505 -0.100000 0.317341
v -0.273943 -0.086603 0.357009
v -0.296225 -0.050000 0.386048
v -0.250000 0.000000 0.433013
v -0.243301 0.050000 0.421410
v -0.225000 0.086603 0.389711
v -0.200000 0.100000 0.346410
v -0.175000 0.086603 0.303109
v -0.156699 0.050000 0.271410
v -0.150000 0.000000 0.259808
v -0.156699 -0.050000 0.271410
v -0.175000 -0.086603 0.303109
v -0.200000 -0.100000 0.346410
v -0.225000 -0.086603 0.389711
v -0.243301 -0.050000 0.421410
v -0.191342 0.000000 0.461940
v -0.186215 0.050000 0.449562
v -0.172208 0.086603 0.415746
v -0.153073 0.100000 0.369552
v -0.133939 0.086603 0.323358
v -0.119932 0.050000 0.289541
v -0.114805 0.000000 0.277164
v -0.119932 -0.050000 0.289541
v -0.133939 -0.086603 0.323358
v -0.153073 -0.100000 0.369552
v -0.172208 -0.086603 0.415746
v -0.186215 -0.050000 0.449562
v -0.129410 0.000000 0.482963
v -0.125942 0.050000 0.470022
v -0.116469 0.086603 0.434667
v -0.103528 0.100000 0.386370
v -0.090587 0.086603 0.338074
v -0.081113 0.050000 0.302719
v -0.077646 0.000000 0.289778
v -0.081113 -0.050000 0.302719
v -0.090587 -0.086603 0.338074
v -0.103528 -0.100000 0.386370
v -0.116469 -0.086603 0.434667
v -0.125942 -0.050000 0.470022
v -0.065263 0.000000 0.495722
v -0.063515 0.050000 0.482440
v -0.058737 0.086603 0.446150
v -0.052211 0.100000 0.396578
v -0.045684 0.086603 0.347006
v -0.040907 0.050000 0.310716
v -0.039158 0.000000 0.297433
v -0.040907 -0.050000 0.310716
v -0.045684 -0.086603 0.347006
v -0.052211 -0.100000 0.396578
v -0.058737 -0.086603 0.446150
v -0.063515 -0.050000 0.482440
v 0.000000 0.000000 0.500000
v 0.000000 0.050000 0.486603
v 0.000000 0.086603 0.450000
v 0.000000 0.100000 0.400000
v 0.000000 0.086603 0.350000
v 0.000000 0.050000 0.313397
v 0.000000 0.000000 0.300000
v 0.000000 -0.050000 0.313397
v 0.000000 -0.086603 0.350000
v 0.000000 -0.100000 0.400000
v 0.000000 -0.086603 0.450000
v 0.000000 -0.050000 0.486603
v 0.065263 0.000000 0.495722
v 0.063514 0.050000 0.482440
v 0.058737 0.086603 0.446150
v 0.052210 0.100000 0.396578
v 0.045684 0.086603 0.347006
v 0.040907 0.050000 0.310716
v 0.039158 0.000000 0.297433
v 0.040907 -0.050000 0.310716
v 0.045684 -0.086603 0.347006
v 0.052210 -0.100000 0.396578
v 0.058737 -0.086603 0.446150
v 0.063514 -0.050000 0.482440
v 0.129409 0.000000 0.482963
v 0.125942 0.050000 0.470022
v 0.116468 0.086603 0.434667
v 0.103527 0.100000 0.386370
v 0.090587 0.086603 0.338074
v 0.081113 0.050000 0.302719
v 0.077646 0.000000 0.289778
v 0.081113 -0.050000 0.302719
v 0.090587 -0.086603 0.338074
v 0.103527 -0.100000 0.386370
v 0.116468 -0.086603 0.434667
v 0.125942 -0.050000 0.470022
v 0.191342 0.000000 0.461940
v 0.186215 0.050000 0.449562
v 0.172208 0.086603 0.415746
v 0.153073 0.100000 0.369552
v 0.133939 0.086603 0.323358
v 0.119932 0.050000 0.289541
v 0.114805 0.000000 0.277164
v 0.119932 -0.050000 0.289541
v 0.133939 -0.086603 0.323358
v 0.153073 -0.100000 0.369552
v 0.172208 -0.086603 0.415746
v 0.186215 -0.050000 0.449562
v 0.250000 0.000000 0.433013
v 0.243301 0.050000 0.421410
v 0.225000 0.086603 0.389711
v 0.200000 0.100000 0.346410
v 0.175000 0.086603 0.303109
v 0.156699 0.050000 0.271410
v 0.150000 0.000000 0.259808
v 0.156699 -0.050000 0.271410
v 0.175000 -0.086603 0.303109
v 0.200000 -0.100000 0.346410
v 0.225000 -0.086603 0.389711
v 0.243301 -0.050000 0.421410
v 0.304381 0.000000 0.396677
v 0.296225 0.050000 0.386048
v 0.273943 0.086603 0.357009
v 0.243504 0.100000 0.317341
v 0.213066 0.086603 0.277674
v 0.190784 0.050000 0.248635
v 0.182628 0.000000 0.238006
v 0.190784 -0.050000 0.248635
v 0.213066 -0.086603 0.277674
v 0.243504 -0.100000 0.317341
v 0.273943 -0.086603 0.357009
v 0.296225 -0.050000 0.386048
v 0.353553 0.000000 0.353554
v 0.344080 0.050000 0.344080
v 0.318198 0.086603 0.318198
v 0.282843 0.100000 0.282843
v 0.247487 0.086603 0.247488
v 0.221605 0.050000 0.221606
v 0.212132 0.000000 0.212132
v 0.221605 -0.050000 0.221606
v 0.247487 -0.086603 0.247488
v 0.282843 -0.100000 0.282843
v 0.318198 -0.086603 0.318198
v 0.344080 -0.050000 0.344080
v 0.396677 0.000000 0.304381
v 0.386048 0.050000 0.296225
v 0.357009 0.086603 0.273943
v 0.317341 0.100000 0.243505
v 0.277674 0.086603 0.213066
v 0.248635 0.050000 0.190784
v 0.238006 0.000000 0.182628
v 0.248635 -0.050000 0.190784
v 0.277674 -0.086603 0.213066
v 0.317341 -0.100000 0.243505
v 0.357009 -0.086603 0.273943
v 0.386048 -0.050000 0.296225
v 0.433013 0.000000 0.250000
v 0.421410 0.050000 0.243301
v 0.389711 0.086603 0.225000
v 0.346410 0.100000 0.200000
v 0.303109 0.086603 0.175000
v 0.271410 0.050000 0.156699
v 0.259808 0.000000 0.150000
v 0.271410 -0.050000 0.156699
v 0.303109 -0.086603 0.175000
v 0.346410 -0.100000 0.200000
v 0.389711 -0.086603 0.225000
v 0.421410 -0.050000 0.243301
v 0.461940 0.000000 0.191342
v 0.449562 0.050000 0.186215
v 0.415746 0.086603 0.172208
v 0.369552 0.100000 0.153074
v 0.323358 0.086603 0.133939
v 0.289541 0.050000 0.119932
v 0.277164 0.000000 0.114805
v 0.289541 -0.050000 0.119932
v 0.323358 -0.086603 0.133939
v 0.369552 -0.100000 0.153074
v 0.415746 -0.086603 0.172208
v 0.449562 -0.050000 0.186215
v 0.482963 0.000000 0.129409
v 0.470022 0.050000 0.125942
v 0.434667 0.086603 0.116468
v 0.386370 0.100000 0.103528
v 0.338074 0.086603 0.090587
v 0.302719 0.050000 0.081113
v 0.289778 0.000000 0.077646
v 0.302719 -0.050000 0.081113
v 0.338074 -0.086603 0.090587
v 0.386370 -0.100000 0.103528
v 0.434667 -0.086603 0.116468
v 0.470022 -0.050000 0.125942
v 0.495722 0.000000 0.065263
v 0.482440 0.050000 0.063514
v 0.446150 0.086603 0.058737
v 0.396578 0.100000 0.052210
v 0.347006 0.086603 0.045684
v 0.310716 0.050000 0.040907
v 0.297433 0.000000 0.039158
v 0.310716 -0.050000 0.040907
v 0.347006 -0.086603 0.045684
v 0.396578 -0.100000 0.052210
v 0.446150 -0.086603 0.058737
v 0.482440 -0.050000 0.063514
vn 0.9640 0.2583 -0.0632
vn 0.7063 0.7063 -0.0463
vn 0.2588 0.9658 -0.0170
vn -0.2588 0.9658 0.0170
vn -0.7063 0.7063 0.0463
vn -0.9640 0.2583 0.0632
vn -0.9640 -0.2583 0.0632
vn -0.7063 -0.7063 0.0463
vn -0.2588 -0.9658 0.0170
vn 0.2588 -0.9658 -0.0170
vn 0.7063 -0.7063 -0.0463
vn 0.9640 -0.2583 -0.0632
vn 0.9475 0.2583 -0.1885
vn 0.6943 0.7063 -0.1381
vn 0.2544 0.9658 -0.0506
vn -0.2544 0.9658 0.0506
vn -0.6943 0.7063 0.1381
vn -0.9475 0.2583 0.1885
vn -0.9475 -0.2583 0.1885
vn -0.6943 -0.7063 0.1381
vn -0.2544 -0.9658 0.0506
vn 0.2544 -0.9658 -0.0506
vn 0.6943 -0.7063 -0.1381
vn 0.9475 -0.2583 -0.1885
vn 0.9148 0.2583 -0.3105
vn 0.6703 0.7063 -0.2275
vn 0.2456 0.9658 -0.0834
vn -0.2456 0.9658 0.0834
vn -0.6703 0.7063 0.2275
vn -0.9148 0.2583 0.3105
vn -0.9148 -0.2583 0.3105
vn -0.6703 -0.7063 0.2275
vn -0.2456 -0.9658 0.0834
vn 0.2456 -0.9658 -0.0834
vn 0.6703 -0.7063 -0.2275
vn 0.9148 -0.2583 -0.3105
vn 0.8664 0.2583 -0.4273
vn 0.6349 0.7063 -0.3131
vn 0.2326 0.9658 -0.1147
vn -0.2326 0.9658 0.1147
vn -0.6349 0.7063 0.3131
vn -0.8664 0.2583 0.4273
vn -0.8664 -0.2583 0.4273
vn -0.6349 -0.7063 0.3131
vn -0.2326 -0.9658 0.1147
vn 0.2326 -0.9658 -0.1147
vn 0.6349 -0.7063 -0.3131
vn 0.8664 -0.2583 -0.4273
vn 0.8033 0.2583 -0.5367
vn 0.5886 0.7063 -0.3933
vn 0.2156 0.9658 -0.1441
vn -0.2156 0.9658 0.1441
vn -0.5886 0.7063 0.3933
vn -0.8033 0.2583 0.5367
vn -0.8033 -0.2583 0.5367
vn -0.5886 -0.7063 0.3933
vn -0.2156 -0.9658 0.1441
vn 0.2156 -0.9658 -0.1441
vn 0.5886 -0.7063 -0.3933
vn 0.8033 -0.2583 -0.5367
vn 0.7263 0.2583 -0.6370
vn 0.5322 0.7063 -0.4667
vn 0.1950 0.9658 -0.1710
vn -0.1950 0.9658 0.1710
vn -0.5322 0.7063 0.4667
vn -0.7263 0.2583 0.6370
vn -0.7263 -0.2583 0.6370
vn -0.5322 -0.7063 0.4667
vn -0.1950 -0.9658 0.1710
vn 0.1950 -0.9658 -0.1710
vn 0.5322 -0.7063 -0.4667
vn 0.7263 -0.2583 -0.6370
vn 0.6370 0.2583 -0.7263
vn 0.4667 0.7063 -0.5322
vn 0.1710 0.9658 -0.1950
vn -0.1710 0.9658 0.1950
vn -0.4667 0.7063 0.5322
vn -0.6370 0.2583 0.7263
vn -0.6370 -0.2583 0.7263
vn -0.4667 -0.7063 0.5322
vn -0.1710 -0.9658 0.1950
vn 0.1710 -0.9658 -0.1950
vn 0.4667 -0.7063 -0.5322
vn 0.6370 -0.2583 -0.7263
vn 0.5367 0.2583 -0.8033
vn 0.3933 0.7063 -0.5886
vn 0.1441 0.9658 -0.2156
vn -0.1441 0.9658 0.2156
vn -0.3933 0.7063 0.5886
vn -0.5367 0.2583 0.8033
vn -0.5367 -0.2583 0.8033
vn -0.3933 -0.7063 0.5886
vn -0.1441 -0.9658 0.2156
vn 0.1441 -0.9658 -0.2156
vn 0.3933 -0.7063 -0.5886
vn 0.5367 -0.2583 -0.8033
vn 0.4273 0.2583 -0.8664
vn 0.3131 0.7063 -0.6349
vn 0.1147 0.9658 -0.2326
vn -0.1147 0.9658 0.2326
vn -0.3131 0.7063 0.6349
vn -0.4273 0.2583 0.8664
vn -0.4273 -0.2583 0.8664
vn -0.3131 -0.7063 0.6349
vn -0.1147 -0.9658 0.2326
vn 0.1147 -0.9658 -0.2326
vn 0.3131 -0.7063 -0.6349
vn 0.4273 -0.2583 -0.8664
vn 0.3105 0.2583 -0.9148
vn 0.2275 0.7063 -0.6703
vn 0.0834 0.9658 -0.2456
vn -0.0834 0.9658 0.2456
vn -0.2275 0.7063 0.6703
vn -0.3105 0.2583 0.9148
vn -0.3105 -0.2583 0.9148
vn -0.2275 -0.7063 0.6703
vn -0.0834 -0.9658 0.2456
vn 0.0834 -0.9658 -0.2456
vn 0.2275 -0.7063 -0.6703
vn 0.3105 -0.2583 -0.9148
vn 0.1885 0.2583 -0.9475
vn 0.1381 0.7063 -0.6943
vn 0.0506 0.9658 -0.2544
vn -0.0506 0.9658 0.2544
vn -0.1381 0.7063 0.6943
vn -0.1885 0.2583 0.9475
vn -0.1885 -0.2583 0.9475
vn -0.1381 -0.7063 0.6943
vn -0.0506 -0.9658 0.2544
vn 0.0506 -0.9658 -0.2544
vn 0.1381 -0.7063 -0.6943
vn 0.1885 -0.2583 -0.9475
vn 0.0632 0.2583 -0.9640
vn 0.0463 0.7063 -0.7063
vn 0.0170 0.9658 -0.2588
vn -0.0170 0.9658 0.2588
vn -0.0463 0.7063 0.7063
vn -0.0632 0.2583 0.9640
vn -0.0632 -0.2583 0.9640
vn -0.0463 -0.7063 0.7063
vn -0.0170 -0.9658 0.2588
vn 0.0170 -0.9658 -0.2588
vn 0.0463 -0.7063 -0.7063
vn 0.0632 -0.2583 -0.9640
vn -0.0632 0.2583 -0.9640
vn -0.0463 0.7063 -0.7063
vn -0.0170 0.9658 -0.2588
vn 0.0170 0.9658 0.2588
vn 0.0463 0.7063 0.7063
vn 0.0632 0.2583 0.9640
vn 0.0632 -0.2583 0.9640
vn 0.0463 -0.7063 0.7063
vn 0.0170 -0.9658 0.2588
vn -0.0170 -0.9658 -0.2588
vn -0.0463 -0.7063 -0.7063
vn -0.0632 -0.2583 -0.9640
vn -0.1885 0.2583 -0.9475
vn -0.1381 0.7063 -0.6943
vn -0.0506 0.9658 -0.2544
vn 0.0506 0.9658 0.2544
vn 0.1381 0.7063 0.6943
vn 0.1885 0.2583 0.9475
vn 0.1885 -0.2583 0.9475
vn 0.1381 -0.7063 0.6943
vn 0.0506 -0.9658 0.2544
vn -0.0506 -0.9658 -0.2544
vn -0.1381 -0.7063 -0.6943
vn -0.1885 -0.2583 -0.9475
vn -0.3105 0.2583 -0.9148
vn -0.2275 0.7063 -0.6703
vn -0.0834 0.9658 -0.2456
vn 0.0834 0.9658 0.2456
vn 0.2275 0.7063 0.6703
vn 0.3105 0.2583 0.9148
vn 0.3105 -0.2583 0.9148
vn 0.2275 -0.7063 0.6703
vn 0.0834 -0.9658 0.2456
vn -0.0834 -0.9658 -0.2456
vn -0.2275 -0.7063 -0.6703
vn -0.3105 -0.2583 -0.9148
vn -0.4273 0.2583 -0.8664
vn -0.3131 0.7063 -0.6349
vn -0.1147 0.9658 -0.2326
vn 0.1147 0.9658 0.2326
vn 0.3131 0.7063 0.6349
vn 0.4273 0.2583 0.8664
vn 0.4273 -0.2583 0.8664
vn 0.3131 -0.7063 0.6349
vn 0.1147 -0.9658 0.2326
vn -0.1147 -0.9658 -0.2326
vn -0.3131 -0.7063 -0.6349
vn -0.4273 -0.2583 -0.8664
vn -0.5367 0.2583 -0.8033
vn -0.3933 0.7063 -0.5886
vn -0.1441 0.9658 -0.2156
vn 0.1441 0.9658 0.2156
vn 0.3933 0.7063 0.5886
vn 0.5367 0.2583 0.8033
vn 0.5367 -0.2583 0.8033
vn 0.3933 -0.7063 0.5886
vn 0.1441 -0.9658 0.2156
vn -0.1441 -0.9658 -0.2156
vn -0.3933 -0.7063 -0.5886
vn -0.5367 -0.2583 -0.8033
vn -0.6370 0.2583 -0.7263
vn -0.4667 0.7063 -0.5322
vn -0.1710 0.9658 -0.1950
vn 0.1710 0.9658 0.1950
vn 0.4667 0.7063 0.5322
vn 0.6370 0.2583 0.7263
vn 0.6370 -0.2583 0.7263
vn 0.4667 -0.7063 0.5322
vn 0.1710 -0.9658 0.1950
vn -0.1710 -0.9658 -0.1950
vn -0.4667 -0.7063 -0.5322
vn -0.6370 -0.2583 -0.7263
vn -0.7263 0.2583 -0.6370
vn -0.5322 0.7063 -0.4667
vn -0.1950 0.9658 -0.1710
vn 0.1950 0.9658 0.1710
vn 0.5322 0.7063 0.4667
vn 0.7263 0.2583 0.6370
vn 0.7263 -0.2583 0.6370
vn 0.5322 -0.7063 0.4667
vn 0.1950 -0.9658 0.1710
vn -0.1950 -0.9658 -0.1710
vn -0.5322 -0.7063 -0.4667
vn -0.7263 -0.2583 -0.6370
vn -0.8033 0.2583 -0.5367
vn -0.5886 0.7063 -0.3933
vn -0.2156 0.9658 -0.1441
vn 0.2156 0.9658 0.1441
vn 0.5886 0.7063 0.3933
vn 0.8033 0.2583 0.5367
vn 0.8033 -0.2583 0.5367
vn 0.5886 -0.7063 0.3933
vn 0.2156 -0.9658 0.1441
vn -0.2156 -0.9658 -0.1441
vn -0.5886 -0.7063 -0.3933
vn -0.8033 -0.2583 -0.5367
vn -0.8664 0.2583 -0.4273
vn -0.6349 0.7063 -0.3131
vn -0.2326 0.9658 -0.1147
vn 0.2326 0.9658 0.1147
vn 0.6349 0.7063 0.3131
vn 0.8664 0.2583 0.4273
vn 0.8664 -0.2583 0.4273
vn 0.6349 -0.7063 0.3131
vn 0.2326 -0.9658 0.1147
vn -0.2326 -0.9658 -0.1147
vn -0.6349 -0.7063 -0.3131
vn -0.8664 -0.2583 -0.4273
vn -0.9148 0.2583 -0.3105
vn -0.6703 0.7063 -0.2275
vn -0.2456 0.9658 -0.0834
vn 0.2456 0.9658 0.0834
vn 0.6703 0.7063 0.2275
vn 0.9148 0.2583 0.3105
vn 0.9148 -0.2583 0.3105
vn 0.6703 -0.7063 0.2275
vn 0.2456 -0.9658 0.0834
vn -0.2456 -0.9658 -0.0834
vn -0.6703 -0.7063 -0.2275
vn -0.9148 -0.2583 -0.3105
vn -0.9475 0.2583 -0.1885
vn -0.6943 0.7063 -0.1381
vn -0.2544 0.9658 -0.0506
vn 0.2544 0.9658 0.0506
vn 0.6943 0.7063 0.1381
vn 0.9475 0.2583 0.1885
vn 0.9475 -0.2583 0.1885
vn 0.6943 -0.7063 0.1381
vn 0.2544 -0.9658 0.0506
vn -0.2544 -0.9658 -0.0506
vn -0.6943 -0.7063 -0.1381
vn -0.9475 -0.2583 -0.1885
vn -0.9640 0.2583 -0.0632
vn -0.7063 0.7063 -0.0463
vn -0.2588 0.9658 -0.0170
vn 0.2588 0.9658 0.0170
vn 0.7063 0.7063 0.0463
vn 0.9640 0.2583 0.0632
vn 0.9640 -0.2583 0.0632
vn 0.7063 -0.7063 0.0463
vn 0.2588 -0.9658 0.0170
vn -0.2588 -0.9658 -0.0170
vn -0.7063 -0.7063 -0.0463
vn -0.9640 -0.2583 -0.0632
vt 0.519426 0.184871
vt 0.480575 0.184871
vt 0.481095 0.154127
vt 0.518906 0.154127
vt 0.482517 0.123411
vt 0.517483 0.123411
vt 0.484460 0.092723
vt 0.515541 0.092723
vt 0.486403 0.062035
vt 0.513598 0.062035
vt 0.487825 0.031319
vt 0.512176 0.031319
vt 0.488345 0.000574
vt 0.511656 0.000574
vt 0.511656 0.369169
vt 0.488345 0.369169
vt 0.487825 0.338424
vt 0.512176 0.338424
vt 0.486403 0.307708
vt 0.513598 0.307708
vt 0.484460 0.277020
vt 0.515541 0.277020
vt 0.482517 0.246332
vt 0.517483 0.246332
vt 0.481095 0.215616
vt 0.518906 0.215616
vt 0.719426 0.554614
vt 0.680575 0.554614
vt 0.681095 0.523870
vt 0.718906 0.523870
vt 0.682517 0.493154
vt 0.717483 0.493154
vt 0.684460 0.462466
vt 0.715541 0.462466
vt 0.686402 0.431778
vt 0.713598 0.431778
vt 0.687824 0.401062
vt 0.712176 0.401062
vt 0.688345 0.370317
vt 0.711656 0.370317
vt 0.711656 0.738911
vt 0.688345 0.738911
vt 0.687825 0.708167
vt 0.712176 0.708167
vt 0.686402 0.677451
vt 0.713598 0.677451
vt 0.684460 0.646763
vt 0.715541 0.646763
vt 0.682517 0.616075
vt 0.717483 0.616075
vt 0.681095 0.585359
vt 0.718906 0.585359
vt 0.679426 0.554614
vt 0.640575 0.554614
vt 0.641095 0.523870
vt 0.678905 0.523870
vt 0.642517 0.493153
vt 0.677483 0.493153
vt 0.644460 0.462466
vt 0.675541 0.462466
vt 0.646402 0.431778
vt 0.673598 0.431778
vt 0.647825 0.401062
vt 0.672176 0.401062
vt 0.648345 0.370317
vt 0.671656 0.370317
vt 0.671656 0.738911
vt 0.648345 0.738911
vt 0.647825 0.708167
vt 0.672176 0.708167
vt 0.646403 0.677451
vt 0.673598 0.677451
vt 0.644460 0.646763
vt 0.675541 0.646763
vt 0.642517 0.616075
vt 0.677483 0.616075
vt 0.641095 0.585359
vt 0.678906 0.585359
vt 0.440575 0.184871
vt 0.479426 0.184872
vt 0.478906 0.215616
vt 0.441095 0.215616
vt 0.477483 0.246332
vt 0.442517 0.246332
vt 0.475541 0.277020
vt 0.444460 0.277020
vt 0.473598 0.307708
vt 0.446402 0.307708
vt 0.472176 0.338424
vt 0.447824 0.338424
vt 0.471656 0.369169
vt 0.448345 0.369169
vt 0.448345 0.000574
vt 0.471656 0.000574
vt 0.472177 0.031319
vt 0.447825 0.031319
vt 0.473599 0.062035
vt 0.446403 0.062035
vt 0.475541 0.092723
vt 0.444460 0.092723
vt 0.477484 0.123411
vt 0.442517 0.123411
vt 0.478906 0.154127
vt 0.441095 0.154127
vt 0.520575 0.184871
vt 0.559426 0.184871
vt 0.558906 0.215616
vt 0.521095 0.215616
vt 0.557483 0.246332
vt 0.522517 0.246332
vt 0.555541 0.277020
vt 0.524460 0.277020
vt 0.553598 0.307708
vt 0.526403 0.307708
vt 0.552176 0.338424
vt 0.527825 0.338424
vt 0.551656 0.369169
vt 0.528345 0.369169
vt 0.528345 0.000574
vt 0.551656 0.000574
vt 0.552176 0.031319
vt 0.527825 0.031319
vt 0.553598 0.062035
vt 0.526403 0.062035
vt 0.555541 0.092723
vt 0.524460 0.092723
vt 0.557483 0.123411
vt 0.522517 0.123411
vt 0.558906 0.154127
vt 0.521095 0.154127
vt 0.440575 0.554614
vt 0.479426 0.554614
vt 0.478906 0.585359
vt 0.441095 0.585359
vt 0.477483 0.616075
vt 0.442517 0.616075
vt 0.475541 0.646763
vt 0.444460 0.646763
vt 0.473598 0.677451
vt 0.446402 0.677451
vt 0.472176 0.708167
vt 0.447824 0.708167
vt 0.471656 0.738911
vt 0.448345 0.738911
vt 0.448345 0.370317
vt 0.471656 0.370317
vt 0.472176 0.401062
vt 0.447825 0.401062
vt 0.473598 0.431778
vt 0.446403 0.431778
vt 0.475541 0.462466
vt 0.444460 0.462466
vt 0.477484 0.493154
vt 0.442517 0.493154
vt 0.478906 0.523870
vt 0.441095 0.523870
vt 0.920574 0.184871
vt 0.959425 0.184871
vt 0.958905 0.215616
vt 0.921095 0.215616
vt 0.957483 0.246332
vt 0.922517 0.246332
vt 0.955540 0.277020
vt 0.924459 0.277020
vt 0.953598 0.307708
vt 0.926402 0.307708
vt 0.952176 0.338424
vt 0.927824 0.338424
vt 0.951655 0.369168
vt 0.928344 0.369168
vt 0.928344 0.000574
vt 0.951655 0.000574
vt 0.952176 0.031319
vt 0.927824 0.031319
vt 0.953598 0.062035
vt 0.926402 0.062035
vt 0.955540 0.092723
vt 0.924459 0.092723
vt 0.957483 0.123411
vt 0.922517 0.123411
vt 0.958905 0.154127
vt 0.921095 0.154127
vt 0.200575 0.554614
vt 0.239427 0.554614
vt 0.238906 0.585359
vt 0.201096 0.585359
vt 0.237484 0.616075
vt 0.202518 0.616075
vt 0.235541 0.646763
vt 0.204460 0.646763
vt 0.233599 0.677451
vt 0.206403 0.677451
vt 0.232177 0.708167
vt 0.207825 0.708167
vt 0.231656 0.738911
vt 0.208345 0.738911
vt 0.208345 0.370317
vt 0.231656 0.370317
vt 0.232177 0.401062
vt 0.207825 0.401062
vt 0.233599 0.431778
vt 0.206403 0.431778
vt 0.235541 0.462466
vt 0.204460 0.462466
vt 0.237484 0.493154
vt 0.202518 0.493154
vt 0.238906 0.523870
vt 0.201096 0.523870
vt 0.040575 0.554614
vt 0.079426 0.554614
vt 0.078905 0.585359
vt 0.041095 0.585359
vt 0.077483 0.616075
vt 0.042517 0.616075
vt 0.075541 0.646763
vt 0.044460 0.646763
vt 0.073598 0.677451
vt 0.046402 0.677451
vt 0.072176 0.708167
vt 0.047824 0.708167
vt 0.071656 0.738912
vt 0.048345 0.738912
vt 0.048345 0.370317
vt 0.071656 0.370317
vt 0.072176 0.401062
vt 0.047824 0.401062
vt 0.073598 0.431778
vt 0.046402 0.431778
vt 0.075541 0.462466
vt 0.044460 0.462466
vt 0.077483 0.493154
vt 0.042517 0.493154
vt 0.078905 0.523870
vt 0.041095 0.523870
vt 0.520575 0.554614
vt 0.559426 0.554614
vt 0.558906 0.585359
vt 0.521095 0.585359
vt 0.557484 0.616075
vt 0.522517 0.616075
vt 0.555541 0.646763
vt 0.524460 0.646763
vt 0.553599 0.677451
vt 0.526403 0.677451
vt 0.552176 0.708167
vt 0.527825 0.708167
vt 0.551656 0.738911
vt 0.528345 0.738911
vt 0.528345 0.370317
vt 0.551656 0.370317
vt 0.552176 0.401062
vt 0.527825 0.401062
vt 0.553598 0.431778
vt 0.526403 0.431778
vt 0.555541 0.462466
vt 0.524460 0.462466
vt 0.557484 0.493154
vt 0.522517 0.493154
vt 0.558906 0.523870
vt 0.521095 0.523870
vt 0.119426 0.184871
vt 0.080575 0.184871
vt 0.081095 0.154127
vt 0.118906 0.154127
vt 0.082517 0.123411
vt 0.117483 0.123411
vt 0.084460 0.092723
vt 0.115541 0.092723
vt 0.086402 0.062035
vt 0.113598 0.062035
vt 0.087825 0.031319
vt 0.112176 0.031319
vt 0.088345 0.000574
vt 0.111656 0.000574
vt 0.111656 0.369169
vt 0.088345 0.369169
vt 0.087824 0.338424
vt 0.112176 0.338424
vt 0.086402 0.307708
vt 0.113598 0.307708
vt 0.084460 0.277020
vt 0.115541 0.277020
vt 0.082517 0.246332
vt 0.117483 0.246332
vt 0.081095 0.215616
vt 0.118905 0.215616
vt 0.640575 0.184872
vt 0.679426 0.184872
vt 0.678905 0.215616
vt 0.641095 0.215616
vt 0.677483 0.246332
vt 0.642517 0.246332
vt 0.675541 0.277020
vt 0.644460 0.277020
vt 0.673598 0.307708
vt 0.646402 0.307708
vt 0.672176 0.338424
vt 0.647824 0.338424
vt 0.671656 0.369169
vt 0.648345 0.369169
vt 0.648345 0.000574
vt 0.671656 0.000574
vt 0.672176 0.031319
vt 0.647824 0.031319
vt 0.673598 0.062035
vt 0.646402 0.062035
vt 0.675541 0.092723
vt 0.644460 0.092723
vt 0.677483 0.123411
vt 0.642517 0.123411
vt 0.678905 0.154127
vt 0.641095 0.154127
vt 0.359427 0.554614
vt 0.320576 0.554614
vt 0.321096 0.523870
vt 0.358906 0.523870
vt 0.322518 0.493154
vt 0.357484 0.493154
vt 0.324461 0.462466
vt 0.355542 0.462466
vt 0.326403 0.431778
vt 0.353599 0.431778
vt 0.327825 0.401062
vt 0.352177 0.401062
vt 0.328346 0.370317
vt 0.351657 0.370317
vt 0.351656 0.738912
vt 0.328346 0.738912
vt 0.327825 0.708167
vt 0.352177 0.708167
vt 0.326403 0.677451
vt 0.353599 0.677451
vt 0.324461 0.646763
vt 0.355542 0.646763
vt 0.322518 0.616075
vt 0.357484 0.616075
vt 0.321096 0.585359
vt 0.358906 0.585359
vt 0.840574 0.184871
vt 0.879426 0.184871
vt 0.878905 0.215616
vt 0.841095 0.215616
vt 0.877483 0.246332
vt 0.842517 0.246332
vt 0.875540 0.277020
vt 0.844460 0.277020
vt 0.873598 0.307708
vt 0.846402 0.307708
vt 0.872176 0.338424
vt 0.847824 0.338424
vt 0.871655 0.369169
vt 0.848345 0.369169
vt 0.848344 0.000574
vt 0.871655 0.000574
vt 0.872176 0.031319
vt 0.847824 0.031319
vt 0.873598 0.062035
vt 0.846402 0.062035
vt 0.875540 0.092723
vt 0.844459 0.092723
vt 0.877483 0.123411
vt 0.842517 0.123411
vt 0.878905 0.154127
vt 0.841095 0.154127
vt 0.279427 0.554614
vt 0.240575 0.554614
vt 0.241096 0.523870
vt 0.278906 0.523870
vt 0.242518 0.493154
vt 0.277484 0.493154
vt 0.244461 0.462466
vt 0.275542 0.462466
vt 0.246403 0.431778
vt 0.273599 0.431778
vt 0.247825 0.401062
vt 0.272177 0.401062
vt 0.248346 0.370317
vt 0.271656 0.370317
vt 0.271656 0.738912
vt 0.248345 0.738912
vt 0.247825 0.708167
vt 0.272177 0.708167
vt 0.246403 0.677451
vt 0.273599 0.677451
vt 0.244460 0.646763
vt 0.275541 0.646763
vt 0.242518 0.616075
vt 0.277484 0.616075
vt 0.241096 0.585359
vt 0.278906 0.585359
vt 0.279426 0.184872
vt 0.240575 0.184871
vt 0.241095 0.154127
vt 0.278905 0.154127
vt 0.242517 0.123411
vt 0.277483 0.123411
vt 0.244460 0.092723
vt 0.275541 0.092723
vt 0.246402 0.062035
vt 0.273598 0.062035
vt 0.247824 0.031319
vt 0.272176 0.031319
vt 0.248345 0.000574
vt 0.271656 0.000574
vt 0.271656 0.369169
vt 0.248345 0.369169
vt 0.247824 0.338424
vt 0.272176 0.338424
vt 0.246402 0.307708
vt 0.273598 0.307708
vt 0.244460 0.277020
vt 0.275541 0.277020
vt 0.242517 0.246332
vt 0.277483 0.246332
vt 0.241095 0.215616
vt 0.278905 0.215616
vt 0.960574 0.554614
vt 0.999426 0.554614
vt 0.998905 0.585359
vt 0.961095 0.585359
vt 0.997483 0.616075
vt 0.962517 0.616075
vt 0.995540 0.646763
vt 0.964459 0.646763
vt 0.993598 0.677451
vt 0.966402 0.677451
vt 0.992176 0.708167
vt 0.967824 0.708167
vt 0.991655 0.738911
vt 0.968345 0.738911
vt 0.968345 0.370317
vt 0.991655 0.370317
vt 0.992176 0.401062
vt 0.967824 0.401062
vt 0.993598 0.431778
vt 0.966402 0.431778
vt 0.995540 0.462466
vt 0.964459 0.462466
vt 0.997483 0.493154
vt 0.962517 0.493154
vt 0.998905 0.523870
vt 0.961095 0.523870
vt 0.040575 0.184871
vt 0.079426 0.184871
vt 0.078905 0.215616
vt 0.041095 0.215616
vt 0.077483 0.246332
vt 0.042517 0.246332
vt 0.075541 0.277020
vt 0.044460 0.277020
vt 0.073598 0.307708
vt 0.046402 0.307708
vt 0.072176 0.338424
vt 0.047824 0.338424
vt 0.071656 0.369169
vt 0.048345 0.369169
vt 0.048345 0.000574
vt 0.071656 0.000574
vt 0.072176 0.031319
vt 0.047824 0.031319
vt 0.073598 0.062035
vt 0.046402 0.062035
vt 0.075541 0.092723
vt 0.044460 0.092723
vt 0.077483 0.123411
vt 0.042517 0.123411
vt 0.078905 0.154127
vt 0.041095 0.154127
vt 0.760575 0.184871
vt 0.799426 0.184871
vt 0.798905 0.215616
vt 0.761095 0.215616
vt 0.797483 0.246332
vt 0.762517 0.246332
vt 0.795541 0.277020
vt 0.764460 0.277020
vt 0.793598 0.307708
vt 0.766402 0.307708
vt 0.792176 0.338424
vt 0.767824 0.338424
vt 0.791656 0.369168
vt 0.768345 0.369168
vt 0.768345 0.000574
vt 0.791656 0.000574
vt 0.792176 0.031319
vt 0.767824 0.031319
vt 0.793598 0.062035
vt 0.766402 0.062035
vt 0.795541 0.092723
vt 0.764460 0.092723
vt 0.797483 0.123411
vt 0.762517 0.123411
vt 0.798905 0.154127
vt 0.761095 0.154127
vt 0.920574 0.554614
vt 0.959426 0.554614
vt 0.958905 0.585359
vt 0.921095 0.585359
vt 0.957483 0.616075
vt 0.922517 0.616075
vt 0.955541 0.646763
vt 0.924460 0.646763
vt 0.953598 0.677451
vt 0.926402 0.677451
vt 0.952176 0.708167
vt 0.927824 0.708167
vt 0.951655 0.738911
vt 0.928345 0.738911
vt 0.928345 0.370317
vt 0.951655 0.370317
vt 0.952176 0.401062
vt 0.927824 0.401062
vt 0.953598 0.431778
vt 0.926402 0.431778
vt 0.955541 0.462466
vt 0.924460 0.462466
vt 0.957483 0.493154
vt 0.922517 0.493154
vt 0.958905 0.523870
vt 0.921095 0.523870
vt 0.280575 0.554614
vt 0.319427 0.554614
vt 0.318906 0.585359
vt 0.281096 0.585359
vt 0.317484 0.616075
vt 0.282518 0.616075
vt 0.315541 0.646763
vt 0.284460 0.646763
vt 0.313599 0.677451
vt 0.286403 0.677451
vt 0.312177 0.708167
vt 0.287825 0.708167
vt 0.311656 0.738911
vt 0.288346 0.738911
vt 0.288346 0.370317
vt 0.311657 0.370317
vt 0.312177 0.401062
vt 0.287825 0.401062
vt 0.313599 0.431778
vt 0.286403 0.431778
vt 0.315542 0.462466
vt 0.284461 0.462466
vt 0.317484 0.493154
vt 0.282518 0.493154
vt 0.318906 0.523870
vt 0.281096 0.523870
vt 0.399427 0.554614
vt 0.360576 0.554614
vt 0.361096 0.523870
vt 0.398906 0.523870
vt 0.362518 0.493154
vt 0.397484 0.493154
vt 0.364461 0.462466
vt 0.395542 0.462466
vt 0.366403 0.431778
vt 0.393599 0.431778
vt 0.367825 0.401062
vt 0.392177 0.401062
vt 0.368346 0.370317
vt 0.391657 0.370317
vt 0.391657 0.738911
vt 0.368346 0.738911
vt 0.367825 0.708167
vt 0.392177 0.708167
vt 0.366403 0.677451
vt 0.393599 0.677451
vt 0.364461 0.646763
vt 0.395542 0.646763
vt 0.362518 0.616075
vt 0.397484 0.616075
vt 0.361096 0.585359
vt 0.398906 0.585359
vt 0.840575 0.554614
vt 0.879426 0.554614
vt 0.878905 0.585359
vt 0.841095 0.585359
vt 0.877483 0.616075
vt 0.842517 0.616075
vt 0.875541 0.646763
vt 0.844460 0.646763
vt 0.873598 0.677451
vt 0.846402 0.677451
vt 0.872176 0.708167
vt 0.847825 0.708167
vt 0.871656 0.738912
vt 0.848345 0.738912
vt 0.848345 0.370317
vt 0.871656 0.370317
vt 0.872176 0.401062
vt 0.847825 0.401062
vt 0.873598 0.431778
vt 0.846402 0.431778
vt 0.875541 0.462466
vt 0.844460 0.462466
vt 0.877483 0.493154
vt 0.842517 0.493154
vt 0.878905 0.523870
vt 0.841095 0.523870
vt 0.639426 0.554614
vt 0.600575 0.554614
vt 0.601095 0.523870
vt 0.638905 0.523870
vt 0.602517 0.493154
vt 0.637483 0.493153
vt 0.604460 0.462466
vt 0.635541 0.462466
vt 0.606402 0.431778
vt 0.633598 0.431778
vt 0.607824 0.401062
vt 0.632176 0.401062
vt 0.608345 0.370317
vt 0.631656 0.370317
vt 0.631656 0.738911
vt 0.608345 0.738911
vt 0.607825 0.708167
vt 0.632176 0.708167
vt 0.606403 0.677451
vt 0.633598 0.677451
vt 0.604460 0.646763
vt 0.635541 0.646763
vt 0.602517 0.616075
vt 0.637483 0.616075
vt 0.601095 0.585359
vt 0.638906 0.585359
vt 0.519426 0.554614
vt 0.480575 0.554614
vt 0.481095 0.523870
vt 0.518906 0.523870
vt 0.482517 0.493153
vt 0.517484 0.493154
vt 0.484460 0.462466
vt 0.515541 0.462466
vt 0.486403 0.431778
vt 0.513599 0.431778
vt 0.487825 0.401062
vt 0.512176 0.401062
vt 0.488345 0.370317
vt 0.511656 0.370317
vt 0.511656 0.738911
vt 0.488345 0.738911
vt 0.487824 0.708167
vt 0.512176 0.708167
vt 0.486402 0.677451
vt 0.513598 0.677451
vt 0.484460 0.646763
vt 0.515541 0.646763
vt 0.482517 0.616075
vt 0.517483 0.616075
vt 0.481095 0.585359
vt 0.518906 0.585359
vt 0.880574 0.184871
vt 0.919425 0.184871
vt 0.918905 0.215616
vt 0.881095 0.215616
vt 0.917483 0.246332
vt 0.882517 0.246332
vt 0.915540 0.277020
vt 0.884459 0.277020
vt 0.913598 0.307708
vt 0.886402 0.307708
vt 0.912176 0.338424
vt 0.887824 0.338424
vt 0.911655 0.369169
vt 0.888344 0.369168
vt 0.888344 0.000574
vt 0.911655 0.000574
vt 0.912176 0.031319
vt 0.887824 0.031319
vt 0.913598 0.062035
vt 0.886402 0.062035
vt 0.915540 0.092723
vt 0.884459 0.092723
vt 0.917483 0.123411
vt 0.882517 0.123411
vt 0.918905 0.154127
vt 0.881095 0.154127
vt 0.599426 0.184872
vt 0.560575 0.184872
vt 0.561095 0.154127
vt 0.598905 0.154127
vt 0.562517 0.123411
vt 0.597483 0.123411
vt 0.564460 0.092723
vt 0.595541 0.092723
vt 0.566402 0.062035
vt 0.593598 0.062035
vt 0.567825 0.031319
vt 0.592176 0.031319
vt 0.568345 0.000574
vt 0.591656 0.000574
vt 0.591656 0.369169
vt 0.568345 0.369169
vt 0.567824 0.338424
vt 0.592176 0.338424
vt 0.566402 0.307708
vt 0.593598 0.307708
vt 0.564460 0.277020
vt 0.595541 0.277020
vt 0.562517 0.246332
vt 0.597483 0.246332
vt 0.561095 0.215616
vt 0.598905 0.215616
vt 0.159426 0.184871
vt 0.120575 0.184872
vt 0.121095 0.154127
vt 0.158906 0.154127
vt 0.122517 0.123411
vt 0.157483 0.123411
vt 0.124460 0.092723
vt 0.155541 0.092723
vt 0.126402 0.062035
vt 0.153598 0.062035
vt 0.127824 0.031319
vt 0.152176 0.031319
vt 0.128345 0.000574
vt 0.151656 0.000574
vt 0.151656 0.369169
vt 0.128345 0.369169
vt 0.127825 0.338424
vt 0.152176 0.338424
vt 0.126403 0.307708
vt 0.153598 0.307708
vt 0.124460 0.277020
vt 0.155541 0.277020
vt 0.122517 0.246332
vt 0.157484 0.246332
vt 0.121095 0.215616
vt 0.158906 0.215616
vt 0.400575 0.184871
vt 0.439426 0.184871
vt 0.438905 0.215616
vt 0.401095 0.215616
vt 0.437483 0.246332
vt 0.402517 0.246332
vt 0.435541 0.277020
vt 0.404460 0.277020
vt 0.433598 0.307708
vt 0.406402 0.307708
vt 0.432176 0.338424
vt 0.407824 0.338424
vt 0.431656 0.369169
vt 0.408345 0.369169
vt 0.408345 0.000574
vt 0.431656 0.000574
vt 0.432176 0.031319
vt 0.407825 0.031319
vt 0.433598 0.062035
vt 0.406402 0.062035
vt 0.435541 0.092723
vt 0.404460 0.092723
vt 0.437483 0.123411
vt 0.402517 0.123411
vt 0.438906 0.154127
vt 0.401095 0.154127
vt 0.760575 0.554614
vt 0.799426 0.554614
vt 0.798906 0.585359
vt 0.761095 0.585359
vt 0.797484 0.616075
vt 0.762517 0.616075
vt 0.795541 0.646763
vt 0.764460 0.646763
vt 0.793598 0.677451
vt 0.766403 0.677451
vt 0.792176 0.708167
vt 0.767825 0.708167
vt 0.791656 0.738911
vt 0.768345 0.738911
vt 0.768345 0.370317
vt 0.791656 0.370317
vt 0.792176 0.401062
vt 0.767825 0.401062
vt 0.793598 0.431778
vt 0.766403 0.431778
vt 0.795541 0.462466
vt 0.764460 0.462466
vt 0.797484 0.493154
vt 0.762517 0.493154
vt 0.798906 0.523870
vt 0.761095 0.523870
vt 0.160575 0.184871
vt 0.199426 0.184872
vt 0.198905 0.215616
vt 0.161095 0.215616
vt 0.197483 0.246332
vt 0.162517 0.246332
vt 0.195541 0.277020
vt 0.164460 0.277020
vt 0.193598 0.307708
vt 0.166402 0.307708
vt 0.192176 0.338424
vt 0.167825 0.338424
vt 0.191656 0.369169
vt 0.168345 0.369169
vt 0.168345 0.000574
vt 0.191656 0.000574
vt 0.192176 0.031319
vt 0.167825 0.031319
vt 0.193598 0.062035
vt 0.166403 0.062035
vt 0.195541 0.092723
vt 0.164460 0.092723
vt 0.197483 0.123411
vt 0.162517 0.123411
vt 0.198905 0.154127
vt 0.161095 0.154127
vt 0.120575 0.554614
vt 0.159426 0.554614
vt 0.158906 0.585359
vt 0.121095 0.585359
vt 0.157484 0.616075
vt 0.122517 0.616075
vt 0.155541 0.646763
vt 0.124460 0.646763
vt 0.153598 0.677451
vt 0.126402 0.677451
vt 0.152176 0.708167
vt 0.127824 0.708167
vt 0.151656 0.738911
vt 0.128345 0.738911
vt 0.128345 0.370317
vt 0.151656 0.370317
vt 0.152177 0.401062
vt 0.127825 0.401062
vt 0.153599 0.431778
vt 0.126403 0.431778
vt 0.155541 0.462466
vt 0.124460 0.462466
vt 0.157484 0.493154
vt 0.122517 0.493154
vt 0.158906 0.523870
vt 0.121095 0.523870
vt 0.720575 0.554614
vt 0.759426 0.554614
vt 0.758905 0.585359
vt 0.721095 0.585359
vt 0.757483 0.616075
vt 0.722517 0.616075
vt 0.755541 0.646763
vt 0.724460 0.646763
vt 0.753598 0.677451
vt 0.726403 0.677451
vt 0.752176 0.708167
vt 0.727825 0.708167
vt 0.751656 0.738912
vt 0.728345 0.738912
vt 0.728345 0.370317
vt 0.751656 0.370317
vt 0.752176 0.401062
vt 0.727825 0.401062
vt 0.753598 0.431778
vt 0.726403 0.431778
vt 0.755541 0.462466
vt 0.724460 0.462466
vt 0.757483 0.493154
vt 0.722517 0.493154
vt 0.758905 0.523870
vt 0.721095 0.523870
vt 0.800575 0.184871
vt 0.839426 0.184871
vt 0.838905 0.215616
vt 0.801095 0.215616
vt 0.837483 0.246332
vt 0.802517 0.246332
vt 0.835541 0.277020
vt 0.804460 0.277020
vt 0.833598 0.307708
vt 0.806402 0.307708
vt 0.832176 0.338424
vt 0.807824 0.338424
vt 0.831655 0.369168
vt 0.808345 0.369168
vt 0.808345 0.000574
vt 0.831655 0.000574
vt 0.832176 0.031319
vt 0.807824 0.031319
vt 0.833598 0.062035
vt 0.806402 0.062035
vt 0.835541 0.092723
vt 0.804460 0.092723
vt 0.837483 0.123411
vt 0.802517 0.123411
vt 0.838905 0.154127
vt 0.801095 0.154127
vt 0.919426 0.554614
vt 0.880575 0.554614
vt 0.881095 0.523870
vt 0.918905 0.523870
vt 0.882517 0.493154
vt 0.917483 0.493154
vt 0.884460 0.462466
vt 0.915541 0.462466
vt 0.886402 0.431778
vt 0.913598 0.431778
vt 0.887825 0.401062
vt 0.912176 0.401062
vt 0.888345 0.370317
vt 0.911656 0.370317
vt 0.911655 0.738911
vt 0.888345 0.738911
vt 0.887824 0.708167
vt 0.912176 0.708167
vt 0.886402 0.677451
vt 0.913598 0.677451
vt 0.884460 0.646763
vt 0.915540 0.646763
vt 0.882517 0.616075
vt 0.917483 0.616075
vt 0.881095 0.585359
vt 0.918905 0.585359
vt 0.000574 0.184872
vt 0.039426 0.184872
vt 0.038905 0.215616
vt 0.001095 0.215616
vt 0.037483 0.246332
vt 0.002517 0.246332
vt 0.035541 0.277020
vt 0.004460 0.277020
vt 0.033598 0.307708
vt 0.006402 0.307708
vt 0.032176 0.338424
vt 0.007824 0.338424
vt 0.031655 0.369169
vt 0.008345 0.369169
vt 0.008345 0.000574
vt 0.031656 0.000574
vt 0.032176 0.031319
vt 0.007824 0.031319
vt 0.033598 0.062035
vt 0.006402 0.062035
vt 0.035541 0.092723
vt 0.004460 0.092723
vt 0.037483 0.123411
vt 0.002517 0.123411
vt 0.038905 0.154127
vt 0.001095 0.154127
vt 0.960574 0.184871
vt 0.999425 0.184871
vt 0.998905 0.215616
vt 0.961095 0.215616
vt 0.997483 0.246332
vt 0.962517 0.246332
vt 0.995540 0.277020
vt 0.964459 0.277020
vt 0.993598 0.307708
vt 0.966402 0.307708
vt 0.992176 0.338424
vt 0.967824 0.338424
vt 0.991655 0.369169
vt 0.968344 0.369169
vt 0.968344 0.000574
vt 0.991655 0.000574
vt 0.992175 0.031319
vt 0.967824 0.031319
vt 0.993598 0.062035
vt 0.966402 0.062035
vt 0.995540 0.092723
vt 0.964459 0.092723
vt 0.997483 0.123411
vt 0.962517 0.123411
vt 0.998905 0.154127
vt 0.961095 0.154127
vt 0.000574 0.554614
vt 0.039425 0.554614
vt 0.038905 0.585359
vt 0.001095 0.585359
vt 0.037483 0.616075
vt 0.002517 0.616075
vt 0.035540 0.646763
vt 0.004459 0.646763
vt 0.033598 0.677451
vt 0.006402 0.677451
vt 0.032176 0.708167
vt 0.007824 0.708167
vt 0.031655 0.738912
vt 0.008345 0.738912
vt 0.008345 0.370317
vt 0.031655 0.370317
vt 0.032176 0.401062
vt 0.007824 0.401062
vt 0.033598 0.431778
vt 0.006402 0.431778
vt 0.035540 0.462466
vt 0.004460 0.462466
vt 0.037483 0.493154
vt 0.002517 0.493154
vt 0.038905 0.523870
vt 0.001095 0.523870
vt 0.119426 0.554614
vt 0.080575 0.554614
vt 0.081095 0.523870
vt 0.118905 0.523870
vt 0.082517 0.493154
vt 0.117483 0.493154
vt 0.084460 0.462466
vt 0.115541 0.462466
vt 0.086402 0.431778
vt 0.113598 0.431778
vt 0.087824 0.401062
vt 0.112176 0.401062
vt 0.088345 0.370317
vt 0.111656 0.370317
vt 0.111656 0.738911
vt 0.088345 0.738911
vt 0.087824 0.708167
vt 0.112176 0.708167
vt 0.086402 0.677451
vt 0.113598 0.677451
vt 0.084460 0.646763
vt 0.115541 0.646763
vt 0.082517 0.616075
vt 0.117483 0.616075
vt 0.081095 0.585359
vt 0.118905 0.585359
vt 0.280575 0.184872
vt 0.319426 0.184872
vt 0.318905 0.215616
vt 0.281095 0.215616
vt 0.317483 0.246332
vt 0.282517 0.246332
vt 0.315541 0.277020
vt 0.284460 0.277020
vt 0.313598 0.307708
vt 0.286402 0.307708
vt 0.312176 0.338424
vt 0.287824 0.338424
vt 0.311655 0.369169
vt 0.288345 0.369169
vt 0.288345 0.000574
vt 0.311656 0.000574
vt 0.312176 0.031319
vt 0.287824 0.031319
vt 0.313598 0.062035
vt 0.286402 0.062035
vt 0.315541 0.092723
vt 0.284460 0.092723
vt 0.317483 0.123411
vt 0.282517 0.123411
vt 0.318905 0.154127
vt 0.281095 0.154127
vt 0.800575 0.554614
vt 0.839426 0.554614
vt 0.838905 0.585359
vt 0.801095 0.585359
vt 0.837483 0.616075
vt 0.802517 0.616075
vt 0.835541 0.646763
vt 0.804460 0.646763
vt 0.833598 0.677451
vt 0.806402 0.677451
vt 0.832176 0.708167
vt 0.807824 0.708167
vt 0.831656 0.738911
vt 0.808345 0.738911
vt 0.808345 0.370317
vt 0.831656 0.370317
vt 0.832176 0.401062
vt 0.807825 0.401062
vt 0.833598 0.431778
vt 0.806403 0.431778
vt 0.835541 0.462466
vt 0.804460 0.462466
vt 0.837483 0.493154
vt 0.802517 0.493154
vt 0.838905 0.523870
vt 0.801095 0.523870
vt 0.600575 0.184871
vt 0.639426 0.184871
vt 0.638905 0.215616
vt 0.601095 0.215616
vt 0.637483 0.246332
vt 0.602517 0.246332
vt 0.635541 0.277020
vt 0.604460 0.277020
vt 0.633598 0.307708
vt 0.606402 0.307708
vt 0.632176 0.338424
vt 0.607824 0.338424
vt 0.631656 0.369169
vt 0.608345 0.369169
vt 0.608345 0.000574
vt 0.631656 0.000574
vt 0.632176 0.031319
vt 0.607824 0.031319
vt 0.633598 0.062035
vt 0.606402 0.062035
vt 0.635541 0.092723
vt 0.604460 0.092723
vt 0.637483 0.123411
vt 0.602517 0.123411
vt 0.638905 0.154127
vt 0.601095 0.154127
vt 0.360574 0.184871
vt 0.399426 0.184871
vt 0.398905 0.215616
vt 0.361095 0.215616
vt 0.397483 0.246332
vt 0.362517 0.246332
vt 0.395541 0.277020
vt 0.364460 0.277020
vt 0.393598 0.307708
vt 0.366402 0.307708
vt 0.392176 0.338424
vt 0.367824 0.338424
vt 0.391656 0.369169
vt 0.368345 0.369169
vt 0.368345 0.000574
vt 0.391656 0.000574
vt 0.392176 0.031319
vt 0.367824 0.031319
vt 0.393598 0.062035
vt 0.366402 0.062035
vt 0.395541 0.092723
vt 0.364460 0.092723
vt 0.397483 0.123411
vt 0.362517 0.123411
vt 0.398905 0.154127
vt 0.361095 0.154127
vt 0.680575 0.184871
vt 0.719426 0.184871
vt 0.718905 0.215616
vt 0.681095 0.215616
vt 0.717483 0.246332
vt 0.682517 0.246332
vt 0.715541 0.277020
vt 0.684460 0.277020
vt 0.713598 0.307708
vt 0.686402 0.307708
vt 0.712176 0.338424
vt 0.687824 0.338424
vt 0.711655 0.369169
vt 0.688345 0.369169
vt 0.688345 0.000574
vt 0.711655 0.000574
vt 0.712176 0.031319
vt 0.687824 0.031319
vt 0.713598 0.062035
vt 0.686402 0.062035
vt 0.715541 0.092723
vt 0.684460 0.092723
vt 0.717483 0.123411
vt 0.682517 0.123411
vt 0.718905 0.154127
vt 0.681095 0.154127
vt 0.239426 0.184871
vt 0.200575 0.184871
vt 0.201095 0.154127
vt 0.238905 0.154127
vt 0.202517 0.123411
vt 0.237483 0.123411
vt 0.204460 0.092723
vt 0.235541 0.092723
vt 0.206403 0.062035
vt 0.233598 0.062035
vt 0.207825 0.031319
vt 0.232176 0.031319
vt 0.208345 0.000574
vt 0.231656 0.000574
vt 0.231656 0.369169
vt 0.208345 0.369169
vt 0.207825 0.338424
vt 0.232176 0.338424
vt 0.206402 0.307708
vt 0.233598 0.307708
vt 0.204460 0.277020
vt 0.235541 0.277020
vt 0.202517 0.246332
vt 0.237483 0.246332
vt 0.201095 0.215616
vt 0.238905 0.215616
vt 0.199426 0.554614
vt 0.160575 0.554614
vt 0.161096 0.523870
vt 0.198906 0.523870
vt 0.162518 0.493154
vt 0.197484 0.493154
vt 0.164460 0.462466
vt 0.195541 0.462466
vt 0.166403 0.431778
vt 0.193599 0.431778
vt 0.167825 0.401062
vt 0.192177 0.401062
vt 0.168345 0.370317
vt 0.191656 0.370317
vt 0.191656 0.738911
vt 0.168345 0.738911
vt 0.167825 0.708167
vt 0.192177 0.708167
vt 0.166403 0.677451
vt 0.193599 0.677451
vt 0.164460 0.646763
vt 0.195541 0.646763
vt 0.162518 0.616075
vt 0.197484 0.616075
vt 0.161096 0.585359
vt 0.198906 0.585359
vt 0.320575 0.184872
vt 0.359426 0.184872
vt 0.358905 0.215616
vt 0.321095 0.215616
vt 0.357483 0.246332
vt 0.322517 0.246332
vt 0.355541 0.277020
vt 0.324460 0.277020
vt 0.353598 0.307708
vt 0.326402 0.307708
vt 0.352176 0.338424
vt 0.327824 0.338424
vt 0.351655 0.369169
vt 0.328345 0.369169
vt 0.328345 0.000574
vt 0.351655 0.000574
vt 0.352176 0.031319
vt 0.327824 0.031319
vt 0.353598 0.062035
vt 0.326402 0.062035
vt 0.355541 0.092723
vt 0.324460 0.092723
vt 0.357483 0.123411
vt 0.322517 0.123411
vt 0.358905 0.154127
vt 0.321095 0.154127
vt 0.759426 0.184871
vt 0.720575 0.184871
vt 0.721095 0.154127
vt 0.758905 0.154127
vt 0.722517 0.123411
vt 0.757483 0.123411
vt 0.724460 0.092723
vt 0.755541 0.092723
vt 0.726402 0.062035
vt 0.753598 0.062035
vt 0.727824 0.031319
vt 0.752176 0.031319
vt 0.728345 0.000574
vt 0.751656 0.000574
vt 0.751655 0.369169
vt 0.728345 0.369169
vt 0.727824 0.338424
vt 0.752176 0.338424
vt 0.726402 0.307708
vt 0.753598 0.307708
vt 0.724460 0.277020
vt 0.755541 0.277020
vt 0.722517 0.246332
vt 0.757483 0.246332
vt 0.721095 0.215616
vt 0.758905 0.215616
s 0
f 1/1/1 13/2/1 14/3/1 2/4/1
f 2/4/2 14/3/2 15/5/2 3/6/2
f 3/6/3 15/5/3 16/7/3 4/8/3
f 4/8/4 16/7/4 17/9/4 5/10/4
f 5/10/5 17/9/5 18/11/5 6/12/5
f 6/12/6 18/11/6 19/13/6 7/14/6
f 7/15/7 19/16/7 20/17/7 8/18/7
f 8/18/8 20/17/8 21/19/8 9/20/8
f 9/20/9 21/19/9 22/21/9 10/22/9
f 10/22/10 22/21/10 23/23/10 11/24/10
f 11/24/11 23/23/11 24/25/11 12/26/11
f 12/26/12 24/25/12 13/2/12 1/1/12
f 13/27/13 25/28/13 26/29/13 14/30/13
f 14/30/14 26/29/14 27/31/14 15/32/14
f 15/32/15 27/31/15 28/33/15 16/34/15
f 16/34/16 28/33/16 29/35/16 17/36/16
f 17/36/17 29/35/17 30/37/17 18/38/17
f 18/38/18 30/37/18 31/39/18 19/40/18
f 19/41/19 31/42/19 32/43/19 20/44/19
f 20/44/20 32/43/20 33/45/20 21/46/20
f 21/46/21 33/45/21 34/47/21 22/48/21
f 22/48/22 34/47/22 35/49/22 23/50/22
f 23/50/23 35/49/23 36/51/23 24/52/23
f 24/52/24 36/51/24 25/28/24 13/27/24
f 25/53/25 37/54/25 38/55/25 26/56/25
f 26/56/26 38/55/26 39/57/26 27/58/26
f 27/58/27 39/57/27 40/59/27 28/60/27
f 28/60/28 40/59/28 41/61/28 29/62/28
f 29/62/29 41/61/29 42/63/29 30/64/29
f 30/64/30 42/63/30 43/65/30 31/66/30
f 31/67/31 43/68/31 44/69/31 32/70/31
f 32/70/32 44/69/32 45/71/32 33/72/32
f 33/72/33 45/71/33 46/73/33 34/74/33
f 34/74/34 46/73/34 47/75/34 35/76/34
f 35/76/35 47/75/35 48/77/35 36/78/35
f 36/78/36 48/77/36 37/54/36 25/53/36
f 37/79/37 49/80/37 50/81/37 38/82/37
f 38/82/38 50/81/38 51/83/38 39/84/38
f 39/84/39 51/83/39 52/85/39 40/86/39
f 40/86/40 52/85/40 53/87/40 41/88/40
f 41/88/41 53/87/41 54/89/41 42/90/41
f 42/90/42 54/89/42 55/91/42 43/92/42
f 43/93/43 55/94/43 56/95/43 44/96/43
f 44/96/44 56/95/44 57/97/44 45/98/44
f 45/98/45 57/97/45 58/99/45 46/100/45
f 46/100/46 58/99/46 59/101/46 47/102/46
f 47/102/47 59/101/47 60/103/47 48/104/47
f 48/104/48 60/103/48 49/80/48 37/79/48
f 49/105/49 61/106/49 62/107/49 50/108/49
f 50/108/50 62/107/50 63/109/50 51/110/50
f 51/110/51 63/109/51 64/111/51 52/112/51
f 52/112/52 64/111/52 65/113/52 53/114/52
f 53/114/53 65/113/53 66/115/53 54/116/53
f 54/116/54 66/115/54 67/117/54 55/118/54
f 55/119/55 67/120/55 68/121/55 56/122/55
f 56/122/56 68/121/56 69/123/56 57/124/56
f 57/124/57 69/123/57 70/125/57 58/126/57
f 58/126/58 70/125/58 71/127/58 59/128/58
f 59/128/59 71/127/59 72/129/59 60/130/59
f 60/130/60 72/129/60 61/106/60 49/105/60
f 61/131/61 73/132/61 74/133/61 62/134/61
f 62/134/62 74/133/62 75/135/62 63/136/62
f 63/136/63 75/135/63 76/137/63 64/138/63
f 64/138/64 76/137/64 77/139/64 65/140/64
f 65/140/65 77/139/65 78/141/65 66/142/65
f 66/142/66 78/141/66 79/143/66 67/144/66
f 67/145/67 79/146/67 80/147/67 68/148/67
f 68/148/68 80/147/68 81/149/68 69/150/68
f 69/150/69 81/149/69 82/151/69 70/152/69
f 70/152/70 82/151/70 83/153/70 71/154/70
f 71/154/71 83/153/71 84/155/71 72/156/71
f 72/156/72 84/155/72 73/132/72 61/131/72
f 73/157/73 85/158/73 86/159/73 74/160/73
f 74/160/74 86/159/74 87/161/74 75/162/74
f 75/162/75 87/161/75 88/163/75 76/164/75
f 76/164/76 88/163/76 89/165/76 77/166/76
f 77/166/77 89/165/77 90/167/77 78/168/77
f 78/168/78 90/167/78 91/169/78 79/170/78
f 79/171/79 91/172/79 92/173/79 80/174/79
f 80/174/80 92/173/80 93/175/80 81/176/80
f 81/176/81 93/175/81 94/177/81 82/178/81
f 82/178/82 94/177/82 95/179/82 83/180/82
f 83/180/83 95/179/83 96/181/83 84/182/83
f 84/182/84 96/181/84 85/158/84 73/157/84
f 85/183/85 97/184/85 98/185/85 86/186/85
f 86/186/86 98/185/86 99/187/86 87/188/86
f 87/188/87 99/187/87 100/189/87 88/190/87
f 88/190/88 100/189/88 101/191/88 89/192/88
f 89/192/89 101/191/89 102/193/89 90/194/89
f 90/194/90 102/193/90 103/195/90 91/196/90
f 91/197/91 103/198/91 104/199/91 92/200/91
f 92/200/92 104/199/92 105/201/92 93/202/92
f 93/202/93 105/201/93 106/203/93 94/204/93
f 94/204/94 106/203/94 107/205/94 95/206/94
f 95/206/95 107/205/95 108/207/95 96/208/95
f 96/208/96 108/207/96 97/184/96 85/183/96
f 97/209/97 109/210/97 110/211/97 98/212/97
f 98/212/98 110/211/98 111/213/98 99/214/98
f 99/214/99 111/213/99 112/215/99 100/216/99
f 100/216/100 112/215/100 113/217/100 101/218/100
f 101/218/101 113/217/101 114/219/101 102/220/101
f 102/220/102 114/219/102 115/221/102 103/222/102
f 103/223/103 115/224/103 116/225/103 104/226/103
f 104/226/104 116/225/104 117/227/104 105/228/104
f 105/228/105 117/227/105 118/229/105 106/230/105
f 106/230/106 118/229/106 119/231/106 107/232/106
f 107/232/107 119/231/107 120/233/107 108/234/107
f 108/234/108 120/233/108 109/210/108 97/209/108
f 109/235/109 121/236/109 122/237/109 110/238/109
f 110/238/110 122/237/110 123/239/110 111/240/110
f 111/240/111 123/239/111 124/241/111 112/242/111
f 112/242/112 124/241/112 125/243/112 113/244/112
f 113/244/113 125/243/113 126/245/113 114/246/113
f 114/246/114 126/245/114 127/247/114 115/248/114
f 115/249/115 127/250/115 128/251/115 116/252/115
f 116/252/116 128/251/116 129/253/116 117/254/116
f 117/254/117 129/253/117 130/255/117 118/256/117
f 118/256/118 130/255/118 131/257/118 119/258/118
f 119/258/119 131/257/119 132/259/119 120/260/119
f 120/260/120 132/259/120 121/236/120 109/235/120
f 121/261/121 133/262/121 134/263/121 122/264/121
f 122/264/122 134/263/122 135/265/122 123/266/122
f 123/266/123 135/265/123 136/267/123 124/268/123
f 124/268/124 136/267/124 137/269/124 125/270/124
f 125/270/125 137/269/125 138/271/125 126/272/125
f 126/272/126 138/271/126 139/273/126 127/274/126
f 127/275/127 139/276/127 140/277/127 128/278/127
f 128/278/128 140/277/128 141/279/128 129/280/128
f 129/280/129 141/279/129 142/281/129 130/282/129
f 130/282/130 142/281/130 143/283/130 131/284/130
f 131/284/131 143/283/131 144/285/131 132/286/131
f 132/286/132 144/285/132 133/262/132 121/261/132
f 133/287/133 145/288/133 146/289/133 134/290/133
f 134/290/134 146/289/134 147/291/134 135/292/134
f 135/292/135 147/291/135 148/293/135 136/294/135
f 136/294/136 148/293/136 149/295/136 137/296/136
f 137/296/137 149/295/137 150/297/137 138/298/137
f 138/298/138 150/297/138 151/299/138 139/300/138
f 139/301/139 151/302/139 152/303/139 140/304/139
f 140/304/140 152/303/140 153/305/140 141/306/140
f 141/306/141 153/305/141 154/307/141 142/308/141
f 142/308/142 154/307/142 155/309/142 143/310/142
f 143/310/143 155/309/143 156/311/143 144/312/143
f 144/312/144 156/311/144 145/288/144 133/287/144
f 145/313/145 157/314/145 158/315/145 146/316/145
f 146/316/146 158/315/146 159/317/146 147/318/146
f 147/318/147 159/317/147 160/319/147 148/320/147
f 148/320/148 160/319/148 161/321/148 149/322/148
f 149/322/149 161/321/149 162/323/149 150/324/149
f 150/324/150 162/323/150 163/325/150 151/326/150
f 151/327/151 163/328/151 164/329/151 152/330/151
f 152/330/152 164/329/152 165/331/152 153/332/152
f 153/332/153 165/331/153 166/333/153 154/334/153
f 154/334/154 166/333/154 167/335/154 155/336/154
f 155/336/155 167/335/155 168/337/155 156/338/155
f 156/338/156 168/337/156 157/314/156 145/313/156
f 157/339/157 169/340/157 170/341/157 158/342/157
f 158/342/158 170/341/158 171/343/158 159/344/158
f 159/344/159 171/343/159 172/345/159 160/346/159
f 160/346/160 172/345/160 173/347/160 161/348/160
f 161/348/161 173/347/161 174/349/161 162/350/161
f 162/350/162 174/349/162 175/351/162 163/352/162
f 163/353/163 175/354/163 176/355/163 164/356/163
f 164/356/164 176/355/164 177/357/164 165/358/164
f 165/358/165 177/357/165 178/359/165 166/360/165
f 166/360/166 178/359/166 179/361/166 167/362/166
f 167/362/167 179/361/167 180/363/167 168/364/167
f 168/364/168 180/363/168 169/340/168 157/339/168
f 169/365/169 181/366/169 182/367/169 170/368/169
f 170/368/170 182/367/170 183/369/170 171/370/170
f 171/370/171 183/369/171 184/371/171 172/372/171
f 172/372/172 184/371/172 185/373/172 173/374/172
f 173/374/173 185/373/173 186/375/173 174/376/173
f 174/376/174 186/375/174 187/377/174 175/378/174
f 175/379/175 187/380/175 188/381/175 176/382/175
f 176/382/176 188/381/176 189/383/176 177/384/176
f 177/384/177 189/383/177 190/385/177 178/386/177
f 178/386/178 190/385/178 191/387/178 179/388/178
f 179/388/179 191/387/179 192/389/179 180/390/179
f 180/390/180 192/389/180 181/366/180 169/365/180
f 181/391/181 193/392/181 194/393/181 182/394/181
f 182/394/182 194/393/182 195/395/182 183/396/182
f 183/396/183 195/395/183 196/397/183 184/398/183
f 184/398/184 196/397/184 197/399/184 185/400/184
f 185/400/185 197/399/185 198/401/185 186/402/185
f 186/402/186 198/401/186 199/403/186 187/404/186
f 187/405/187 199/406/187 200/407/187 188/408/187
f 188/408/188 200/407/188 201/409/188 189/410/188
f 189/410/189 201/409/189 202/411/189 190/412/189
f 190/412/190 202/411/190 203/413/190 191/414/190
f 191/414/191 203/413/191 204/415/191 192/416/191
f 192/416/192 204/415/192 193/392/192 181/391/192
f 193/417/193 205/418/193 206/419/193 194/420/193
f 194/420/194 206/419/194 207/421/194 195/422/194
f 195/422/195 207/421/195 208/423/195 196/424/195
f 196/424/196 208/423/196 209/425/196 197/426/196
f 197/426/197 209/425/197 210/427/197 198/428/197
f 198/428/198 210/427/198 211/429/198 199/430/198
f 199/431/199 211/432/199 212/433/199 200/434/199
f 200/434/200 212/433/200 213/435/200 201/436/200
f 201/436/201 213/435/201 214/437/201 202/438/201
f 202/438/202 214/437/202 215/439/202 203/440/202
f 203/440/203 215/439/203 216/441/203 204/442/203
f 204/442/204 216/441/204 205/418/204 193/417/204
f 205/443/205 217/444/205 218/445/205 206/446/205
f 206/446/206 218/445/206 219/447/206 207/448/206
f 207/448/207 219/447/207 220/449/207 208/450/207
f 208/450/208 220/449/208 221/451/208 209/452/208
f 209/452/209 221/451/209 222/453/209 210/454/209
f 210/454/210 222/453/210 223/455/210 211/456/210
f 211/457/211 223/458/211 224/459/211 212/460/211
f 212/460/212 224/459/212 225/461/212 213/462/212
f 213/462/213 225/461/213 226/463/213 214/464/213
f 214/464/214 226/463/214 227/465/214 215/466/214
f 215/466/215 227/465/215 228/467/215 216/468/215
f 216/468/216 228/467/216 217/444/216 205/443/216
f 217/469/217 229/470/217 230/471/217 218/472/217
f 218/472/218 230/471/218 231/473/218 219/474/218
f 219/474/219 231/473/219 232/475/219 220/476/219
f 220/476/220 232/475/220 233/477/220 221/478/220
f 221/478/221 233/477/221 234/479/221 222/480/221
f 222/480/222 234/479/222 235/481/222 223/482/222
f 223/483/223 235/484/223 236/485/223 224/486/223
f 224/486/224 236/485/224 237/487/224 225/488/224
f 225/488/225 237/487/225 238/489/225 226/490/225
f 226/490/226 238/489/226 239/491/226 227/492/226
f 227/492/227 239/491/227 240/493/227 228/494/227
f 228/494/228 240/493/228 229/470/228 217/469/228
f 229/495/229 241/496/229 242/497/229 230/498/229
f 230/498/230 242/497/230 243/499/230 231/500/230
f 231/500/231 243/499/231 244/501/231 232/502/231
f 232/502/232 244/501/232 245/503/232 233/504/232
f 233/504/233 245/503/233 246/505/233 234/506/233
f 234/506/234 246/505/234 247/507/234 235/508/234
f 235/509/235 247/510/235 248/511/235 236/512/235
f 236/512/236 248/511/236 249/513/236 237/514/236
f 237/514/237 249/513/237 250/515/237 238/516/237
f 238/516/238 250/515/238 251/517/238 239/518/238
f 239/518/239 251/517/239 252/519/239 240/520/239
f 240/520/240 252/519/240 241/496/240 229/495/240
f 241/521/241 253/522/241 254/523/241 242/524/241
f 242/524/242 254/523/242 255/525/242 243/526/242
f 243/526/243 255/525/243 256/527/243 244/528/243
f 244/528/244 256/527/244 257/529/244 245/530/244
f 245/530/245 257/529/245 258/531/245 246/532/245
f 246/532/246 258/531/246 259/533/246 247/534/246
f 247/535/247 259/536/247 260/537/247 248/538/247
f 248/538/248 260/537/248 261/539/248 249/540/248
f 249/540/249 261/539/249 262/541/249 250/542/249
f 250/542/250 262/541/250 263/543/250 251/544/250
f 251/544/251 263/543/251 264/545/251 252/546/251
f 252/546/252 264/545/252 253/522/252 241/521/252
f 253/547/253 265/548/253 266/549/253 254/550/253
f 254/550/254 266/549/254 267/551/254 255/552/254
f 255/552/255 267/551/255 268/553/255 256/554/255
f 256/554/256 268/553/256 269/555/256 257/556/256
f 257/556/257 269/555/257 270/557/257 258/558/257
f 258/558/258 270/557/258 271/559/258 259/560/258
f 259/561/259 271/562/259 272/563/259 260/564/259
f 260/564/260 272/563/260 273/565/260 261/566/260
f 261/566/261 273/565/261 274/567/261 262/568/261
f 262/568/262 274/567/262 275/569/262 263/570/262
f 263/570/263 275/569/263 276/571/263 264/572/263
f 264/572/264 276/571/264 265/548/264 253/547/264
f 265/573/265 277/574/265 278/575/265 266/576/265
f 266/576/266 278/575/266 279/577/266 267/578/266
f 267/578/267 279/577/267 280/579/267 268/580/267
f 268/580/268 280/579/268 281/581/268 269/582/268
f 269/582/269 281/581/269 282/583/269 270/584/269
f 270/584/270 282/583/270 283/585/270 271/586/270
f 271/587/271 283/588/271 284/589/271 272/590/271
f 272/590/272 284/589/272 285/591/272 273/592/272
f 273/592/273 285/591/273 286/593/273 274/594/273
f 274/594/274 286/593/274 287/595/274 275/596/274
f 275/596/275 287/595/275 288/597/275 276/598/275
f 276/598/276 288/597/276 277/574/276 265/573/276
f 277/599/277 289/600/277 290/601/277 278/602/277
f 278/602/278 290/601/278 291/603/278 279/604/278
f 279/604/279 291/603/279 292/605/279 280/606/279
f 280/606/280 292/605/280 293/607/280 281/608/280
f 281/608/281 293/607/281 294/609/281 282/610/281
f 282/610/282 294/609/282 295/611/282 283/612/282
f 283/613/283 295/614/283 296/615/283 284/616/283
f 284/616/284 296/615/284 297/617/284 285/618/284
f 285/618/285 297/617/285 298/619/285 286/620/285
f 286/620/286 298/619/286 299/621/286 287/622/286
f 287/622/287 299/621/287 300/623/287 288/624/287
f 288/624/288 300/623/288 289/600/288 277/599/288
f 289/625/6 301/626/6 302/627/6 290/628/6
f 290/628/5 302/627/5 303/629/5 291/630/5
f 291/630/4 303/629/4 304/631/4 292/632/4
f 292/632/3 304/631/3 305/633/3 293/634/3
f 293/634/2 305/633/2 306/635/2 294/636/2
f 294/636/1 306/635/1 307/637/1 295/638/1
f 295/639/12 307/640/12 308/641/12 296/642/12
f 296/642/11 308/641/11 309/643/11 297/644/11
f 297/644/10 309/643/10 310/645/10 298/646/10
f 298/646/9 310/645/9 311/647/9 299/648/9
f 299/648/8 311/647/8 312/649/8 300/650/8
f 300/650/7 312/649/7 301/626/7 289/625/7
f 301/651/18 313/652/18 314/653/18 302/654/18
f 302/654/17 314/653/17 315/655/17 303/656/17
f 303/656/16 315/655/16 316/657/16 304/658/16
f 304/658/15 316/657/15 317/659/15 305/660/15
f 305/660/14 317/659/14 318/661/14 306/662/14
f 306/662/13 318/661/13 319/663/13 307/664/13
f 307/665/24 319/666/24 320/667/24 308/668/24
f 308/668/23 320/667/23 321/669/23 309/670/23
f 309/670/22 321/669/22 322/671/22 310/672/22
f 310/672/21 322/671/21 323/673/21 311/674/21
f 311/674/20 323/673/20 324/675/20 312/676/20
f 312/676/19 324/675/19 313/652/19 301/651/19
f 313/677/30 325/678/30 326/679/30 314/680/30
f 314/680/29 326/679/29 327/681/29 315/682/29
f 315/682/28 327/681/28 328/683/28 316/684/28
f 316/684/27 328/683/27 329/685/27 317/686/27
f 317/686/26 329/685/26 330/687/26 318/688/26
f 318/688/25 330/687/25 331/689/25 319/690/25
f 319/691/36 331/692/36 332/693/36 320/694/36
f 320/694/35 332/693/35 333/695/35 321/696/35
f 321/696/34 333/695/34 334/697/34 322/698/34
f 322/698/33 334/697/33 335/699/33 323/700/33
f 323/700/32 335/699/32 336/701/32 324/702/32
f 324/702/31 336/701/31 325/678/31 313/677/31
f 325/703/42 337/704/42 338/705/42 326/706/42
f 326/706/41 338/705/41 339/707/41 327/708/41
f 327/708/40 339/707/40 340/709/40 328/710/40
f 328/710/39 340/709/39 341/711/39 329/712/39
f 329/712/38 341/711/38 342/713/38 330/714/38
f 330/714/37 342/713/37 343/715/37 331/716/37
f 331/717/48 343/718/48 344/719/48 332/720/48
f 332/720/47 344/719/47 345/721/47 333/722/47
f 333/722/46 345/721/46 346/723/46 334/724/46
f 334/724/45 346/723/45 347/725/45 335/726/45
f 335/726/44 347/725/44 348/727/44 336/728/44
f 336/728/43 348/727/43 337/704/43 325/703/43
f 337/729/54 349/730/54 350/731/54 338/732/54
f 338/732/53 350/731/53 351/733/53 339/734/53
f 339/734/52 351/733/52 352/735/52 340/736/52
f 340/736/51 352/735/51 353/737/51 341/738/51
f 341/738/50 353/737/50 354/739/50 342/740/50
f 342/740/49 354/739/49 355/741/49 343/742/49
f 343/743/60 355/744/60 356/745/60 344/746/60
f 344/746/59 356/745/59 357/747/59 345/748/59
f 345/748/58 357/747/58 358/749/58 346/750/58
f 346/750/57 358/749/57 359/751/57 347/752/57
f 347/752/56 359/751/56 360/753/56 348/754/56
f 348/754/55 360/753/55 349/730/55 337/729/55
f 349/755/66 361/756/66 362/757/66 350/758/66
f 350/758/65 362/757/65 363/759/65 351/760/65
f 351/760/64 363/759/64 364/761/64 352/762/64
f 352/762/63 364/761/63 365/763/63 353/764/63
f 353/764/62 365/763/62 366/765/62 354/766/62
f 354/766/61 366/765/61 367/767/61 355/768/61
f 355/769/72 367/770/72 368/771/72 356/772/72
f 356/772/71 368/771/71 369/773/71 357/774/71
f 357/774/70 369/773/70 370/775/70 358/776/70
f 358/776/69 370/775/69 371/777/69 359/778/69
f 359/778/68 371/777/68 372/779/68 360/780/68
f 360/780/67 372/779/67 361/756/67 349/755/67
f 361/781/78 373/782/78 374/783/78 362/784/78
f 362/784/77 374/783/77 375/785/77 363/786/77
f 363/786/76 375/785/76 376/787/76 364/788/76
f 364/788/75 376/787/75 377/789/75 365/790/75
f 365/790/74 377/789/74 378/791/74 366/792/74
f 366/792/73 378/791/73 379/793/73 367/794/73
f 367/795/84 379/796/84 380/797/84 368/798/84
f 368/798/83 380/797/83 381/799/83 369/800/83
f 369/800/82 381/799/82 382/801/82 370/802/82
f 370/802/81 382/801/81 383/803/81 371/804/81
f 371/804/80 383/803/80 384/805/80 372/806/80
f 372/806/79 384/805/79 373/782/79 361/781/79
f 373/807/90 385/808/90 386/809/90 374/810/90
f 374/810/89 386/809/89 387/811/89 375/812/89
f 375/812/88 387/811/88 388/813/88 376/814/88
f 376/814/87 388/813/87 389/815/87 377/816/87
f 377/816/86 389/815/86 390/817/86 378/818/86
f 378/818/85 390/817/85 391/819/85 379/820/85
f 379/821/96 391/822/96 392/823/96 380/824/96
f 380/824/95 392/823/95 393/825/95 381/826/95
f 381/826/94 393/825/94 394/827/94 382/828/94
f 382/828/93 394/827/93 395/829/93 383/830/93
f 383/830/92 395/829/92 396/831/92 384/832/92
f 384/832/91 396/831/91 385/808/91 373/807/91
f 385/833/102 397/834/102 398/835/102 386/836/102
f 386/836/101 398/835/101 399/837/101 387/838/101
f 387/838/100 399/837/100 400/839/100 388/840/100
f 388/840/99 400/839/99 401/841/99 389/842/99
f 389/842/98 401/841/98 402/843/98 390/844/98
f 390/844/97 402/843/97 403/845/97 391/846/97
f 391/847/108 403/848/108 404/849/108 392/850/108
f 392/850/107 404/849/107 405/851/107 393/852/107
f 393/852/106 405/851/106 406/853/106 394/854/106
f 394/854/105 406/853/105 407/855/105 395/856/105
f 395/856/104 407/855/104 408/857/104 396/858/104
f 396/858/103 408/857/103 397/834/103 385/833/103
f 397/859/114 409/860/114 410/861/114 398/862/114
f 398/862/113 410/861/113 411/863/113 399/864/113
f 399/864/112 411/863/112 412/865/112 400/866/112
f 400/866/111 412/865/111 413/867/111 401/868/111
f 401/868/110 413/867/110 414/869/110 402/870/110
f 402/870/109 414/869/109 415/871/109 403/872/109
f 403/873/120 415/874/120 416/875/120 404/876/120
f 404/876/119 416/875/119 417/877/119 405/878/119
f 405/878/118 417/877/118 418/879/118 406/880/118
f 406/880/117 418/879/117 419/881/117 407/882/117
f 407/882/116 419/881/116 420/883/116 408/884/116
f 408/884/115 420/883/115 409/860/115 397/859/115
f 409/885/126 421/886/126 422/887/126 410/888/126
f 410/888/125 422/887/125 423/889/125 411/890/125
f 411/890/124 423/889/124 424/891/124 412/892/124
f 412/892/123 424/891/123 425/893/123 413/894/123
f 413/894/122 425/893/122 426/895/122 414/896/122
f 414/896/121 426/895/121 427/897/121 415/898/121
f 415/899/132 427/900/132 428/901/132 416/902/132
f 416/902/131 428/901/131 429/903/131 417/904/131
f 417/904/130 429/903/130 430/905/130 418/906/130
f 418/906/129 430/905/129 431/907/129 419/908/129
f 419/908/128 431/907/128 432/909/128 420/910/128
f 420/910/127 432/909/127 421/886/127 409/885/127
f 421/911/138 433/912/138 434/913/138 422/914/138
f 422/914/137 434/913/137 435/915/137 423/916/137
f 423/916/136 435/915/136 436/917/136 424/918/136
f 424/918/135 436/917/135 437/919/135 425/920/135
f 425/920/134 437/919/134 438/921/134 426/922/134
f 426/922/133 438/921/133 439/923/133 427/924/133
f 427/925/144 439/926/144 440/927/144 428/928/144
f 428/928/143 440/927/143 441/929/143 429/930/143
f 429/930/142 441/929/142 442/931/142 430/932/142
f 430/932/141 442/931/141 443/933/141 431/934/141
f 431/934/140 443/933/140 444/935/140 432/936/140
f 432/936/139 444/935/139 433/912/139 421/911/139
f 433/937/150 445/938/150 446/939/150 434/940/150
f 434/940/149 446/939/149 447/941/149 435/942/149
f 435/942/148 447/941/148 448/943/148 436/944/148
f 436/944/147 448/943/147 449/945/147 437/946/147
f 437/946/146 449/945/146 450/947/146 438/948/146
f 438/948/145 450/947/145 451/949/145 439/950/145
f 439/951/156 451/952/156 452/953/156 440/954/156
f 440/954/155 452/953/155 453/955/155 441/956/155
f 441/956/154 453/955/154 454/957/154 442/958/154
f 442/958/153 454/957/153 455/959/153 443/960/153
f 443/960/152 455/959/152 456/961/152 444/962/152
f 444/962/151 456/961/151 445/938/151 433/937/151
f 445/963/162 457/964/162 458/965/162 446/966/162
f 446/966/161 458/965/161 459/967/161 447/968/161
f 447/968/160 459/967/160 460/969/160 448/970/160
f 448/970/159 460/969/159 461/971/159 449/972/159
f 449/972/158 461/971/158 462/973/158 450/974/158
f 450/974/157 462/973/157 463/975/157 451/976/157
f 451/977/168 463/978/168 464/979/168 452/980/168
f 452/980/167 464/979/167 465/981/167 453/982/167
f 453/982/166 465/981/166 466/983/166 454/984/166
f 454/984/165 466/983/165 467/985/165 455/986/165
f 455/986/164 467/985/164 468/987/164 456/988/164
f 456/988/163 468/987/163 457/964/163 445/963/163
f 457/989/174 469/990/174 470/991/174 458/992/174
f 458/992/173 470/991/173 471/993/173 459/994/173
f 459/994/172 471/993/172 472/995/172 460/996/172
f 460/996/171 472/995/171 473/997/171 461/998/171
f 461/998/170 473/997/170 474/999/170 462/1000/170
f 462/1000/169 474/999/169 475/1001/169 463/1002/169
f 463/1003/180 475/1004/180 476/1005/180 464/1006/180
f 464/1006/179 476/1005/179 477/1007/179 465/1008/179
f 465/1008/178 477/1007/178 478/1009/178 466/1010/178
f 466/1010/177 478/1009/177 479/1011/177 467/1012/177
f 467/1012/176 479/1011/176 480/1013/176 468/1014/176
f 468/1014/175 480/1013/175 469/990/175 457/989/175
f 469/1015/186 481/1016/186 482/1017/186 470/1018/186
f 470/1018/185 482/1017/185 483/1019/185 471/1020/185
f 471/1020/184 483/1019/184 484/1021/184 472/1022/184
f 472/1022/183 484/1021/183 485/1023/183 473/1024/183
f 473/1024/182 485/1023/182 486/1025/182 474/1026/182
f 474/1026/181 486/1025/181 487/1027/181 475/1028/181
f 475/1029/192 487/1030/192 488/1031/192 476/1032/192
f 476/1032/191 488/1031/191 489/1033/191 477/1034/191
f 477/1034/190 489/1033/190 490/1035/190 478/1036/190
f 478/1036/189 490/1035/189 491/1037/189 479/1038/189
f 479/1038/188 491/1037/188 492/1039/188 480/1040/188
f 480/1040/187 492/1039/187 481/1016/187 469/1015/187
f 481/1041/198 493/1042/198 494/1043/198 482/1044/198
f 482/1044/197 494/1043/197 495/1045/197 483/1046/197
f 483/1046/196 495/1045/196 496/1047/196 484/1048/196
f 484/1048/195 496/1047/195 497/1049/195 485/1050/195
f 485/1050/194 497/1049/194 498/1051/194 486/1052/194
f 486/1052/193 498/1051/193 499/1053/193 487/1054/193
f 487/1055/204 499/1056/204 500/1057/204 488/1058/204
f 488/1058/203 500/1057/203 501/1059/203 489/1060/203
f 489/1060/202 501/1059/202 502/1061/202 490/1062/202
f 490/1062/201 502/1061/201 503/1063/201 491/1064/201
f 491/1064/200 503/1063/200 504/1065/200 492/1066/200
f 492/1066/199 504/1065/199 493/1042/199 481/1041/199
f 493/1067/210 505/1068/210 506/1069/210 494/1070/210
f 494/1070/209 506/1069/209 507/1071/209 495/1072/209
f 495/1072/208 507/1071/208 508/1073/208 496/1074/208
f 496/1074/207 508/1073/207 509/1075/207 497/1076/207
f 497/1076/206 509/1075/206 510/1077/206 498/1078/206
f 498/1078/205 510/1077/205 511/1079/205 499/1080/205
f 499/1081/216 511/1082/216 512/1083/216 500/1084/216
f 500/1084/215 512/1083/215 513/1085/215 501/1086/215
f 501/1086/214 513/1085/214 514/1087/214 502/1088/214
f 502/1088/213 514/1087/213 515/1089/213 503/1090/213
f 503/1090/212 515/1089/212 516/1091/212 504/1092/212
f 504/1092/211 516/1091/211 505/1068/211 493/1067/211
f 505/1093/222 517/1094/222 518/1095/222 506/1096/222
f 506/1096/221 518/1095/221 519/1097/221 507/1098/221
f 507/1098/220 519/1097/220 520/1099/220 508/1100/220
f 508/1100/219 520/1099/219 521/1101/219 509/1102/219
f 509/1102/218 521/1101/218 522/1103/218 510/1104/218
f 510/1104/217 522/1103/217 523/1105/217 511/1106/217
f 511/1107/228 523/1108/228 524/1109/228 512/1110/228
f 512/1110/227 524/1109/227 525/1111/227 513/1112/227
f 513/1112/226 525/1111/226 526/1113/226 514/1114/226
f 514/1114/225 526/1113/225 527/1115/225 515/1116/225
f 515/1116/224 527/1115/224 528/1117/224 516/1118/224
f 516/1118/223 528/1117/223 517/1094/223 505/1093/223
f 517/1119/234 529/1120/234 530/1121/234 518/1122/234
f 518/1122/233 530/1121/233 531/1123/233 519/1124/233
f 519/1124/232 531/1123/232 532/1125/232 520/1126/232
f 520/1126/231 532/1125/231 533/1127/231 521/1128/231
f 521/1128/230 533/1127/230 534/1129/230 522/1130/230
f 522/1130/229 534/1129/229 535/1131/229 523/1132/229
f 523/1133/240 535/1134/240 536/1135/240 524/1136/240
f 524/1136/239 536/1135/239 537/1137/239 525/1138/239
f 525/1138/238 537/1137/238 538/1139/238 526/1140/238
f 526/1140/237 538/1139/237 539/1141/237 527/1142/237
f 527/1142/236 539/1141/236 540/1143/236 528/1144/236
f 528/1144/235 540/1143/235 529/1120/235 517/1119/235
f 529/1145/246 541/1146/246 542/1147/246 530/1148/246
f 530/1148/245 542/1147/245 543/1149/245 531/1150/245
f 531/1150/244 543/1149/244 544/1151/244 532/1152/244
f 532/1152/243 544/1151/243 545/1153/243 533/1154/243
f 533/1154/242 545/1153/242 546/1155/242 534/1156/242
f 534/1156/241 546/1155/241 547/1157/241 535/1158/241
f 535/1159/252 547/1160/252 548/1161/252 536/1162/252
f 536/1162/251 548/1161/251 549/1163/251 537/1164/251
f 537/1164/250 549/1163/250 550/1165/250 538/1166/250
f 538/1166/249 550/1165/249 551/1167/249 539/1168/249
f 539/1168/248 551/1167/248 552/1169/248 540/1170/248
f 540/1170/247 552/1169/247 541/1146/247 529/1145/247
f 541/1171/258 553/1172/258 554/1173/258 542/1174/258
f 542/1174/257 554/1173/257 555/1175/257 543/1176/257
f 543/1176/256 555/1175/256 556/1177/256 544/1178/256
f 544/1178/255 556/1177/255 557/1179/255 545/1180/255
f 545/1180/254 557/1179/254 558/1181/254 546/1182/254
f 546/1182/253 558/1181/253 559/1183/253 547/1184/253
f 547/1185/264 559/1186/264 560/1187/264 548/1188/264
f 548/1188/263 560/1187/263 561/1189/263 549/1190/263
f 549/1190/262 561/1189/262 562/1191/262 550/1192/262
f 550/1192/261 562/1191/261 563/1193/261 551/1194/261
f 551/1194/260 563/1193/260 564/1195/260 552/1196/260
f 552/1196/259 564/1195/259 553/1172/259 541/1171/259
f 553/1197/270 565/1198/270 566/1199/270 554/1200/270
f 554/1200/269 566/1199/269 567/1201/269 555/1202/269
f 555/1202/268 567/1201/268 568/1203/268 556/1204/268
f 556/1204/267 568/1203/267 569/1205/267 557/1206/267
f 557/1206/266 569/1205/266 570/1207/266 558/1208/266
f 558/1208/265 570/1207/265 571/1209/265 559/1210/265
f 559/1211/276 571/1212/276 572/1213/276 560/1214/276
f 560/1214/275 572/1213/275 573/1215/275 561/1216/275
f 561/1216/274 573/1215/274 574/1217/274 562/1218/274
f 562/1218/273 574/1217/273 575/1219/273 563/1220/273
f 563/1220/272 575/1219/272 576/1221/272 564/1222/272
f 564/1222/271 576/1221/271 565/1198/271 553/1197/271
f 565/1223/282 1/1224/282 2/1225/282 566/1226/282
f 566/1226/281 2/1225/281 3/1227/281 567/1228/281
f 567/1228/280 3/1227/280 4/1229/280 568/1230/280
f 568/1230/279 4/1229/279 5/1231/279 569/1232/279
f 569/1232/278 5/1231/278 6/1233/278 570/1234/278
f 570/1234/277 6/1233/277 7/1235/277 571/1236/277
f 571/1237/288 7/1238/288 8/1239/288 572/1240/288
f 572/1240/287 8/1239/287 9/1241/287 573/1242/287
f 573/1242/286 9/1241/286 10/1243/286 574/1244/286
f 574/1244/285 10/1243/285 11/1245/285 575/1246/285
f 575/1246/284 11/1245/284 12/1247/284 576/1248/284
f 576/1248/283 12/1247/283 1/1224/283 565/1223/283
