# Blender 4.4.1
# www.blender.org
mtllib Icon.mtl
o Cube
v 0.498836 0.500000 -0.020000
v 0.800000 0.311772 -0.020000
v 0.576783 0.493586 -0.020000
v 0.649418 0.474782 -0.020000
v 0.711791 0.444869 -0.020000
v 0.759652 0.405886 -0.020000
v 0.789738 0.360489 -0.020000
v 0.800000 -0.311772 -0.020000
v 0.498836 -0.500000 -0.020000
v 0.789738 -0.360489 -0.020000
v 0.759652 -0.405886 -0.020000
v 0.711791 -0.444869 -0.020000
v 0.649418 -0.474782 -0.020000
v 0.576783 -0.493586 -0.020000
v 0.800000 0.311772 0.020000
v 0.498836 0.500000 0.020000
v 0.789738 0.360489 0.020000
v 0.759652 0.405886 0.020000
v 0.711791 0.444869 0.020000
v 0.649418 0.474782 0.020000
v 0.576783 0.493586 0.020000
v 0.498836 -0.500000 0.020000
v 0.800000 -0.311772 0.020000
v 0.576783 -0.493586 0.020000
v 0.649418 -0.474782 0.020000
v 0.711791 -0.444869 0.020000
v 0.759652 -0.405886 0.020000
v 0.789738 -0.360489 0.020000
v -0.800000 0.311772 -0.020000
v -0.498836 0.500000 -0.020000
v -0.789738 0.360489 -0.020000
v -0.759652 0.405886 -0.020000
v -0.711791 0.444869 -0.020000
v -0.649418 0.474782 -0.020000
v -0.576783 0.493586 -0.020000
v -0.498836 -0.500000 -0.020000
v -0.800000 -0.311772 -0.020000
v -0.576783 -0.493586 -0.020000
v -0.649418 -0.474782 -0.020000
v -0.711791 -0.444869 -0.020000
v -0.759652 -0.405886 -0.020000
v -0.789738 -0.360489 -0.020000
v -0.498836 0.500000 0.020000
v -0.800000 0.311772 0.020000
v -0.576783 0.493586 0.020000
v -0.649418 0.474782 0.020000
v -0.711791 0.444869 0.020000
v -0.759652 0.405886 0.020000
v -0.789738 0.360489 0.020000
v -0.800000 -0.311772 0.020000
v -0.498836 -0.500000 0.020000
v -0.789738 -0.360489 0.020000
v -0.759652 -0.405886 0.020000
v -0.711791 -0.444869 0.020000
v -0.649418 -0.474782 0.020000
v -0.576783 -0.493586 0.020000
vn -0.0000 -1.0000 -0.0000
vn -1.0000 -0.0000 -0.0000
vn -0.0000 -0.0000 1.0000
vn -0.0000 1.0000 -0.0000
vn 1.0000 -0.0000 -0.0000
vn -0.0820 -0.9966 -0.0000
vn -0.2506 -0.9681 -0.0000
vn -0.4324 -0.9017 -0.0000
vn -0.6315 -0.7753 -0.0000
vn -0.8336 -0.5524 -0.0000
vn -0.9785 -0.2061 -0.0000
vn 0.0820 0.9966 -0.0000
vn 0.2506 0.9681 -0.0000
vn 0.4324 0.9017 -0.0000
vn 0.6315 0.7753 -0.0000
vn 0.8336 0.5524 -0.0000
vn 0.9785 0.2061 -0.0000
vn -0.0820 0.9966 -0.0000
vn -0.2506 0.9681 -0.0000
vn -0.4324 0.9017 -0.0000
vn -0.6315 0.7753 -0.0000
vn -0.8336 0.5524 -0.0000
vn -0.9785 0.2061 -0.0000
vn 0.0820 -0.9966 -0.0000
vn 0.2506 -0.9681 -0.0000
vn 0.4324 -0.9017 -0.0000
vn 0.6315 -0.7753 -0.0000
vn 0.8336 -0.5524 -0.0000
vn 0.9785 -0.2061 -0.0000
vn -0.0000 -0.0000 -1.0000
vt 0.008401 0.580972
vt 0.008401 0.788968
vt 0.000062 0.788968
vt 0.000062 0.580972
vt 0.000062 0.500000
vt 0.000062 0.370002
vt 0.008401 0.370002
vt 0.008401 0.500000
vt 0.071312 0.208543
vt 0.055062 0.207206
vt 0.039919 0.203286
vt 0.026915 0.197050
vt 0.016937 0.188923
vt 0.010664 0.179458
vt 0.008525 0.169301
vt 0.008525 0.039304
vt 0.010664 0.029147
vt 0.016937 0.019683
vt 0.026915 0.011556
vt 0.039919 0.005319
vt 0.055062 0.001399
vt 0.071312 0.000062
vt 0.279308 0.000062
vt 0.295559 0.001399
vt 0.310702 0.005319
vt 0.323705 0.011556
vt 0.333683 0.019683
vt 0.339956 0.029147
vt 0.342095 0.039304
vt 0.342095 0.169301
vt 0.339956 0.179458
vt 0.333684 0.188922
vt 0.323706 0.197050
vt 0.310702 0.203286
vt 0.295559 0.207206
vt 0.279308 0.208543
vt 0.008401 0.081034
vt 0.008401 0.289030
vt 0.000062 0.289030
vt 0.000062 0.081034
vt 0.008401 0.869941
vt 0.008401 0.999938
vt 0.000062 0.999938
vt 0.000062 0.869941
vt 0.000062 0.564667
vt 0.008401 0.564667
vt 0.000062 0.549025
vt 0.008401 0.549025
vt 0.000062 0.534603
vt 0.008401 0.534603
vt 0.000062 0.521734
vt 0.008401 0.521734
vt 0.000062 0.510379
vt 0.008401 0.510379
vt 0.000062 0.064729
vt 0.008401 0.064729
vt 0.000062 0.049086
vt 0.008401 0.049086
vt 0.000062 0.034665
vt 0.008401 0.034665
vt 0.000062 0.021796
vt 0.008401 0.021796
vt 0.000062 0.010441
vt 0.008401 0.010441
vt 0.000062 0.000062
vt 0.008401 0.000062
vt 0.008401 0.305336
vt 0.000062 0.305336
vt 0.008401 0.320978
vt 0.000062 0.320978
vt 0.008401 0.335400
vt 0.000062 0.335400
vt 0.008401 0.348269
vt 0.000062 0.348269
vt 0.008401 0.359623
vt 0.000062 0.359623
vt 0.008401 0.805274
vt 0.000062 0.805274
vt 0.008401 0.820916
vt 0.000062 0.820916
vt 0.008401 0.835338
vt 0.000062 0.835338
vt 0.008401 0.848207
vt 0.000062 0.848207
vt 0.008401 0.859561
vt 0.000062 0.859561
vt 0.071312 0.417149
vt 0.055062 0.415812
vt 0.039919 0.411891
vt 0.026915 0.405655
vt 0.016937 0.397528
vt 0.010664 0.388063
vt 0.008525 0.377907
vt 0.008525 0.247909
vt 0.010664 0.237753
vt 0.016937 0.228288
vt 0.026915 0.220161
vt 0.039919 0.213925
vt 0.055062 0.210004
vt 0.071312 0.208667
vt 0.279308 0.208667
vt 0.295559 0.210004
vt 0.310702 0.213925
vt 0.323705 0.220161
vt 0.333683 0.228288
vt 0.339956 0.237753
vt 0.342095 0.247909
vt 0.342095 0.377907
vt 0.339956 0.388063
vt 0.333683 0.397528
vt 0.323705 0.405655
vt 0.310702 0.411891
vt 0.295559 0.415812
vt 0.279308 0.417149
s 0
usemtl Material
f 36/1/1 9/2/1 22/3/1 51/4/1
f 50/5/2 44/6/2 29/7/2 37/8/2
f 22/9/3 24/10/3 25/11/3 26/12/3 27/13/3 28/14/3 23/15/3 15/16/3 17/17/3 18/18/3 19/19/3 20/20/3 21/21/3 16/22/3 43/23/3 45/24/3 46/25/3 47/26/3 48/27/3 49/28/3 44/29/3 50/30/3 52/31/3 53/32/3 54/33/3 55/34/3 56/35/3 51/36/3
f 1/37/4 30/38/4 43/39/4 16/40/4
f 8/41/5 2/42/5 15/43/5 23/44/5
f 36/1/6 51/4/6 56/45/6 38/46/6
f 38/46/7 56/45/7 55/47/7 39/48/7
f 39/48/8 55/47/8 54/49/8 40/50/8
f 40/50/9 54/49/9 53/51/9 41/52/9
f 41/52/10 53/51/10 52/53/10 42/54/10
f 42/54/11 52/53/11 50/5/11 37/8/11
f 1/37/12 16/40/12 21/55/12 3/56/12
f 3/56/13 21/55/13 20/57/13 4/58/13
f 4/58/14 20/57/14 19/59/14 5/60/14
f 5/60/15 19/59/15 18/61/15 6/62/15
f 6/62/16 18/61/16 17/63/16 7/64/16
f 7/64/17 17/63/17 15/65/17 2/66/17
f 43/39/18 30/38/18 35/67/18 45/68/18
f 45/68/19 35/67/19 34/69/19 46/70/19
f 46/70/20 34/69/20 33/71/20 47/72/20
f 47/72/21 33/71/21 32/73/21 48/74/21
f 48/74/22 32/73/22 31/75/22 49/76/22
f 49/76/23 31/75/23 29/7/23 44/6/23
f 22/3/24 9/2/24 14/77/24 24/78/24
f 24/78/25 14/77/25 13/79/25 25/80/25
f 25/80/26 13/79/26 12/81/26 26/82/26
f 26/82/27 12/81/27 11/83/27 27/84/27
f 27/84/28 11/83/28 10/85/28 28/86/28
f 28/86/29 10/85/29 8/41/29 23/44/29
f 36/87/30 38/88/30 39/89/30 40/90/30 41/91/30 42/92/30 37/93/30 29/94/30 31/95/30 32/96/30 33/97/30 34/98/30 35/99/30 30/100/30 1/101/30 3/102/30 4/103/30 5/104/30 6/105/30 7/106/30 2/107/30 8/108/30 10/109/30 11/110/30 12/111/30 13/112/30 14/113/30 9/114/30
