# Blender 5.0.0
# www.blender.org
mtllib diamond.mtl
o Diamond_aiStandardSurface1_0
v -0.191230 0.591483 0.811304
v -0.190867 0.591482 0.958786
v -0.190867 0.738965 0.958786
v -0.191230 0.738965 0.811304
v -0.191230 0.738965 0.811304
v -0.190867 0.738965 0.958786
v -0.190867 0.886449 0.958786
v -0.191230 0.886449 0.811304
v -0.191230 0.886449 0.811304
v -0.190867 0.886449 0.958786
v -0.190867 1.033932 0.958786
v -0.191230 1.033932 0.811304
v -0.191230 1.033932 0.811304
v -0.190867 1.033932 0.958786
v -0.190867 1.181415 0.958787
v -0.191230 1.181415 0.811304
v -0.193553 1.623942 -0.368787
v -0.193773 1.623863 -0.221076
v -0.193371 1.771427 -0.221229
v -0.193553 1.771427 -0.368712
v -0.193773 1.623863 -0.221076
v -0.193410 1.623863 -0.073593
v -0.193410 1.771390 -0.073710
v -0.193371 1.771427 -0.221229
v -0.193410 1.623863 -0.073593
v -0.193046 1.623863 0.073890
v -0.193047 1.771398 0.073853
v -0.193410 1.771390 -0.073710
v -0.193046 1.623863 0.073890
v -0.192683 1.623799 0.221308
v -0.192683 1.771326 0.221336
v -0.193047 1.771398 0.073853
v -0.192683 1.623799 0.221308
v -0.192644 1.623698 0.368819
v -0.192644 1.771318 0.368754
v -0.192683 1.771326 0.221336
v -0.192644 1.623698 0.368819
v -0.192463 1.623863 0.516266
v -0.192463 1.771347 0.516266
v -0.192644 1.771318 0.368754
v -0.193541 1.476609 -0.515776
v -0.194136 1.476381 -0.368559
v -0.193553 1.623942 -0.368787
v -0.193734 1.623942 -0.516269
v -0.194136 1.476381 -0.368559
v -0.193773 1.476381 -0.221076
v -0.193773 1.623863 -0.221076
v -0.193553 1.623942 -0.368787
v -0.193773 1.476381 -0.221076
v -0.193410 1.476381 -0.073593
v -0.193410 1.623863 -0.073593
v -0.193773 1.623863 -0.221076
v -0.193410 1.476381 -0.073593
v -0.193046 1.476381 0.073890
v -0.193046 1.623863 0.073890
v -0.193410 1.623863 -0.073593
v -0.193046 1.476381 0.073890
v -0.192683 1.476381 0.221373
v -0.192683 1.623799 0.221308
v -0.193046 1.623863 0.073890
v -0.192683 1.476381 0.221373
v -0.192320 1.476381 0.368855
v -0.192644 1.623698 0.368819
v -0.192683 1.623799 0.221308
v -0.192320 1.476381 0.368855
v -0.191957 1.476244 0.516201
v -0.192463 1.623863 0.516266
v -0.192644 1.623698 0.368819
v -0.191957 1.476244 0.516201
v -0.192281 1.476280 0.663648
v -0.192281 1.623762 0.663648
v -0.192463 1.623863 0.516266
v -0.193733 1.329050 -0.515889
v -0.194136 1.328898 -0.368559
v -0.194136 1.476381 -0.368559
v -0.193541 1.476609 -0.515776
v -0.194136 1.328898 -0.368559
v -0.193773 1.328897 -0.221076
v -0.193773 1.476381 -0.221076
v -0.194136 1.476381 -0.368559
v -0.193773 1.328897 -0.221076
v -0.193410 1.328898 -0.073593
v -0.193410 1.476381 -0.073593
v -0.193773 1.476381 -0.221076
v -0.193410 1.328898 -0.073593
v -0.193046 1.328898 0.073890
v -0.193046 1.476381 0.073890
v -0.193410 1.476381 -0.073593
v -0.193046 1.328898 0.073890
v -0.192683 1.328898 0.221372
v -0.192683 1.476381 0.221373
v -0.193046 1.476381 0.073890
v -0.192683 1.328898 0.221372
v -0.192320 1.328898 0.368855
v -0.192320 1.476381 0.368855
v -0.192683 1.476381 0.221373
v -0.192320 1.328898 0.368855
v -0.191957 1.328898 0.516338
v -0.191957 1.476244 0.516201
v -0.192320 1.476381 0.368855
v -0.191957 1.328898 0.516338
v -0.191593 1.328898 0.663821
v -0.192281 1.476280 0.663648
v -0.191957 1.476244 0.516201
v -0.191593 1.328898 0.663821
v -0.191229 1.328761 0.811441
v -0.191229 1.476244 0.811441
v -0.192281 1.476280 0.663648
v -0.194863 1.181529 -0.663525
v -0.194500 1.181415 -0.516042
v -0.193733 1.329050 -0.515889
v -0.194862 1.329050 -0.663372
v -0.194500 1.181415 -0.516042
v -0.194136 1.181414 -0.368559
v -0.194136 1.328898 -0.368559
v -0.193733 1.329050 -0.515889
v -0.194136 1.181414 -0.368559
v -0.193772 1.181414 -0.221076
v -0.193773 1.328897 -0.221076
v -0.194136 1.328898 -0.368559
v -0.193772 1.181414 -0.221076
v -0.193409 1.181415 -0.073593
v -0.193410 1.328898 -0.073593
v -0.193773 1.328897 -0.221076
v -0.193409 1.181415 -0.073593
v -0.193045 1.181414 0.073890
v -0.193046 1.328898 0.073890
v -0.193410 1.328898 -0.073593
v -0.193045 1.181414 0.073890
v -0.192682 1.181414 0.221372
v -0.192683 1.328898 0.221372
v -0.193046 1.328898 0.073890
v -0.192682 1.181414 0.221372
v -0.192324 1.181415 0.368855
v -0.192320 1.328898 0.368855
v -0.192683 1.328898 0.221372
v -0.192324 1.181415 0.368855
v -0.191956 1.181415 0.516338
v -0.191957 1.328898 0.516338
v -0.192320 1.328898 0.368855
v -0.191956 1.181415 0.516338
v -0.191591 1.181415 0.663821
v -0.191593 1.328898 0.663821
v -0.191957 1.328898 0.516338
v -0.191591 1.181415 0.663821
v -0.191230 1.181415 0.811304
v -0.191229 1.328761 0.811441
v -0.191593 1.328898 0.663821
v -0.194863 1.033931 -0.663525
v -0.194502 1.033931 -0.516042
v -0.194500 1.181415 -0.516042
v -0.194863 1.181529 -0.663525
v -0.194502 1.033931 -0.516042
v -0.194135 1.033932 -0.368559
v -0.194136 1.181414 -0.368559
v -0.194500 1.181415 -0.516042
v -0.194135 1.033932 -0.368559
v -0.193774 1.033931 -0.221076
v -0.193772 1.181414 -0.221076
v -0.194136 1.181414 -0.368559
v -0.193774 1.033931 -0.221076
v -0.193408 1.033931 -0.073593
v -0.193409 1.181415 -0.073593
v -0.193772 1.181414 -0.221076
v -0.193408 1.033931 -0.073593
v -0.193045 1.033931 0.073890
v -0.193045 1.181414 0.073890
v -0.193409 1.181415 -0.073593
v -0.193045 1.033931 0.073890
v -0.192683 1.033932 0.221372
v -0.192682 1.181414 0.221372
v -0.193045 1.181414 0.073890
v -0.192683 1.033932 0.221372
v -0.192322 1.033931 0.368855
v -0.192324 1.181415 0.368855
v -0.192682 1.181414 0.221372
v -0.192322 1.033931 0.368855
v -0.191957 1.033931 0.516338
v -0.191956 1.181415 0.516338
v -0.192324 1.181415 0.368855
v -0.191957 1.033931 0.516338
v -0.191594 1.033932 0.663821
v -0.191591 1.181415 0.663821
v -0.191956 1.181415 0.516338
v -0.191594 1.033932 0.663821
v -0.191230 1.033932 0.811304
v -0.191230 1.181415 0.811304
v -0.191591 1.181415 0.663821
v -0.195226 0.886448 -0.811008
v -0.194864 0.886449 -0.663525
v -0.194863 1.033931 -0.663525
v -0.195226 1.033931 -0.811008
v -0.194864 0.886449 -0.663525
v -0.194501 0.886448 -0.516042
v -0.194502 1.033931 -0.516042
v -0.194863 1.033931 -0.663525
v -0.194501 0.886448 -0.516042
v -0.194137 0.886449 -0.368559
v -0.194135 1.033932 -0.368559
v -0.194502 1.033931 -0.516042
v -0.194137 0.886449 -0.368559
v -0.193773 0.886449 -0.221076
v -0.193774 1.033931 -0.221076
v -0.194135 1.033932 -0.368559
v -0.193773 0.886449 -0.221076
v -0.193409 0.886448 -0.073593
v -0.193408 1.033931 -0.073593
v -0.193774 1.033931 -0.221076
v -0.193409 0.886448 -0.073593
v -0.193047 0.886449 0.073890
v -0.193045 1.033931 0.073890
v -0.193408 1.033931 -0.073593
v -0.193047 0.886449 0.073890
v -0.192682 0.886448 0.221372
v -0.192683 1.033932 0.221372
v -0.193045 1.033931 0.073890
v -0.192682 0.886448 0.221372
v -0.192323 0.886449 0.368855
v -0.192322 1.033931 0.368855
v -0.192683 1.033932 0.221372
v -0.192323 0.886449 0.368855
v -0.191958 0.886449 0.516338
v -0.191957 1.033931 0.516338
v -0.192322 1.033931 0.368855
v -0.191958 0.886449 0.516338
v -0.191592 0.886449 0.663821
v -0.191594 1.033932 0.663821
v -0.191957 1.033931 0.516338
v -0.191592 0.886449 0.663821
v -0.191230 0.886449 0.811304
v -0.191230 1.033932 0.811304
v -0.191594 1.033932 0.663821
v -0.195228 0.738965 -0.811008
v -0.194863 0.738965 -0.663525
v -0.194863 0.738965 -0.663525
v -0.194500 0.738965 -0.516042
v -0.194500 0.738965 -0.516042
v -0.194136 0.738965 -0.368559
v -0.194137 0.886449 -0.368559
v -0.194501 0.886448 -0.516042
v -0.194136 0.738965 -0.368559
v -0.193775 0.738965 -0.221076
v -0.193773 0.886449 -0.221076
v -0.194137 0.886449 -0.368559
v -0.193775 0.738965 -0.221076
v -0.193408 0.738965 -0.073593
v -0.193409 0.886448 -0.073593
v -0.193773 0.886449 -0.221076
v -0.193408 0.738965 -0.073593
v -0.193045 0.738966 0.073890
v -0.193047 0.886449 0.073890
v -0.193409 0.886448 -0.073593
v -0.193045 0.738966 0.073890
v -0.192682 0.738965 0.221372
v -0.192682 0.886448 0.221372
v -0.193047 0.886449 0.073890
v -0.192682 0.738965 0.221372
v -0.192320 0.738965 0.368855
v -0.192323 0.886449 0.368855
v -0.192682 0.886448 0.221372
v -0.192320 0.738965 0.368855
v -0.191956 0.738966 0.516338
v -0.191958 0.886449 0.516338
v -0.192323 0.886449 0.368855
v -0.191956 0.738966 0.516338
v -0.191593 0.738965 0.663821
v -0.191592 0.886449 0.663821
v -0.191958 0.886449 0.516338
v -0.191593 0.738965 0.663821
v -0.191230 0.738965 0.811304
v -0.191230 0.886449 0.811304
v -0.191592 0.886449 0.663821
v -0.195229 0.591482 -0.811008
v -0.194863 0.591482 -0.663525
v -0.194863 0.738965 -0.663525
v -0.195228 0.738965 -0.811008
v -0.194863 0.591482 -0.663525
v -0.194500 0.591482 -0.516042
v -0.194500 0.738965 -0.516042
v -0.194863 0.738965 -0.663525
v -0.194500 0.591482 -0.516042
v -0.194135 0.591482 -0.368559
v -0.194136 0.738965 -0.368559
v -0.194500 0.738965 -0.516042
v -0.194135 0.591482 -0.368559
v -0.193773 0.591482 -0.221076
v -0.193775 0.738965 -0.221076
v -0.194136 0.738965 -0.368559
v -0.193773 0.591482 -0.221076
v -0.193409 0.591482 -0.073593
v -0.193408 0.738965 -0.073593
v -0.193775 0.738965 -0.221076
v -0.193409 0.591482 -0.073593
v -0.193046 0.591483 0.073889
v -0.193045 0.738966 0.073890
v -0.193408 0.738965 -0.073593
v -0.193046 0.591483 0.073889
v -0.192687 0.591482 0.221372
v -0.192682 0.738965 0.221372
v -0.193045 0.738966 0.073890
v -0.192687 0.591482 0.221372
v -0.192315 0.591482 0.368855
v -0.192320 0.738965 0.368855
v -0.192682 0.738965 0.221372
v -0.192315 0.591482 0.368855
v -0.191957 0.591483 0.516338
v -0.191956 0.738966 0.516338
v -0.192320 0.738965 0.368855
v -0.191957 0.591483 0.516338
v -0.191594 0.591483 0.663821
v -0.191593 0.738965 0.663821
v -0.191956 0.738966 0.516338
v -0.191594 0.591483 0.663821
v -0.191230 0.591483 0.811304
v -0.191230 0.738965 0.811304
v -0.191593 0.738965 0.663821
v -0.194862 0.443847 -0.663372
v -0.194499 0.443846 -0.516194
v -0.194500 0.591482 -0.516042
v -0.194863 0.591482 -0.663525
v -0.194499 0.443846 -0.516194
v -0.194139 0.443999 -0.368559
v -0.194135 0.591482 -0.368559
v -0.194500 0.591482 -0.516042
v -0.194139 0.443999 -0.368559
v -0.193773 0.443999 -0.221076
v -0.193773 0.591482 -0.221076
v -0.194135 0.591482 -0.368559
v -0.193773 0.443999 -0.221076
v -0.193409 0.443999 -0.073593
v -0.193409 0.591482 -0.073593
v -0.193773 0.591482 -0.221076
v -0.193409 0.443999 -0.073593
v -0.193047 0.443999 0.073890
v -0.193046 0.591483 0.073889
v -0.193409 0.591482 -0.073593
v -0.192683 0.443999 0.221372
v -0.192687 0.591482 0.221372
v -0.192683 0.443999 0.221372
v -0.192319 0.443999 0.368855
v -0.192315 0.591482 0.368855
v -0.192687 0.591482 0.221372
v -0.192319 0.443999 0.368855
v -0.191960 0.444136 0.516201
v -0.191957 0.591483 0.516338
v -0.192315 0.591482 0.368855
v -0.191960 0.444136 0.516201
v -0.191592 0.444136 0.663958
v -0.191594 0.591483 0.663821
v -0.191957 0.591483 0.516338
v -0.191592 0.444136 0.663958
v -0.191230 0.443999 0.811304
v -0.191230 0.591483 0.811304
v -0.191594 0.591483 0.663821
v -0.194861 0.296364 -0.663372
v -0.193732 0.296400 -0.516231
v -0.194499 0.443846 -0.516194
v -0.194862 0.443847 -0.663372
v -0.193732 0.296400 -0.516231
v -0.194137 0.296400 -0.368676
v -0.194139 0.443999 -0.368559
v -0.194499 0.443846 -0.516194
v -0.194137 0.296400 -0.368676
v -0.193775 0.296516 -0.221076
v -0.193773 0.443999 -0.221076
v -0.194139 0.443999 -0.368559
v -0.193775 0.296516 -0.221076
v -0.193411 0.296516 -0.073593
v -0.193409 0.443999 -0.073593
v -0.193773 0.443999 -0.221076
v -0.193411 0.296516 -0.073593
v -0.193046 0.296516 0.073890
v -0.193047 0.443999 0.073890
v -0.193409 0.443999 -0.073593
v -0.193046 0.296516 0.073890
v -0.192683 0.296516 0.221372
v -0.192683 0.443999 0.221372
v -0.193047 0.443999 0.073890
v -0.192683 0.296516 0.221372
v -0.192320 0.296617 0.368754
v -0.192319 0.443999 0.368855
v -0.192683 0.443999 0.221372
v -0.192320 0.296617 0.368754
v -0.191955 0.296617 0.516165
v -0.191960 0.444136 0.516201
v -0.192319 0.443999 0.368855
v -0.191955 0.296617 0.516165
v -0.192284 0.296653 0.663958
v -0.191592 0.444136 0.663958
v -0.191960 0.444136 0.516201
v -0.192284 0.296653 0.663958
v -0.191228 0.296653 0.811441
v -0.191230 0.443999 0.811304
v -0.191592 0.444136 0.663958
v -0.193732 0.148917 -0.516231
v -0.193554 0.148953 -0.368712
v -0.194137 0.296400 -0.368676
v -0.193732 0.296400 -0.516231
v -0.193554 0.148953 -0.368712
v -0.193773 0.148909 -0.221113
v -0.193775 0.296516 -0.221076
v -0.194137 0.296400 -0.368676
v -0.193773 0.148909 -0.221113
v -0.193409 0.148982 -0.073630
v -0.193411 0.296516 -0.073593
v -0.193775 0.296516 -0.221076
v -0.193409 0.148982 -0.073630
v -0.193050 0.149054 0.073853
v -0.193046 0.296516 0.073890
v -0.193411 0.296516 -0.073593
v -0.193050 0.149054 0.073853
v -0.192684 0.149126 0.221336
v -0.192683 0.296516 0.221372
v -0.193046 0.296516 0.073890
v -0.192684 0.149126 0.221336
v -0.192320 0.149098 0.368718
v -0.192320 0.296617 0.368754
v -0.192683 0.296516 0.221372
v -0.192320 0.149098 0.368718
v -0.192462 0.149134 0.516165
v -0.191955 0.296617 0.516165
v -0.192320 0.296617 0.368754
v -0.192462 0.149134 0.516165
v -0.192281 0.149134 0.663648
v -0.192284 0.296653 0.663958
v -0.191955 0.296617 0.516165
v -0.193557 0.001470 -0.368712
v -0.193371 0.001426 -0.221113
v -0.193773 0.148909 -0.221113
v -0.193554 0.148953 -0.368712
v -0.193371 0.001426 -0.221113
v -0.193186 0.001498 -0.073630
v -0.193409 0.148982 -0.073630
v -0.193773 0.148909 -0.221113
v -0.193186 0.001498 -0.073630
v -0.193008 0.001571 0.073853
v -0.193050 0.149054 0.073853
v -0.193409 0.148982 -0.073630
v -0.193008 0.001571 0.073853
v -0.192827 0.001643 0.221336
v -0.192684 0.149126 0.221336
v -0.193050 0.149054 0.073853
v -0.192827 0.001643 0.221336
v -0.192644 0.001615 0.368718
v -0.192320 0.149098 0.368718
v -0.192684 0.149126 0.221336
v -0.192644 0.001615 0.368718
v -0.192463 0.001615 0.516201
v -0.192462 0.149134 0.516165
v -0.192320 0.149098 0.368718
v -0.193371 1.771427 -0.221229
v -0.193410 1.771390 -0.073710
v -0.193191 1.918873 -0.073710
v -0.193373 1.918873 -0.221193
v -0.193410 1.771390 -0.073710
v -0.193047 1.771398 0.073853
v -0.193008 1.918881 0.073853
v -0.193191 1.918873 -0.073710
v -0.193047 1.771398 0.073853
v -0.192683 1.771326 0.221336
v -0.192826 1.918809 0.221336
v -0.193008 1.918881 0.073853
v -0.192683 1.771326 0.221336
v -0.192644 1.771318 0.368754
v -0.192643 1.918801 0.368754
v -0.192826 1.918809 0.221336
v -0.193541 1.476609 -0.515776
v -0.194478 1.476724 -0.663258
v -0.194863 1.181529 -0.663525
v -0.195225 1.181643 -0.811008
v -0.021230 0.591482 0.811159
v -0.021230 0.738965 0.811159
v -0.020867 0.738965 0.958641
v -0.020867 0.591482 0.958641
v -0.021230 0.738965 0.811159
v -0.021230 0.886449 0.811159
v -0.020867 0.886449 0.958641
v -0.020867 0.738965 0.958641
v -0.021230 0.886449 0.811159
v -0.021230 1.033932 0.811159
v -0.020867 1.033932 0.958641
v -0.020867 0.886449 0.958641
v -0.021230 1.033932 0.811159
v -0.021230 1.181415 0.811159
v -0.020867 1.181415 0.958642
v -0.020867 1.033932 0.958641
v -0.023553 1.623863 -0.368705
v -0.023553 1.771346 -0.368705
v -0.023371 1.771346 -0.221221
v -0.023773 1.623863 -0.221221
v -0.023773 1.623863 -0.221221
v -0.023371 1.771346 -0.221221
v -0.023410 1.771346 -0.073738
v -0.023410 1.623863 -0.073738
v -0.023410 1.623863 -0.073738
v -0.023410 1.771346 -0.073738
v -0.023047 1.771346 0.073745
v -0.023047 1.623863 0.073745
v -0.023047 1.623863 0.073745
v -0.023047 1.771346 0.073745
v -0.022683 1.771346 0.221228
v -0.022683 1.623863 0.221228
v -0.022683 1.623863 0.221228
v -0.022683 1.771346 0.221228
v -0.022644 1.771347 0.368710
v -0.022644 1.623863 0.368710
v -0.022644 1.623863 0.368710
v -0.022644 1.771347 0.368710
v -0.022463 1.771347 0.516193
v -0.022463 1.623863 0.516193
v -0.023543 1.476495 -0.516188
v -0.023734 1.623863 -0.516187
v -0.023553 1.623863 -0.368705
v -0.024137 1.476381 -0.368704
v -0.024137 1.476381 -0.368704
v -0.023553 1.623863 -0.368705
v -0.023773 1.623863 -0.221221
v -0.023773 1.476381 -0.221221
v -0.023773 1.476381 -0.221221
v -0.023773 1.623863 -0.221221
v -0.023410 1.623863 -0.073738
v -0.023410 1.476381 -0.073738
v -0.023410 1.476381 -0.073738
v -0.023410 1.623863 -0.073738
v -0.023047 1.623863 0.073745
v -0.023047 1.476381 0.073745
v -0.023047 1.476381 0.073745
v -0.023047 1.623863 0.073745
v -0.022683 1.623863 0.221228
v -0.022683 1.476381 0.221228
v -0.022683 1.476381 0.221228
v -0.022683 1.623863 0.221228
v -0.022644 1.623863 0.368710
v -0.022320 1.476381 0.368710
v -0.022320 1.476381 0.368710
v -0.022644 1.623863 0.368710
v -0.022463 1.623863 0.516193
v -0.021957 1.476381 0.516193
v -0.021957 1.476381 0.516193
v -0.022463 1.623863 0.516193
v -0.022281 1.623863 0.663677
v -0.022281 1.476381 0.663676
v -0.023734 1.328898 -0.516187
v -0.023543 1.476495 -0.516188
v -0.024137 1.476381 -0.368704
v -0.024137 1.328898 -0.368704
v -0.024137 1.328898 -0.368704
v -0.024137 1.476381 -0.368704
v -0.023773 1.476381 -0.221221
v -0.023773 1.328897 -0.221221
v -0.023773 1.328897 -0.221221
v -0.023773 1.476381 -0.221221
v -0.023410 1.476381 -0.073738
v -0.023410 1.328898 -0.073738
v -0.023410 1.328898 -0.073738
v -0.023410 1.476381 -0.073738
v -0.023047 1.476381 0.073745
v -0.023047 1.328898 0.073745
v -0.023047 1.328898 0.073745
v -0.023047 1.476381 0.073745
v -0.022683 1.476381 0.221228
v -0.022683 1.328898 0.221228
v -0.022683 1.328898 0.221228
v -0.022683 1.476381 0.221228
v -0.022320 1.476381 0.368710
v -0.022320 1.328898 0.368710
v -0.022320 1.328898 0.368710
v -0.022320 1.476381 0.368710
v -0.021957 1.476381 0.516193
v -0.021957 1.328898 0.516194
v -0.021957 1.328898 0.516194
v -0.021957 1.476381 0.516193
v -0.022281 1.476381 0.663676
v -0.021593 1.328898 0.663676
v -0.021593 1.328898 0.663676
v -0.022281 1.476381 0.663676
v -0.021230 1.476381 0.811159
v -0.021230 1.328898 0.811159
v -0.024863 1.181529 -0.663670
v -0.024863 1.328898 -0.663669
v -0.023734 1.328898 -0.516187
v -0.024500 1.181415 -0.516187
v -0.024500 1.181415 -0.516187
v -0.023734 1.328898 -0.516187
v -0.024137 1.328898 -0.368704
v -0.024137 1.181415 -0.368704
v -0.024137 1.181415 -0.368704
v -0.024137 1.328898 -0.368704
v -0.023773 1.328897 -0.221221
v -0.023773 1.181415 -0.221221
v -0.023773 1.181415 -0.221221
v -0.023773 1.328897 -0.221221
v -0.023410 1.328898 -0.073738
v -0.023410 1.181415 -0.073738
v -0.023410 1.181415 -0.073738
v -0.023410 1.328898 -0.073738
v -0.023047 1.328898 0.073745
v -0.023047 1.181415 0.073745
v -0.023047 1.181415 0.073745
v -0.023047 1.328898 0.073745
v -0.022683 1.328898 0.221228
v -0.022683 1.181415 0.221227
v -0.022683 1.181415 0.221227
v -0.022683 1.328898 0.221228
v -0.022320 1.328898 0.368710
v -0.022320 1.181415 0.368710
v -0.022320 1.181415 0.368710
v -0.022320 1.328898 0.368710
v -0.021957 1.328898 0.516194
v -0.021957 1.181415 0.516193
v -0.021957 1.181415 0.516193
v -0.021957 1.328898 0.516194
v -0.021593 1.328898 0.663676
v -0.021593 1.181415 0.663676
v -0.021593 1.181415 0.663676
v -0.021593 1.328898 0.663676
v -0.021230 1.328898 0.811159
v -0.021230 1.181415 0.811159
v -0.024863 1.033931 -0.663670
v -0.024863 1.181529 -0.663670
v -0.024500 1.181415 -0.516187
v -0.024500 1.033931 -0.516187
v -0.024500 1.033931 -0.516187
v -0.024500 1.181415 -0.516187
v -0.024137 1.181415 -0.368704
v -0.024137 1.033932 -0.368704
v -0.024137 1.033932 -0.368704
v -0.024137 1.181415 -0.368704
v -0.023773 1.181415 -0.221221
v -0.023773 1.033931 -0.221221
v -0.023773 1.033931 -0.221221
v -0.023773 1.181415 -0.221221
v -0.023410 1.181415 -0.073738
v -0.023410 1.033931 -0.073738
v -0.023410 1.033931 -0.073738
v -0.023410 1.181415 -0.073738
v -0.023047 1.181415 0.073745
v -0.023047 1.033931 0.073745
v -0.023047 1.033931 0.073745
v -0.023047 1.181415 0.073745
v -0.022683 1.181415 0.221227
v -0.022683 1.033932 0.221228
v -0.022683 1.033932 0.221228
v -0.022683 1.181415 0.221227
v -0.022320 1.181415 0.368710
v -0.022320 1.033931 0.368710
v -0.022320 1.033931 0.368710
v -0.022320 1.181415 0.368710
v -0.021957 1.181415 0.516193
v -0.021957 1.033931 0.516193
v -0.021957 1.033931 0.516193
v -0.021957 1.181415 0.516193
v -0.021593 1.181415 0.663676
v -0.021593 1.033931 0.663676
v -0.021593 1.033931 0.663676
v -0.021593 1.181415 0.663676
v -0.021230 1.181415 0.811159
v -0.021230 1.033932 0.811159
v -0.025226 0.886448 -0.811152
v -0.025226 1.033931 -0.811152
v -0.024863 1.033931 -0.663670
v -0.024863 0.886449 -0.663670
v -0.024863 0.886449 -0.663670
v -0.024863 1.033931 -0.663670
v -0.024500 1.033931 -0.516187
v -0.024500 0.886448 -0.516187
v -0.024500 0.886448 -0.516187
v -0.024500 1.033931 -0.516187
v -0.024137 1.033932 -0.368704
v -0.024137 0.886449 -0.368704
v -0.024137 0.886449 -0.368704
v -0.024137 1.033932 -0.368704
v -0.023773 1.033931 -0.221221
v -0.023773 0.886449 -0.221221
v -0.023773 0.886449 -0.221221
v -0.023773 1.033931 -0.221221
v -0.023410 1.033931 -0.073738
v -0.023410 0.886448 -0.073738
v -0.023410 0.886448 -0.073738
v -0.023410 1.033931 -0.073738
v -0.023047 1.033931 0.073745
v -0.023047 0.886449 0.073745
v -0.023047 0.886449 0.073745
v -0.023047 1.033931 0.073745
v -0.022683 1.033932 0.221228
v -0.022683 0.886448 0.221228
v -0.022683 0.886448 0.221228
v -0.022683 1.033932 0.221228
v -0.022320 1.033931 0.368710
v -0.022320 0.886449 0.368710
v -0.022320 0.886449 0.368710
v -0.022320 1.033931 0.368710
v -0.021957 1.033931 0.516193
v -0.021957 0.886449 0.516193
v -0.021957 0.886449 0.516193
v -0.021957 1.033931 0.516193
v -0.021593 1.033931 0.663676
v -0.021593 0.886449 0.663676
v -0.021593 0.886449 0.663676
v -0.021593 1.033931 0.663676
v -0.021230 1.033932 0.811159
v -0.021230 0.886449 0.811159
v -0.025226 0.738965 -0.811153
v -0.024863 0.738965 -0.663670
v -0.024863 0.738965 -0.663670
v -0.024500 0.738965 -0.516187
v -0.024500 0.738965 -0.516187
v -0.024500 0.886448 -0.516187
v -0.024137 0.886449 -0.368704
v -0.024137 0.738965 -0.368704
v -0.024137 0.738965 -0.368704
v -0.024137 0.886449 -0.368704
v -0.023773 0.886449 -0.221221
v -0.023773 0.738965 -0.221221
v -0.023773 0.738965 -0.221221
v -0.023773 0.886449 -0.221221
v -0.023410 0.886448 -0.073738
v -0.023410 0.738965 -0.073738
v -0.023410 0.738965 -0.073738
v -0.023410 0.886448 -0.073738
v -0.023047 0.886449 0.073745
v -0.023047 0.738965 0.073745
v -0.023047 0.738965 0.073745
v -0.023047 0.886449 0.073745
v -0.022683 0.886448 0.221228
v -0.022683 0.738965 0.221227
v -0.022683 0.738965 0.221227
v -0.022683 0.886448 0.221228
v -0.022320 0.886449 0.368710
v -0.022320 0.738965 0.368710
v -0.022320 0.738965 0.368710
v -0.022320 0.886449 0.368710
v -0.021957 0.886449 0.516193
v -0.021957 0.738965 0.516193
v -0.021957 0.738965 0.516193
v -0.021957 0.886449 0.516193
v -0.021593 0.886449 0.663676
v -0.021593 0.738965 0.663676
v -0.021593 0.738965 0.663676
v -0.021593 0.886449 0.663676
v -0.021230 0.886449 0.811159
v -0.021230 0.738965 0.811159
v -0.025226 0.591482 -0.811152
v -0.025226 0.738965 -0.811153
v -0.024863 0.738965 -0.663670
v -0.024863 0.591482 -0.663670
v -0.024863 0.591482 -0.663670
v -0.024863 0.738965 -0.663670
v -0.024500 0.738965 -0.516187
v -0.024500 0.591482 -0.516187
v -0.024500 0.591482 -0.516187
v -0.024500 0.738965 -0.516187
v -0.024137 0.738965 -0.368704
v -0.024137 0.591482 -0.368704
v -0.024137 0.591482 -0.368704
v -0.024137 0.738965 -0.368704
v -0.023773 0.738965 -0.221221
v -0.023773 0.591482 -0.221221
v -0.023773 0.591482 -0.221221
v -0.023773 0.738965 -0.221221
v -0.023410 0.738965 -0.073738
v -0.023410 0.591482 -0.073738
v -0.023410 0.591482 -0.073738
v -0.023410 0.738965 -0.073738
v -0.023047 0.738965 0.073745
v -0.023047 0.591482 0.073745
v -0.023047 0.591482 0.073745
v -0.023047 0.738965 0.073745
v -0.022683 0.738965 0.221227
v -0.022683 0.591482 0.221227
v -0.022683 0.591482 0.221227
v -0.022683 0.738965 0.221227
v -0.022320 0.738965 0.368710
v -0.022320 0.591482 0.368710
v -0.022320 0.591482 0.368710
v -0.022320 0.738965 0.368710
v -0.021957 0.738965 0.516193
v -0.021957 0.591482 0.516193
v -0.021957 0.591482 0.516193
v -0.021957 0.738965 0.516193
v -0.021593 0.738965 0.663676
v -0.021593 0.591482 0.663676
v -0.021593 0.591482 0.663676
v -0.021593 0.738965 0.663676
v -0.021230 0.738965 0.811159
v -0.021230 0.591482 0.811159
v -0.024863 0.443999 -0.663670
v -0.024863 0.591482 -0.663670
v -0.024500 0.591482 -0.516187
v -0.024500 0.443999 -0.516187
v -0.024500 0.443999 -0.516187
v -0.024500 0.591482 -0.516187
v -0.024137 0.591482 -0.368704
v -0.024137 0.443999 -0.368704
v -0.024137 0.443999 -0.368704
v -0.024137 0.591482 -0.368704
v -0.023773 0.591482 -0.221221
v -0.023773 0.443999 -0.221221
v -0.023773 0.443999 -0.221221
v -0.023773 0.591482 -0.221221
v -0.023410 0.591482 -0.073738
v -0.023410 0.443999 -0.073738
v -0.023410 0.443999 -0.073738
v -0.023410 0.591482 -0.073738
v -0.023047 0.591482 0.073745
v -0.023047 0.443999 0.073745
v -0.022683 0.591482 0.221227
v -0.022683 0.443999 0.221227
v -0.022683 0.443999 0.221227
v -0.022683 0.591482 0.221227
v -0.022320 0.591482 0.368710
v -0.022320 0.443999 0.368710
v -0.022320 0.443999 0.368710
v -0.022320 0.591482 0.368710
v -0.021957 0.591482 0.516193
v -0.021957 0.443999 0.516193
v -0.021957 0.443999 0.516193
v -0.021957 0.591482 0.516193
v -0.021593 0.591482 0.663676
v -0.021593 0.443999 0.663676
v -0.021593 0.443999 0.663676
v -0.021593 0.591482 0.663676
v -0.021230 0.591482 0.811159
v -0.021230 0.443999 0.811159
v -0.024863 0.296516 -0.663670
v -0.024863 0.443999 -0.663670
v -0.024500 0.443999 -0.516187
v -0.023734 0.296516 -0.516187
v -0.023734 0.296516 -0.516187
v -0.024500 0.443999 -0.516187
v -0.024137 0.443999 -0.368704
v -0.024137 0.296516 -0.368704
v -0.024137 0.296516 -0.368704
v -0.024137 0.443999 -0.368704
v -0.023773 0.443999 -0.221221
v -0.023773 0.296516 -0.221221
v -0.023773 0.296516 -0.221221
v -0.023773 0.443999 -0.221221
v -0.023410 0.443999 -0.073738
v -0.023410 0.296516 -0.073738
v -0.023410 0.296516 -0.073738
v -0.023410 0.443999 -0.073738
v -0.023047 0.443999 0.073745
v -0.023047 0.296516 0.073745
v -0.023047 0.296516 0.073745
v -0.023047 0.443999 0.073745
v -0.022683 0.443999 0.221227
v -0.022683 0.296516 0.221227
v -0.022683 0.296516 0.221227
v -0.022683 0.443999 0.221227
v -0.022320 0.443999 0.368710
v -0.022320 0.296516 0.368710
v -0.022320 0.296516 0.368710
v -0.022320 0.443999 0.368710
v -0.021957 0.443999 0.516193
v -0.021957 0.296516 0.516193
v -0.021957 0.296516 0.516193
v -0.021957 0.443999 0.516193
v -0.021593 0.443999 0.663676
v -0.022281 0.296516 0.663676
v -0.022281 0.296516 0.663676
v -0.021593 0.443999 0.663676
v -0.021230 0.443999 0.811159
v -0.021230 0.296516 0.811159
v -0.023734 0.149033 -0.516187
v -0.023734 0.296516 -0.516187
v -0.024137 0.296516 -0.368704
v -0.023553 0.149033 -0.368704
v -0.023553 0.149033 -0.368704
v -0.024137 0.296516 -0.368704
v -0.023773 0.296516 -0.221221
v -0.023773 0.149033 -0.221221
v -0.023773 0.149033 -0.221221
v -0.023773 0.296516 -0.221221
v -0.023410 0.296516 -0.073738
v -0.023410 0.149033 -0.073738
v -0.023410 0.149033 -0.073738
v -0.023410 0.296516 -0.073738
v -0.023047 0.296516 0.073745
v -0.023047 0.149033 0.073745
v -0.023047 0.149033 0.073745
v -0.023047 0.296516 0.073745
v -0.022683 0.296516 0.221227
v -0.022683 0.149033 0.221227
v -0.022683 0.149033 0.221227
v -0.022683 0.296516 0.221227
v -0.022320 0.296516 0.368710
v -0.022320 0.149034 0.368710
v -0.022320 0.149034 0.368710
v -0.022320 0.296516 0.368710
v -0.021957 0.296516 0.516193
v -0.022463 0.149033 0.516193
v -0.022463 0.149033 0.516193
v -0.021957 0.296516 0.516193
v -0.022281 0.296516 0.663676
v -0.022281 0.149033 0.663676
v -0.023553 0.001550 -0.368704
v -0.023553 0.149033 -0.368704
v -0.023773 0.149033 -0.221221
v -0.023371 0.001550 -0.221221
v -0.023371 0.001550 -0.221221
v -0.023773 0.149033 -0.221221
v -0.023410 0.149033 -0.073738
v -0.023189 0.001550 -0.073739
v -0.023189 0.001550 -0.073739
v -0.023410 0.149033 -0.073738
v -0.023047 0.149033 0.073745
v -0.023008 0.001550 0.073744
v -0.023008 0.001550 0.073744
v -0.023047 0.149033 0.073745
v -0.022683 0.149033 0.221227
v -0.022826 0.001550 0.221227
v -0.022826 0.001550 0.221227
v -0.022683 0.149033 0.221227
v -0.022320 0.149034 0.368710
v -0.022644 0.001550 0.368710
v -0.022644 0.001550 0.368710
v -0.022320 0.149034 0.368710
v -0.022463 0.149033 0.516193
v -0.022463 0.001550 0.516193
v -0.023371 1.771346 -0.221221
v -0.023371 1.918829 -0.221221
v -0.023189 1.918829 -0.073739
v -0.023410 1.771346 -0.073738
v -0.023410 1.771346 -0.073738
v -0.023189 1.918829 -0.073739
v -0.023008 1.918829 0.073744
v -0.023047 1.771346 0.073745
v -0.023047 1.771346 0.073745
v -0.023008 1.918829 0.073744
v -0.022826 1.918829 0.221227
v -0.022683 1.771346 0.221228
v -0.022683 1.771346 0.221228
v -0.022826 1.918829 0.221227
v -0.022644 1.918829 0.368710
v -0.022644 1.771347 0.368710
v -0.024480 1.476609 -0.663670
v -0.023543 1.476495 -0.516188
v -0.025226 1.181643 -0.811152
v -0.024863 1.181529 -0.663670
v -0.021230 0.591482 0.811159
v -0.020867 0.591482 0.958641
v -0.020867 0.591482 0.958641
v -0.020867 0.738965 0.958641
v -0.020867 0.886449 0.958641
v -0.020867 1.033932 0.958641
v -0.020867 1.181415 0.958642
v -0.020867 1.181415 0.958642
v -0.021230 1.181415 0.811159
v -0.023371 1.771346 -0.221221
v -0.023553 1.771346 -0.368705
v -0.023553 1.771346 -0.368705
v -0.023553 1.623863 -0.368705
v -0.022463 1.623863 0.516193
v -0.022463 1.771347 0.516193
v -0.022463 1.771347 0.516193
v -0.022644 1.771347 0.368710
v -0.023553 1.623863 -0.368705
v -0.023734 1.623863 -0.516187
v -0.023734 1.623863 -0.516187
v -0.023543 1.476495 -0.516188
v -0.022281 1.476381 0.663676
v -0.022281 1.623863 0.663677
v -0.022281 1.623863 0.663677
v -0.022463 1.623863 0.516193
v -0.021230 1.328898 0.811159
v -0.021230 1.476381 0.811159
v -0.021230 1.476381 0.811159
v -0.022281 1.476381 0.663676
v -0.024863 1.328898 -0.663669
v -0.024863 1.181529 -0.663670
v -0.021230 1.181415 0.811159
v -0.025226 1.033931 -0.811152
v -0.025226 0.886448 -0.811152
v -0.025226 0.738965 -0.811153
v -0.025226 0.591482 -0.811152
v -0.024863 0.591482 -0.663670
v -0.025226 0.591482 -0.811152
v -0.024863 0.591482 -0.663670
v -0.024863 0.443999 -0.663670
v -0.021230 0.443999 0.811159
v -0.021230 0.591482 0.811159
v -0.024863 0.296516 -0.663670
v -0.023734 0.296516 -0.516187
v -0.024863 0.296516 -0.663670
v -0.022281 0.296516 0.663676
v -0.021230 0.296516 0.811159
v -0.021230 0.296516 0.811159
v -0.023734 0.149033 -0.516187
v -0.023553 0.149033 -0.368704
v -0.023734 0.296516 -0.516187
v -0.023734 0.149033 -0.516187
v -0.022463 0.149033 0.516193
v -0.022281 0.149033 0.663676
v -0.022281 0.149033 0.663676
v -0.022281 0.296516 0.663676
v -0.023553 0.001550 -0.368704
v -0.023371 0.001550 -0.221221
v -0.023553 0.149033 -0.368704
v -0.023553 0.001550 -0.368704
v -0.023189 0.001550 -0.073739
v -0.023008 0.001550 0.073744
v -0.022826 0.001550 0.221227
v -0.022644 0.001550 0.368710
v -0.022463 0.001550 0.516193
v -0.022463 0.001550 0.516193
v -0.022463 0.149033 0.516193
v -0.023189 1.918829 -0.073739
v -0.023371 1.918829 -0.221221
v -0.023371 1.918829 -0.221221
v -0.023371 1.771346 -0.221221
v -0.023008 1.918829 0.073744
v -0.022826 1.918829 0.221227
v -0.022644 1.771347 0.368710
v -0.022644 1.918829 0.368710
v -0.022644 1.918829 0.368710
v -0.023543 1.476495 -0.516188
v -0.024480 1.476609 -0.663670
v -0.194478 1.476724 -0.663258
v -0.193541 1.476609 -0.515776
v -0.024480 1.476609 -0.663670
v -0.194478 1.476724 -0.663258
v -0.024863 1.181529 -0.663670
v -0.025226 1.181643 -0.811152
v -0.195225 1.181643 -0.811008
v -0.194863 1.181529 -0.663525
v -0.025226 1.181643 -0.811152
v -0.195225 1.181643 -0.811008
vn -1.0000 -0.0000 0.0025
vn -0.9999 0.0011 0.0134
vn -1.0000 0.0011 0.0008
vn -1.0000 0.0004 0.0014
vn -1.0000 -0.0016 0.0028
vn -1.0000 0.0011 0.0013
vn -1.0000 -0.0000 0.0015
vn -1.0000 -0.0000 0.0018
vn -1.0000 -0.0000 0.0016
vn -1.0000 -0.0008 0.0004
vn -0.9999 -0.0149 0.0016
vn -0.9999 -0.0021 0.0123
vn -1.0000 0.0016 -0.0002
vn -1.0000 0.0004 0.0009
vn -1.0000 -0.0017 0.0032
vn -1.0000 0.0016 0.0008
vn -1.0000 -0.0005 0.0020
vn -1.0000 -0.0009 0.0025
vn -1.0000 -0.0012 0.0022
vn -1.0000 -0.0015 0.0025
vn -1.0000 -0.0009 0.0020
vn -1.0000 -0.0007 0.0012
vn -1.0000 -0.0001 0.0010
vn -1.0000 -0.0010 0.0002
vn -0.9999 -0.0159 0.0012
vn -1.0000 0.0003 -0.0000
vn -1.0000 -0.0000 0.0003
vn -1.0000 0.0005 -0.0002
vn -1.0000 -0.0010 0.0015
vn -1.0000 -0.0019 0.0025
vn -1.0000 -0.0009 0.0015
vn -1.0000 -0.0000 0.0005
vn -1.0000 -0.0019 0.0044
vn -1.0000 0.0010 0.0019
vn -0.9998 -0.0166 0.0085
vn -0.9999 0.0024 0.0141
vn -1.0000 0.0022 0.0025
vn -1.0000 0.0008 0.0041
vn -0.9999 0.0008 0.0120
vn -1.0000 0.0021 0.0003
vn -1.0000 -0.0000 0.0024
vn -0.9999 0.0128 0.0080
vn -1.0000 -0.0021 0.0046
vn -1.0000 -0.0011 0.0013
vn -1.0000 -0.0021 0.0025
vn -1.0000 0.0019 0.0005
vn -1.0000 0.0018 0.0035
vn -0.9999 0.0133 0.0062
vn -1.0000 0.0010 0.0034
vn -1.0000 0.0020 0.0025
vn -1.0000 0.0011 0.0023
vn -0.9999 0.0138 0.0016
vn -1.0000 -0.0008 0.0011
vn -1.0000 -0.0008 0.0017
vn -1.0000 -0.0000 0.0008
vn -1.0000 -0.0009 0.0016
vn -1.0000 -0.0017 0.0025
vn -1.0000 0.0014 0.0010
vn -1.0000 0.0006 0.0012
vn -1.0000 0.0009 0.0003
vn -0.9999 0.0003 -0.0107
vn -1.0000 0.0014 0.0005
vn -1.0000 0.0012 0.0024
vn -0.9999 0.0103 0.0016
vn -1.0000 -0.0005 0.0014
vn -1.0000 -0.0002 0.0012
vn -1.0000 -0.0009 0.0022
vn -1.0000 -0.0007 0.0019
vn -1.0000 -0.0011 0.0025
vn -1.0000 -0.0004 0.0022
vn -1.0000 -0.0001 0.0019
vn -1.0000 -0.0005 0.0021
vn -1.0000 -0.0007 0.0025
vn -1.0000 0.0004 0.0020
vn -1.0000 -0.0003 0.0025
vn -1.0000 0.0007 0.0022
vn -1.0000 0.0009 0.0019
vn -1.0000 0.0005 0.0025
vn -1.0000 0.0005 0.0015
vn -1.0000 0.0001 0.0016
vn -0.9999 0.0010 -0.0102
vn -1.0000 0.0009 0.0011
vn -0.9999 0.0006 0.0135
vn -1.0000 0.0006 0.0013
vn -1.0000 -0.0084 0.0016
vn -1.0000 0.0003 0.0025
vn -1.0000 0.0006 0.0019
vn -1.0000 -0.0004 0.0018
vn -1.0000 -0.0004 0.0025
vn -1.0000 -0.0002 0.0021
vn -1.0000 0.0001 0.0018
vn -1.0000 -0.0002 0.0018
vn -0.9999 -0.0004 -0.0102
vn -1.0000 -0.0004 0.0019
vn -1.0000 0.0019 0.0070
vn -1.0000 0.0023 0.0067
vn 1.0000 -0.0000 -0.0025
vn 1.0000 -0.0006 -0.0014
vn 1.0000 -0.0000 -0.0018
vn 1.0000 -0.0011 -0.0008
vn 1.0000 -0.0011 -0.0013
vn 1.0000 -0.0000 -0.0015
vn 1.0000 -0.0000 -0.0017
vn 1.0000 -0.0005 -0.0009
vn 1.0000 0.0006 -0.0019
vn 1.0000 -0.0006 -0.0008
vn 1.0000 -0.0016 0.0002
vn 1.0000 -0.0016 -0.0008
vn 1.0000 0.0005 -0.0020
vn 1.0000 0.0009 -0.0025
vn 1.0000 0.0012 -0.0022
vn 1.0000 0.0009 -0.0019
vn 1.0000 0.0014 -0.0025
vn 1.0000 0.0007 -0.0013
vn 1.0000 0.0014 -0.0019
vn 1.0000 -0.0000 -0.0005
vn 1.0000 -0.0003 -0.0001
vn 1.0000 -0.0005 0.0002
vn 1.0000 -0.0000 -0.0003
vn 1.0000 0.0010 -0.0015
vn 1.0000 0.0019 -0.0025
vn 1.0000 0.0019 -0.0044
vn 1.0000 -0.0011 -0.0035
vn 1.0000 -0.0004 -0.0045
vn 1.0000 -0.0008 -0.0041
vn 1.0000 -0.0022 -0.0025
vn 1.0000 -0.0021 -0.0003
vn 1.0000 0.0021 -0.0046
vn 1.0000 0.0011 -0.0014
vn 1.0000 0.0021 -0.0025
vn 1.0000 -0.0019 -0.0005
vn 1.0000 -0.0010 -0.0035
vn 1.0000 -0.0019 -0.0025
vn 1.0000 -0.0000 -0.0044
vn 1.0000 0.0008 -0.0011
vn 1.0000 0.0017 -0.0019
vn 1.0000 0.0009 -0.0016
vn 1.0000 0.0016 -0.0025
vn 1.0000 0.0008 -0.0017
vn 1.0000 -0.0000 -0.0008
vn 1.0000 -0.0014 -0.0010
vn 1.0000 -0.0007 -0.0013
vn 1.0000 -0.0014 -0.0005
vn 1.0000 0.0006 -0.0014
vn 1.0000 -0.0000 -0.0009
vn 1.0000 0.0012 -0.0019
vn 1.0000 0.0009 -0.0022
vn 1.0000 0.0010 -0.0025
vn 1.0000 0.0005 -0.0021
vn 1.0000 0.0006 -0.0025
vn 1.0000 0.0001 -0.0019
vn 1.0000 -0.0001 -0.0025
vn 1.0000 -0.0004 -0.0019
vn 1.0000 -0.0007 -0.0022
vn 1.0000 -0.0005 -0.0025
vn 1.0000 -0.0009 -0.0019
vn 1.0000 -0.0005 -0.0015
vn 1.0000 -0.0009 -0.0011
vn 1.0000 -0.0003 -0.0017
vn 1.0000 -0.0006 -0.0013
vn 1.0000 -0.0006 -0.0019
vn 1.0000 0.0001 -0.0025
vn 1.0000 0.0004 -0.0018
vn 1.0000 -0.0001 -0.0018
vn 1.0000 0.0004 -0.0025
vn 1.0000 0.0002 -0.0018
vn 1.0000 0.0004 -0.0019
vn 1.0000 -0.0023 -0.0067
vn 1.0000 -0.0019 -0.0070
vn -0.0000 -1.0000 -0.0000
vn -1.0000 -0.0000 0.0019
vn -1.0000 -0.0000 0.0020
vn 0.0009 -0.0000 1.0000
vn -1.0000 -0.0000 0.0009
vn -0.0000 1.0000 -0.0000
vn 0.0005 1.0000 -0.0000
vn 0.0003 0.0002 -1.0000
vn 0.0001 0.0003 -1.0000
vn 0.0004 -0.0000 1.0000
vn -0.0001 1.0000 -0.0001
vn -0.0002 1.0000 -0.0000
vn -0.0017 -0.0011 -1.0000
vn -0.0000 -0.0017 -1.0000
vn -0.0002 -0.0000 1.0000
vn -0.0003 1.0000 0.0003
vn -0.0004 1.0000 0.0003
vn 0.0014 -0.0002 1.0000
vn 0.0017 -0.0000 1.0000
vn -1.0000 0.0003 0.0002
vn -0.0007 1.0000 0.0001
vn -0.0006 1.0000 -0.0000
vn -0.0015 0.0002 -1.0000
vn -0.0016 0.0005 -1.0000
vn 0.0013 -0.0004 1.0000
vn -1.0000 0.0001 0.0009
vn -0.0009 -0.0000 -1.0000
vn -0.0013 -0.0005 -1.0000
vn -0.0013 -0.0003 -1.0000
vn -1.0000 -0.0001 0.0009
vn 0.0008 -1.0000 0.0001
vn 0.0007 -1.0000 -0.0000
vn -0.0018 -0.0000 -1.0000
vn -1.0000 0.0002 0.0002
vn -0.0008 -1.0000 -0.0000
vn 0.0012 0.0004 1.0000
vn -1.0000 -0.0003 0.0002
vn 0.0006 -1.0000 0.0001
vn 0.0005 -1.0000 -0.0000
vn 0.0003 -0.0000 -1.0000
vn -0.0006 -1.0000 -0.0000
vn 0.0012 -0.0007 1.0000
vn 0.0002 -0.0010 1.0000
vn 0.0006 -1.0000 -0.0001
vn -0.0000 -0.0000 -1.0000
vn 0.0002 -1.0000 0.0001
vn -1.0000 0.0002 0.0020
vn -0.0002 -1.0000 0.0001
vn -0.0005 -1.0000 -0.0000
vn -0.0004 -1.0000 -0.0000
vn -1.0000 -0.0003 0.0020
vn -0.0001 0.0001 1.0000
vn 0.0001 0.0002 1.0000
vn 0.0003 1.0000 -0.0000
vn -0.0001 0.0001 -1.0000
vn -0.0002 0.0002 -1.0000
vn -1.0000 -0.0001 0.0020
vn -0.0000 1.0000 0.0001
vn -1.0000 0.0001 0.0020
vn 0.0003 -0.0000 1.0000
vn -0.0001 1.0000 -0.0000
vn -1.0000 0.0001 0.0017
vn 0.0007 1.0000 0.0008
vn -0.0018 0.0002 -1.0000
vn -0.0019 0.0004 -1.0000
vn -0.0000 1.0000 0.0008
vt 0.083333 0.692308
vt 0.000000 0.692308
vt 0.000000 0.615385
vt 0.083333 0.615385
vt 0.000000 0.538462
vt 0.083333 0.538461
vt 0.000000 0.461538
vt 0.083333 0.461538
vt 0.000000 0.384615
vt 0.083333 0.384615
vt 0.750000 0.153846
vt 0.666667 0.153846
vt 0.666667 0.076923
vt 0.750000 0.076923
vt 0.583333 0.153846
vt 0.583333 0.076923
vt 0.500000 0.153846
vt 0.500000 0.076923
vt 0.416667 0.153846
vt 0.416667 0.076923
vt 0.333333 0.153846
vt 0.333333 0.076923
vt 0.250000 0.153846
vt 0.250000 0.076923
vt 0.833334 0.230710
vt 0.750000 0.230769
vt 0.833333 0.153846
vt 0.666667 0.230769
vt 0.583333 0.230769
vt 0.500000 0.230769
vt 0.416667 0.230769
vt 0.333333 0.230769
vt 0.250000 0.230769
vt 0.166667 0.230769
vt 0.166667 0.153846
vt 0.833333 0.307692
vt 0.750000 0.307692
vt 0.666667 0.307692
vt 0.583333 0.307692
vt 0.500000 0.307692
vt 0.416667 0.307692
vt 0.333333 0.307692
vt 0.250000 0.307692
vt 0.166667 0.307692
vt 0.083333 0.307692
vt 0.083333 0.230769
vt 0.916667 0.384556
vt 0.833333 0.384615
vt 0.916666 0.307692
vt 0.750000 0.384615
vt 0.666667 0.384615
vt 0.583333 0.384615
vt 0.500000 0.384615
vt 0.416667 0.384615
vt 0.333333 0.384615
vt 0.250000 0.384615
vt 0.166667 0.384615
vt 0.916667 0.461538
vt 0.833333 0.461538
vt 0.750000 0.461538
vt 0.666667 0.461538
vt 0.583333 0.461538
vt 0.500000 0.461538
vt 0.416667 0.461538
vt 0.333333 0.461538
vt 0.250000 0.461538
vt 0.166667 0.461538
vt 1.000000 0.538462
vt 0.916667 0.538462
vt 1.000000 0.461538
vt 0.833333 0.538462
vt 0.750000 0.538462
vt 0.666667 0.538461
vt 0.583333 0.538462
vt 0.500000 0.538461
vt 0.416667 0.538462
vt 0.333333 0.538461
vt 0.250000 0.538461
vt 0.166667 0.538462
vt 1.000000 0.615385
vt 0.916667 0.615385
vt 0.833333 0.615385
vt 0.750000 0.615385
vt 0.666667 0.615385
vt 0.583333 0.615385
vt 0.500000 0.615385
vt 0.416667 0.615385
vt 0.333333 0.615385
vt 0.250000 0.615384
vt 0.166667 0.615385
vt 1.000000 0.692308
vt 0.916667 0.692308
vt 0.833333 0.692308
vt 0.750000 0.692308
vt 0.666667 0.692308
vt 0.583333 0.692308
vt 0.500000 0.692308
vt 0.416667 0.692308
vt 0.333333 0.692308
vt 0.250000 0.692308
vt 0.166667 0.692308
vt 0.916667 0.769231
vt 0.833333 0.769231
vt 0.750000 0.769231
vt 0.666667 0.769231
vt 0.583333 0.769231
vt 0.500000 0.769231
vt 0.416667 0.769231
vt 0.333333 0.769231
vt 0.250000 0.769231
vt 0.166667 0.769231
vt 0.083333 0.769231
vt 0.916667 0.846154
vt 0.833333 0.846154
vt 0.750000 0.846154
vt 0.666667 0.846154
vt 0.583333 0.846154
vt 0.500000 0.846154
vt 0.416667 0.846154
vt 0.333333 0.846154
vt 0.250000 0.846154
vt 0.166667 0.846154
vt 0.083333 0.846154
vt 0.833333 0.923077
vt 0.750000 0.923077
vt 0.666667 0.923077
vt 0.583333 0.923077
vt 0.500000 0.923077
vt 0.416667 0.923077
vt 0.333333 0.923077
vt 0.250000 0.923077
vt 0.166667 0.923077
vt 0.750000 1.000000
vt 0.666667 1.000000
vt 0.583333 1.000000
vt 0.500000 1.000000
vt 0.416667 1.000000
vt 0.333333 1.000000
vt 0.250000 1.000000
vt 0.583333 0.000000
vt 0.666667 0.000000
vt 0.500000 0.000000
vt 0.416667 0.000000
vt 0.333333 0.000000
vt 0.916667 0.230650
vt 1.000000 0.384496
s 0
usemtl aiStandardSurface1
f 1/1/1 2/2/1 3/3/1
f 1/1/1 3/3/1 4/4/1
f 5/4/1 6/3/1 7/5/1
f 5/4/1 7/5/1 8/6/1
f 9/6/1 10/5/1 11/7/1
f 9/6/1 11/7/1 12/8/1
f 13/8/1 14/7/1 15/9/1
f 13/8/1 15/9/1 16/10/1
s 1
f 17/11/2 18/12/3 19/13/4
f 17/11/2 19/13/4 20/14/5
s 0
f 21/12/1 22/15/1 23/16/1
s 1
f 21/12/6 23/16/6 24/13/6
s 0
f 25/15/1 26/17/1 27/18/1
f 25/15/1 27/18/1 28/16/1
f 29/17/1 30/19/1 31/20/1
f 29/17/1 31/20/1 32/18/1
s 1
f 33/19/7 34/21/7 35/22/7
f 33/19/7 35/22/7 36/20/7
f 37/21/8 38/23/9 39/24/10
f 37/21/8 39/24/10 40/22/11
f 41/25/12 42/26/13 43/11/14
f 41/25/12 43/11/14 44/27/15
s 0
f 45/26/1 46/28/1 47/12/1
s 1
f 45/26/16 47/12/16 48/11/16
s 0
f 49/28/1 50/29/1 51/15/1
f 49/28/1 51/15/1 52/12/1
f 53/29/1 54/30/1 55/17/1
f 53/29/1 55/17/1 56/15/1
f 57/30/1 58/31/1 59/19/1
f 57/30/1 59/19/1 60/17/1
s 1
f 61/31/17 62/32/18 63/21/17
f 61/31/17 63/21/17 64/19/7
f 65/32/19 66/33/20 67/23/19
f 65/32/19 67/23/19 68/21/21
f 69/33/22 70/34/23 71/35/24
f 69/33/22 71/35/24 72/23/25
f 73/36/26 74/37/27 75/26/26
f 73/36/26 75/26/26 76/25/28
s 0
f 77/37/1 78/38/1 79/28/1
f 77/37/1 79/28/1 80/26/1
f 81/38/1 82/39/1 83/29/1
f 81/38/1 83/29/1 84/28/1
f 85/39/1 86/40/1 87/30/1
f 85/39/1 87/30/1 88/29/1
f 89/40/1 90/41/1 91/31/1
f 89/40/1 91/31/1 92/30/1
f 93/41/1 94/42/1 95/32/1
f 93/41/1 95/32/1 96/31/1
f 97/42/1 98/43/1 99/33/1
f 97/42/1 99/33/1 100/32/1
s 1
f 101/43/29 102/44/30 103/34/31
f 101/43/29 103/34/31 104/33/32
s 0
f 105/44/1 106/45/1 107/46/1
s 1
f 105/44/33 107/46/34 108/34/35
f 109/47/36 110/48/37 111/36/38
f 109/47/36 111/36/38 112/49/39
s 0
f 113/48/1 114/50/1 115/37/1
s 1
f 113/48/40 115/37/40 116/36/40
s 0
f 117/50/1 118/51/1 119/38/1
f 117/50/1 119/38/1 120/37/1
f 121/51/1 122/52/1 123/39/1
f 121/51/1 123/39/1 124/38/1
f 125/52/1 126/53/1 127/40/1
f 125/52/1 127/40/1 128/39/1
f 129/53/1 130/54/1 131/41/1
f 129/53/1 131/41/1 132/40/1
f 133/54/41 134/55/41 135/42/41
f 133/54/1 135/42/1 136/41/1
f 137/55/1 138/56/1 139/43/1
f 137/55/1 139/43/1 140/42/1
f 141/56/1 142/57/1 143/44/1
f 141/56/1 143/44/1 144/43/1
f 145/57/41 146/10/41 147/45/41
f 145/57/1 147/45/1 148/44/1
f 149/58/41 150/59/41 151/48/41
f 149/58/1 151/48/1 152/47/1
f 153/59/1 154/60/1 155/50/1
f 153/59/1 155/50/1 156/48/1
f 157/60/1 158/61/1 159/51/1
f 157/60/1 159/51/1 160/50/1
f 161/61/1 162/62/1 163/52/1
f 161/61/1 163/52/1 164/51/1
f 165/62/1 166/63/1 167/53/1
f 165/62/1 167/53/1 168/52/1
f 169/63/1 170/64/1 171/54/1
f 169/63/1 171/54/1 172/53/1
f 173/64/1 174/65/1 175/55/1
f 173/64/41 175/55/41 176/54/41
f 177/65/1 178/66/1 179/56/1
f 177/65/1 179/56/1 180/55/1
f 181/66/1 182/67/1 183/57/1
f 181/66/1 183/57/1 184/56/1
f 185/67/1 186/8/1 187/10/1
f 185/67/41 187/10/41 188/57/41
f 189/68/1 190/69/1 191/58/1
f 189/68/1 191/58/1 192/70/1
f 193/69/1 194/71/1 195/59/1
f 193/69/41 195/59/41 196/58/41
f 197/71/1 198/72/1 199/60/1
f 197/71/1 199/60/1 200/59/1
f 201/72/1 202/73/1 203/61/1
f 201/72/1 203/61/1 204/60/1
f 205/73/1 206/74/1 207/62/1
f 205/73/1 207/62/1 208/61/1
f 209/74/1 210/75/1 211/63/1
f 209/74/1 211/63/1 212/62/1
f 213/75/1 214/76/1 215/64/1
f 213/75/1 215/64/1 216/63/1
f 217/76/41 218/77/41 219/65/41
f 217/76/1 219/65/1 220/64/1
f 221/77/1 222/78/1 223/66/1
f 221/77/1 223/66/1 224/65/1
f 225/78/1 226/79/1 227/67/1
f 225/78/1 227/67/1 228/66/1
f 229/79/1 230/6/1 231/8/1
f 229/79/1 231/8/1 232/67/1
f 233/80/1 234/81/1 190/69/1
f 233/80/1 190/69/1 189/68/1
f 235/81/1 236/82/1 194/71/1
f 235/81/1 194/71/1 193/69/1
f 237/82/1 238/83/1 239/72/1
f 237/82/1 239/72/1 240/71/1
f 241/83/1 242/84/1 243/73/1
f 241/83/1 243/73/1 244/72/1
f 245/84/1 246/85/1 247/74/1
f 245/84/1 247/74/1 248/73/1
f 249/85/1 250/86/1 251/75/1
f 249/85/1 251/75/1 252/74/1
f 253/86/1 254/87/1 255/76/1
f 253/86/1 255/76/1 256/75/1
f 257/87/1 258/88/1 259/77/1
f 257/87/41 259/77/41 260/76/41
f 261/88/1 262/89/1 263/78/1
f 261/88/1 263/78/1 264/77/1
f 265/89/1 266/90/1 267/79/1
f 265/89/1 267/79/1 268/78/1
f 269/90/1 270/4/1 271/6/1
f 269/90/1 271/6/1 272/79/1
f 273/91/1 274/92/1 275/81/1
f 273/91/1 275/81/1 276/80/1
f 277/92/1 278/93/1 279/82/1
f 277/92/1 279/82/1 280/81/1
f 281/93/1 282/94/1 283/83/1
f 281/93/1 283/83/1 284/82/1
f 285/94/1 286/95/1 287/84/1
f 285/94/1 287/84/1 288/83/1
f 289/95/1 290/96/1 291/85/1
f 289/95/1 291/85/1 292/84/1
f 293/96/1 294/97/1 295/86/1
f 293/96/1 295/86/1 296/85/1
f 297/97/41 298/98/41 299/87/41
f 297/97/1 299/87/1 300/86/1
f 301/98/1 302/99/1 303/88/1
f 301/98/1 303/88/1 304/87/1
f 305/99/41 306/100/41 307/89/41
f 305/99/1 307/89/1 308/88/1
f 309/100/1 310/101/1 311/90/1
f 309/100/1 311/90/1 312/89/1
f 313/101/1 314/1/1 315/4/1
f 313/101/1 315/4/1 316/90/1
f 317/102/1 318/103/1 319/93/1
f 317/102/1 319/93/1 320/92/1
f 321/103/41 322/104/41 323/94/41
f 321/103/1 323/94/1 324/93/1
f 325/104/1 326/105/1 327/95/1
f 325/104/1 327/95/1 328/94/1
f 329/105/1 330/106/1 331/96/1
f 329/105/1 331/96/1 332/95/1
f 333/106/1 334/107/1 335/97/1
f 333/106/1 335/97/1 336/96/1
f 334/107/1 337/108/1 338/98/1
f 334/107/41 338/98/41 335/97/41
f 339/108/1 340/109/1 341/99/1
f 339/108/1 341/99/1 342/98/1
f 343/109/41 344/110/41 345/100/41
f 343/109/41 345/100/41 346/99/41
f 347/110/1 348/111/1 349/101/1
f 347/110/1 349/101/1 350/100/1
f 351/111/1 352/112/1 353/1/1
f 351/111/1 353/1/1 354/101/1
s 1
f 355/113/34 356/114/42 357/103/43
s 0
f 355/113/1 357/103/1 358/102/1
s 1
f 359/114/44 360/115/27 361/104/44
f 359/114/44 361/104/44 362/103/45
s 0
f 363/115/1 364/116/1 365/105/1
f 363/115/1 365/105/1 366/104/1
f 367/116/1 368/117/1 369/106/1
f 367/116/1 369/106/1 370/105/1
f 371/117/1 372/118/1 373/107/1
f 371/117/1 373/107/1 374/106/1
f 375/118/1 376/119/1 377/108/1
f 375/118/1 377/108/1 378/107/1
f 379/119/1 380/120/1 381/109/1
f 379/119/1 381/109/1 382/108/1
f 383/120/1 384/121/1 385/110/1
f 383/120/41 385/110/41 386/109/41
s 1
f 387/121/46 388/122/46 389/111/46
s 0
f 387/121/1 389/111/1 390/110/1
s 1
f 391/122/47 392/123/48 393/112/49
f 391/122/47 393/112/49 394/111/50
f 395/124/51 396/125/52 397/115/53
f 395/124/51 397/115/53 398/114/23
f 399/125/54 400/126/55 401/116/56
f 399/125/54 401/116/56 402/115/57
s 0
f 403/126/1 404/127/1 405/117/1
f 403/126/1 405/117/1 406/116/1
f 407/127/41 408/128/41 409/118/41
f 407/127/1 409/118/1 410/117/1
f 411/128/1 412/129/1 413/119/1
f 411/128/1 413/119/1 414/118/1
f 415/129/1 416/130/1 417/120/1
f 415/129/1 417/120/1 418/119/1
s 1
f 419/130/58 420/131/58 421/121/58
s 0
f 419/130/1 421/121/1 422/120/1
s 1
f 423/131/59 424/132/60 425/122/61
f 423/131/59 425/122/61 426/121/62
f 427/133/63 428/134/64 429/126/65
f 427/133/63 429/126/65 430/125/66
f 431/134/67 432/135/68 433/127/67
f 431/134/67 433/127/67 434/126/69
f 435/135/70 436/136/71 437/128/72
f 435/135/70 437/128/72 438/127/73
f 439/136/74 440/137/74 441/129/74
s 0
f 439/136/75 441/129/75 442/128/75
s 1
f 443/137/76 444/138/77 445/130/76
f 443/137/76 445/130/76 446/129/78
f 447/138/79 448/139/80 449/131/81
f 447/138/79 449/131/81 450/130/82
f 451/13/83 452/16/84 453/140/85
f 451/13/83 453/140/85 454/141/5
s 0
f 455/16/86 456/18/86 457/142/86
s 1
f 455/16/87 457/142/87 458/140/87
f 459/18/88 460/20/89 461/143/90
f 459/18/88 461/143/90 462/142/91
f 463/20/92 464/22/65 465/144/93
f 463/20/92 465/144/93 466/143/94
f 112/49/39 111/36/38 467/25/95
f 112/49/39 467/25/95 468/145/96
s 0
f 192/70/1 191/58/1 469/47/1
f 192/70/1 469/47/1 470/146/1
f 471/1/97 472/4/97 473/3/97
f 471/1/97 473/3/97 474/2/97
f 475/4/97 476/6/97 477/5/97
f 475/4/97 477/5/97 478/3/97
f 479/6/97 480/8/97 481/7/97
f 479/6/97 481/7/97 482/5/97
f 483/8/97 484/10/97 485/9/97
f 483/8/97 485/9/97 486/7/97
s 1
f 487/11/98 488/14/99 489/13/98
f 487/11/98 489/13/98 490/12/100
f 491/12/101 492/13/101 493/16/101
s 0
f 491/12/97 493/16/97 494/15/97
f 495/15/97 496/16/97 497/18/97
f 495/15/97 497/18/97 498/17/97
f 499/17/97 500/18/97 501/20/97
f 499/17/97 501/20/97 502/19/97
s 1
f 503/19/102 504/20/102 505/22/102
f 503/19/102 505/22/102 506/21/102
f 507/21/99 508/22/99 509/24/99
f 507/21/99 509/24/99 510/23/103
f 511/25/104 512/27/105 513/11/106
f 511/25/104 513/11/106 514/26/107
f 515/26/108 516/11/108 517/12/108
s 0
f 515/26/97 517/12/97 518/28/97
f 519/28/97 520/12/97 521/15/97
f 519/28/97 521/15/97 522/29/97
f 523/29/97 524/15/97 525/17/97
f 523/29/97 525/17/97 526/30/97
f 527/30/97 528/17/97 529/19/97
f 527/30/97 529/19/97 530/31/97
s 1
f 531/31/109 532/19/102 533/21/109
f 531/31/109 533/21/109 534/32/110
f 535/32/111 536/21/112 537/23/111
f 535/32/111 537/23/111 538/33/113
f 539/33/114 540/23/115 541/35/114
f 539/33/114 541/35/114 542/34/116
f 543/36/117 544/25/118 545/26/117
f 543/36/117 545/26/117 546/37/119
s 0
f 547/37/97 548/26/97 549/28/97
f 547/37/97 549/28/97 550/38/97
f 551/38/97 552/28/97 553/29/97
f 551/38/97 553/29/97 554/39/97
f 555/39/97 556/29/97 557/30/97
f 555/39/97 557/30/97 558/40/97
f 559/40/97 560/30/97 561/31/97
f 559/40/97 561/31/97 562/41/97
f 563/41/97 564/31/97 565/32/97
f 563/41/97 565/32/97 566/42/97
f 567/42/97 568/32/97 569/33/97
f 567/42/97 569/33/97 570/43/97
s 1
f 571/43/120 572/33/116 573/34/120
f 571/43/120 573/34/120 574/44/121
f 575/44/122 576/34/122 577/46/122
s 0
f 575/44/97 577/46/97 578/45/97
s 1
f 579/47/123 580/49/124 581/36/125
f 579/47/123 581/36/125 582/48/126
f 583/48/127 584/36/127 585/37/127
s 0
f 583/48/97 585/37/97 586/50/97
f 587/50/97 588/37/97 589/38/97
f 587/50/97 589/38/97 590/51/97
f 591/51/97 592/38/97 593/39/97
f 591/51/97 593/39/97 594/52/97
f 595/52/97 596/39/97 597/40/97
f 595/52/97 597/40/97 598/53/97
f 599/53/97 600/40/97 601/41/97
f 599/53/97 601/41/97 602/54/97
f 603/54/97 604/41/97 605/42/97
f 603/54/97 605/42/97 606/55/97
f 607/55/97 608/42/97 609/43/97
f 607/55/97 609/43/97 610/56/97
f 611/56/97 612/43/97 613/44/97
f 611/56/97 613/44/97 614/57/97
f 615/57/97 616/44/97 617/45/97
f 615/57/97 617/45/97 618/10/97
f 619/58/97 620/47/97 621/48/97
f 619/58/97 621/48/97 622/59/97
f 623/59/97 624/48/97 625/50/97
f 623/59/97 625/50/97 626/60/97
f 627/60/97 628/50/97 629/51/97
f 627/60/97 629/51/97 630/61/97
f 631/61/97 632/51/97 633/52/97
f 631/61/97 633/52/97 634/62/97
f 635/62/97 636/52/97 637/53/97
f 635/62/97 637/53/97 638/63/97
f 639/63/97 640/53/97 641/54/97
f 639/63/97 641/54/97 642/64/97
f 643/64/97 644/54/97 645/55/97
f 643/64/97 645/55/97 646/65/97
f 647/65/97 648/55/97 649/56/97
f 647/65/97 649/56/97 650/66/97
f 651/66/97 652/56/97 653/57/97
f 651/66/97 653/57/97 654/67/97
f 655/67/97 656/57/97 657/10/97
f 655/67/97 657/10/97 658/8/97
f 659/68/97 660/70/97 661/58/97
f 659/68/97 661/58/97 662/69/97
f 663/69/97 664/58/97 665/59/97
f 663/69/97 665/59/97 666/71/97
f 667/71/97 668/59/97 669/60/97
f 667/71/97 669/60/97 670/72/97
f 671/72/97 672/60/97 673/61/97
f 671/72/97 673/61/97 674/73/97
f 675/73/97 676/61/97 677/62/97
f 675/73/97 677/62/97 678/74/97
f 679/74/97 680/62/97 681/63/97
f 679/74/97 681/63/97 682/75/97
f 683/75/97 684/63/97 685/64/97
f 683/75/97 685/64/97 686/76/97
f 687/76/97 688/64/97 689/65/97
f 687/76/97 689/65/97 690/77/97
f 691/77/97 692/65/97 693/66/97
f 691/77/97 693/66/97 694/78/97
f 695/78/97 696/66/97 697/67/97
f 695/78/97 697/67/97 698/79/97
f 699/79/97 700/67/97 701/8/97
f 699/79/97 701/8/97 702/6/97
f 703/80/97 659/68/97 662/69/97
f 703/80/97 662/69/97 704/81/97
f 705/81/97 663/69/97 666/71/97
f 705/81/97 666/71/97 706/82/97
f 707/82/97 708/71/97 709/72/97
f 707/82/97 709/72/97 710/83/97
f 711/83/97 712/72/97 713/73/97
f 711/83/97 713/73/97 714/84/97
f 715/84/97 716/73/97 717/74/97
f 715/84/97 717/74/97 718/85/97
f 719/85/97 720/74/97 721/75/97
f 719/85/97 721/75/97 722/86/97
f 723/86/97 724/75/97 725/76/97
f 723/86/97 725/76/97 726/87/97
f 727/87/97 728/76/97 729/77/97
f 727/87/97 729/77/97 730/88/97
f 731/88/97 732/77/97 733/78/97
f 731/88/97 733/78/97 734/89/97
f 735/89/97 736/78/97 737/79/97
f 735/89/97 737/79/97 738/90/97
f 739/90/97 740/79/97 741/6/97
f 739/90/97 741/6/97 742/4/97
f 743/91/97 744/80/97 745/81/97
f 743/91/97 745/81/97 746/92/97
f 747/92/97 748/81/97 749/82/97
f 747/92/97 749/82/97 750/93/97
f 751/93/97 752/82/97 753/83/97
f 751/93/97 753/83/97 754/94/97
f 755/94/97 756/83/97 757/84/97
f 755/94/97 757/84/97 758/95/97
f 759/95/97 760/84/97 761/85/97
f 759/95/97 761/85/97 762/96/97
f 763/96/97 764/85/97 765/86/97
f 763/96/97 765/86/97 766/97/97
f 767/97/97 768/86/97 769/87/97
f 767/97/97 769/87/97 770/98/97
f 771/98/97 772/87/97 773/88/97
f 771/98/97 773/88/97 774/99/97
f 775/99/97 776/88/97 777/89/97
f 775/99/97 777/89/97 778/100/97
f 779/100/97 780/89/97 781/90/97
f 779/100/97 781/90/97 782/101/97
f 783/101/97 784/90/97 785/4/97
f 783/101/97 785/4/97 786/1/97
f 787/102/97 788/92/97 789/93/97
f 787/102/97 789/93/97 790/103/97
f 791/103/97 792/93/97 793/94/97
f 791/103/97 793/94/97 794/104/97
f 795/104/97 796/94/97 797/95/97
f 795/104/97 797/95/97 798/105/97
f 799/105/97 800/95/97 801/96/97
f 799/105/97 801/96/97 802/106/97
f 803/106/97 804/96/97 805/97/97
f 803/106/97 805/97/97 806/107/97
f 806/107/97 805/97/97 807/98/97
f 806/107/97 807/98/97 808/108/97
f 809/108/97 810/98/97 811/99/97
f 809/108/97 811/99/97 812/109/97
f 813/109/97 814/99/97 815/100/97
f 813/109/97 815/100/97 816/110/97
f 817/110/97 818/100/97 819/101/97
f 817/110/97 819/101/97 820/111/97
f 821/111/97 822/101/97 823/1/97
f 821/111/97 823/1/97 824/112/97
f 825/113/97 826/102/97 827/103/97
s 1
f 825/113/128 827/103/128 828/114/128
f 829/114/129 830/103/130 831/104/129
f 829/114/129 831/104/129 832/115/119
s 0
f 833/115/97 834/104/97 835/105/97
f 833/115/97 835/105/97 836/116/97
f 837/116/97 838/105/97 839/106/97
f 837/116/97 839/106/97 840/117/97
f 841/117/97 842/106/97 843/107/97
f 841/117/97 843/107/97 844/118/97
f 845/118/97 846/107/97 847/108/97
f 845/118/97 847/108/97 848/119/97
f 849/119/97 850/108/97 851/109/97
f 849/119/97 851/109/97 852/120/97
f 853/120/97 854/109/97 855/110/97
f 853/120/97 855/110/97 856/121/97
f 857/121/97 858/110/97 859/111/97
s 1
f 857/121/131 859/111/131 860/122/131
f 861/122/132 862/111/133 863/112/132
f 861/122/132 863/112/132 864/123/134
f 865/124/135 866/114/119 867/115/135
f 865/124/135 867/115/135 868/125/136
f 869/125/137 870/115/138 871/116/139
f 869/125/137 871/116/139 872/126/140
s 0
f 873/126/97 874/116/97 875/117/97
f 873/126/97 875/117/97 876/127/97
f 877/127/97 878/117/97 879/118/97
f 877/127/97 879/118/97 880/128/97
f 881/128/97 882/118/97 883/119/97
f 881/128/97 883/119/97 884/129/97
f 885/129/97 886/119/97 887/120/97
f 885/129/97 887/120/97 888/130/97
f 889/130/97 890/120/97 891/121/97
s 1
f 889/130/141 891/121/141 892/131/141
f 893/131/142 894/121/143 895/122/142
f 893/131/142 895/122/142 896/132/99
f 897/133/144 898/125/145 899/126/144
f 897/133/144 899/126/144 900/134/146
f 901/134/147 902/126/148 903/127/147
f 901/134/147 903/127/147 904/135/105
f 905/135/149 906/127/150 907/128/149
f 905/135/149 907/128/149 908/136/151
s 0
f 909/136/152 910/128/152 911/129/152
s 1
f 909/136/153 911/129/153 912/137/153
f 913/137/154 914/129/155 915/130/154
f 913/137/154 915/130/154 916/138/156
f 917/138/157 918/130/158 919/131/157
f 917/138/157 919/131/157 920/139/103
f 921/13/159 922/141/99 923/140/159
f 921/13/159 923/140/159 924/16/160
f 925/16/161 926/140/161 927/142/161
s 0
f 925/16/162 927/142/162 928/18/162
s 1
f 929/18/163 930/142/164 931/143/163
f 929/18/163 931/143/163 932/20/165
f 933/20/166 934/143/167 935/144/166
f 933/20/166 935/144/166 936/22/102
f 580/49/124 937/145/168 938/25/169
f 580/49/124 938/25/169 581/36/125
s 0
f 660/70/97 939/146/97 940/47/97
f 660/70/97 940/47/97 661/58/97
s 1
f 941/1/170 942/2/170 2/2/171
f 941/1/170 2/2/171 1/1/172
f 943/2/173 944/3/173 3/3/174
f 943/2/173 3/3/174 2/2/174
f 944/3/173 945/5/173 7/5/174
f 944/3/173 7/5/174 3/3/174
f 945/5/173 946/7/173 11/7/174
f 945/5/173 11/7/174 7/5/174
f 946/7/173 947/9/173 15/9/174
f 946/7/173 15/9/174 11/7/174
f 948/9/175 949/10/175 16/10/172
f 948/9/175 16/10/172 15/9/171
f 950/13/176 951/14/176 20/14/5
f 950/13/176 20/14/5 19/13/4
f 952/14/177 953/11/178 17/11/2
f 952/14/177 17/11/2 20/14/5
f 954/23/179 955/24/179 39/24/10
f 954/23/179 39/24/10 38/23/9
f 956/24/180 957/22/181 40/22/11
f 956/24/180 40/22/11 39/24/10
f 958/11/176 959/27/176 44/27/15
f 958/11/176 44/27/15 43/11/14
f 960/27/182 961/25/183 41/25/12
f 960/27/182 41/25/12 44/27/15
f 962/34/184 963/35/184 71/35/24
f 962/34/184 71/35/24 70/34/23
f 964/35/185 965/23/186 72/23/25
f 964/35/185 72/23/25 71/35/24
f 966/45/187 967/46/188 107/46/189
f 966/45/187 107/46/189 106/45/27
f 968/46/190 969/34/191 108/34/35
f 968/46/190 108/34/35 107/46/34
f 970/49/192 971/47/193 109/47/36
f 970/49/192 109/47/36 112/49/39
f 972/10/194 966/45/187 106/45/27
f 972/10/194 106/45/27 146/10/195
f 973/70/196 974/68/196 189/68/174
f 973/70/196 189/68/174 192/70/174
f 974/68/196 975/80/196 233/80/174
f 974/68/196 233/80/174 189/68/174
f 976/91/170 977/92/170 274/92/171
f 976/91/170 274/92/171 273/91/172
f 975/80/196 978/91/196 273/91/195
f 975/80/196 273/91/195 233/80/174
f 979/92/197 980/102/198 317/102/27
f 979/92/197 317/102/27 320/92/199
f 981/112/173 982/1/173 353/1/174
f 981/112/173 353/1/174 352/112/55
f 983/113/200 984/114/201 356/114/42
f 983/113/200 356/114/42 355/113/34
f 980/102/198 985/113/202 355/113/203
f 980/102/198 355/113/203 317/102/27
f 986/122/204 987/123/204 392/123/48
f 986/122/204 392/123/48 391/122/47
f 988/123/205 981/112/173 352/112/55
f 988/123/205 352/112/55 392/123/206
f 989/124/207 990/125/208 396/125/52
f 989/124/207 396/125/52 395/124/51
f 991/114/209 992/124/209 395/124/51
f 991/114/209 395/124/51 398/114/23
f 993/131/210 994/132/210 424/132/60
f 993/131/210 424/132/60 423/131/59
f 995/132/211 996/122/212 425/122/61
f 995/132/211 425/122/61 424/132/60
f 997/133/213 998/134/207 428/134/64
f 997/133/213 428/134/64 427/133/63
f 999/125/214 1000/133/214 427/133/63
f 999/125/214 427/133/63 430/125/66
f 998/134/207 1001/135/215 432/135/216
f 998/134/207 432/135/216 428/134/64
f 1001/135/215 1002/136/217 436/136/71
f 1001/135/215 436/136/71 432/135/216
f 1002/136/217 1003/137/218 440/137/94
f 1002/136/217 440/137/94 436/136/71
f 1003/137/218 1004/138/219 444/138/220
f 1003/137/218 444/138/220 440/137/94
f 1004/138/219 1005/139/219 448/139/92
f 1004/138/219 448/139/92 444/138/220
f 1006/139/221 1007/131/222 449/131/81
f 1006/139/221 449/131/81 448/139/80
f 1008/140/223 1009/141/223 454/141/5
f 1008/140/223 454/141/5 453/140/85
f 1010/141/224 1011/13/225 451/13/83
f 1010/141/224 451/13/83 454/141/5
f 1012/142/223 1008/140/223 453/140/85
f 1012/142/223 453/140/85 457/142/226
f 1013/143/227 1012/142/223 457/142/226
f 1013/143/227 457/142/226 461/143/228
f 1014/22/229 1015/144/229 465/144/93
f 1014/22/229 465/144/93 464/22/65
f 1016/144/230 1013/143/227 461/143/228
f 1016/144/230 461/143/228 465/144/231
s 0
f 1017/25/232 1018/145/232 1019/145/232
f 1017/25/232 1019/145/232 1020/25/232
s 1
f 1021/145/233 970/49/192 112/49/39
f 1021/145/233 112/49/39 1022/145/234
s 0
f 1023/47/235 1024/146/235 1025/146/235
f 1023/47/235 1025/146/235 1026/47/235
s 1
f 1027/146/196 973/70/196 192/70/174
f 1027/146/196 192/70/174 1028/146/196
