# Blender 4.4.1
# www.blender.org
mtllib square_bipyramid.mtl
o 立方体
v 0.000000 0.000000 -2.000000
v 0.000000 -0.000000 2.000000
v -0.500000 -0.500000 -0.000000
v -0.500000 0.500000 0.000000
v 0.500000 0.500000 0.000000
v 0.500000 -0.500000 -0.000000
vn -0.9701 -0.0000 0.2425
vn -0.0000 0.9701 0.2425
vn 0.9701 -0.0000 0.2425
vn -0.0000 -0.9701 0.2425
vn -0.0000 -0.9701 -0.2425
vn 0.9701 -0.0000 -0.2425
vn -0.0000 0.9701 -0.2425
vn -0.9701 -0.0000 -0.2425
vt 0.545698 0.781207
vt 0.110565 0.955556
vt 0.417477 0.601235
vt 0.221053 0.500000
vt 0.000076 0.500000
vt 0.577223 0.999924
vt 0.110564 0.044444
vt 0.577223 0.000076
vt 0.545698 0.218793
vt 0.417477 0.398765
s 0
f 3/1/1 2/2/1 4/3/1
f 4/3/2 2/2/2 5/4/2
f 5/4/3 2/2/3 6/5/3
f 6/6/4 2/2/4 3/1/4
f 1/7/5 6/8/5 3/9/5
f 1/7/6 5/4/6 6/5/6
f 1/7/7 4/10/7 5/4/7
f 1/7/8 3/9/8 4/10/8
