# Blender 4.4.1
# www.blender.org
mtllib target.mtl
o 立方体.001
v 0.000000 -0.100000 0.000000
v -0.100000 0.232268 0.100000
v 0.000000 0.100000 -0.100000
v -0.100000 0.232268 -0.100000
v 0.100000 0.100000 0.000000
v 0.100000 0.232268 0.100000
v -0.100000 0.100000 0.000000
v 0.100000 0.232268 -0.100000
v 0.000000 0.120705 0.000000
v 0.000000 0.100000 0.100000
vn -0.8944 -0.4472 -0.0000
vn -0.0000 -0.4472 -0.8944
vn 0.8944 -0.4472 -0.0000
vn -0.0000 -0.4472 0.8944
vn 0.1239 0.5984 0.7915
vn 0.7915 0.5984 0.1239
vn 0.7915 0.5984 -0.1239
vn 0.1239 0.5984 -0.7915
vn -0.7915 0.5984 -0.1239
vn -0.1239 0.5984 -0.7915
vn -0.1239 0.5984 0.7915
vn -0.7915 0.5984 0.1239
vt 0.802961 0.000255
vt 0.970422 0.493061
vt 0.802961 0.322546
vt 0.635500 0.493061
vt 0.317368 0.000255
vt 0.317368 0.520737
vt 0.213673 0.305409
vt 0.000255 0.412978
vt 0.802961 0.493571
vt 0.970422 0.986377
vt 0.802961 0.815862
vt 0.635500 0.986377
vt 0.634991 0.000255
vt 0.634991 0.520737
vt 0.531296 0.305409
vt 0.317877 0.412978
vt 0.000255 0.760241
vt 0.145507 0.545051
vt 0.221907 0.670861
vt 0.076655 0.784556
vt 0.221907 0.999746
vt 0.000255 0.910365
vt 0.444069 0.760750
vt 0.444069 0.999746
vt 0.298816 0.784556
vt 0.222416 0.670861
vt 0.298816 0.545051
vt 0.444069 0.760241
vt 0.000255 0.521246
vt 0.221907 0.760750
vt 0.222416 0.910365
vt 0.444069 0.521246
s 0
f 1/1/1 2/2/1 7/3/1 4/4/1
f 1/5/2 4/6/2 3/7/2 8/8/2
f 1/9/3 8/10/3 5/11/3 6/12/3
f 1/13/4 6/14/4 10/15/4 2/16/4
f 8/17/5 9/18/5 5/19/5
f 9/20/6 2/21/6 10/22/6
f 3/23/7 4/24/7 9/25/7
f 5/26/8 9/27/8 6/28/8
f 9/18/9 8/17/9 3/29/9
f 2/21/10 9/20/10 7/30/10
f 9/25/11 4/24/11 7/31/11
f 6/28/12 9/27/12 10/32/12
