# Blender 5.0.0
# www.blender.org
mtllib ingot.mtl
o Untitled
v 0.110283 -0.297126 1.600000
v -0.089717 -0.297126 1.600000
v 0.110283 0.702874 1.600000
v -0.089717 0.702874 1.600000
v 0.110283 -0.497126 1.400000
v -0.089717 -0.497126 1.400000
v 0.310283 -0.297126 1.400000
v 0.110283 -0.297126 1.400000
v -0.089717 -0.297126 1.400000
v -0.289717 -0.297126 1.400000
v 0.310283 -0.097126 1.400000
v 0.110283 -0.097126 1.400000
v -0.089717 -0.097126 1.400000
v -0.289717 -0.097126 1.400000
v 0.310283 0.502874 1.400000
v 0.110283 0.502874 1.400000
v -0.089717 0.502874 1.400000
v -0.289717 0.502874 1.400000
v 0.310283 0.702874 1.400000
v 0.110283 0.702874 1.400000
v -0.089717 0.702874 1.400000
v -0.289717 0.702874 1.400000
v 0.110283 0.902874 1.400000
v -0.089717 0.902874 1.400000
v 0.110283 -0.697126 1.200000
v -0.089717 -0.697126 1.200000
v 0.310283 -0.497126 1.200000
v 0.110283 -0.497126 1.200000
v -0.089717 -0.497126 1.200000
v -0.289717 -0.497126 1.200000
v 0.310283 -0.297126 1.200000
v 0.110283 -0.297126 1.200000
v -0.089717 -0.297126 1.200000
v -0.289717 -0.297126 1.200000
v 0.110283 -0.897126 1.000000
v -0.089717 -0.897126 1.000000
v 0.310283 -0.697126 1.000000
v 0.110283 -0.697126 1.000000
v -0.089717 -0.697126 1.000000
v -0.289717 -0.697126 1.000000
v 0.310283 -0.497126 1.000000
v 0.110283 -0.497126 1.000000
v -0.089717 -0.497126 1.000000
v -0.289717 -0.497126 1.000000
v 0.310283 0.702874 0.800000
v 0.110283 0.702874 0.800000
v -0.089717 0.702874 0.800000
v -0.289717 0.702874 0.800000
v 0.310283 0.902874 0.800000
v 0.110283 0.902874 0.800000
v -0.089717 0.902874 0.800000
v -0.289717 0.902874 0.800000
v 0.110283 1.102874 0.800000
v -0.089717 1.102874 0.800000
v 0.310283 0.902874 0.200000
v 0.110283 0.902874 0.200000
v -0.089717 0.902874 0.200000
v -0.289717 0.902874 0.200000
v 0.310283 1.102874 0.200000
v 0.110283 1.102874 0.200000
v -0.089717 1.102874 0.200000
v -0.289717 1.102874 0.200000
v 0.110283 1.302874 0.200000
v -0.089717 1.302874 0.200000
v 0.310283 1.102874 -0.400000
v 0.110283 1.102874 -0.400000
v -0.089717 1.102874 -0.400000
v -0.289717 1.102874 -0.400000
v 0.310283 1.302874 -0.400000
v 0.110283 1.302874 -0.400000
v -0.089717 1.302874 -0.400000
v -0.289717 1.302874 -0.400000
v 0.110283 1.502874 -0.400000
v -0.089717 1.502874 -0.400000
v 0.110283 -0.897126 0.200000
v -0.089717 -0.897126 0.200000
v 0.310283 -0.697126 0.200000
v 0.110283 -0.697126 0.200000
v -0.089717 -0.697126 0.200000
v -0.289717 -0.697126 0.200000
v 0.310283 -0.497126 0.200000
v 0.110283 -0.497126 0.200000
v -0.089717 -0.497126 0.200000
v -0.289717 -0.497126 0.200000
v 0.110283 -0.697126 -0.400000
v -0.089717 -0.697126 -0.400000
v 0.310283 -0.497126 -0.400000
v 0.110283 -0.497126 -0.400000
v -0.089717 -0.497126 -0.400000
v -0.289717 -0.497126 -0.400000
v 0.310283 -0.297126 -0.400000
v 0.110283 -0.297126 -0.400000
v -0.089717 -0.297126 -0.400000
v -0.289717 -0.297126 -0.400000
v 0.310283 1.102874 -0.800000
v 0.110283 1.102874 -0.800000
v -0.089717 1.102874 -0.800000
v -0.289717 1.102874 -0.800000
v 0.310283 1.302874 -0.800000
v 0.110283 1.302874 -0.800000
v -0.089717 1.302874 -0.800000
v -0.289717 1.302874 -0.800000
v 0.110283 1.502874 -0.800000
v -0.089717 1.502874 -0.800000
v 0.110283 -0.497126 -1.000000
v -0.089717 -0.497126 -1.000000
v 0.310283 -0.297126 -1.000000
v 0.110283 -0.297126 -1.000000
v -0.089717 -0.297126 -1.000000
v -0.289717 -0.297126 -1.000000
v 0.310283 -0.097126 -1.000000
v 0.110283 -0.097126 -1.000000
v -0.089717 -0.097126 -1.000000
v -0.289717 -0.097126 -1.000000
v 0.310283 0.902874 -1.000000
v 0.110283 0.902874 -1.000000
v -0.089717 0.902874 -1.000000
v -0.289717 0.902874 -1.000000
v 0.310283 1.102874 -1.000000
v 0.110283 1.102874 -1.000000
v -0.089717 1.102874 -1.000000
v -0.289717 1.102874 -1.000000
v 0.110283 1.302874 -1.000000
v -0.089717 1.302874 -1.000000
v 0.310283 0.702874 -1.200000
v 0.110283 0.702874 -1.200000
v -0.089717 0.702874 -1.200000
v -0.289717 0.702874 -1.200000
v 0.310283 0.902874 -1.200000
v 0.110283 0.902874 -1.200000
v -0.089717 0.902874 -1.200000
v -0.289717 0.902874 -1.200000
v 0.110283 1.102874 -1.200000
v -0.089717 1.102874 -1.200000
v 0.110283 -0.297126 -1.400000
v -0.089717 -0.297126 -1.400000
v 0.310283 -0.097126 -1.400000
v 0.110283 -0.097126 -1.400000
v -0.089717 -0.097126 -1.400000
v -0.289717 -0.097126 -1.400000
v 0.310283 0.502874 -1.400000
v 0.110283 0.502874 -1.400000
v -0.089717 0.502874 -1.400000
v -0.289717 0.502874 -1.400000
v 0.310283 0.702874 -1.400000
v 0.110283 0.702874 -1.400000
v -0.089717 0.702874 -1.400000
v -0.289717 0.702874 -1.400000
v 0.110283 0.902874 -1.400000
v -0.089717 0.902874 -1.400000
v 0.110283 -0.097126 -1.600000
v -0.089717 -0.097126 -1.600000
v 0.110283 0.702874 -1.600000
v -0.089717 0.702874 -1.600000
v 0.310283 -0.297126 1.400000
v 0.310283 -0.097126 1.400000
v 0.310283 0.502874 1.400000
v 0.310283 0.702874 1.400000
v 0.310283 -0.497126 1.200000
v 0.310283 -0.297126 1.200000
v 0.310283 -0.097126 1.200000
v 0.310283 0.302874 1.200000
v 0.310283 0.502874 1.200000
v 0.310283 0.702874 1.200000
v 0.310283 -0.697126 1.000000
v 0.310283 -0.497126 1.000000
v 0.310283 -0.297126 1.000000
v 0.310283 0.102874 1.000000
v 0.310283 0.302874 1.000000
v 0.310283 0.502874 1.000000
v 0.310283 -0.697126 0.800000
v 0.310283 -0.497126 0.800000
v 0.310283 -0.097126 0.800000
v 0.310283 0.102874 0.800000
v 0.310283 0.302874 0.800000
v 0.310283 0.702874 0.800000
v 0.310283 0.902874 0.800000
v 0.310283 -0.697126 0.600000
v 0.310283 -0.497126 0.600000
v 0.310283 -0.097126 0.600000
v 0.310283 0.702874 0.600000
v 0.310283 0.902874 0.600000
v 0.310283 -0.497126 0.400000
v 0.310283 -0.097126 0.400000
v 0.310283 0.102874 0.400000
v 0.310283 0.302874 0.400000
v 0.310283 -0.697126 0.200000
v 0.310283 -0.497126 0.200000
v 0.310283 -0.097126 0.200000
v 0.310283 0.102874 0.200000
v 0.310283 0.902874 0.200000
v 0.310283 1.102874 0.200000
v 0.310283 -0.497126 -0.000000
v 0.310283 -0.297126 -0.000000
v 0.310283 -0.097126 -0.000000
v 0.310283 0.102874 -0.000000
v 0.310283 0.102874 -0.200000
v 0.310283 0.302874 -0.200000
v 0.310283 0.502874 -0.200000
v 0.310283 -0.497126 -0.400000
v 0.310283 -0.297126 -0.400000
v 0.310283 -0.097126 -0.400000
v 0.310283 0.102874 -0.400000
v 0.310283 0.302874 -0.400000
v 0.310283 1.102874 -0.400000
v 0.310283 1.302874 -0.400000
v 0.310283 -0.297126 -0.600000
v 0.310283 -0.097126 -0.600000
v 0.310283 0.102874 -0.600000
v 0.310283 0.302874 -0.600000
v 0.310283 -0.097126 -0.800000
v 0.310283 0.102874 -0.800000
v 0.310283 0.302874 -0.800000
v 0.310283 0.502874 -0.800000
v 0.310283 0.702874 -0.800000
v 0.310283 1.102874 -0.800000
v 0.310283 1.302874 -0.800000
v 0.310283 -0.297126 -1.000000
v 0.310283 -0.097126 -1.000000
v 0.310283 0.102874 -1.000000
v 0.310283 0.302874 -1.000000
v 0.310283 0.502874 -1.000000
v 0.310283 0.902874 -1.000000
v 0.310283 1.102874 -1.000000
v 0.310283 0.102874 -1.200000
v 0.310283 0.502874 -1.200000
v 0.310283 0.702874 -1.200000
v 0.310283 0.902874 -1.200000
v 0.310283 -0.097126 -1.400000
v 0.310283 0.502874 -1.400000
v 0.310283 0.702874 -1.400000
v 0.110283 -0.297126 1.600000
v 0.110283 0.702874 1.600000
v 0.110283 -0.497126 1.400000
v 0.110283 -0.297126 1.400000
v 0.110283 -0.097126 1.400000
v 0.110283 0.502874 1.400000
v 0.110283 0.702874 1.400000
v 0.110283 0.902874 1.400000
v 0.110283 -0.697126 1.200000
v 0.110283 -0.497126 1.200000
v 0.110283 -0.297126 1.200000
v 0.110283 0.702874 1.200000
v 0.110283 -0.897126 1.000000
v 0.110283 -0.697126 1.000000
v 0.110283 -0.497126 1.000000
v 0.110283 -0.697126 0.800000
v 0.110283 0.702874 0.800000
v 0.110283 0.902874 0.800000
v 0.110283 1.102874 0.800000
v 0.110283 -0.897126 0.600000
v 0.110283 -0.697126 0.600000
v 0.110283 0.902874 0.600000
v 0.110283 -0.897126 0.200000
v 0.110283 -0.697126 0.200000
v 0.110283 -0.497126 0.200000
v 0.110283 0.902874 0.200000
v 0.110283 1.102874 0.200000
v 0.110283 1.302874 0.200000
v 0.110283 -0.497126 -0.000000
v 0.110283 -0.697126 -0.400000
v 0.110283 -0.497126 -0.400000
v 0.110283 -0.297126 -0.400000
v 0.110283 1.102874 -0.400000
v 0.110283 1.302874 -0.400000
v 0.110283 1.502874 -0.400000
v 0.110283 -0.297126 -0.600000
v 0.110283 1.102874 -0.800000
v 0.110283 1.302874 -0.800000
v 0.110283 1.502874 -0.800000
v 0.110283 -0.497126 -1.000000
v 0.110283 -0.297126 -1.000000
v 0.110283 -0.097126 -1.000000
v 0.110283 0.902874 -1.000000
v 0.110283 1.102874 -1.000000
v 0.110283 1.302874 -1.000000
v 0.110283 0.702874 -1.200000
v 0.110283 0.902874 -1.200000
v 0.110283 1.102874 -1.200000
v 0.110283 -0.297126 -1.400000
v 0.110283 -0.097126 -1.400000
v 0.110283 0.502874 -1.400000
v 0.110283 0.702874 -1.400000
v 0.110283 0.902874 -1.400000
v 0.110283 -0.097126 -1.600000
v 0.110283 0.702874 -1.600000
v -0.089717 -0.297126 1.600000
v -0.089717 0.702874 1.600000
v -0.089717 -0.497126 1.400000
v -0.089717 -0.297126 1.400000
v -0.089717 -0.097126 1.400000
v -0.089717 0.502874 1.400000
v -0.089717 0.702874 1.400000
v -0.089717 0.902874 1.400000
v -0.089717 -0.697126 1.200000
v -0.089717 -0.497126 1.200000
v -0.089717 -0.297126 1.200000
v -0.089717 0.702874 1.200000
v -0.089717 -0.897126 1.000000
v -0.089717 -0.697126 1.000000
v -0.089717 -0.497126 1.000000
v -0.089717 -0.697126 0.800000
v -0.089717 0.702874 0.800000
v -0.089717 0.902874 0.800000
v -0.089717 1.102874 0.800000
v -0.089717 -0.897126 0.600000
v -0.089717 -0.697126 0.600000
v -0.089717 0.902874 0.600000
v -0.089717 -0.897126 0.200000
v -0.089717 -0.697126 0.200000
v -0.089717 -0.497126 0.200000
v -0.089717 0.902874 0.200000
v -0.089717 1.102874 0.200000
v -0.089717 1.302874 0.200000
v -0.089717 -0.497126 0.000000
v -0.089717 -0.697126 -0.400000
v -0.089717 -0.497126 -0.400000
v -0.089717 -0.297126 -0.400000
v -0.089717 1.102874 -0.400000
v -0.089717 1.302874 -0.400000
v -0.089717 1.502874 -0.400000
v -0.089717 -0.297126 -0.600000
v -0.089717 1.102874 -0.800000
v -0.089717 1.302874 -0.800000
v -0.089717 1.502874 -0.800000
v -0.089717 -0.497126 -1.000000
v -0.089717 -0.297126 -1.000000
v -0.089717 -0.097126 -1.000000
v -0.089717 0.902874 -1.000000
v -0.089717 1.102874 -1.000000
v -0.089717 1.302874 -1.000000
v -0.089717 0.702874 -1.200000
v -0.089717 0.902874 -1.200000
v -0.089717 1.102874 -1.200000
v -0.089717 -0.297126 -1.400000
v -0.089717 -0.097126 -1.400000
v -0.089717 0.502874 -1.400000
v -0.089717 0.702874 -1.400000
v -0.089717 0.902874 -1.400000
v -0.089717 -0.097126 -1.600000
v -0.089717 0.702874 -1.600000
v -0.289717 -0.297126 1.400000
v -0.289717 -0.097126 1.400000
v -0.289717 0.502874 1.400000
v -0.289717 0.702874 1.400000
v -0.289717 -0.497126 1.200000
v -0.289717 -0.297126 1.200000
v -0.289717 -0.097126 1.200000
v -0.289717 0.302874 1.200000
v -0.289717 0.502874 1.200000
v -0.289717 0.702874 1.200000
v -0.289717 -0.697126 1.000000
v -0.289717 -0.497126 1.000000
v -0.289717 -0.297126 1.000000
v -0.289717 0.102874 1.000000
v -0.289717 0.302874 1.000000
v -0.289717 0.502874 1.000000
v -0.289717 -0.697126 0.800000
v -0.289717 -0.497126 0.800000
v -0.289717 -0.097126 0.800000
v -0.289717 0.102874 0.800000
v -0.289717 0.302874 0.800000
v -0.289717 0.702874 0.800000
v -0.289717 0.902874 0.800000
v -0.289717 -0.697126 0.600000
v -0.289717 -0.497126 0.600000
v -0.289717 -0.097126 0.600000
v -0.289717 0.702874 0.600000
v -0.289717 0.902874 0.600000
v -0.289717 -0.497126 0.400000
v -0.289717 -0.097126 0.400000
v -0.289717 0.102874 0.400000
v -0.289717 0.302874 0.400000
v -0.289717 -0.697126 0.200000
v -0.289717 -0.497126 0.200000
v -0.289717 -0.097126 0.200000
v -0.289717 0.102874 0.200000
v -0.289717 0.902874 0.200000
v -0.289717 1.102874 0.200000
v -0.289717 -0.497126 0.000000
v -0.289717 -0.297126 0.000000
v -0.289717 -0.097126 0.000000
v -0.289717 0.102874 0.000000
v -0.289717 0.102874 -0.200000
v -0.289717 0.302874 -0.200000
v -0.289717 0.502874 -0.200000
v -0.289717 -0.497126 -0.400000
v -0.289717 -0.297126 -0.400000
v -0.289717 -0.097126 -0.400000
v -0.289717 0.102874 -0.400000
v -0.289717 0.302874 -0.400000
v -0.289717 1.102874 -0.400000
v -0.289717 1.302874 -0.400000
v -0.289717 -0.297126 -0.600000
v -0.289717 -0.097126 -0.600000
v -0.289717 0.102874 -0.600000
v -0.289717 0.302874 -0.600000
v -0.289717 -0.097126 -0.800000
v -0.289717 0.102874 -0.800000
v -0.289717 0.302874 -0.800000
v -0.289717 0.502874 -0.800000
v -0.289717 0.702874 -0.800000
v -0.289717 1.102874 -0.800000
v -0.289717 1.302874 -0.800000
v -0.289717 -0.297126 -1.000000
v -0.289717 -0.097126 -1.000000
v -0.289717 0.102874 -1.000000
v -0.289717 0.302874 -1.000000
v -0.289717 0.502874 -1.000000
v -0.289717 0.902874 -1.000000
v -0.289717 1.102874 -1.000000
v -0.289717 0.102874 -1.200000
v -0.289717 0.502874 -1.200000
v -0.289717 0.702874 -1.200000
v -0.289717 0.902874 -1.200000
v -0.289717 -0.097126 -1.400000
v -0.289717 0.502874 -1.400000
v -0.289717 0.702874 -1.400000
v 0.110283 -0.897126 1.000000
v 0.110283 -0.897126 0.600000
v 0.110283 -0.897126 0.200000
v -0.089717 -0.897126 1.000000
v -0.089717 -0.897126 0.600000
v -0.089717 -0.897126 0.200000
v 0.310283 -0.697126 1.000000
v 0.310283 -0.697126 0.800000
v 0.310283 -0.697126 0.600000
v 0.310283 -0.697126 0.200000
v 0.110283 -0.697126 1.200000
v 0.110283 -0.697126 1.000000
v 0.110283 -0.697126 0.800000
v 0.110283 -0.697126 0.600000
v 0.110283 -0.697126 0.200000
v 0.110283 -0.697126 -0.400000
v -0.089717 -0.697126 1.200000
v -0.089717 -0.697126 1.000000
v -0.089717 -0.697126 0.800000
v -0.089717 -0.697126 0.600000
v -0.089717 -0.697126 0.200000
v -0.089717 -0.697126 -0.400000
v -0.289717 -0.697126 1.000000
v -0.289717 -0.697126 0.800000
v -0.289717 -0.697126 0.600000
v -0.289717 -0.697126 0.200000
v 0.310283 -0.497126 1.200000
v 0.310283 -0.497126 1.000000
v 0.310283 -0.497126 0.200000
v 0.310283 -0.497126 -0.000000
v 0.310283 -0.497126 -0.400000
v 0.110283 -0.497126 1.400000
v 0.110283 -0.497126 1.200000
v 0.110283 -0.497126 1.000000
v 0.110283 -0.497126 0.200000
v 0.110283 -0.497126 -0.000000
v 0.110283 -0.497126 -0.400000
v 0.110283 -0.497126 -1.000000
v -0.089717 -0.497126 1.400000
v -0.089717 -0.497126 1.200000
v -0.089717 -0.497126 1.000000
v -0.089717 -0.497126 0.200000
v -0.089717 -0.497126 0.000000
v -0.089717 -0.497126 -0.400000
v -0.089717 -0.497126 -1.000000
v -0.289717 -0.497126 1.200000
v -0.289717 -0.497126 1.000000
v -0.289717 -0.497126 0.200000
v -0.289717 -0.497126 0.000000
v -0.289717 -0.497126 -0.400000
v 0.310283 -0.297126 1.400000
v 0.310283 -0.297126 1.200000
v 0.310283 -0.297126 -0.400000
v 0.310283 -0.297126 -0.600000
v 0.310283 -0.297126 -1.000000
v 0.110283 -0.297126 1.600000
v 0.110283 -0.297126 1.400000
v 0.110283 -0.297126 1.200000
v 0.110283 -0.297126 -0.400000
v 0.110283 -0.297126 -0.600000
v 0.110283 -0.297126 -1.000000
v 0.110283 -0.297126 -1.400000
v -0.089717 -0.297126 1.600000
v -0.089717 -0.297126 1.400000
v -0.089717 -0.297126 1.200000
v -0.089717 -0.297126 -0.400000
v -0.089717 -0.297126 -0.600000
v -0.089717 -0.297126 -1.000000
v -0.089717 -0.297126 -1.400000
v -0.289717 -0.297126 1.400000
v -0.289717 -0.297126 1.200000
v -0.289717 -0.297126 -0.400000
v -0.289717 -0.297126 -0.600000
v -0.289717 -0.297126 -1.000000
v 0.310283 -0.097126 -1.000000
v 0.310283 -0.097126 -1.400000
v 0.110283 -0.097126 -1.000000
v 0.110283 -0.097126 -1.400000
v 0.110283 -0.097126 -1.600000
v -0.089717 -0.097126 -1.000000
v -0.089717 -0.097126 -1.400000
v -0.089717 -0.097126 -1.600000
v -0.289717 -0.097126 -1.000000
v -0.289717 -0.097126 -1.400000
v 0.310283 0.702874 1.400000
v 0.310283 0.702874 1.200000
v 0.310283 0.702874 0.800000
v 0.310283 0.702874 -1.200000
v 0.310283 0.702874 -1.400000
v 0.110283 0.702874 1.600000
v 0.110283 0.702874 1.400000
v 0.110283 0.702874 1.200000
v 0.110283 0.702874 0.800000
v 0.110283 0.702874 -1.200000
v 0.110283 0.702874 -1.400000
v 0.110283 0.702874 -1.600000
v -0.089717 0.702874 1.600000
v -0.089717 0.702874 1.400000
v -0.089717 0.702874 1.200000
v -0.089717 0.702874 0.800000
v -0.089717 0.702874 -1.200000
v -0.089717 0.702874 -1.400000
v -0.089717 0.702874 -1.600000
v -0.289717 0.702874 1.400000
v -0.289717 0.702874 1.200000
v -0.289717 0.702874 0.800000
v -0.289717 0.702874 -1.200000
v -0.289717 0.702874 -1.400000
v 0.310283 0.902874 0.800000
v 0.310283 0.902874 0.600000
v 0.310283 0.902874 0.200000
v 0.310283 0.902874 -1.000000
v 0.310283 0.902874 -1.200000
v 0.110283 0.902874 1.400000
v 0.110283 0.902874 0.800000
v 0.110283 0.902874 0.600000
v 0.110283 0.902874 0.200000
v 0.110283 0.902874 -1.000000
v 0.110283 0.902874 -1.200000
v 0.110283 0.902874 -1.400000
v -0.089717 0.902874 1.400000
v -0.089717 0.902874 0.800000
v -0.089717 0.902874 0.600000
v -0.089717 0.902874 0.200000
v -0.089717 0.902874 -1.000000
v -0.089717 0.902874 -1.200000
v -0.089717 0.902874 -1.400000
v -0.289717 0.902874 0.800000
v -0.289717 0.902874 0.600000
v -0.289717 0.902874 0.200000
v -0.289717 0.902874 -1.000000
v -0.289717 0.902874 -1.200000
v 0.310283 1.102874 0.200000
v 0.310283 1.102874 -0.400000
v 0.310283 1.102874 -0.800000
v 0.310283 1.102874 -1.000000
v 0.110283 1.102874 0.800000
v 0.110283 1.102874 0.200000
v 0.110283 1.102874 -0.400000
v 0.110283 1.102874 -0.800000
v 0.110283 1.102874 -1.000000
v 0.110283 1.102874 -1.200000
v -0.089717 1.102874 0.800000
v -0.089717 1.102874 0.200000
v -0.089717 1.102874 -0.400000
v -0.089717 1.102874 -0.800000
v -0.089717 1.102874 -1.000000
v -0.089717 1.102874 -1.200000
v -0.289717 1.102874 0.200000
v -0.289717 1.102874 -0.400000
v -0.289717 1.102874 -0.800000
v -0.289717 1.102874 -1.000000
v 0.310283 1.302874 -0.400000
v 0.310283 1.302874 -0.800000
v 0.110283 1.302874 0.200000
v 0.110283 1.302874 -0.400000
v 0.110283 1.302874 -0.800000
v 0.110283 1.302874 -1.000000
v -0.089717 1.302874 0.200000
v -0.089717 1.302874 -0.400000
v -0.089717 1.302874 -0.800000
v -0.089717 1.302874 -1.000000
v -0.289717 1.302874 -0.400000
v -0.289717 1.302874 -0.800000
v 0.110283 1.502874 -0.400000
v 0.110283 1.502874 -0.800000
v -0.089717 1.502874 -0.400000
v -0.089717 1.502874 -0.800000
vn -0.0000 -0.0000 1.0000
vn -0.0000 -0.0000 -1.0000
vn 1.0000 -0.0000 -0.0000
vn -1.0000 -0.0000 -0.0000
vn -0.0000 -1.0000 -0.0000
vn -0.0000 1.0000 -0.0000
vt 0.974609 0.500000
vt 0.978516 0.500000
vt 0.982422 0.500000
vt 0.990234 0.500000
vt 0.986328 0.500000
vt 0.970703 0.500000
vt 0.994141 0.500000
s 1
usemtl palette
f 3/1/1 2/1/1 1/1/1
f 4/1/1 2/1/1 3/1/1
f 8/1/1 6/1/1 5/1/1
f 9/1/1 6/1/1 8/1/1
f 11/2/1 8/2/1 7/2/1
f 12/2/1 8/2/1 11/2/1
f 13/2/1 10/2/1 9/2/1
f 14/2/1 10/2/1 13/2/1
f 15/3/1 12/3/1 11/3/1
f 16/3/1 12/3/1 15/3/1
f 17/3/1 14/3/1 13/3/1
f 18/3/1 14/3/1 17/3/1
f 19/4/1 16/4/1 15/4/1
f 20/4/1 16/4/1 19/4/1
f 21/4/1 18/4/1 17/4/1
f 22/4/1 18/4/1 21/4/1
f 23/1/1 21/1/1 20/1/1
f 24/1/1 21/1/1 23/1/1
f 28/1/1 26/1/1 25/1/1
f 29/1/1 26/1/1 28/1/1
f 31/2/1 28/2/1 27/2/1
f 32/2/1 28/2/1 31/2/1
f 33/2/1 30/2/1 29/2/1
f 34/2/1 30/2/1 33/2/1
f 38/1/1 36/1/1 35/1/1
f 39/1/1 36/1/1 38/1/1
f 41/2/1 38/2/1 37/2/1
f 42/2/1 38/2/1 41/2/1
f 43/2/1 40/2/1 39/2/1
f 44/2/1 40/2/1 43/2/1
f 49/3/1 46/3/1 45/3/1
f 50/3/1 46/3/1 49/3/1
f 51/3/1 48/3/1 47/3/1
f 52/3/1 48/3/1 51/3/1
f 53/1/1 51/1/1 50/1/1
f 54/1/1 51/1/1 53/1/1
f 59/5/1 56/5/1 55/5/1
f 60/5/1 56/5/1 59/5/1
f 61/5/1 58/5/1 57/5/1
f 62/5/1 58/5/1 61/5/1
f 63/1/1 61/1/1 60/1/1
f 64/1/1 61/1/1 63/1/1
f 69/3/1 66/3/1 65/3/1
f 70/3/1 66/3/1 69/3/1
f 71/3/1 68/3/1 67/3/1
f 72/3/1 68/3/1 71/3/1
f 73/1/1 71/1/1 70/1/1
f 74/1/1 71/1/1 73/1/1
f 75/6/2 76/6/2 78/6/2
f 78/6/2 76/6/2 79/6/2
f 77/2/2 78/2/2 81/2/2
f 81/2/2 78/2/2 82/2/2
f 79/2/2 80/2/2 83/2/2
f 83/2/2 80/2/2 84/2/2
f 85/6/2 86/6/2 88/6/2
f 88/6/2 86/6/2 89/6/2
f 87/2/2 88/2/2 91/2/2
f 91/2/2 88/2/2 92/2/2
f 89/2/2 90/2/2 93/2/2
f 93/2/2 90/2/2 94/2/2
f 95/3/2 96/3/2 99/3/2
f 99/3/2 96/3/2 100/3/2
f 97/3/2 98/3/2 101/3/2
f 101/3/2 98/3/2 102/3/2
f 100/1/2 101/1/2 103/1/2
f 103/1/2 101/1/2 104/1/2
f 105/6/2 106/6/2 108/6/2
f 108/6/2 106/6/2 109/6/2
f 107/3/2 108/3/2 111/3/2
f 111/3/2 108/3/2 112/3/2
f 109/3/2 110/3/2 113/3/2
f 113/3/2 110/3/2 114/3/2
f 115/5/2 116/5/2 119/5/2
f 119/5/2 116/5/2 120/5/2
f 117/5/2 118/5/2 121/5/2
f 121/5/2 118/5/2 122/5/2
f 120/1/2 121/1/2 123/1/2
f 123/1/2 121/1/2 124/1/2
f 125/5/2 126/5/2 129/5/2
f 129/5/2 126/5/2 130/5/2
f 127/5/2 128/5/2 131/5/2
f 131/5/2 128/5/2 132/5/2
f 130/1/2 131/1/2 133/1/2
f 133/1/2 131/1/2 134/1/2
f 135/6/2 136/6/2 138/6/2
f 138/6/2 136/6/2 139/6/2
f 137/3/2 138/3/2 141/3/2
f 141/3/2 138/3/2 142/3/2
f 139/3/2 140/3/2 143/3/2
f 143/3/2 140/3/2 144/3/2
f 141/5/2 142/5/2 145/5/2
f 145/5/2 142/5/2 146/5/2
f 143/5/2 144/5/2 147/5/2
f 147/5/2 144/5/2 148/5/2
f 146/6/2 147/6/2 149/6/2
f 149/6/2 147/6/2 150/6/2
f 151/6/2 152/6/2 153/6/2
f 153/6/2 152/6/2 154/6/2
f 160/2/3 156/2/3 155/2/3
f 161/3/3 157/3/3 156/3/3
f 161/2/3 156/2/3 160/2/3
f 162/3/3 157/3/3 161/3/3
f 163/4/3 158/4/3 157/4/3
f 163/3/3 157/3/3 162/3/3
f 164/4/3 158/4/3 163/4/3
f 166/2/3 160/2/3 159/2/3
f 167/5/3 162/5/3 161/5/3
f 167/5/3 161/5/3 160/5/3
f 167/2/3 160/2/3 166/2/3
f 168/5/3 162/5/3 167/5/3
f 169/4/3 163/4/3 162/4/3
f 169/5/3 162/5/3 168/5/3
f 170/5/3 164/5/3 163/5/3
f 170/4/3 163/4/3 169/4/3
f 171/2/3 166/2/3 165/2/3
f 172/3/3 168/3/3 167/3/3
f 172/2/3 166/2/3 171/2/3
f 172/3/3 167/3/3 166/3/3
f 173/3/3 168/3/3 172/3/3
f 174/4/3 169/4/3 168/4/3
f 174/3/3 168/3/3 173/3/3
f 175/5/3 170/5/3 169/5/3
f 175/4/3 169/4/3 174/4/3
f 176/5/3 164/5/3 170/5/3
f 176/5/3 170/5/3 175/5/3
f 178/3/3 172/3/3 171/3/3
f 179/5/3 173/5/3 172/5/3
f 179/3/3 172/3/3 178/3/3
f 180/4/3 174/4/3 173/4/3
f 180/5/3 173/5/3 179/5/3
f 181/5/3 175/5/3 174/5/3
f 181/5/3 176/5/3 175/5/3
f 181/3/3 177/3/3 176/3/3
f 182/3/3 177/3/3 181/3/3
f 183/2/3 180/2/3 179/2/3
f 183/2/3 179/2/3 178/2/3
f 184/4/3 174/4/3 180/4/3
f 184/2/3 180/2/3 183/2/3
f 185/5/3 182/5/3 181/5/3
f 185/4/3 174/4/3 184/4/3
f 185/5/3 181/5/3 174/5/3
f 186/5/3 182/5/3 185/5/3
f 187/2/3 183/2/3 178/2/3
f 188/7/3 184/7/3 183/7/3
f 188/2/3 183/2/3 187/2/3
f 189/5/3 185/5/3 184/5/3
f 189/7/3 184/7/3 188/7/3
f 190/4/3 186/4/3 185/4/3
f 190/5/3 185/5/3 189/5/3
f 191/5/3 182/5/3 186/5/3
f 193/7/3 189/7/3 188/7/3
f 194/7/3 189/7/3 193/7/3
f 195/2/3 190/2/3 189/2/3
f 195/7/3 189/7/3 194/7/3
f 196/4/3 186/4/3 190/4/3
f 196/2/3 190/2/3 195/2/3
f 197/7/3 195/7/3 194/7/3
f 197/4/3 186/4/3 196/4/3
f 197/7/3 196/7/3 195/7/3
f 198/5/3 191/5/3 186/5/3
f 198/4/3 186/4/3 197/4/3
f 198/5/3 192/5/3 191/5/3
f 199/5/3 192/5/3 198/5/3
f 200/2/3 194/2/3 193/2/3
f 201/7/3 197/7/3 194/7/3
f 201/2/3 194/2/3 200/2/3
f 202/7/3 197/7/3 201/7/3
f 203/5/3 198/5/3 197/5/3
f 203/7/3 197/7/3 202/7/3
f 204/4/3 199/4/3 198/4/3
f 204/5/3 198/5/3 203/5/3
f 205/5/3 192/5/3 199/5/3
f 207/2/3 202/2/3 201/2/3
f 208/7/3 203/7/3 202/7/3
f 208/2/3 202/2/3 207/2/3
f 209/2/3 204/2/3 203/2/3
f 209/7/3 203/7/3 208/7/3
f 210/4/3 199/4/3 204/4/3
f 210/2/3 204/2/3 209/2/3
f 211/7/3 209/7/3 208/7/3
f 211/3/3 208/3/3 207/3/3
f 211/7/3 210/7/3 209/7/3
f 212/7/3 210/7/3 211/7/3
f 213/4/3 199/4/3 210/4/3
f 213/7/3 210/7/3 212/7/3
f 214/5/3 205/5/3 199/5/3
f 214/4/3 199/4/3 213/4/3
f 215/5/3 205/5/3 214/5/3
f 216/3/3 206/3/3 205/3/3
f 216/5/3 205/5/3 215/5/3
f 217/3/3 206/3/3 216/3/3
f 218/3/3 211/3/3 207/3/3
f 219/2/3 212/2/3 211/2/3
f 219/3/3 211/3/3 218/3/3
f 220/7/3 213/7/3 212/7/3
f 220/2/3 212/2/3 219/2/3
f 221/5/3 214/5/3 213/5/3
f 221/7/3 213/7/3 220/7/3
f 222/4/3 215/4/3 214/4/3
f 222/5/3 214/5/3 221/5/3
f 223/5/3 216/5/3 215/5/3
f 224/5/3 216/5/3 223/5/3
f 225/7/3 221/7/3 220/7/3
f 225/3/3 220/3/3 219/3/3
f 225/7/3 222/7/3 221/7/3
f 226/4/3 215/4/3 222/4/3
f 226/7/3 222/7/3 225/7/3
f 227/5/3 223/5/3 215/5/3
f 227/4/3 215/4/3 226/4/3
f 228/5/3 223/5/3 227/5/3
f 229/3/3 226/3/3 225/3/3
f 229/3/3 225/3/3 219/3/3
f 230/5/3 227/5/3 226/5/3
f 230/3/3 226/3/3 229/3/3
f 231/5/3 227/5/3 230/5/3
f 235/1/3 233/1/3 232/1/3
f 236/1/3 233/1/3 235/1/3
f 237/1/3 233/1/3 236/1/3
f 238/1/3 233/1/3 237/1/3
f 241/1/3 235/1/3 234/1/3
f 242/1/3 235/1/3 241/1/3
f 243/1/3 239/1/3 238/1/3
f 245/1/3 241/1/3 240/1/3
f 246/1/3 241/1/3 245/1/3
f 247/1/3 245/1/3 244/1/3
f 248/1/3 239/1/3 243/1/3
f 249/1/3 239/1/3 248/1/3
f 251/1/3 247/1/3 244/1/3
f 252/1/3 247/1/3 251/1/3
f 253/1/3 250/1/3 249/1/3
f 254/6/3 252/6/3 251/6/3
f 255/6/3 252/6/3 254/6/3
f 257/1/3 250/1/3 253/1/3
f 258/1/3 250/1/3 257/1/3
f 260/6/3 256/6/3 255/6/3
f 261/6/3 260/6/3 255/6/3
f 262/6/3 260/6/3 261/6/3
f 264/1/3 259/1/3 258/1/3
f 265/1/3 259/1/3 264/1/3
f 267/6/3 263/6/3 262/6/3
f 269/1/3 266/1/3 265/1/3
f 270/1/3 266/1/3 269/1/3
f 271/6/3 267/6/3 262/6/3
f 272/6/3 267/6/3 271/6/3
f 275/1/3 269/1/3 268/1/3
f 276/1/3 269/1/3 275/1/3
f 278/1/3 275/1/3 274/1/3
f 279/1/3 275/1/3 278/1/3
f 280/6/3 273/6/3 272/6/3
f 281/6/3 273/6/3 280/6/3
f 283/6/3 278/6/3 277/6/3
f 284/6/3 278/6/3 283/6/3
f 285/6/3 282/6/3 281/6/3
f 285/6/3 283/6/3 282/6/3
f 286/6/3 283/6/3 285/6/3
f 287/1/4 288/1/4 290/1/4
f 290/1/4 288/1/4 291/1/4
f 291/1/4 288/1/4 292/1/4
f 292/1/4 288/1/4 293/1/4
f 289/1/4 290/1/4 296/1/4
f 296/1/4 290/1/4 297/1/4
f 293/1/4 294/1/4 298/1/4
f 295/1/4 296/1/4 300/1/4
f 300/1/4 296/1/4 301/1/4
f 299/1/4 300/1/4 302/1/4
f 298/1/4 294/1/4 303/1/4
f 303/1/4 294/1/4 304/1/4
f 299/1/4 302/1/4 306/1/4
f 306/1/4 302/1/4 307/1/4
f 304/1/4 305/1/4 308/1/4
f 306/6/4 307/6/4 309/6/4
f 309/6/4 307/6/4 310/6/4
f 308/1/4 305/1/4 312/1/4
f 312/1/4 305/1/4 313/1/4
f 310/6/4 311/6/4 315/6/4
f 310/6/4 315/6/4 316/6/4
f 316/6/4 315/6/4 317/6/4
f 313/1/4 314/1/4 319/1/4
f 319/1/4 314/1/4 320/1/4
f 317/6/4 318/6/4 322/6/4
f 320/1/4 321/1/4 324/1/4
f 324/1/4 321/1/4 325/1/4
f 317/6/4 322/6/4 326/6/4
f 326/6/4 322/6/4 327/6/4
f 323/1/4 324/1/4 330/1/4
f 330/1/4 324/1/4 331/1/4
f 329/1/4 330/1/4 333/1/4
f 333/1/4 330/1/4 334/1/4
f 327/6/4 328/6/4 335/6/4
f 335/6/4 328/6/4 336/6/4
f 332/6/4 333/6/4 338/6/4
f 338/6/4 333/6/4 339/6/4
f 336/6/4 337/6/4 340/6/4
f 337/6/4 338/6/4 340/6/4
f 340/6/4 338/6/4 341/6/4
f 342/2/4 343/2/4 347/2/4
f 343/3/4 344/3/4 348/3/4
f 347/2/4 343/2/4 348/2/4
f 348/3/4 344/3/4 349/3/4
f 344/4/4 345/4/4 350/4/4
f 349/3/4 344/3/4 350/3/4
f 350/4/4 345/4/4 351/4/4
f 346/2/4 347/2/4 353/2/4
f 348/5/4 349/5/4 354/5/4
f 347/5/4 348/5/4 354/5/4
f 353/2/4 347/2/4 354/2/4
f 354/5/4 349/5/4 355/5/4
f 349/4/4 350/4/4 356/4/4
f 355/5/4 349/5/4 356/5/4
f 350/5/4 351/5/4 357/5/4
f 356/4/4 350/4/4 357/4/4
f 352/2/4 353/2/4 358/2/4
f 354/3/4 355/3/4 359/3/4
f 358/2/4 353/2/4 359/2/4
f 353/3/4 354/3/4 359/3/4
f 359/3/4 355/3/4 360/3/4
f 355/4/4 356/4/4 361/4/4
f 360/3/4 355/3/4 361/3/4
f 356/5/4 357/5/4 362/5/4
f 361/4/4 356/4/4 362/4/4
f 357/5/4 351/5/4 363/5/4
f 362/5/4 357/5/4 363/5/4
f 358/3/4 359/3/4 365/3/4
f 359/5/4 360/5/4 366/5/4
f 365/3/4 359/3/4 366/3/4
f 360/4/4 361/4/4 367/4/4
f 366/5/4 360/5/4 367/5/4
f 361/5/4 362/5/4 368/5/4
f 362/5/4 363/5/4 368/5/4
f 363/3/4 364/3/4 368/3/4
f 368/3/4 364/3/4 369/3/4
f 366/2/4 367/2/4 370/2/4
f 365/2/4 366/2/4 370/2/4
f 367/4/4 361/4/4 371/4/4
f 370/2/4 367/2/4 371/2/4
f 368/5/4 369/5/4 372/5/4
f 371/4/4 361/4/4 372/4/4
f 361/5/4 368/5/4 372/5/4
f 372/5/4 369/5/4 373/5/4
f 365/2/4 370/2/4 374/2/4
f 370/7/4 371/7/4 375/7/4
f 374/2/4 370/2/4 375/2/4
f 371/5/4 372/5/4 376/5/4
f 375/7/4 371/7/4 376/7/4
f 372/4/4 373/4/4 377/4/4
f 376/5/4 372/5/4 377/5/4
f 373/5/4 369/5/4 378/5/4
f 375/7/4 376/7/4 380/7/4
f 380/7/4 376/7/4 381/7/4
f 376/2/4 377/2/4 382/2/4
f 381/7/4 376/7/4 382/7/4
f 377/4/4 373/4/4 383/4/4
f 382/2/4 377/2/4 383/2/4
f 381/7/4 382/7/4 384/7/4
f 383/4/4 373/4/4 384/4/4
f 382/7/4 383/7/4 384/7/4
f 373/5/4 378/5/4 385/5/4
f 384/4/4 373/4/4 385/4/4
f 378/5/4 379/5/4 385/5/4
f 385/5/4 379/5/4 386/5/4
f 380/2/4 381/2/4 387/2/4
f 381/7/4 384/7/4 388/7/4
f 387/2/4 381/2/4 388/2/4
f 388/7/4 384/7/4 389/7/4
f 384/5/4 385/5/4 390/5/4
f 389/7/4 384/7/4 390/7/4
f 385/4/4 386/4/4 391/4/4
f 390/5/4 385/5/4 391/5/4
f 386/5/4 379/5/4 392/5/4
f 388/2/4 389/2/4 394/2/4
f 389/7/4 390/7/4 395/7/4
f 394/2/4 389/2/4 395/2/4
f 390/2/4 391/2/4 396/2/4
f 395/7/4 390/7/4 396/7/4
f 391/4/4 386/4/4 397/4/4
f 396/2/4 391/2/4 397/2/4
f 395/7/4 396/7/4 398/7/4
f 394/3/4 395/3/4 398/3/4
f 396/7/4 397/7/4 398/7/4
f 398/7/4 397/7/4 399/7/4
f 397/4/4 386/4/4 400/4/4
f 399/7/4 397/7/4 400/7/4
f 386/5/4 392/5/4 401/5/4
f 400/4/4 386/4/4 401/4/4
f 401/5/4 392/5/4 402/5/4
f 392/3/4 393/3/4 403/3/4
f 402/5/4 392/5/4 403/5/4
f 403/3/4 393/3/4 404/3/4
f 394/3/4 398/3/4 405/3/4
f 398/2/4 399/2/4 406/2/4
f 405/3/4 398/3/4 406/3/4
f 399/7/4 400/7/4 407/7/4
f 406/2/4 399/2/4 407/2/4
f 400/5/4 401/5/4 408/5/4
f 407/7/4 400/7/4 408/7/4
f 401/4/4 402/4/4 409/4/4
f 408/5/4 401/5/4 409/5/4
f 402/5/4 403/5/4 410/5/4
f 410/5/4 403/5/4 411/5/4
f 407/7/4 408/7/4 412/7/4
f 406/3/4 407/3/4 412/3/4
f 408/7/4 409/7/4 412/7/4
f 409/4/4 402/4/4 413/4/4
f 412/7/4 409/7/4 413/7/4
f 402/5/4 410/5/4 414/5/4
f 413/4/4 402/4/4 414/4/4
f 414/5/4 410/5/4 415/5/4
f 412/3/4 413/3/4 416/3/4
f 406/3/4 412/3/4 416/3/4
f 413/5/4 414/5/4 417/5/4
f 416/3/4 413/3/4 417/3/4
f 417/5/4 414/5/4 418/5/4
f 422/1/5 420/1/5 419/1/5
f 423/6/5 421/6/5 420/6/5
f 423/1/5 420/1/5 422/1/5
f 424/6/5 421/6/5 423/6/5
f 430/2/5 426/2/5 425/2/5
f 431/3/5 427/3/5 426/3/5
f 431/2/5 426/2/5 430/2/5
f 432/2/5 428/2/5 427/2/5
f 432/3/5 427/3/5 431/3/5
f 433/2/5 428/2/5 432/2/5
f 435/1/5 430/1/5 429/1/5
f 436/1/5 430/1/5 435/1/5
f 439/6/5 434/6/5 433/6/5
f 440/6/5 434/6/5 439/6/5
f 441/2/5 437/2/5 436/2/5
f 442/3/5 438/3/5 437/3/5
f 442/2/5 437/2/5 441/2/5
f 443/2/5 439/2/5 438/2/5
f 443/3/5 438/3/5 442/3/5
f 444/2/5 439/2/5 443/2/5
f 451/2/5 446/2/5 445/2/5
f 452/2/5 446/2/5 451/2/5
f 453/7/5 448/7/5 447/7/5
f 454/2/5 449/2/5 448/2/5
f 454/7/5 448/7/5 453/7/5
f 455/2/5 449/2/5 454/2/5
f 457/1/5 451/1/5 450/1/5
f 458/1/5 451/1/5 457/1/5
f 462/6/5 456/6/5 455/6/5
f 463/6/5 456/6/5 462/6/5
f 464/2/5 459/2/5 458/2/5
f 465/2/5 459/2/5 464/2/5
f 466/7/5 461/7/5 460/7/5
f 467/2/5 462/2/5 461/2/5
f 467/7/5 461/7/5 466/7/5
f 468/2/5 462/2/5 467/2/5
f 475/2/5 470/2/5 469/2/5
f 476/2/5 470/2/5 475/2/5
f 477/2/5 472/2/5 471/2/5
f 478/3/5 473/3/5 472/3/5
f 478/2/5 472/2/5 477/2/5
f 479/3/5 473/3/5 478/3/5
f 481/1/5 475/1/5 474/1/5
f 482/1/5 475/1/5 481/1/5
f 486/6/5 480/6/5 479/6/5
f 487/6/5 480/6/5 486/6/5
f 488/2/5 483/2/5 482/2/5
f 489/2/5 483/2/5 488/2/5
f 490/2/5 485/2/5 484/2/5
f 491/3/5 486/3/5 485/3/5
f 491/2/5 485/2/5 490/2/5
f 492/3/5 486/3/5 491/3/5
f 495/3/5 494/3/5 493/3/5
f 496/3/5 494/3/5 495/3/5
f 499/6/5 497/6/5 496/6/5
f 500/6/5 497/6/5 499/6/5
f 501/3/5 499/3/5 498/3/5
f 502/3/5 499/3/5 501/3/5
f 503/4/6 504/4/6 509/4/6
f 504/5/6 505/5/6 510/5/6
f 509/4/6 504/4/6 510/4/6
f 510/5/6 505/5/6 511/5/6
f 506/5/6 507/5/6 512/5/6
f 512/5/6 507/5/6 513/5/6
f 508/1/6 509/1/6 515/1/6
f 515/1/6 509/1/6 516/1/6
f 513/6/6 514/6/6 520/6/6
f 520/6/6 514/6/6 521/6/6
f 516/4/6 517/4/6 522/4/6
f 517/5/6 518/5/6 523/5/6
f 522/4/6 517/4/6 523/4/6
f 523/5/6 518/5/6 524/5/6
f 519/5/6 520/5/6 525/5/6
f 525/5/6 520/5/6 526/5/6
f 527/3/6 528/3/6 533/3/6
f 528/5/6 529/5/6 534/5/6
f 533/3/6 528/3/6 534/3/6
f 534/5/6 529/5/6 535/5/6
f 530/5/6 531/5/6 536/5/6
f 536/5/6 531/5/6 537/5/6
f 532/1/6 533/1/6 539/1/6
f 539/1/6 533/1/6 540/1/6
f 537/6/6 538/6/6 544/6/6
f 544/6/6 538/6/6 545/6/6
f 540/3/6 541/3/6 546/3/6
f 541/5/6 542/5/6 547/5/6
f 546/3/6 541/3/6 547/3/6
f 547/5/6 542/5/6 548/5/6
f 543/5/6 544/5/6 549/5/6
f 549/5/6 544/5/6 550/5/6
f 551/5/6 552/5/6 556/5/6
f 556/5/6 552/5/6 557/5/6
f 553/5/6 554/5/6 558/5/6
f 558/5/6 554/5/6 559/5/6
f 555/1/6 556/1/6 561/1/6
f 561/1/6 556/1/6 562/1/6
f 559/1/6 560/1/6 565/1/6
f 565/1/6 560/1/6 566/1/6
f 562/5/6 563/5/6 567/5/6
f 567/5/6 563/5/6 568/5/6
f 564/5/6 565/5/6 569/5/6
f 569/5/6 565/5/6 570/5/6
f 571/3/6 572/3/6 574/3/6
f 574/3/6 572/3/6 575/3/6
f 573/1/6 574/1/6 577/1/6
f 577/1/6 574/1/6 578/1/6
f 575/1/6 576/1/6 579/1/6
f 579/1/6 576/1/6 580/1/6
f 578/3/6 579/3/6 581/3/6
f 581/3/6 579/3/6 582/3/6
f 583/1/6 584/1/6 585/1/6
f 585/1/6 584/1/6 586/1/6
