# Blender 4.4.1
# www.blender.org
mtllib StageSelect.mtl
o Cube
v 8.090000 5.000000 -0.500000
v 8.090000 -5.000000 -0.500000
v 8.090000 5.000000 0.500000
v 8.090000 -5.000000 0.500000
v -8.090000 5.000000 -0.500000
v -8.090000 -5.000000 -0.500000
v -8.090000 5.000000 0.500000
v -8.090000 -5.000000 0.500000
vn -0.0000 1.0000 -0.0000
vn -0.0000 -0.0000 1.0000
vn -1.0000 -0.0000 -0.0000
vn -0.0000 -1.0000 -0.0000
vn 1.0000 -0.0000 -0.0000
vn -0.0000 -0.0000 -1.0000
vt 0.000062 0.309038
vt 0.000062 0.000062
vt 0.019159 0.000062
vt 0.019159 0.309038
vt 0.019283 0.382111
vt 0.019283 0.191149
vt 0.328259 0.191149
vt 0.328259 0.382110
vt 0.019159 0.808976
vt 0.019159 0.999938
vt 0.000062 0.999938
vt 0.000062 0.808976
vt 0.000062 0.500000
vt 0.019159 0.500000
vt 0.328259 0.000062
vt 0.328259 0.191024
vt 0.019283 0.191024
vt 0.019283 0.000062
s 0
usemtl Material
f 1/1/1 5/2/1 7/3/1 3/4/1
f 4/5/2 3/6/2 7/7/2 8/8/2
f 8/9/3 7/10/3 5/11/3 6/12/3
f 6/12/4 2/13/4 4/14/4 8/9/4
f 2/13/5 1/1/5 3/4/5 4/14/5
f 6/15/6 5/16/6 1/17/6 2/18/6
