# Blender 4.4.1
# www.blender.org
mtllib map.mtl
o Cube
v 0.500000 0.100000 -0.500000
v 0.500000 -0.100000 -0.500000
v 0.500000 0.100000 0.500000
v 0.500000 -0.100000 0.500000
v -0.500000 0.100000 -0.500000
v -0.500000 -0.100000 -0.500000
v -0.500000 0.100000 0.500000
v -0.500000 -0.100000 0.500000
vn -0.0000 1.0000 -0.0000
vn -0.0000 -0.0000 1.0000
vn -1.0000 -0.0000 -0.0000
vn -0.0000 -1.0000 -0.0000
vn 1.0000 -0.0000 -0.0000
vn -0.0000 -0.0000 -1.0000
vt 0.500000 0.500000
vt 0.083333 0.500000
vt 0.083333 0.083333
vt 0.500000 0.083333
vt 0.500000 0.000000
vt 0.083333 0.000000
vt 0.000000 0.083333
vt 0.000000 0.500000
vt 0.083333 0.583333
vt 0.500000 0.583333
vt 0.500000 1.000000
vt 0.083333 1.000000
vt 0.583333 0.500000
vt 0.583333 0.083333
s 0
usemtl Material
f 1/1/1 5/2/1 7/3/1 3/4/1
f 4/5/2 3/4/2 7/3/2 8/6/2
f 8/7/3 7/3/3 5/2/3 6/8/3
f 6/9/4 2/10/4 4/11/4 8/12/4
f 2/13/5 1/1/5 3/4/5 4/14/5
f 6/9/6 5/2/6 1/1/6 2/10/6
