# Blender 4.4.1
# www.blender.org
mtllib player.mtl
o 円錐
v 0.000000 0.000000 -0.500000
v 0.097545 0.000000 -0.490393
v 0.191342 0.000000 -0.461940
v 0.277785 0.000000 -0.415735
v 0.353553 0.000000 -0.353553
v 0.415735 0.000000 -0.277785
v 0.461940 0.000000 -0.191342
v 0.490393 0.000000 -0.097545
v 0.500000 0.000000 0.000000
v 0.490393 0.000000 0.097545
v 0.461940 0.000000 0.191342
v 0.415735 0.000000 0.277785
v 0.353553 0.000000 0.353553
v 0.277785 0.000000 0.415735
v 0.191342 0.000000 0.461940
v 0.097545 0.000000 0.490393
v 0.000000 0.000000 0.500000
v -0.097545 0.000000 0.490393
v -0.191342 0.000000 0.461940
v -0.277785 0.000000 0.415735
v -0.353553 0.000000 0.353553
v -0.415735 0.000000 0.277785
v -0.461940 0.000000 0.191342
v -0.490393 0.000000 0.097545
v -0.500000 0.000000 0.000000
v -0.490393 0.000000 -0.097545
v -0.461940 0.000000 -0.191342
v -0.415735 0.000000 -0.277785
v -0.353553 0.000000 -0.353553
v -0.277785 0.000000 -0.415735
v -0.191342 0.000000 -0.461940
v -0.097545 0.000000 -0.490393
v 0.000000 1.000000 0.000000
vn 0.0878 0.4455 -0.8910
vn 0.2599 0.4455 -0.8567
vn 0.4220 0.4455 -0.7896
vn 0.5680 0.4455 -0.6921
vn 0.6921 0.4455 -0.5680
vn 0.7896 0.4455 -0.4220
vn 0.8567 0.4455 -0.2599
vn 0.8910 0.4455 -0.0878
vn 0.8910 0.4455 0.0878
vn 0.8567 0.4455 0.2599
vn 0.7896 0.4455 0.4220
vn 0.6921 0.4455 0.5680
vn 0.5680 0.4455 0.6921
vn 0.4220 0.4455 0.7896
vn 0.2599 0.4455 0.8567
vn 0.0878 0.4455 0.8910
vn -0.0878 0.4455 0.8910
vn -0.2599 0.4455 0.8567
vn -0.4220 0.4455 0.7896
vn -0.5680 0.4455 0.6921
vn -0.6921 0.4455 0.5680
vn -0.7896 0.4455 0.4220
vn -0.8567 0.4455 0.2599
vn -0.8910 0.4455 0.0878
vn -0.8910 0.4455 -0.0878
vn -0.8567 0.4455 -0.2599
vn -0.7896 0.4455 -0.4220
vn -0.6921 0.4455 -0.5680
vn -0.5680 0.4455 -0.6921
vn -0.4220 0.4455 -0.7896
vn -0.0000 -1.0000 -0.0000
vn -0.2599 0.4455 -0.8567
vn -0.0878 0.4455 -0.8910
vt 0.418123 0.186233
vt 0.000118 0.485684
vt 0.390289 0.150773
vt 0.359457 0.117887
vt 0.325862 0.087827
vt 0.289764 0.060826
vt 0.251440 0.037090
vt 0.211184 0.016802
vt 0.169306 0.000117
vt 0.000117 0.999883
vt 0.045153 0.997907
vt 0.089843 0.991994
vt 0.133844 0.982189
vt 0.176816 0.968569
vt 0.218430 0.951237
vt 0.258367 0.930327
vt 0.296318 0.906000
vt 0.331993 0.878442
vt 0.365118 0.847865
vt 0.395436 0.814505
vt 0.422717 0.778617
vt 0.446749 0.740478
vt 0.467349 0.700381
vt 0.484358 0.658633
vt 0.497645 0.615556
vt 0.507107 0.571481
vt 0.512674 0.526747
vt 0.514300 0.481697
vt 0.511975 0.436678
vt 0.505716 0.392035
vt 0.495570 0.348112
vt 0.481617 0.305246
vt 0.463963 0.263768
vt 0.810137 0.449021
vt 0.765924 0.457816
vt 0.720845 0.457816
vt 0.676632 0.449021
vt 0.634984 0.431770
vt 0.597502 0.406725
vt 0.565626 0.374849
vt 0.540581 0.337367
vt 0.523330 0.295719
vt 0.514535 0.251506
vt 0.514535 0.206427
vt 0.523330 0.162214
vt 0.540581 0.120566
vt 0.565626 0.083084
vt 0.597502 0.051208
vt 0.634984 0.026163
vt 0.676632 0.008912
vt 0.720845 0.000117
vt 0.765924 0.000117
vt 0.810137 0.008912
vt 0.851785 0.026163
vt 0.889267 0.051208
vt 0.921143 0.083084
vt 0.946188 0.120566
vt 0.963439 0.162214
vt 0.972234 0.206427
vt 0.972234 0.251506
vt 0.963439 0.295719
vt 0.946188 0.337367
vt 0.921143 0.374849
vt 0.889267 0.406725
vt 0.851785 0.431770
vt 0.442744 0.223995
s 0
f 1/1/1 33/2/1 2/3/1
f 2/3/2 33/2/2 3/4/2
f 3/4/3 33/2/3 4/5/3
f 4/5/4 33/2/4 5/6/4
f 5/6/5 33/2/5 6/7/5
f 6/7/6 33/2/6 7/8/6
f 7/8/7 33/2/7 8/9/7
f 8/10/8 33/2/8 9/11/8
f 9/11/9 33/2/9 10/12/9
f 10/12/10 33/2/10 11/13/10
f 11/13/11 33/2/11 12/14/11
f 12/14/12 33/2/12 13/15/12
f 13/15/13 33/2/13 14/16/13
f 14/16/14 33/2/14 15/17/14
f 15/17/15 33/2/15 16/18/15
f 16/18/16 33/2/16 17/19/16
f 17/19/17 33/2/17 18/20/17
f 18/20/18 33/2/18 19/21/18
f 19/21/19 33/2/19 20/22/19
f 20/22/20 33/2/20 21/23/20
f 21/23/21 33/2/21 22/24/21
f 22/24/22 33/2/22 23/25/22
f 23/25/23 33/2/23 24/26/23
f 24/26/24 33/2/24 25/27/24
f 25/27/25 33/2/25 26/28/25
f 26/28/26 33/2/26 27/29/26
f 27/29/27 33/2/27 28/30/27
f 28/30/28 33/2/28 29/31/28
f 29/31/29 33/2/29 30/32/29
f 30/32/30 33/2/30 31/33/30
f 1/34/31 2/35/31 3/36/31 4/37/31 5/38/31 6/39/31 7/40/31 8/41/31 9/42/31 10/43/31 11/44/31 12/45/31 13/46/31 14/47/31 15/48/31 16/49/31 17/50/31 18/51/31 19/52/31 20/53/31 21/54/31 22/55/31 23/56/31 24/57/31 25/58/31 26/59/31 27/60/31 28/61/31 29/62/31 30/63/31 31/64/31 32/65/31
f 31/33/32 33/2/32 32/66/32
f 32/66/33 33/2/33 1/1/33
