# Blender 5.0.0
# www.blender.org
mtllib pickel.mtl
o Object_32
v -0.000039 0.333687 -0.236208
v -0.000039 0.333687 -0.236208
v -0.000039 0.333687 -0.236208
v -0.000039 0.645836 0.225601
v -0.000039 0.645836 0.225601
v -0.000039 0.645836 0.225601
v -0.000039 0.894551 0.593564
v -0.000039 0.894551 0.593564
v -0.000039 0.894551 0.593564
v -0.000039 1.240119 1.104815
v -0.000039 1.240119 1.104815
v -0.000039 1.240119 1.104815
v -0.000039 0.439746 -0.129491
v -0.000039 0.439746 -0.129491
v -0.000039 0.439746 -0.129491
v -0.000039 0.588276 -0.276855
v -0.000039 0.588276 -0.276855
v -0.000039 0.588276 -0.276855
v -0.000039 0.735138 -0.129055
v -0.000039 0.735138 -0.129055
v -0.000039 0.735138 -0.129055
v -0.000039 0.881999 -0.275915
v -0.000039 0.881999 -0.275915
v -0.000039 0.881999 -0.275915
v -0.000039 1.029330 -0.130461
v -0.000039 1.029330 -0.130461
v -0.000039 1.029330 -0.130461
v -0.000039 1.190267 -0.291399
v -0.000039 1.190267 -0.291399
v -0.000039 1.190267 -0.291399
v -0.000039 0.600945 -0.882599
v -0.000039 0.600945 -0.882599
v -0.000039 0.600945 -0.882599
v -0.000039 0.744992 -1.026644
v -0.000039 0.744992 -1.026644
v -0.000039 0.744992 -1.026644
v -0.000039 0.599069 -1.174445
v -0.000039 0.599069 -1.174445
v -0.000039 0.599069 -1.174445
v -0.000039 0.737486 -1.310982
v -0.000039 0.737486 -1.310982
v -0.000039 0.737486 -1.310982
v -0.000039 0.883878 -1.165528
v -0.000039 0.883878 -1.165528
v -0.000039 0.883878 -1.165528
v -0.000039 1.030738 -1.309576
v -0.000039 1.030738 -1.309576
v -0.000039 1.030738 -1.309576
v -0.000039 1.753244 -0.585238
v -0.000039 1.753244 -0.585238
v -0.000039 1.753244 -0.585238
v -0.000039 1.608453 -0.436718
v -0.000039 1.608453 -0.436718
v -0.000039 1.608453 -0.436718
v -0.000039 2.049027 0.003230
v -0.000039 2.049027 0.003230
v -0.000039 2.049027 0.003230
v -0.000039 1.606824 0.444672
v -0.000039 1.606824 0.444672
v -0.000039 1.606824 0.444672
v -0.000039 1.753451 0.591951
v -0.000039 1.753451 0.591951
v -0.000039 1.753451 0.591951
v -0.000039 1.191703 0.296082
v -0.000039 1.191703 0.296082
v -0.000039 1.191703 0.296082
v -0.000039 1.030414 0.135444
v -0.000039 1.030414 0.135444
v -0.000039 1.030414 0.135444
v -0.000039 0.882810 0.283700
v -0.000039 0.882810 0.283700
v -0.000039 0.882810 0.283700
v -0.000039 0.733903 0.136747
v -0.000039 0.733903 0.136747
v -0.000039 0.733903 0.136747
v -0.000039 -1.457402 0.001172
v -0.000039 -1.457402 0.001172
v -0.000039 -1.457402 0.001172
v -0.000039 -1.178324 -0.271203
v -0.000039 -1.178324 -0.271203
v -0.000039 -1.178324 -0.271203
v -0.000039 -1.033736 -0.129978
v -0.000039 -1.033736 -0.129978
v -0.000039 -1.033736 -0.129978
v -0.000039 -0.885782 -0.274560
v -0.000039 -0.885782 -0.274560
v -0.000039 -0.885782 -0.274560
v -0.000039 -0.737816 -0.126588
v -0.000039 -0.737816 -0.126588
v -0.000039 -0.737816 -0.126588
v -0.000039 -0.589878 -0.271191
v -0.000039 -0.589878 -0.271191
v -0.000039 -0.589878 -0.271191
v -0.000039 -0.445276 -0.126583
v -0.000039 -0.445276 -0.126583
v -0.000039 -0.445276 -0.126583
v -0.000039 -0.295866 -0.276774
v -0.000039 -0.295866 -0.276774
v -0.000039 -0.295866 -0.276774
v -0.000039 -0.150897 -0.133750
v -0.000039 -0.150897 -0.133750
v -0.000039 -0.150897 -0.133750
v -0.000039 -0.000101 -0.276788
v -0.000039 -0.000101 -0.276788
v -0.000039 -0.000101 -0.276788
v -0.000039 0.146820 -0.127917
v -0.000039 0.146820 -0.127917
v -0.000039 0.146820 -0.127917
v -0.000039 0.293800 -0.276343
v -0.000039 0.293800 -0.276343
v -0.000039 0.293800 -0.276343
v -0.000039 1.030412 1.314323
v -0.000039 1.030412 1.314323
v -0.000039 1.030412 1.314323
v -0.000039 0.882162 1.168031
v -0.000039 0.882162 1.168031
v -0.000039 0.882162 1.168031
v -0.000039 0.734879 1.315953
v -0.000039 0.734879 1.315953
v -0.000039 0.734879 1.315953
v -0.000039 0.601939 1.181060
v -0.000039 0.601939 1.181060
v -0.000039 0.601939 1.181060
v -0.000039 0.748892 1.034107
v -0.000039 0.748892 1.034107
v -0.000039 0.748892 1.034107
v -0.000039 0.600954 0.887468
v -0.000039 0.600954 0.887468
v -0.000039 0.600954 0.887468
v -0.000039 0.587926 0.284024
v -0.000039 0.587926 0.284024
v -0.000039 0.587926 0.284024
v -0.000039 0.441301 0.138052
v -0.000039 0.441301 0.138052
v -0.000039 0.441301 0.138052
v -0.000039 0.292714 0.284670
v -0.000039 0.292714 0.284670
v -0.000039 0.292714 0.284670
v -0.000039 0.144466 0.135773
v -0.000039 0.144466 0.135773
v -0.000039 0.144466 0.135773
v -0.000039 -0.002162 0.283703
v -0.000039 -0.002162 0.283703
v -0.000039 -0.002162 0.283703
v -0.000039 -0.148137 0.136424
v -0.000039 -0.148137 0.136424
v -0.000039 -0.148137 0.136424
v -0.000039 -0.298025 0.283699
v -0.000039 -0.298025 0.283699
v -0.000039 -0.298025 0.283699
v -0.000039 -0.443993 0.136430
v -0.000039 -0.443993 0.136430
v -0.000039 -0.443993 0.136430
v -0.000039 -0.591921 0.283060
v -0.000039 -0.591921 0.283060
v -0.000039 -0.591921 0.283060
v -0.000039 -0.738870 0.136113
v -0.000039 -0.738870 0.136113
v -0.000039 -0.738870 0.136113
v -0.000039 -0.886488 0.283696
v -0.000039 -0.886488 0.283696
v -0.000039 -0.886488 0.283696
v -0.000039 -1.032794 0.136084
v -0.000039 -1.032794 0.136084
v -0.000039 -1.032794 0.136084
v -0.000039 -1.180720 0.284018
v -0.000039 -1.180720 0.284018
v -0.000039 -1.180720 0.284018
v -0.200553 0.333687 -0.236208
v -0.200553 0.333687 -0.236208
v -0.200553 0.333687 -0.236208
v -0.200553 0.333687 -0.236208
v -0.200553 0.645836 0.225601
v -0.200553 0.645836 0.225601
v -0.200553 0.645836 0.225601
v -0.200553 0.645836 0.225601
v -0.200553 0.894551 0.593564
v -0.200553 0.894551 0.593564
v -0.200553 0.894551 0.593564
v -0.200553 0.894551 0.593564
v -0.200553 1.240119 1.104815
v -0.200553 1.240119 1.104815
v -0.200553 1.240119 1.104815
v -0.200553 1.240119 1.104815
v -0.200553 0.439746 -0.129491
v -0.200553 0.439746 -0.129491
v -0.200553 0.439746 -0.129491
v -0.200553 0.588276 -0.276855
v -0.200553 0.588276 -0.276855
v -0.200553 0.588276 -0.276855
v -0.200553 0.735138 -0.129055
v -0.200553 0.735138 -0.129055
v -0.200553 0.735138 -0.129055
v -0.200553 0.881999 -0.275915
v -0.200553 0.881999 -0.275915
v -0.200553 0.881999 -0.275915
v -0.200553 1.029330 -0.130461
v -0.200553 1.029330 -0.130461
v -0.200553 1.029330 -0.130461
v -0.200553 1.190267 -0.291399
v -0.200553 1.190267 -0.291399
v -0.200553 1.190267 -0.291399
v -0.200553 0.600945 -0.882599
v -0.200553 0.600945 -0.882599
v -0.200553 0.600945 -0.882599
v -0.200553 0.744992 -1.026644
v -0.200553 0.744992 -1.026644
v -0.200553 0.744992 -1.026644
v -0.200553 0.599069 -1.174445
v -0.200553 0.599069 -1.174445
v -0.200553 0.599069 -1.174445
v -0.200553 0.737486 -1.310982
v -0.200553 0.737486 -1.310982
v -0.200553 0.737486 -1.310982
v -0.200553 0.883878 -1.165528
v -0.200553 0.883878 -1.165528
v -0.200553 0.883878 -1.165528
v -0.200553 1.030738 -1.309576
v -0.200553 1.030738 -1.309576
v -0.200553 1.030738 -1.309576
v -0.200553 1.753244 -0.585238
v -0.200553 1.753244 -0.585238
v -0.200553 1.753244 -0.585238
v -0.200553 1.608453 -0.436718
v -0.200553 1.608453 -0.436718
v -0.200553 1.608453 -0.436718
v -0.200553 2.049027 0.003230
v -0.200553 2.049027 0.003230
v -0.200553 2.049027 0.003230
v -0.200553 1.606824 0.444672
v -0.200553 1.606824 0.444672
v -0.200553 1.606824 0.444672
v -0.200553 1.753451 0.591951
v -0.200553 1.753451 0.591951
v -0.200553 1.753451 0.591951
v -0.200553 1.191703 0.296082
v -0.200553 1.191703 0.296082
v -0.200553 1.191703 0.296082
v -0.200553 1.030414 0.135444
v -0.200553 1.030414 0.135444
v -0.200553 1.030414 0.135444
v -0.200553 0.882810 0.283700
v -0.200553 0.882810 0.283700
v -0.200553 0.882810 0.283700
v -0.200553 0.733903 0.136747
v -0.200553 0.733903 0.136747
v -0.200553 0.733903 0.136747
v -0.200553 -1.457402 0.001172
v -0.200553 -1.457402 0.001172
v -0.200553 -1.457402 0.001172
v -0.200553 -1.178324 -0.271203
v -0.200553 -1.178324 -0.271203
v -0.200553 -1.178324 -0.271203
v -0.200553 -1.033736 -0.129978
v -0.200553 -1.033736 -0.129978
v -0.200553 -1.033736 -0.129978
v -0.200553 -0.885782 -0.274560
v -0.200553 -0.885782 -0.274560
v -0.200553 -0.885782 -0.274560
v -0.200553 -0.737816 -0.126588
v -0.200553 -0.737816 -0.126588
v -0.200553 -0.737816 -0.126588
v -0.200553 -0.589878 -0.271191
v -0.200553 -0.589878 -0.271191
v -0.200553 -0.589878 -0.271191
v -0.200553 -0.445276 -0.126583
v -0.200553 -0.445276 -0.126583
v -0.200553 -0.445276 -0.126583
v -0.200553 -0.295866 -0.276774
v -0.200553 -0.295866 -0.276774
v -0.200553 -0.295866 -0.276774
v -0.200553 -0.150897 -0.133750
v -0.200553 -0.150897 -0.133750
v -0.200553 -0.150897 -0.133750
v -0.200553 -0.000101 -0.276788
v -0.200553 -0.000101 -0.276788
v -0.200553 -0.000101 -0.276788
v -0.200553 0.146820 -0.127917
v -0.200553 0.146820 -0.127917
v -0.200553 0.146820 -0.127917
v -0.200553 0.293800 -0.276343
v -0.200553 0.293800 -0.276343
v -0.200553 0.293800 -0.276343
v -0.200553 1.030412 1.314323
v -0.200553 1.030412 1.314323
v -0.200553 1.030412 1.314323
v -0.200553 0.882162 1.168031
v -0.200553 0.882162 1.168031
v -0.200553 0.882162 1.168031
v -0.200553 0.734879 1.315953
v -0.200553 0.734879 1.315953
v -0.200553 0.734879 1.315953
v -0.200553 0.601939 1.181060
v -0.200553 0.601939 1.181060
v -0.200553 0.601939 1.181060
v -0.200553 0.748892 1.034107
v -0.200553 0.748892 1.034107
v -0.200553 0.748892 1.034107
v -0.200553 0.600954 0.887468
v -0.200553 0.600954 0.887468
v -0.200553 0.600954 0.887468
v -0.200553 0.587926 0.284024
v -0.200553 0.587926 0.284024
v -0.200553 0.587926 0.284024
v -0.200553 0.441301 0.138052
v -0.200553 0.441301 0.138052
v -0.200553 0.441301 0.138052
v -0.200553 0.292714 0.284670
v -0.200553 0.292714 0.284670
v -0.200553 0.292714 0.284670
v -0.200553 0.144466 0.135773
v -0.200553 0.144466 0.135773
v -0.200553 0.144466 0.135773
v -0.200553 -0.002162 0.283703
v -0.200553 -0.002162 0.283703
v -0.200553 -0.002162 0.283703
v -0.200553 -0.148137 0.136424
v -0.200553 -0.148137 0.136424
v -0.200553 -0.148137 0.136424
v -0.200553 -0.298025 0.283699
v -0.200553 -0.298025 0.283699
v -0.200553 -0.298025 0.283699
v -0.200553 -0.443993 0.136430
v -0.200553 -0.443993 0.136430
v -0.200553 -0.443993 0.136430
v -0.200553 -0.591921 0.283060
v -0.200553 -0.591921 0.283060
v -0.200553 -0.591921 0.283060
v -0.200553 -0.738870 0.136113
v -0.200553 -0.738870 0.136113
v -0.200553 -0.738870 0.136113
v -0.200553 -0.886488 0.283696
v -0.200553 -0.886488 0.283696
v -0.200553 -0.886488 0.283696
v -0.200553 -1.032794 0.136084
v -0.200553 -1.032794 0.136084
v -0.200553 -1.032794 0.136084
v -0.200553 -1.180720 0.284018
v -0.200553 -1.180720 0.284018
v -0.200553 -1.180720 0.284018
vn -0.0000 0.7093 -0.7049
vn -0.0000 -0.7043 -0.7099
vn -0.0000 0.7094 -0.7049
vn -0.0000 -0.7071 -0.7071
vn -0.0000 0.7026 -0.7116
vn -0.0000 -0.7082 0.7060
vn -0.0000 -0.7116 0.7026
vn -0.0000 -0.7023 -0.7119
vn -0.0000 0.7048 -0.7094
vn -0.0000 -0.7002 -0.7139
vn -0.0000 0.7080 -0.7062
vn -0.0000 0.7160 0.6981
vn -0.0000 0.7066 -0.7076
vn -0.0000 0.7065 0.7077
vn -0.0000 0.7087 -0.7055
vn -0.0000 0.7068 0.7074
vn -0.0000 -0.7075 -0.7067
vn -0.0000 -0.7057 0.7085
vn -0.0000 0.7087 0.7055
vn -0.0000 -0.7024 0.7118
vn -0.0000 0.7102 0.7040
vn -0.0000 -0.6985 -0.7157
vn -0.0000 0.6987 -0.7154
vn -0.0000 -0.6989 -0.7152
vn -0.0000 0.7071 -0.7071
vn -0.0000 -0.6990 -0.7151
vn -0.0000 -0.7089 -0.7053
vn -0.0000 0.7023 -0.7119
vn -0.0000 -0.6882 -0.7255
vn -0.0000 0.7118 -0.7024
vn -0.0000 -0.7106 -0.7036
vn -0.0000 0.7086 0.7056
vn -0.0000 -0.7122 0.7019
vn -0.0000 -0.7040 0.7102
vn -0.0000 -0.7055 0.7087
vn -0.0000 0.7024 0.7118
vn -0.0000 -0.7086 0.7056
vn -0.0000 -0.7102 0.7040
vn -0.0000 0.7009 0.7133
vn -0.0000 0.7040 0.7102
vn -0.0000 -0.7071 0.7071
vn -0.0000 0.7070 0.7072
vn -0.0000 0.7071 0.7071
vn -0.0000 -0.7149 0.6993
vn 1.0000 -0.0000 -0.0000
vn -1.0000 -0.0000 -0.0000
vt 0.303807 0.701558
vt 0.300398 0.701534
vt 0.303826 0.691096
vt 0.308548 0.691129
vt 0.308548 0.680745
vt 0.313240 0.680678
vt 0.313240 0.669298
vt 0.294322 0.669232
vt 0.294322 0.659046
vt 0.289615 0.658980
vt 0.289645 0.649259
vt 0.294322 0.649226
vt 0.294367 0.638941
vt 0.317553 0.639005
vt 0.317613 0.649375
vt 0.331723 0.649353
vt 0.331711 0.680595
vt 0.336421 0.680618
vt 0.336413 0.716899
vt 0.322678 0.690018
vt 0.322683 0.711042
vt 0.317518 0.690041
vt 0.317529 0.700501
vt 0.312788 0.700570
vt 0.312800 0.706826
vt 0.275607 0.753755
vt 0.275499 0.773251
vt 0.280187 0.753636
vt 0.280241 0.743293
vt 0.284983 0.743294
vt 0.285037 0.732951
vt 0.289672 0.732951
vt 0.289659 0.722358
vt 0.294274 0.722289
vt 0.294398 0.711901
vt 0.299138 0.711970
vt 0.299115 0.701526
vt 0.336410 0.731721
vt 0.331690 0.731790
vt 0.331700 0.742227
vt 0.327408 0.742158
vt 0.327408 0.731767
vt 0.322687 0.731813
vt 0.312809 0.710939
vt 0.308120 0.710962
vt 0.308088 0.721399
vt 0.303326 0.721376
vt 0.303347 0.731790
vt 0.298648 0.731744
vt 0.298606 0.742250
vt 0.293907 0.742204
vt 0.293886 0.752618
vt 0.289176 0.752618
vt 0.289176 0.763055
vt 0.284466 0.763009
vt 0.284466 0.773469
s 0
usemtl ALL_MINECRAFT_TOOLS
f 15/1/1 2/2/1 171/2/1
f 15/1/1 171/2/1 187/1/1
f 16/3/2 13/1/2 185/1/2
f 16/3/2 185/1/2 188/3/2
f 21/4/3 18/3/3 190/3/3
f 21/4/3 190/3/3 193/4/3
f 22/5/4 19/4/4 191/4/4
f 22/5/4 191/4/4 194/5/4
f 26/6/5 23/5/5 195/5/5
f 26/6/5 195/5/5 198/6/5
f 28/7/4 25/6/4 197/6/4
f 28/7/4 197/6/4 200/7/4
f 32/8/6 29/7/6 201/7/6
f 32/8/6 201/7/6 204/8/6
f 34/9/4 31/8/4 203/8/4
f 34/9/4 203/8/4 206/9/4
f 38/10/7 35/9/7 207/9/7
f 38/10/7 207/9/7 210/10/7
f 40/11/8 37/10/8 209/10/8
f 40/11/8 209/10/8 212/11/8
f 44/12/9 41/11/9 213/11/9
f 44/12/9 213/11/9 216/12/9
f 46/13/10 43/12/10 215/12/10
f 46/13/10 215/12/10 218/13/10
f 50/14/11 48/13/11 220/13/11
f 50/14/11 220/13/11 222/14/11
f 54/15/12 51/14/12 223/14/12
f 54/15/12 223/14/12 226/15/12
f 55/16/13 52/15/13 224/15/13
f 55/16/13 224/15/13 227/16/13
f 60/17/14 57/16/14 229/16/14
f 60/17/14 229/16/14 232/17/14
f 62/18/15 59/17/15 231/17/15
f 62/18/15 231/17/15 234/18/15
f 11/19/16 63/18/16 235/18/16
f 11/19/16 235/18/16 183/19/16
f 64/20/17 8/21/17 178/21/17
f 64/20/17 178/21/17 236/20/17
f 68/22/18 66/20/18 238/20/18
f 68/22/18 238/20/18 240/22/18
f 72/23/19 69/22/19 241/22/19
f 72/23/19 241/22/19 244/23/19
f 74/24/20 71/23/20 243/23/20
f 74/24/20 243/23/20 246/24/20
f 5/25/21 75/24/21 247/24/21
f 5/25/21 247/24/21 175/25/21
f 79/26/22 76/27/22 248/27/22
f 79/26/22 248/27/22 251/26/22
f 83/28/23 80/26/23 252/26/23
f 83/28/23 252/26/23 255/28/23
f 85/29/24 82/28/24 254/28/24
f 85/29/24 254/28/24 257/29/24
f 90/30/25 87/29/25 259/29/25
f 90/30/25 259/29/25 262/30/25
f 91/31/26 88/30/26 260/30/26
f 91/31/26 260/30/26 263/31/26
f 96/32/25 93/31/25 265/31/25
f 96/32/25 265/31/25 268/32/25
f 97/33/27 94/32/27 266/32/27
f 97/33/27 266/32/27 269/33/27
f 101/34/28 98/33/28 270/33/28
f 101/34/28 270/33/28 273/34/28
f 103/35/29 100/34/29 272/34/29
f 103/35/29 272/34/29 275/35/29
f 108/36/30 105/35/30 277/35/30
f 108/36/30 277/35/30 280/36/30
f 109/37/31 106/36/31 278/36/31
f 109/37/31 278/36/31 281/37/31
f 3/2/1 111/37/1 283/37/1
f 3/2/1 283/37/1 172/2/1
f 114/38/16 12/19/16 184/19/16
f 114/38/16 184/19/16 286/38/16
f 116/39/20 113/38/20 285/38/20
f 116/39/20 285/38/20 288/39/20
f 120/40/32 117/39/32 289/39/32
f 120/40/32 289/39/32 292/40/32
f 122/41/33 118/40/33 290/40/33
f 122/41/33 290/40/33 294/41/33
f 124/42/4 121/41/4 293/41/4
f 124/42/4 293/41/4 296/42/4
f 129/43/34 126/42/34 298/42/34
f 129/43/34 298/42/34 301/43/34
f 7/21/17 127/43/17 299/43/17
f 7/21/17 299/43/17 177/21/17
f 132/44/21 6/25/21 176/25/21
f 132/44/21 176/25/21 304/44/21
f 134/45/35 131/44/35 303/44/35
f 134/45/35 303/44/35 306/45/35
f 138/46/36 135/45/36 307/45/36
f 138/46/36 307/45/36 310/46/36
f 139/47/37 136/46/37 308/46/37
f 139/47/37 308/46/37 311/47/37
f 144/48/21 141/47/21 313/47/21
f 144/48/21 313/47/21 316/48/21
f 145/49/38 142/48/38 314/48/38
f 145/49/38 314/48/38 317/49/38
f 150/50/39 147/49/39 319/49/39
f 150/50/39 319/49/39 322/50/39
f 151/51/38 148/50/38 320/50/38
f 151/51/38 320/50/38 323/51/38
f 156/52/40 153/51/40 325/51/40
f 156/52/40 325/51/40 328/52/40
f 158/53/41 155/52/41 327/52/41
f 158/53/41 327/52/41 330/53/41
f 162/54/42 159/53/42 331/53/42
f 162/54/42 331/53/42 334/54/42
f 163/55/38 160/54/38 332/54/38
f 163/55/38 332/54/38 335/55/38
f 168/56/43 165/55/43 337/55/43
f 168/56/43 337/55/43 340/56/43
f 77/27/44 166/56/44 338/56/44
f 77/27/44 338/56/44 249/27/44
f 49/14/45 45/12/45 47/13/45
f 45/12/45 49/14/45 53/15/45
f 45/12/45 53/15/45 42/11/45
f 42/11/45 53/15/45 39/10/45
f 58/17/45 53/15/45 56/16/45
f 53/15/45 58/17/45 30/7/45
f 53/15/45 30/7/45 36/9/45
f 53/15/45 36/9/45 39/10/45
f 36/9/45 30/7/45 33/8/45
f 30/7/45 58/17/45 27/6/45
f 27/6/45 58/17/45 61/18/45
f 27/6/45 61/18/45 65/20/45
f 65/20/45 61/18/45 10/19/45
f 27/6/45 65/20/45 24/5/45
f 65/20/45 10/19/45 9/21/45
f 24/5/45 67/22/45 20/4/45
f 67/22/45 24/5/45 65/20/45
f 20/4/45 67/22/45 70/23/45
f 20/4/45 14/1/45 17/3/45
f 14/1/45 20/4/45 73/24/45
f 73/24/45 20/4/45 70/23/45
f 14/1/45 73/24/45 4/25/45
f 4/25/45 1/2/45 14/1/45
f 1/2/45 107/36/45 110/37/45
f 107/36/45 1/2/45 4/25/45
f 107/36/45 4/25/45 133/45/45
f 133/45/45 4/25/45 130/44/45
f 107/36/45 133/45/45 137/46/45
f 107/36/45 137/46/45 140/47/45
f 107/36/45 102/34/45 104/35/45
f 102/34/45 107/36/45 140/47/45
f 102/34/45 140/47/45 143/48/45
f 102/34/45 143/48/45 99/33/45
f 99/33/45 143/48/45 146/49/45
f 89/30/45 84/28/45 86/29/45
f 84/28/45 89/30/45 157/53/45
f 157/53/45 89/30/45 154/52/45
f 84/28/45 157/53/45 161/54/45
f 84/28/45 161/54/45 81/26/45
f 81/26/45 161/54/45 164/55/45
f 164/55/45 78/27/45 81/26/45
f 78/27/45 164/55/45 167/56/45
f 146/49/45 95/32/45 99/33/45
f 95/32/45 146/49/45 149/50/45
f 95/32/45 149/50/45 152/51/45
f 95/32/45 89/30/45 92/31/45
f 89/30/45 95/32/45 152/51/45
f 89/30/45 152/51/45 154/52/45
f 115/39/45 125/42/45 112/38/45
f 125/42/45 115/39/45 123/41/45
f 123/41/45 115/39/45 119/40/45
f 10/19/45 128/43/45 9/21/45
f 128/43/45 10/19/45 125/42/45
f 125/42/45 10/19/45 112/38/45
f 217/12/46 221/14/46 219/13/46
f 221/14/46 217/12/46 225/15/46
f 225/15/46 217/12/46 214/11/46
f 225/15/46 214/11/46 211/10/46
f 174/25/46 186/1/46 170/2/46
f 186/1/46 192/4/46 189/3/46
f 192/4/46 186/1/46 245/24/46
f 192/4/46 245/24/46 242/23/46
f 245/24/46 186/1/46 174/25/46
f 196/5/46 239/22/46 237/20/46
f 239/22/46 196/5/46 192/4/46
f 239/22/46 192/4/46 242/23/46
f 225/15/46 230/17/46 228/16/46
f 230/17/46 225/15/46 202/7/46
f 202/7/46 225/15/46 208/9/46
f 208/9/46 225/15/46 211/10/46
f 202/7/46 208/9/46 205/8/46
f 230/17/46 202/7/46 199/6/46
f 230/17/46 199/6/46 233/18/46
f 233/18/46 199/6/46 237/20/46
f 233/18/46 237/20/46 182/19/46
f 237/20/46 199/6/46 196/5/46
f 182/19/46 237/20/46 180/21/46
f 250/27/46 336/55/46 253/26/46
f 336/55/46 250/27/46 339/56/46
f 256/28/46 261/30/46 258/29/46
f 261/30/46 256/28/46 329/53/46
f 261/30/46 329/53/46 326/52/46
f 329/53/46 256/28/46 333/54/46
f 333/54/46 256/28/46 253/26/46
f 333/54/46 253/26/46 336/55/46
f 261/30/46 267/32/46 264/31/46
f 267/32/46 261/30/46 324/51/46
f 324/51/46 261/30/46 326/52/46
f 267/32/46 318/49/46 271/33/46
f 318/49/46 267/32/46 321/50/46
f 321/50/46 267/32/46 324/51/46
f 274/34/46 279/36/46 276/35/46
f 279/36/46 274/34/46 312/47/46
f 312/47/46 274/34/46 315/48/46
f 315/48/46 274/34/46 271/33/46
f 315/48/46 271/33/46 318/49/46
f 279/36/46 169/2/46 282/37/46
f 169/2/46 279/36/46 173/25/46
f 173/25/46 279/36/46 305/45/46
f 173/25/46 305/45/46 302/44/46
f 305/45/46 279/36/46 309/46/46
f 309/46/46 279/36/46 312/47/46
f 300/43/46 181/19/46 179/21/46
f 181/19/46 300/43/46 297/42/46
f 181/19/46 297/42/46 284/38/46
f 297/42/46 287/39/46 284/38/46
f 287/39/46 297/42/46 295/41/46
f 287/39/46 295/41/46 291/40/46
