# Blender 5.0.0
# www.blender.org
mtllib axe.mtl
o Object_28
v -0.000025 -1.455493 0.001867
v -0.000025 -1.455493 0.001867
v -0.000025 -1.455493 0.001867
v -0.000025 -1.179409 -0.275845
v -0.000025 -1.179409 -0.275845
v -0.000025 -1.179409 -0.275845
v -0.000025 -1.031680 -0.130687
v -0.000025 -1.031680 -0.130687
v -0.000025 -1.031680 -0.130687
v -0.000025 -0.881280 -0.281538
v -0.000025 -0.881280 -0.281538
v -0.000025 -0.881280 -0.281538
v -0.000025 -0.734614 -0.131728
v -0.000025 -0.734614 -0.131728
v -0.000025 -0.734614 -0.131728
v -0.000025 -0.587530 -0.276990
v -0.000025 -0.587530 -0.276990
v -0.000025 -0.587530 -0.276990
v -0.000025 -0.438307 -0.133827
v -0.000025 -0.438307 -0.133827
v -0.000025 -0.438307 -0.133827
v -0.000025 -0.292430 -0.277340
v -0.000025 -0.292430 -0.277340
v -0.000025 -0.292430 -0.277340
v -0.000025 -0.146971 -0.133909
v -0.000025 -0.146971 -0.133909
v -0.000025 -0.146971 -0.133909
v -0.000025 0.001984 -0.278865
v -0.000025 0.001984 -0.278865
v -0.000025 0.001984 -0.278865
v -0.000025 0.145992 -0.133298
v -0.000025 0.145992 -0.133298
v -0.000025 0.145992 -0.133298
v -0.000025 0.293671 -0.279014
v -0.000025 0.293671 -0.279014
v -0.000025 0.293671 -0.279014
v -0.000025 0.445053 -0.129193
v -0.000025 0.445053 -0.129193
v -0.000025 0.445053 -0.129193
v -0.000025 0.605281 -0.292828
v -0.000025 0.605281 -0.292828
v -0.000025 0.605281 -0.292828
v -0.000025 0.455853 -0.443824
v -0.000025 0.455853 -0.443824
v -0.000025 0.455853 -0.443824
v -0.000025 0.604650 -0.584346
v -0.000025 0.604650 -0.584346
v -0.000025 0.604650 -0.584346
v -0.000025 0.457271 -0.735696
v -0.000025 0.457271 -0.735696
v -0.000025 0.457271 -0.735696
v -0.000025 0.737233 -1.016098
v -0.000025 0.737233 -1.016098
v -0.000025 0.737233 -1.016098
v -0.000025 0.889298 -0.873521
v -0.000025 0.889298 -0.873521
v -0.000025 0.889298 -0.873521
v -0.000025 1.032478 -1.016304
v -0.000025 1.032478 -1.016304
v -0.000025 1.032478 -1.016304
v -0.000025 1.182510 -0.874160
v -0.000025 1.182510 -0.874160
v -0.000025 1.182510 -0.874160
v -0.000025 1.324946 -1.016359
v -0.000025 1.324946 -1.016359
v -0.000025 1.324946 -1.016359
v -0.000025 1.474551 -0.869924
v -0.000025 1.474551 -0.869924
v -0.000025 1.474551 -0.869924
v -0.000025 1.620381 -1.014824
v -0.000025 1.620381 -1.014824
v -0.000025 1.620381 -1.014824
v -0.000025 1.902827 -0.733971
v -0.000025 1.902827 -0.733971
v -0.000025 1.902827 -0.733971
v -0.000025 1.760316 -0.590499
v -0.000025 1.760316 -0.590499
v -0.000025 1.760316 -0.590499
v -0.000025 1.910597 -0.442950
v -0.000025 1.910597 -0.442950
v -0.000025 1.910597 -0.442950
v -0.000025 1.610302 -0.145665
v -0.000025 1.610302 -0.145665
v -0.000025 1.610302 -0.145665
v -0.000025 1.752877 -0.001512
v -0.000025 1.752877 -0.001512
v -0.000025 1.752877 -0.001512
v -0.000025 1.459942 0.295329
v -0.000025 1.459942 0.295329
v -0.000025 1.459942 0.295329
v -0.000025 1.611266 0.443524
v -0.000025 1.611266 0.443524
v -0.000025 1.611266 0.443524
v -0.000025 1.327693 0.722050
v -0.000025 1.327693 0.722050
v -0.000025 1.327693 0.722050
v -0.000025 1.180176 0.579208
v -0.000025 1.180176 0.579208
v -0.000025 1.180176 0.579208
v -0.000025 1.034418 0.724178
v -0.000025 1.034418 0.724178
v -0.000025 1.034418 0.724178
v -0.000025 0.752552 0.442312
v -0.000025 0.752552 0.442312
v -0.000025 0.752552 0.442312
v -0.000025 0.897639 0.293554
v -0.000025 0.897639 0.293554
v -0.000025 0.897639 0.293554
v -0.000025 0.739981 0.135896
v -0.000025 0.739981 0.135896
v -0.000025 0.739981 0.135896
v -0.000025 0.589269 0.281156
v -0.000025 0.589269 0.281156
v -0.000025 0.589269 0.281156
v -0.000025 0.438217 0.131663
v -0.000025 0.438217 0.131663
v -0.000025 0.438217 0.131663
v -0.000025 0.296155 0.278792
v -0.000025 0.296155 0.278792
v -0.000025 0.296155 0.278792
v -0.000025 0.150117 0.131202
v -0.000025 0.150117 0.131202
v -0.000025 0.150117 0.131202
v -0.000025 0.000840 0.278660
v -0.000025 0.000840 0.278660
v -0.000025 0.000840 0.278660
v -0.000025 -0.147126 0.133543
v -0.000025 -0.147126 0.133543
v -0.000025 -0.147126 0.133543
v -0.000025 -0.295219 0.279565
v -0.000025 -0.295219 0.279565
v -0.000025 -0.295219 0.279565
v -0.000025 -0.440980 0.136113
v -0.000025 -0.440980 0.136113
v -0.000025 -0.440980 0.136113
v -0.000025 -0.589670 0.283095
v -0.000025 -0.589670 0.283095
v -0.000025 -0.589670 0.283095
v -0.000025 -0.736115 0.134343
v -0.000025 -0.736115 0.134343
v -0.000025 -0.736115 0.134343
v -0.000025 -0.881444 0.279995
v -0.000025 -0.881444 0.279995
v -0.000025 -0.881444 0.279995
v -0.000025 -1.032010 0.131722
v -0.000025 -1.032010 0.131722
v -0.000025 -1.032010 0.131722
v -0.000025 -1.177964 0.278961
v -0.000025 -1.177964 0.278961
v -0.000025 -1.177964 0.278961
v -0.200539 -1.455493 0.001867
v -0.200539 -1.455493 0.001867
v -0.200539 -1.455493 0.001867
v -0.200539 -1.179409 -0.275845
v -0.200539 -1.179409 -0.275845
v -0.200539 -1.179409 -0.275845
v -0.200539 -1.031680 -0.130687
v -0.200539 -1.031680 -0.130687
v -0.200539 -1.031680 -0.130687
v -0.200539 -0.881280 -0.281538
v -0.200539 -0.881280 -0.281538
v -0.200539 -0.881280 -0.281538
v -0.200539 -0.734614 -0.131728
v -0.200539 -0.734614 -0.131728
v -0.200539 -0.734614 -0.131728
v -0.200539 -0.587530 -0.276990
v -0.200539 -0.587530 -0.276990
v -0.200539 -0.587530 -0.276990
v -0.200539 -0.438307 -0.133827
v -0.200539 -0.438307 -0.133827
v -0.200539 -0.438307 -0.133827
v -0.200539 -0.292430 -0.277340
v -0.200539 -0.292430 -0.277340
v -0.200539 -0.292430 -0.277340
v -0.200539 -0.146971 -0.133909
v -0.200539 -0.146971 -0.133909
v -0.200539 -0.146971 -0.133909
v -0.200539 0.001984 -0.278865
v -0.200539 0.001984 -0.278865
v -0.200539 0.001984 -0.278865
v -0.200539 0.145992 -0.133298
v -0.200539 0.145992 -0.133298
v -0.200539 0.145992 -0.133298
v -0.200539 0.293671 -0.279014
v -0.200539 0.293671 -0.279014
v -0.200539 0.293671 -0.279014
v -0.200539 0.445053 -0.129193
v -0.200539 0.445053 -0.129193
v -0.200539 0.445053 -0.129193
v -0.200539 0.605281 -0.292828
v -0.200539 0.605281 -0.292828
v -0.200539 0.605281 -0.292828
v -0.200539 0.455853 -0.443824
v -0.200539 0.455853 -0.443824
v -0.200539 0.455853 -0.443824
v -0.200539 0.604650 -0.584346
v -0.200539 0.604650 -0.584346
v -0.200539 0.604650 -0.584346
v -0.200539 0.457271 -0.735696
v -0.200539 0.457271 -0.735696
v -0.200539 0.457271 -0.735696
v -0.200539 0.737233 -1.016098
v -0.200539 0.737233 -1.016098
v -0.200539 0.737233 -1.016098
v -0.200539 0.889298 -0.873521
v -0.200539 0.889298 -0.873521
v -0.200539 0.889298 -0.873521
v -0.200539 1.032478 -1.016304
v -0.200539 1.032478 -1.016304
v -0.200539 1.032478 -1.016304
v -0.200539 1.182510 -0.874160
v -0.200539 1.182510 -0.874160
v -0.200539 1.182510 -0.874160
v -0.200539 1.324946 -1.016359
v -0.200539 1.324946 -1.016359
v -0.200539 1.324946 -1.016359
v -0.200539 1.474551 -0.869924
v -0.200539 1.474551 -0.869924
v -0.200539 1.474551 -0.869924
v -0.200539 1.620381 -1.014824
v -0.200539 1.620381 -1.014824
v -0.200539 1.620381 -1.014824
v -0.200539 1.902827 -0.733971
v -0.200539 1.902827 -0.733971
v -0.200539 1.902827 -0.733971
v -0.200539 1.760316 -0.590499
v -0.200539 1.760316 -0.590499
v -0.200539 1.760316 -0.590499
v -0.200539 1.910597 -0.442950
v -0.200539 1.910597 -0.442950
v -0.200539 1.910597 -0.442950
v -0.200539 1.610302 -0.145665
v -0.200539 1.610302 -0.145665
v -0.200539 1.610302 -0.145665
v -0.200539 1.752877 -0.001512
v -0.200539 1.752877 -0.001512
v -0.200539 1.752877 -0.001512
v -0.200539 1.459942 0.295329
v -0.200539 1.459942 0.295329
v -0.200539 1.459942 0.295329
v -0.200539 1.611266 0.443524
v -0.200539 1.611266 0.443524
v -0.200539 1.611266 0.443524
v -0.200539 1.327693 0.722050
v -0.200539 1.327693 0.722050
v -0.200539 1.327693 0.722050
v -0.200539 1.180176 0.579208
v -0.200539 1.180176 0.579208
v -0.200539 1.180176 0.579208
v -0.200539 1.034418 0.724178
v -0.200539 1.034418 0.724178
v -0.200539 1.034418 0.724178
v -0.200539 0.752552 0.442312
v -0.200539 0.752552 0.442312
v -0.200539 0.752552 0.442312
v -0.200539 0.897639 0.293554
v -0.200539 0.897639 0.293554
v -0.200539 0.897639 0.293554
v -0.200539 0.739981 0.135896
v -0.200539 0.739981 0.135896
v -0.200539 0.739981 0.135896
v -0.200539 0.589269 0.281156
v -0.200539 0.589269 0.281156
v -0.200539 0.589269 0.281156
v -0.200539 0.438217 0.131663
v -0.200539 0.438217 0.131663
v -0.200539 0.438217 0.131663
v -0.200539 0.296155 0.278792
v -0.200539 0.296155 0.278792
v -0.200539 0.296155 0.278792
v -0.200539 0.150117 0.131202
v -0.200539 0.150117 0.131202
v -0.200539 0.150117 0.131202
v -0.200539 0.000840 0.278660
v -0.200539 0.000840 0.278660
v -0.200539 0.000840 0.278660
v -0.200539 -0.147126 0.133543
v -0.200539 -0.147126 0.133543
v -0.200539 -0.147126 0.133543
v -0.200539 -0.295219 0.279565
v -0.200539 -0.295219 0.279565
v -0.200539 -0.295219 0.279565
v -0.200539 -0.440980 0.136113
v -0.200539 -0.440980 0.136113
v -0.200539 -0.440980 0.136113
v -0.200539 -0.589670 0.283095
v -0.200539 -0.589670 0.283095
v -0.200539 -0.589670 0.283095
v -0.200539 -0.736115 0.134343
v -0.200539 -0.736115 0.134343
v -0.200539 -0.736115 0.134343
v -0.200539 -0.881444 0.279995
v -0.200539 -0.881444 0.279995
v -0.200539 -0.881444 0.279995
v -0.200539 -1.032010 0.131722
v -0.200539 -1.032010 0.131722
v -0.200539 -1.032010 0.131722
v -0.200539 -1.177964 0.278961
v -0.200539 -1.177964 0.278961
v -0.200539 -1.177964 0.278961
vn -0.0000 -0.7092 -0.7050
vn -0.0000 0.7009 -0.7133
vn -0.0000 -0.7082 -0.7060
vn -0.0000 0.7146 -0.6996
vn -0.0000 -0.7027 -0.7115
vn -0.0000 0.6923 -0.7216
vn -0.0000 -0.7013 -0.7129
vn -0.0000 0.7021 -0.7121
vn -0.0000 -0.6974 -0.7167
vn -0.0000 0.7109 -0.7033
vn -0.0000 -0.7024 -0.7118
vn -0.0000 0.7034 -0.7108
vn -0.0000 -0.7145 -0.6996
vn -0.0000 -0.7108 0.7034
vn -0.0000 -0.6866 -0.7270
vn -0.0000 -0.7164 0.6976
vn -0.0000 -0.7077 -0.7066
vn -0.0000 0.6840 -0.7295
vn -0.0000 -0.7061 -0.7081
vn -0.0000 0.6878 -0.7259
vn -0.0000 -0.7065 -0.7077
vn -0.0000 0.6995 -0.7146
vn -0.0000 -0.7048 -0.7094
vn -0.0000 0.7051 -0.7091
vn -0.0000 0.7095 0.7047
vn -0.0000 0.7006 -0.7136
vn -0.0000 0.7035 0.7107
vn -0.0000 0.7110 -0.7032
vn -0.0000 0.7118 0.7024
vn -0.0000 0.6997 -0.7145
vn -0.0000 0.7007 0.7134
vn -0.0000 -0.6956 0.7184
vn -0.0000 0.7052 0.7090
vn -0.0000 -0.7071 0.7071
vn -0.0000 -0.7159 -0.6982
vn -0.0000 0.6940 0.7200
vn -0.0000 -0.7034 0.7108
vn -0.0000 0.7194 0.6946
vn -0.0000 0.7028 0.7114
vn -0.0000 -0.7002 0.7139
vn -0.0000 0.7021 0.7121
vn -0.0000 -0.7014 0.7127
vn -0.0000 0.7030 0.7112
vn -0.0000 -0.7126 0.7016
vn -0.0000 0.7079 0.7063
vn -0.0000 -0.7017 0.7125
vn -0.0000 0.7102 0.7040
vn -0.0000 -0.7066 0.7077
vn 1.0000 -0.0000 -0.0000
vn -1.0000 -0.0000 -0.0000
vt 0.275991 0.561092
vt 0.276017 0.580672
vt 0.280685 0.561001
vt 0.280677 0.550351
vt 0.285428 0.550461
vt 0.285457 0.540125
vt 0.290143 0.539911
vt 0.290181 0.529679
vt 0.294810 0.529608
vt 0.294874 0.519217
vt 0.299515 0.519272
vt 0.299546 0.508899
vt 0.304373 0.508844
vt 0.304319 0.497393
vt 0.299504 0.497338
vt 0.299637 0.487109
vt 0.294850 0.486968
vt 0.294843 0.467157
vt 0.299564 0.466821
vt 0.299571 0.456711
vt 0.304253 0.456432
vt 0.304257 0.446369
vt 0.309001 0.446256
vt 0.309016 0.435978
vt 0.318042 0.435921
vt 0.318058 0.446032
vt 0.322831 0.445936
vt 0.322782 0.467063
vt 0.327377 0.467119
vt 0.327440 0.487971
vt 0.332240 0.487861
vt 0.332159 0.507733
vt 0.327506 0.507899
vt 0.327493 0.518178
vt 0.318459 0.518178
vt 0.318401 0.507789
vt 0.313348 0.507789
vt 0.313260 0.518253
vt 0.308444 0.518308
vt 0.308525 0.528532
vt 0.303820 0.528478
vt 0.303791 0.538969
vt 0.299094 0.539069
vt 0.299061 0.549468
vt 0.294426 0.549549
vt 0.294399 0.560003
vt 0.289668 0.559922
vt 0.289673 0.570209
vt 0.284884 0.570290
vt 0.284905 0.580656
s 0
usemtl ALL_MINECRAFT_TOOLS
f 4/1/1 1/2/1 151/2/1
f 4/1/1 151/2/1 154/1/1
f 8/3/2 5/1/2 155/1/2
f 8/3/2 155/1/2 158/3/2
f 10/4/3 7/3/3 157/3/3
f 10/4/3 157/3/3 160/4/3
f 15/5/4 12/4/4 162/4/4
f 15/5/4 162/4/4 165/5/4
f 16/6/5 13/5/5 163/5/5
f 16/6/5 163/5/5 166/6/5
f 20/7/6 17/6/6 167/6/6
f 20/7/6 167/6/6 170/7/6
f 22/8/7 19/7/7 169/7/7
f 22/8/7 169/7/7 172/8/7
f 26/9/8 23/8/8 173/8/8
f 26/9/8 173/8/8 176/9/8
f 28/10/9 25/9/9 175/9/9
f 28/10/9 175/9/9 178/10/9
f 33/11/10 30/10/10 180/10/10
f 33/11/10 180/10/10 183/11/10
f 34/12/11 31/11/11 181/11/11
f 34/12/11 181/11/11 184/12/11
f 38/13/12 35/12/12 185/12/12
f 38/13/12 185/12/12 188/13/12
f 40/14/13 37/13/13 187/13/13
f 40/14/13 187/13/13 190/14/13
f 44/15/14 41/14/14 191/14/14
f 44/15/14 191/14/14 194/15/14
f 46/16/15 43/15/15 193/15/15
f 46/16/15 193/15/15 196/16/15
f 50/17/16 47/16/16 197/16/16
f 50/17/16 197/16/16 200/17/16
f 52/18/17 49/17/17 199/17/17
f 52/18/17 199/17/17 202/18/17
f 56/19/18 53/18/18 203/18/18
f 56/19/18 203/18/18 206/19/18
f 58/20/19 55/19/19 205/19/19
f 58/20/19 205/19/19 208/20/19
f 62/21/20 59/20/20 209/20/20
f 62/21/20 209/20/20 212/21/20
f 64/22/21 61/21/21 211/21/21
f 64/22/21 211/21/21 214/22/21
f 68/23/22 65/22/22 215/22/22
f 68/23/22 215/22/22 218/23/22
f 70/24/23 67/23/23 217/23/23
f 70/24/23 217/23/23 220/24/23
f 73/25/24 71/24/24 221/24/24
f 73/25/24 221/24/24 223/25/24
f 78/26/25 75/25/25 225/25/25
f 78/26/25 225/25/25 228/26/25
f 79/27/26 76/26/26 226/26/26
f 79/27/26 226/26/26 229/27/26
f 84/28/27 81/27/27 231/27/27
f 84/28/27 231/27/27 234/28/27
f 86/29/28 83/28/28 233/28/28
f 86/29/28 233/28/28 236/29/28
f 90/30/29 87/29/29 237/29/29
f 90/30/29 237/29/29 240/30/29
f 91/31/30 88/30/30 238/30/30
f 91/31/30 238/30/30 241/31/30
f 96/32/31 93/31/31 243/31/31
f 96/32/31 243/31/31 246/32/31
f 98/33/32 95/32/32 245/32/32
f 98/33/32 245/32/32 248/33/32
f 102/34/33 99/33/33 249/33/33
f 102/34/33 249/33/33 252/34/33
f 104/35/34 100/34/34 250/34/34
f 104/35/34 250/34/34 254/35/34
f 106/36/35 103/35/35 253/35/35
f 106/36/35 253/35/35 256/36/35
f 109/37/34 107/36/34 257/36/34
f 109/37/34 257/36/34 259/37/34
f 114/38/36 111/37/36 261/37/36
f 114/38/36 261/37/36 264/38/36
f 116/39/37 113/38/37 263/38/37
f 116/39/37 263/38/37 266/39/37
f 120/40/38 117/39/38 267/39/38
f 120/40/38 267/39/38 270/40/38
f 121/41/14 118/40/14 268/40/14
f 121/41/14 268/40/14 271/41/14
f 126/42/39 123/41/39 273/41/39
f 126/42/39 273/41/39 276/42/39
f 128/43/40 125/42/40 275/42/40
f 128/43/40 275/42/40 278/43/40
f 132/44/41 129/43/41 279/43/41
f 132/44/41 279/43/41 282/44/41
f 134/45/42 131/44/42 281/44/42
f 134/45/42 281/44/42 284/45/42
f 138/46/43 135/45/43 285/45/43
f 138/46/43 285/45/43 288/46/43
f 139/47/44 136/46/44 286/46/44
f 139/47/44 286/46/44 289/47/44
f 144/48/45 141/47/45 291/47/45
f 144/48/45 291/47/45 294/48/45
f 146/49/46 143/48/46 293/48/46
f 146/49/46 293/48/46 296/49/46
f 150/50/47 147/49/47 297/49/47
f 150/50/47 297/49/47 300/50/47
f 3/2/48 149/50/48 299/50/48
f 3/2/48 299/50/48 153/2/48
f 94/32/49 108/36/49 110/37/49
f 108/36/49 94/32/49 97/33/49
f 108/36/49 97/33/49 105/35/49
f 105/35/49 97/33/49 101/34/49
f 94/32/49 89/30/49 92/31/49
f 89/30/49 94/32/49 42/14/49
f 89/30/49 42/14/49 45/15/49
f 42/14/49 94/32/49 110/37/49
f 42/14/49 110/37/49 39/13/49
f 39/13/49 110/37/49 112/38/49
f 39/13/49 112/38/49 36/12/49
f 36/12/49 112/38/49 115/39/49
f 36/12/49 115/39/49 32/11/49
f 32/11/49 115/39/49 119/40/49
f 32/11/49 119/40/49 122/41/49
f 32/11/49 27/9/49 29/10/49
f 27/9/49 32/11/49 122/41/49
f 27/9/49 122/41/49 124/42/49
f 27/9/49 124/42/49 24/8/49
f 24/8/49 124/42/49 127/43/49
f 24/8/49 127/43/49 21/7/49
f 21/7/49 127/43/49 130/44/49
f 21/7/49 130/44/49 18/6/49
f 18/6/49 130/44/49 133/45/49
f 18/6/49 133/45/49 14/5/49
f 14/5/49 133/45/49 137/46/49
f 14/5/49 137/46/49 140/47/49
f 14/5/49 9/3/49 11/4/49
f 9/3/49 14/5/49 140/47/49
f 9/3/49 140/47/49 142/48/49
f 9/3/49 142/48/49 6/1/49
f 6/1/49 142/48/49 145/49/49
f 6/1/49 145/49/49 2/2/49
f 2/2/49 145/49/49 148/50/49
f 82/28/49 77/26/49 80/27/49
f 77/26/49 82/28/49 69/23/49
f 69/23/49 82/28/49 66/22/49
f 66/22/49 82/28/49 63/21/49
f 63/21/49 82/28/49 60/20/49
f 60/20/49 82/28/49 57/19/49
f 57/19/49 82/28/49 54/18/49
f 54/18/49 82/28/49 85/29/49
f 54/18/49 85/29/49 89/30/49
f 54/18/49 89/30/49 48/16/49
f 54/18/49 48/16/49 51/17/49
f 48/16/49 89/30/49 45/15/49
f 77/26/49 72/24/49 74/25/49
f 72/24/49 77/26/49 69/23/49
f 222/24/50 227/26/50 224/25/50
f 227/26/50 222/24/50 219/23/50
f 227/26/50 232/28/50 230/27/50
f 232/28/50 227/26/50 219/23/50
f 232/28/50 219/23/50 216/22/50
f 232/28/50 216/22/50 213/21/50
f 232/28/50 213/21/50 210/20/50
f 232/28/50 210/20/50 207/19/50
f 232/28/50 207/19/50 204/18/50
f 232/28/50 204/18/50 235/29/50
f 235/29/50 204/18/50 239/30/50
f 239/30/50 204/18/50 198/16/50
f 198/16/50 204/18/50 201/17/50
f 239/30/50 198/16/50 195/15/50
f 159/3/50 164/5/50 161/4/50
f 164/5/50 159/3/50 290/47/50
f 290/47/50 159/3/50 292/48/50
f 292/48/50 159/3/50 156/1/50
f 292/48/50 156/1/50 295/49/50
f 295/49/50 156/1/50 152/2/50
f 295/49/50 152/2/50 298/50/50
f 177/9/50 182/11/50 179/10/50
f 182/11/50 177/9/50 272/41/50
f 272/41/50 177/9/50 274/42/50
f 274/42/50 177/9/50 174/8/50
f 274/42/50 174/8/50 277/43/50
f 277/43/50 174/8/50 171/7/50
f 277/43/50 171/7/50 280/44/50
f 280/44/50 171/7/50 168/6/50
f 280/44/50 168/6/50 283/45/50
f 283/45/50 168/6/50 164/5/50
f 283/45/50 164/5/50 287/46/50
f 287/46/50 164/5/50 290/47/50
f 239/30/50 244/32/50 242/31/50
f 244/32/50 239/30/50 192/14/50
f 192/14/50 239/30/50 195/15/50
f 244/32/50 192/14/50 260/37/50
f 260/37/50 192/14/50 189/13/50
f 260/37/50 189/13/50 262/38/50
f 262/38/50 189/13/50 186/12/50
f 262/38/50 186/12/50 265/39/50
f 265/39/50 186/12/50 182/11/50
f 265/39/50 182/11/50 269/40/50
f 269/40/50 182/11/50 272/41/50
f 244/32/50 258/36/50 247/33/50
f 258/36/50 244/32/50 260/37/50
f 247/33/50 258/36/50 255/35/50
f 247/33/50 255/35/50 251/34/50
