# Blender 4.4.1
# www.blender.org
mtllib Buttle.mtl
o Cube
v 5.000000 4.996577 -5.000000
v 5.000000 -5.000000 -5.000000
v 5.000000 -3.000000 5.000000
v 5.000000 -5.000000 5.000000
v -5.000000 4.996577 -5.000000
v -5.000000 -5.000000 -5.000000
v -5.000000 -3.000000 5.000000
v -5.000000 -5.000000 5.000000
v -5.000000 -5.000000 0.202703
v 5.000000 -3.000000 0.202703
v -5.000000 -3.000000 0.202703
v 5.000000 -5.000000 0.202703
v 0.000000 -5.000000 -5.000000
v 0.000000 -3.000000 5.000000
v 0.000000 -5.000000 5.000000
v 0.000000 2.758282 -5.000000
v 0.000000 -5.000000 0.202703
v 0.000000 -2.812109 0.202703
v -2.432432 -5.000000 -5.000000
v -2.432432 -3.000000 5.000000
v -2.432432 -5.000000 0.202703
v -2.432432 -5.000000 5.000000
v -2.432432 3.009332 -5.000000
v -2.432432 -2.900040 0.202703
v -3.716216 -5.000000 -5.000000
v -3.716216 -3.000000 5.000000
v -3.716216 -5.000000 0.202703
v -3.716216 -5.000000 5.000000
v -3.716216 3.691931 -5.000000
v -3.716216 3.426473 0.202703
v -4.358108 -5.000000 -5.000000
v -4.358108 -3.000000 5.000000
v -4.358108 -5.000000 0.202703
v -4.358108 -5.000000 5.000000
v -4.358108 3.127802 -5.000000
v -4.358108 3.565073 0.202703
v -3.074324 -5.000000 5.000000
v -3.074324 3.255173 -5.000000
v -3.074324 -3.000000 0.202703
v -3.074324 -5.000000 -5.000000
v -3.074324 -2.933224 5.000000
v -3.074324 -5.000000 0.202703
v -1.216216 -5.000000 5.000000
v -1.216216 2.553150 -5.000000
v -1.216216 -2.821382 0.202703
v -1.216216 -5.000000 -5.000000
v -1.216216 -3.000000 5.000000
v -1.216216 -5.000000 0.202703
v -1.824324 -5.000000 -5.000000
v -1.824324 -2.817493 5.000000
v -1.824324 -5.000000 0.202703
v -1.824324 -5.000000 5.000000
v -1.824324 3.405754 -5.000000
v -1.824324 -3.000000 0.202703
v -0.608108 -5.000000 5.000000
v -0.608108 1.980628 -5.000000
v -0.608108 -3.000000 0.202703
v -0.608108 -5.000000 -5.000000
v -0.608108 -3.000000 5.000000
v -0.608108 -5.000000 0.202703
v 2.500000 -5.000000 5.000000
v 2.500000 3.306364 -5.000000
v 2.500000 -3.000000 0.202703
v 2.500000 -5.000000 -5.000000
v 2.500000 -3.000000 5.000000
v 2.500000 -5.000000 0.202703
v 1.250000 -5.000000 -5.000000
v 1.250000 -2.892212 5.000000
v 1.250000 -5.000000 0.202703
v 1.250000 -5.000000 5.000000
v 1.250000 2.901390 -5.000000
v 1.250000 -2.826833 0.202703
v 0.625000 -5.000000 -5.000000
v 0.625000 -2.881144 5.000000
v 0.625000 -5.000000 0.202703
v 0.625000 -5.000000 5.000000
v 0.625000 3.221144 -5.000000
v 0.625000 -2.938564 0.202703
v 1.875000 -5.000000 5.000000
v 1.875000 2.823108 -5.000000
v 1.875000 -2.826833 0.202703
v 1.875000 -5.000000 -5.000000
v 1.875000 -2.913149 5.000000
v 1.875000 -5.000000 0.202703
v 3.750000 -5.000000 5.000000
v 3.750000 3.974013 -5.000000
v 3.750000 1.809166 0.202703
v 3.750000 -5.000000 -5.000000
v 3.750000 -3.000000 5.000000
v 3.750000 -5.000000 0.202703
v 3.125000 -5.000000 -5.000000
v 3.125000 -3.000000 5.000000
v 3.125000 -5.000000 0.202703
v 3.125000 -5.000000 5.000000
v 3.125000 3.582423 -5.000000
v 3.125000 -3.000000 0.202703
v 4.375000 -5.000000 5.000000
v 4.375000 3.997332 -5.000000
v 4.375000 -3.000000 0.202703
v 4.375000 -5.000000 -5.000000
v 4.375000 -3.000000 5.000000
v 4.375000 -5.000000 0.202703
v -5.000000 -0.455775 -2.398649
v 5.000000 -5.000000 -2.398649
v -5.000000 -5.000000 -2.398649
v 5.000000 -3.000000 -2.398649
v 0.000000 -3.000000 -2.398649
v 0.000000 -5.000000 -2.398649
v -2.432432 -5.000000 -2.398649
v -2.432432 -2.906785 -2.381431
v -3.716216 -5.000000 -2.398649
v -3.716216 3.876391 -2.398649
v -4.358108 -5.000000 -2.398649
v -4.358108 3.766707 -2.398649
v -3.074324 -3.000000 -2.398649
v -3.074324 -5.000000 -2.398649
v -1.216216 -3.000000 -2.398649
v -1.216216 -5.000000 -2.398649
v -1.824324 -5.000000 -2.398649
v -1.824324 -3.000000 -2.398649
v -0.608108 -2.832267 -2.398649
v -0.608108 -5.000000 -2.398649
v 2.500000 -3.000000 -2.398649
v 2.500000 -5.000000 -2.398649
v 1.250000 -5.000000 -2.398649
v 1.250000 -3.000000 -2.398649
v 0.625000 -5.000000 -2.398649
v 0.625000 -2.652849 -2.398649
v 1.875000 -3.000000 -2.398649
v 1.875000 -5.000000 -2.398649
v 3.750000 2.612200 -2.398649
v 3.750000 -5.000000 -2.398649
v 3.125000 -5.000000 -2.398649
v 3.125000 -3.000000 -2.398649
v 4.375000 -3.000000 -2.398649
v 4.375000 -5.000000 -2.398649
v -5.000000 1.736550 -3.699324
v 5.000000 -5.000000 -3.699324
v -5.000000 -5.000000 -3.699324
v 5.000000 -3.000000 -3.699324
v 0.000000 -2.552353 -3.699324
v 0.000000 -5.000000 -3.699324
v -2.432432 -5.000000 -3.699324
v -2.432432 -2.478833 -3.699324
v -3.716216 -5.000000 -3.699324
v -3.716216 3.655824 -3.699324
v -4.358108 -5.000000 -3.699324
v -4.358108 -3.000000 -3.699324
v -3.074324 -3.000000 -3.699324
v -3.074324 -5.000000 -3.699324
v -1.216216 -3.000000 -3.699324
v -1.216216 -5.000000 -3.699324
v -1.824324 -5.000000 -3.699324
v -1.824324 -3.000000 -3.699324
v -0.608108 -3.000000 -3.699324
v -0.608108 -5.000000 -3.699324
v 2.500000 -3.000000 -3.699324
v 2.500000 -5.000000 -3.699324
v 1.250000 -5.000000 -3.699324
v 1.250000 -3.000000 -3.699324
v 0.625000 -5.000000 -3.699324
v 0.625000 -3.000000 -3.699324
v 1.875000 -3.000000 -3.699324
v 1.875000 -5.000000 -3.699324
v 3.750000 2.756062 -3.699324
v 3.750000 -5.000000 -3.699324
v 3.125000 -5.000000 -3.699324
v 3.125000 0.925292 -3.699324
v 4.375000 -3.000000 -3.699324
v 4.375000 -5.000000 -3.699324
v -5.000000 -5.000000 -3.048986
v 5.000000 -3.000000 -3.048986
v 0.000000 -2.552353 -3.048986
v 0.000000 -5.000000 -3.048986
v -2.432432 -5.000000 -3.048986
v -2.432432 -3.000000 -3.048986
v -3.716216 -5.000000 -3.048986
v -3.716216 3.104576 -3.048986
v -4.358108 -5.000000 -3.048986
v -4.358108 -3.000000 -3.048986
v -3.074324 -3.000000 -3.048986
v -3.074324 -5.000000 -3.048986
v -1.216216 -2.796568 -3.048986
v -1.216216 -5.000000 -3.048986
v -1.824324 -5.000000 -3.048986
v -1.824324 -2.796568 -3.048986
v -0.608108 -3.000000 -3.048986
v -0.608108 -5.000000 -3.048986
v 2.500000 -3.000000 -3.048986
v 2.500000 -5.000000 -3.048986
v 1.250000 -5.000000 -3.048986
v 1.250000 -2.686402 -3.048986
v 0.625000 -5.000000 -3.048986
v 0.625000 -2.686402 -3.048986
v 1.875000 -3.000000 -3.048986
v 1.875000 -5.000000 -3.048986
v 3.750000 -3.000000 -3.048986
v 3.750000 -5.000000 -3.048986
v 3.125000 -5.000000 -3.048986
v 3.125000 1.755403 -3.048986
v 4.375000 -3.000000 -3.048986
v 4.375000 -5.000000 -3.048986
v -5.000000 2.402707 -3.048986
v 5.000000 -5.000000 -3.048986
v -5.000000 1.032547 -4.382179
v 5.000000 -5.000000 -4.382179
v -5.000000 -5.000000 -4.382179
v 5.000000 -3.000000 -4.382179
v 0.000000 -3.000000 -4.382179
v 0.000000 -5.000000 -4.382179
v -2.432432 -5.000000 -4.382179
v -2.432432 -2.478833 -4.382179
v -3.716216 -5.000000 -4.382179
v -3.716216 4.851445 -4.382179
v -4.358108 -5.000000 -4.382179
v -4.358108 -3.000000 -4.382179
v -3.074324 -3.000000 -4.382179
v -3.074324 -5.000000 -4.382179
v -1.216216 -3.000000 -4.382179
v -1.216216 -5.000000 -4.382179
v -1.824324 -5.000000 -4.382179
v -1.824324 -3.000000 -4.382179
v -0.608108 -3.000000 -4.382179
v -0.608108 -5.000000 -4.382179
v 2.500000 -3.000000 -4.382179
v 2.500000 -5.000000 -4.382179
v 1.250000 -5.000000 -4.382179
v 1.250000 -3.000000 -4.382179
v 0.625000 -5.000000 -4.382179
v 0.625000 -3.000000 -4.382179
v 1.875000 -3.000000 -4.382179
v 1.875000 -5.000000 -4.382179
v 3.750000 -3.000000 -4.382179
v 3.750000 -5.000000 -4.382179
v 3.125000 -5.000000 -4.382179
v 3.125000 2.006814 -4.382179
v 4.375000 -3.000000 -4.382179
v 4.375000 -5.000000 -4.382179
v -5.000000 -5.000000 -1.131324
v 5.000000 -3.000000 -1.131324
v 0.000000 -3.000000 -1.131324
v 0.000000 -5.000000 -1.131324
v -2.432432 -5.000000 -1.131324
v -2.432432 -2.838577 -1.131324
v -3.716216 -5.000000 -1.131324
v -3.493619 2.252403 -1.131324
v -4.358108 -5.000000 -1.131324
v -4.358108 2.707719 -1.131324
v -2.851727 -2.838577 -1.131324
v -3.074324 -5.000000 -1.131324
v -1.216216 -3.000000 -1.131324
v -1.216216 -5.000000 -1.131324
v -1.824324 -5.000000 -1.131324
v -1.824324 -3.000000 -1.131324
v -0.608108 -2.955627 -1.131324
v -0.608108 -5.000000 -1.131324
v 2.500000 -3.000000 -1.131324
v 2.500000 -5.000000 -1.131324
v 1.250000 -5.000000 -1.131324
v 1.250000 -3.000000 -1.131324
v 0.625000 -5.000000 -1.131324
v 0.625000 -2.933735 -1.131324
v 1.875000 -3.000000 -1.131324
v 1.875000 -5.000000 -1.131324
v 3.750000 0.602149 -1.131324
v 3.750000 -5.000000 -1.131324
v 3.125000 -5.000000 -1.131324
v 3.125000 -3.000000 -1.131324
v 4.375000 3.531062 -1.131324
v 4.375000 -5.000000 -1.131324
v -5.000000 0.294815 -1.131324
v 5.000000 -5.000000 -1.131324
v -5.000000 1.201555 -1.764986
v 5.000000 -5.000000 -1.764986
v -5.000000 -5.000000 -1.764986
v 5.000000 -3.000000 -1.764986
v 0.000000 -3.000000 -1.764986
v 0.000000 -5.000000 -1.764986
v -2.432432 -5.000000 -1.764986
v -2.432432 -2.906785 -1.747769
v -3.716216 -5.000000 -1.764986
v -3.716216 2.402093 -1.764986
v -4.358108 -5.000000 -1.764986
v -4.358108 -3.000000 -1.764986
v -3.074324 -3.000000 -1.764986
v -3.074324 -5.000000 -1.764986
v -1.216216 -2.823013 -1.764986
v -1.216216 -5.000000 -1.764986
v -1.824324 -5.000000 -1.764986
v -1.824324 -2.823013 -1.764986
v -0.608108 -2.832267 -1.764986
v -0.608108 -5.000000 -1.764986
v 2.500000 -3.000000 -1.764986
v 2.500000 -5.000000 -1.764986
v 1.250000 -5.000000 -1.764986
v 1.250000 -3.000000 -1.764986
v 0.625000 -5.000000 -1.764986
v 0.625000 -2.652849 -1.764986
v 1.875000 -3.000000 -1.764986
v 1.875000 -5.000000 -1.764986
v 3.750000 -3.000000 -1.764986
v 3.750000 -5.000000 -1.764986
v 3.125000 -5.000000 -1.764986
v 3.125000 1.628252 -1.764986
v 4.375000 -3.000000 -1.764986
v 4.375000 -5.000000 -1.764986
v -5.000000 -5.000000 -0.464310
v 5.000000 -3.000000 -0.464310
v 0.000000 -2.873545 -0.464310
v 0.000000 -5.000000 -0.464310
v -2.432432 -5.000000 -0.464310
v -2.432432 -2.824358 -0.464310
v -3.716216 -5.000000 -0.464310
v -3.716216 2.266557 -0.464310
v -4.358108 -5.000000 -0.464310
v -4.358108 -3.000000 -0.464310
v -3.074324 -3.000000 -0.464310
v -3.074324 -5.000000 -0.464310
v -1.216216 -2.821382 -0.464310
v -1.216216 -5.000000 -0.464310
v -1.824324 -5.000000 -0.464310
v -1.824324 -2.824358 -0.464310
v -0.608108 -2.955627 -0.464310
v -0.608108 -5.000000 -0.464310
v 2.500000 -3.000000 -0.464310
v 2.500000 -5.000000 -0.464310
v 1.250000 -5.000000 -0.464310
v 1.250000 -2.817711 -0.464310
v 0.625000 -5.000000 -0.464310
v 0.625000 -2.751446 -0.464310
v 1.875000 -3.000000 -0.464310
v 1.875000 -5.000000 -0.464310
v 3.750000 -3.000000 -0.464310
v 3.750000 -5.000000 -0.464310
v 3.125000 -5.000000 -0.464310
v 3.125000 0.408113 -0.464310
v 4.375000 1.009354 -0.464310
v 4.375000 -5.000000 -0.464310
v -5.000000 -2.448161 -0.464310
v 5.000000 -5.000000 -0.464310
v -5.000000 -5.000000 2.601351
v 5.000000 -3.000000 2.601351
v -5.000000 2.508609 2.601351
v 5.000000 -5.000000 2.601351
v 0.000000 -5.000000 2.601351
v 0.000000 -2.867512 2.601351
v -2.432432 -5.000000 2.601351
v -2.432432 -2.643132 2.601351
v -3.716216 -5.000000 2.601351
v -3.716216 -2.819299 2.601351
v -4.358108 -5.000000 2.601351
v -4.358108 -3.000000 2.601351
v -3.074324 -3.000000 2.601351
v -3.074324 -5.000000 2.601351
v -1.216216 -2.806213 2.601351
v -1.216216 -5.000000 2.601351
v -1.824324 -5.000000 2.601351
v -1.824324 -2.763594 2.601351
v -0.608108 -2.926558 2.601351
v -0.608108 -5.000000 2.601351
v 2.500000 -3.000000 2.601351
v 2.500000 -5.000000 2.601351
v 1.250000 -5.000000 2.601351
v 1.250000 -3.000000 2.601351
v 0.625000 -5.000000 2.601351
v 0.625000 -2.832332 2.601351
v 1.875000 -2.923595 2.601351
v 1.875000 -5.000000 2.601351
v 3.750000 0.366407 2.601351
v 3.750000 -5.000000 2.601351
v 3.125000 -5.000000 2.601351
v 3.125000 -3.000000 2.601351
v 4.375000 -3.000000 2.601351
v 4.375000 -5.000000 2.601351
v -5.000000 2.490685 1.402027
v 5.000000 -5.000000 1.402027
v -5.000000 -5.000000 1.402027
v 5.000000 -3.000000 1.402027
v 0.000000 -5.000000 1.402027
v 0.000000 -3.000000 1.402027
v -2.432432 -5.000000 1.402027
v -2.432432 -2.905325 1.402027
v -3.716216 -5.000000 1.402027
v -3.716216 -3.000000 1.402027
v -4.358108 -5.000000 1.402027
v -4.358108 -3.000000 1.402027
v -3.074324 -2.865435 1.402027
v -3.074324 -5.000000 1.402027
v -1.216216 -2.754431 1.402027
v -1.216216 -5.000000 1.402027
v -1.824324 -5.000000 1.402027
v -1.824324 -2.857955 1.402027
v -0.608108 -2.801801 1.402027
v -0.608108 -5.000000 1.402027
v 2.500000 -3.000000 1.402027
v 2.500000 -5.000000 1.402027
v 1.250000 -5.000000 1.402027
v 1.250000 -2.886892 1.402027
v 0.625000 -5.000000 1.402027
v 0.625000 -2.751015 1.402027
v 1.875000 -2.886892 1.402027
v 1.875000 -5.000000 1.402027
v 3.750000 -3.000000 1.402027
v 3.750000 -5.000000 1.402027
v 3.125000 -5.000000 1.402027
v 3.125000 1.524561 1.402027
v 4.375000 2.339702 1.402027
v 4.375000 -5.000000 1.402027
v -5.000000 3.765803 0.802365
v 5.000000 -5.000000 0.802365
v -5.000000 -5.000000 0.802365
v 5.000000 -3.000000 0.802365
v 0.000000 -5.000000 0.802365
v 0.000000 -3.000000 0.802365
v -2.432432 -5.000000 0.802365
v -2.432432 -2.862177 0.802365
v -3.716216 -5.000000 0.802365
v -3.716216 -3.000000 0.802365
v -4.358108 -5.000000 0.802365
v -4.358108 2.880081 0.802365
v -3.074324 -2.827572 0.802365
v -3.074324 -5.000000 0.802365
v -1.216216 -3.000000 0.802365
v -1.216216 -5.000000 0.802365
v -1.824324 -5.000000 0.802365
v -1.824324 -3.000000 0.802365
v -0.608108 -3.000000 0.802365
v -0.608108 -5.000000 0.802365
v 2.500000 -3.000000 0.802365
v 2.500000 -5.000000 0.802365
v 1.250000 -5.000000 0.802365
v 1.250000 -3.000000 0.802365
v 0.625000 -5.000000 0.802365
v 0.625000 -2.751015 0.802365
v 1.875000 -3.000000 0.802365
v 1.875000 -5.000000 0.802365
v 3.750000 1.372736 0.802365
v 3.750000 -5.000000 0.802365
v 3.125000 -5.000000 0.802365
v 3.125000 -3.000000 0.802365
v 4.375000 1.029019 0.802365
v 4.375000 -5.000000 0.802365
v -5.000000 -5.000000 2.001689
v 5.000000 -3.000000 2.001689
v 0.000000 -5.000000 2.001689
v 0.000000 -2.867512 2.001689
v -2.432432 -5.000000 2.001689
v -2.432432 -2.855337 2.001689
v -3.716216 -5.000000 2.001689
v -3.716216 -2.819299 2.001689
v -4.358108 -5.000000 2.001689
v -4.358108 -3.000000 2.001689
v -3.074324 -3.000000 2.001689
v -3.074324 -5.000000 2.001689
v -1.216216 -2.903857 2.001689
v -1.216216 -5.000000 2.001689
v -1.824324 -5.000000 2.001689
v -1.824324 -3.000000 2.001689
v -0.608108 -3.000000 2.001689
v -0.608108 -5.000000 2.001689
v 2.500000 -3.000000 2.001689
v 2.500000 -5.000000 2.001689
v 1.250000 -5.000000 2.001689
v 1.250000 -2.936594 2.001689
v 0.625000 -5.000000 2.001689
v 0.625000 -2.768925 2.001689
v 1.875000 -2.923595 2.001689
v 1.875000 -5.000000 2.001689
v 3.750000 0.569713 2.001689
v 3.750000 -5.000000 2.001689
v 3.125000 -5.000000 2.001689
v 3.125000 0.297611 2.001689
v 4.375000 0.406549 2.001689
v 4.375000 -5.000000 2.001689
v -5.000000 2.335629 2.001689
v 5.000000 -5.000000 2.001689
v -5.000000 -5.000000 3.800676
v 5.000000 -3.000000 3.800676
v 0.000000 -5.000000 3.800676
v 0.000000 -3.000000 3.800676
v -2.432432 -5.000000 3.800676
v -2.432432 -2.798571 3.800676
v -3.716216 -5.000000 3.800676
v -3.716216 -2.873519 3.800676
v -4.358108 -5.000000 3.800676
v -4.358108 -2.897773 3.800676
v -3.074324 -2.873519 3.800676
v -3.074324 -5.000000 3.800676
v -1.216216 -2.803812 3.800676
v -1.216216 -5.000000 3.800676
v -1.824324 -5.000000 3.800676
v -1.824324 -2.803812 3.800676
v -0.608108 -2.905836 3.800676
v -0.608108 -5.000000 3.800676
v 2.500000 -2.876474 3.800676
v 2.500000 -5.000000 3.800676
v 1.250000 -5.000000 3.800676
v 1.250000 -2.738927 3.800676
v 0.625000 -5.000000 3.800676
v 0.625000 -3.000000 3.800676
v 1.875000 -3.000000 3.800676
v 1.875000 -5.000000 3.800676
v 3.750000 -3.000000 3.800676
v 3.750000 -5.000000 3.800676
v 3.125000 -5.000000 3.800676
v 3.125000 -2.876474 3.800676
v 4.375000 -2.916976 3.800676
v 4.375000 -5.000000 3.800676
v -5.000000 -3.000000 3.800676
v 5.000000 -5.000000 3.800676
v -5.000000 -5.000000 4.400338
v 5.000000 -3.000000 4.400338
v 0.000000 -5.000000 4.400338
v 0.000000 -2.890053 4.400338
v -2.432432 -5.000000 4.400338
v -2.432432 -3.000000 4.400338
v -3.716216 -5.000000 4.400338
v -3.716216 -2.940308 4.400338
v -4.358108 -5.000000 4.400338
v -4.358108 -2.838080 4.400338
v -3.074324 -2.933224 4.400338
v -3.074324 -5.000000 4.400338
v -1.216216 -3.000000 4.400338
v -1.216216 -5.000000 4.400338
v -1.824324 -5.000000 4.400338
v -1.824324 -2.817493 4.400338
v -0.608108 -2.890053 4.400338
v -0.608108 -5.000000 4.400338
v 2.500000 -2.830037 4.400338
v 2.500000 -5.000000 4.400338
v 1.250000 -5.000000 4.400338
v 1.250000 -2.892212 4.400338
v 0.625000 -5.000000 4.400338
v 0.625000 -2.881144 4.400338
v 1.875000 -2.913149 4.400338
v 1.875000 -5.000000 4.400338
v 3.750000 -3.000000 4.400338
v 3.750000 -5.000000 4.400338
v 3.125000 -5.000000 4.400338
v 3.125000 -2.830037 4.400338
v 4.375000 -2.916976 4.400338
v 4.375000 -5.000000 4.400338
v -5.000000 -3.000000 4.400338
v 5.000000 -5.000000 4.400338
v -5.000000 -3.000000 3.167699
v 5.000000 -5.000000 3.167699
v -5.000000 -5.000000 3.167699
v 5.000000 -3.000000 3.167699
v 0.000000 -5.000000 3.167699
v 0.000000 -3.000000 3.167699
v -2.432432 -5.000000 3.167699
v -2.432432 -2.762238 3.167699
v -3.716216 -5.000000 3.167699
v -3.716216 -3.000000 3.167699
v -4.358108 -5.000000 3.167699
v -4.358108 -3.000000 3.167699
v -3.074324 -3.000000 3.167699
v -3.074324 -5.000000 3.167699
v -1.216216 -3.000000 3.167699
v -1.216216 -5.000000 3.167699
v -1.824324 -5.000000 3.167699
v -1.824324 -2.963667 3.167699
v -0.608108 -2.905836 3.167699
v -0.608108 -5.000000 3.167699
v 2.500000 -2.868558 3.167699
v 2.500000 -5.000000 3.167699
v 1.250000 -5.000000 3.167699
v 1.250000 -2.738927 3.167699
v 0.625000 -5.000000 3.167699
v 0.625000 -3.000000 3.167699
v 1.875000 -2.868558 3.167699
v 1.875000 -5.000000 3.167699
v 3.750000 0.366407 3.167699
v 3.750000 -5.000000 3.167699
v 3.125000 -5.000000 3.167699
v 3.125000 -3.000000 3.167699
v 4.375000 -3.000000 3.167699
v 4.375000 -5.000000 3.167699
v -5.000000 3.032955 -4.691090
v 5.000000 -5.000000 -4.691090
v -5.000000 -5.000000 -4.691090
v 5.000000 1.814802 -4.691090
v 0.000000 0.695654 -4.350168
v 0.000000 -5.000000 -4.691090
v -2.432432 -5.000000 -4.691090
v -2.432432 1.081762 -4.350168
v -3.716216 -5.000000 -4.691090
v -3.716216 5.088202 -4.691090
v -4.358108 -5.000000 -4.691090
v -4.358108 0.880414 -4.691090
v -3.074324 0.944099 -4.350168
v -3.074324 -5.000000 -4.691090
v -1.216216 0.593088 -4.350168
v -1.216216 -5.000000 -4.691090
v -1.824324 -5.000000 -4.691090
v -1.824324 1.019390 -4.350168
v -0.608108 0.306827 -4.350168
v -0.608108 -5.000000 -4.691090
v 2.500000 0.969695 -4.350168
v 2.500000 -5.000000 -4.691090
v 1.250000 -5.000000 -4.691090
v 1.250000 0.767208 -4.350168
v 0.625000 -5.000000 -4.691090
v 0.625000 0.927085 -4.350168
v 1.875000 0.728067 -4.350168
v 1.875000 -5.000000 -4.691090
v 3.750000 1.303520 -4.691090
v 3.750000 -5.000000 -4.691090
v 3.125000 -5.000000 -4.691090
v 3.125000 3.611132 -4.691090
v 4.375000 1.315179 -4.691090
v 4.375000 -5.000000 -4.691090
vn -0.1240 0.9834 0.1328
vn -0.0000 -0.0000 1.0000
vn -1.0000 -0.0000 -0.0000
vn -0.0000 -1.0000 -0.0000
vn 1.0000 -0.0000 -0.0000
vn -0.0000 -0.0000 -1.0000
vn -0.7122 0.1520 -0.6853
vn 0.0035 0.9956 0.0938
vn -0.1013 0.9907 0.0908
vn 0.0805 0.9795 0.1845
vn -0.2875 0.9578 -0.0000
vn 0.9896 0.1086 -0.0945
vn -0.0574 0.9971 0.0496
vn -0.5622 0.1407 -0.8150
vn 0.0781 0.9804 0.1812
vn 0.1035 0.9946 -0.0000
vn -0.2096 0.9762 0.0554
vn -0.0897 0.9918 0.0909
vn 0.2490 0.9680 0.0322
vn 0.2875 0.9578 -0.0000
vn -0.1464 0.9808 0.1291
vn -0.2167 0.9762 -0.0125
vn -0.0000 0.9836 0.1803
vn -0.0000 0.9621 0.2727
vn -0.7049 0.2585 0.6605
vn 0.0335 0.9994 -0.0000
vn 0.1432 0.9823 -0.1208
vn 0.0177 0.9998 -0.0000
vn -0.0360 0.9887 0.1454
vn 0.1361 0.9825 -0.1275
vn 0.0030 0.9901 0.1403
vn 0.4811 0.7519 -0.4508
vn -0.0661 0.9954 0.0689
vn -0.6115 0.5456 -0.5730
vn 0.1334 0.9813 0.1391
vn 0.0661 0.9954 0.0689
vn 0.7115 0.2218 0.6667
vn -0.0000 1.0000 -0.0000
vn -0.4968 0.7248 -0.4774
vn 0.7119 0.1586 -0.6842
vn 0.2620 0.9434 0.2031
vn 0.2369 0.9445 0.2277
vn -0.7084 0.1862 0.6808
vn -0.2195 0.9538 0.2053
vn -0.0000 0.9544 0.2985
vn 0.0293 0.9992 0.0274
vn -0.0713 0.9950 -0.0704
vn -0.6355 0.1313 -0.7609
vn 0.9935 0.0982 -0.0583
vn -0.0888 0.9926 0.0830
vn -0.1603 0.9405 0.2994
vn 0.2788 0.3033 -0.9112
vn 0.9867 0.1445 -0.0745
vn 0.3222 0.8996 -0.2949
vn 0.6507 0.7593 -0.0000
vn 0.9932 0.0879 0.0769
vn -0.9932 0.0879 0.0769
vn -0.6303 0.7763 -0.0000
vn -0.3301 0.8970 -0.2940
vn -0.9844 0.1378 0.1091
vn 0.7284 0.1582 -0.6667
vn 0.5803 0.2284 -0.7817
vn 0.9900 0.1254 -0.0642
vn 0.4122 0.8857 -0.2136
vn 0.2460 0.9416 0.2300
vn 0.9941 0.1000 0.0424
vn -0.9941 0.1000 0.0424
vn -0.3526 0.8686 0.3480
vn 0.1630 0.9748 -0.1525
vn -0.0000 0.9544 -0.2985
vn -0.5928 0.8053 -0.0000
vn -0.9857 0.1419 -0.0906
vn 0.2369 0.9445 -0.2277
vn -0.0000 0.9007 -0.4343
vn 0.7123 0.1547 0.6846
vn 0.5128 0.2192 0.8301
vn -0.0270 0.0675 0.9974
vn 0.5199 0.0888 0.8496
vn -0.0007 0.0715 0.9974
vn 0.0016 -0.0083 1.0000
vn -0.0011 -0.0083 1.0000
vn -0.0003 -0.0085 1.0000
vn -0.0312 0.0496 0.9983
vn 0.0029 -0.0091 1.0000
vn -0.0029 -0.0084 1.0000
vn -0.0022 -0.0093 1.0000
vn 0.0044 -0.0085 1.0000
vn -0.8125 0.0865 0.5764
vn 0.3325 0.0623 0.9411
vn -0.0041 -0.0084 1.0000
vn 0.0016 -0.0084 1.0000
vn 0.4496 0.0933 0.8883
vn 0.7054 0.1350 -0.6958
vn 0.5378 0.6552 0.5305
vn -0.2792 0.1192 -0.9528
vn 0.3073 0.9291 0.2059
vn -0.6991 0.1888 0.6896
vn 0.1710 0.9806 0.0955
vn -0.0000 0.9631 0.2690
vn -0.0281 0.9727 0.2305
vn -0.0836 0.9826 -0.1656
vn -0.6404 0.1950 -0.7428
vn 0.9369 0.1146 -0.3302
vn 0.0647 0.9941 0.0865
vn -0.3073 0.9291 0.2059
vn 0.3350 0.2405 -0.9110
vn -0.0039 0.2407 0.9706
vn -0.4856 0.8742 -0.0000
vn 0.0038 0.9904 -0.1383
vn 0.9874 0.1032 0.1201
vn -0.5465 0.1273 0.8277
vn -0.1437 0.9896 -0.0000
vn -0.1280 0.9822 -0.1372
vn -0.0000 0.9631 -0.2690
vn 0.2659 0.9640 -0.0000
vn -0.6991 0.1888 -0.6896
vn 0.4856 0.8742 -0.0000
vn 0.7032 0.1566 0.6936
vn -0.5280 0.6708 0.5208
vn 0.9693 0.1150 0.2173
vn -0.1518 0.9781 0.1423
vn -0.7633 0.1375 0.6313
vn 0.1017 0.9596 -0.2623
vn 0.1430 0.9806 -0.1340
vn -0.7049 0.2585 -0.6605
vn -0.0309 0.9951 -0.0943
vn -0.0024 0.9665 -0.2567
vn 0.0730 0.9885 -0.1324
vn -0.1628 0.9833 0.0813
vn -0.6369 0.1994 0.7448
vn 0.9382 0.1163 0.3259
vn 0.1303 0.9816 -0.1397
vn -0.1453 0.9639 -0.2231
vn -0.2205 0.1521 0.9635
vn 0.6710 0.2462 0.6994
vn -0.6862 0.2357 0.6882
vn 0.6649 0.2355 0.7088
vn 0.1213 0.9926 -0.0000
vn 0.2578 0.9609 0.1016
vn -0.0712 0.9961 0.0527
vn -0.6697 0.2538 0.6979
vn -0.1553 0.9860 -0.0604
vn -0.0424 0.9625 -0.2681
vn 0.1735 0.9750 -0.1391
vn -0.3590 0.9190 -0.1626
vn -0.2710 0.9626 -0.0000
vn 0.2710 0.9626 -0.0000
vn 0.2000 0.9177 -0.3433
vn -0.1063 0.9930 0.0525
vn 0.9929 0.1175 -0.0170
vn 0.6346 0.1278 0.7622
vn -0.3701 0.9290 -0.0000
vn 0.0739 0.9939 -0.0820
vn -0.2325 0.9721 0.0307
vn 0.6752 0.1474 0.7228
vn 0.0578 0.9961 0.0673
vn 0.0365 0.9372 -0.3468
vn -0.0807 0.9484 -0.3065
vn 0.1587 0.9741 -0.1610
vn -0.6800 0.1879 -0.7087
vn -0.0000 0.9827 -0.1854
vn 0.2931 0.9519 -0.0898
vn 0.0897 0.9916 -0.0935
vn -0.8246 0.2063 0.5268
vn 0.1196 0.9850 -0.1247
vn 0.9810 0.1309 -0.1430
vn 0.6769 0.2100 -0.7055
vn -0.9897 0.1347 0.0490
vn 0.7938 0.1926 -0.5768
vn 0.1358 0.9806 0.1416
vn 0.1091 0.9940 -0.0119
vn -0.0000 0.9607 0.2774
vn -0.1509 0.9766 0.1530
vn -0.1438 0.9788 0.1458
vn 0.1438 0.9788 0.1458
vn -0.0501 0.9837 -0.1725
vn 0.6149 0.1311 0.7777
vn 0.6761 0.1388 0.7237
vn 0.1918 0.9809 -0.0310
vn -0.0976 0.9952 0.0003
vn -0.6503 0.1470 -0.7453
vn 0.9929 0.1177 0.0152
vn -0.2668 0.9594 -0.0917
vn 0.0795 0.9939 0.0763
vn 0.0359 0.9986 -0.0384
vn -0.1379 0.9794 -0.1476
vn -0.0811 0.9942 0.0701
vn 0.1126 0.9544 0.2766
vn -0.1575 0.9596 0.2332
vn 0.0539 0.9971 0.0546
vn -0.9748 0.1558 0.1594
vn -0.0104 0.9974 0.0719
vn 0.2356 0.9703 0.0547
vn 0.1498 0.9882 0.0302
vn -0.9257 0.2235 -0.3050
vn 0.8403 0.2470 -0.4825
vn 0.9652 0.1379 0.2223
vn 0.0661 0.9957 -0.0653
vn -0.6862 0.2645 0.6776
vn 0.6868 0.2615 0.6782
vn -0.0978 0.9892 0.1089
vn -0.3854 0.9227 -0.0000
vn 0.2969 0.9498 0.0986
vn 0.1041 0.9904 -0.0904
vn 0.1530 0.9882 -0.0000
vn 0.0287 0.9623 -0.2706
vn 0.0064 0.9882 -0.1531
vn -0.2361 0.9693 -0.0690
vn -0.0186 0.9839 -0.1778
vn -0.0000 0.9806 -0.1959
vn 0.1668 0.9813 -0.0958
vn -0.0791 0.9936 -0.0802
vn 0.1317 0.9913 -0.0000
vn 0.2284 0.9728 -0.0377
vn -0.1317 0.9913 -0.0000
vn -0.1621 0.9807 -0.1090
vn -0.1960 0.9802 0.0281
vn 0.2198 0.9741 0.0540
vn -0.0000 0.9970 -0.0772
vn 0.0768 0.9916 -0.1040
vn 0.1462 0.9744 0.1705
vn -0.0064 0.9889 0.1487
vn -0.0062 0.9771 0.2127
vn 0.0606 0.9981 0.0059
vn -0.0055 0.9945 0.1049
vn -0.1420 0.9743 0.1748
vn -0.0070 0.9823 -0.1874
vn -0.2013 0.9783 -0.0487
vn 0.6539 0.1524 0.7411
vn -0.0272 0.9663 0.2561
vn 0.2469 0.9327 0.2628
vn 0.1377 0.9781 0.1560
vn -0.1377 0.9781 0.1560
vn -0.4184 0.9033 0.0950
vn 0.0213 0.9883 0.1510
vn 0.0612 0.9428 0.3278
vn 0.0287 0.9948 0.0982
vn 0.1039 0.9880 -0.1146
vn 0.0410 0.9624 -0.2686
vn -0.0743 0.9939 -0.0820
vn 0.0602 0.9849 -0.1622
vn 0.9832 0.1825 -0.0000
vn -0.9832 0.1825 -0.0000
vn 0.4139 0.1321 0.9007
vn -0.1568 0.2823 0.9464
vn -0.0790 0.2876 0.9545
vn 0.9230 0.2784 0.2657
vn -0.9092 0.2446 0.3370
vn 0.0247 0.2931 0.9558
vn 0.2313 0.3276 0.9160
vn 0.2884 0.2743 0.9174
vn -0.3005 0.3133 0.9008
vn -0.5411 0.3226 0.7766
vn 0.0276 0.2936 0.9555
vn 0.1074 0.2800 0.9540
vn -0.1611 0.2777 0.9471
vn -0.0032 0.1147 0.9934
vn 0.3296 0.2150 0.9193
vn -0.1247 0.1040 0.9867
vt 0.733912 0.734968
vt 0.749957 0.734968
vt 0.749957 0.749957
vt 0.733912 0.749957
vt 0.250043 0.983869
vt 0.500000 0.983869
vt 0.500000 0.999913
vt 0.250043 0.999913
vt 0.250043 0.242322
vt 0.500000 0.242322
vt 0.500000 0.250043
vt 0.250043 0.250043
vt 0.234421 0.734968
vt 0.250043 0.734968
vt 0.250043 0.749957
vt 0.234421 0.749957
vt 0.500000 0.734968
vt 0.500000 0.749957
vt 0.250043 0.484378
vt 0.500000 0.484378
vt 0.500000 0.500000
vt 0.250043 0.500000
vt 0.250043 0.613373
vt 0.500000 0.613373
vt 0.500000 0.630045
vt 0.250043 0.630045
vt 0.234421 0.613373
vt 0.234421 0.630045
vt 0.250043 0.105009
vt 0.500000 0.105009
vt 0.500000 0.119998
vt 0.250043 0.119998
vt 0.733912 0.613373
vt 0.749957 0.613373
vt 0.749957 0.630045
vt 0.733912 0.630045
vt 0.609356 0.613373
vt 0.624978 0.613373
vt 0.624978 0.630045
vt 0.609356 0.630045
vt 0.109865 0.613373
vt 0.125065 0.613373
vt 0.125065 0.630045
vt 0.109865 0.630045
vt 0.250043 0.359822
vt 0.500000 0.359822
vt 0.500000 0.375022
vt 0.250043 0.375022
vt 0.109865 0.734968
vt 0.125065 0.734968
vt 0.125065 0.749957
vt 0.109865 0.749957
vt 0.250043 0.859313
vt 0.500000 0.859313
vt 0.500000 0.874935
vt 0.250043 0.874935
vt 0.609356 0.734968
vt 0.624978 0.734968
vt 0.624978 0.749957
vt 0.609356 0.749957
vt 0.048220 0.734968
vt 0.064265 0.734968
vt 0.064265 0.749957
vt 0.048220 0.749957
vt 0.250043 0.298177
vt 0.500000 0.298177
vt 0.500000 0.314221
vt 0.250043 0.314221
vt 0.048220 0.613373
vt 0.064265 0.613373
vt 0.064265 0.630045
vt 0.048220 0.630045
vt 0.670579 0.613373
vt 0.685779 0.613373
vt 0.685779 0.630045
vt 0.670579 0.630045
vt 0.250043 0.920535
vt 0.500000 0.920535
vt 0.500000 0.935735
vt 0.250043 0.935735
vt 0.670579 0.734968
vt 0.685779 0.734968
vt 0.685779 0.749957
vt 0.670579 0.749957
vt 0.016131 0.613373
vt 0.032176 0.613373
vt 0.032176 0.630045
vt 0.016131 0.630045
vt 0.250043 0.266088
vt 0.500000 0.266088
vt 0.500000 0.282132
vt 0.250043 0.282132
vt 0.016131 0.734968
vt 0.032176 0.734968
vt 0.032176 0.749957
vt 0.016131 0.749957
vt 0.701823 0.613373
vt 0.717868 0.613373
vt 0.717868 0.630045
vt 0.701823 0.630045
vt 0.250043 0.951780
vt 0.500000 0.951780
vt 0.500000 0.967824
vt 0.250043 0.967824
vt 0.701823 0.734968
vt 0.717868 0.734968
vt 0.717868 0.749957
vt 0.701823 0.749957
vt 0.000087 0.734968
vt 0.000087 0.749957
vt 0.000087 0.613373
vt 0.000087 0.630045
vt 0.640178 0.734968
vt 0.655379 0.734968
vt 0.655379 0.749957
vt 0.640178 0.749957
vt 0.250043 0.890135
vt 0.500000 0.890135
vt 0.500000 0.905335
vt 0.250043 0.905335
vt 0.640178 0.613373
vt 0.655379 0.613373
vt 0.655379 0.630045
vt 0.640178 0.630045
vt 0.079465 0.734968
vt 0.094665 0.734968
vt 0.094665 0.749957
vt 0.079465 0.749957
vt 0.250043 0.329421
vt 0.500000 0.329421
vt 0.500000 0.344622
vt 0.250043 0.344622
vt 0.079465 0.613373
vt 0.094665 0.613373
vt 0.094665 0.630045
vt 0.079465 0.630045
vt 0.546867 0.734968
vt 0.562489 0.734968
vt 0.562489 0.749957
vt 0.546867 0.749957
vt 0.250043 0.796824
vt 0.500000 0.796824
vt 0.500000 0.812446
vt 0.250043 0.812446
vt 0.546867 0.613373
vt 0.562489 0.613373
vt 0.562489 0.630045
vt 0.546867 0.630045
vt 0.171932 0.613373
vt 0.187554 0.613373
vt 0.187554 0.630045
vt 0.171932 0.630045
vt 0.250043 0.421889
vt 0.500000 0.421889
vt 0.500000 0.437511
vt 0.250043 0.437511
vt 0.171932 0.734968
vt 0.187554 0.734968
vt 0.187554 0.749957
vt 0.171932 0.749957
vt 0.140687 0.734968
vt 0.156310 0.734968
vt 0.156310 0.749957
vt 0.140687 0.749957
vt 0.250043 0.390644
vt 0.500000 0.390644
vt 0.500000 0.406266
vt 0.250043 0.406266
vt 0.140687 0.613373
vt 0.156310 0.613373
vt 0.156310 0.630045
vt 0.140687 0.630045
vt 0.578112 0.734968
vt 0.593734 0.734968
vt 0.593734 0.749957
vt 0.578112 0.749957
vt 0.250043 0.828068
vt 0.500000 0.828068
vt 0.500000 0.843691
vt 0.250043 0.843691
vt 0.578112 0.613373
vt 0.593734 0.613373
vt 0.593734 0.630045
vt 0.578112 0.630045
vt 0.515622 0.613373
vt 0.531245 0.613373
vt 0.531245 0.630045
vt 0.515622 0.630045
vt 0.250043 0.765579
vt 0.500000 0.765579
vt 0.500000 0.781201
vt 0.250043 0.781201
vt 0.515622 0.734968
vt 0.531245 0.734968
vt 0.531245 0.749957
vt 0.515622 0.749957
vt 0.203176 0.613373
vt 0.218799 0.613373
vt 0.218799 0.630045
vt 0.203176 0.630045
vt 0.250043 0.453133
vt 0.500000 0.453133
vt 0.500000 0.468755
vt 0.250043 0.468755
vt 0.203176 0.734968
vt 0.218799 0.734968
vt 0.218799 0.749957
vt 0.203176 0.749957
vt 0.218799 0.548767
vt 0.234421 0.548767
vt 0.234421 0.565023
vt 0.218799 0.565023
vt 0.500000 0.548767
vt 0.515622 0.548767
vt 0.515622 0.565023
vt 0.500000 0.565023
vt 0.531245 0.548767
vt 0.546867 0.548767
vt 0.546867 0.565023
vt 0.531245 0.565023
vt 0.187554 0.548767
vt 0.203176 0.548767
vt 0.203176 0.565023
vt 0.187554 0.565023
vt 0.156310 0.548767
vt 0.171932 0.548767
vt 0.171932 0.565023
vt 0.156310 0.565023
vt 0.562489 0.548767
vt 0.578112 0.548767
vt 0.578112 0.565023
vt 0.562489 0.565023
vt 0.593734 0.548767
vt 0.609356 0.548767
vt 0.609356 0.565023
vt 0.593734 0.565023
vt 0.125065 0.548767
vt 0.140687 0.548767
vt 0.140687 0.565023
vt 0.125065 0.565023
vt 0.094665 0.548767
vt 0.109865 0.548767
vt 0.109865 0.565023
vt 0.094665 0.565023
vt 0.624978 0.548767
vt 0.640178 0.548767
vt 0.640178 0.565023
vt 0.624978 0.565023
vt 0.655379 0.548767
vt 0.670579 0.548767
vt 0.670579 0.565023
vt 0.655379 0.565023
vt 0.064265 0.548767
vt 0.079465 0.548767
vt 0.079465 0.565023
vt 0.064265 0.565023
vt 0.032176 0.548767
vt 0.048220 0.548767
vt 0.048220 0.565023
vt 0.032176 0.565023
vt 0.685779 0.548767
vt 0.701823 0.548767
vt 0.701823 0.565023
vt 0.685779 0.565023
vt 0.717868 0.548767
vt 0.733912 0.548767
vt 0.733912 0.565023
vt 0.717868 0.565023
vt 0.000087 0.548767
vt 0.016131 0.548767
vt 0.016131 0.565023
vt 0.000087 0.565023
vt 0.749957 0.548767
vt 0.749957 0.565023
vt 0.250043 0.548767
vt 0.250043 0.565023
vt 0.250043 0.169182
vt 0.500000 0.169182
vt 0.500000 0.185021
vt 0.250043 0.185021
vt 0.250043 0.515443
vt 0.500000 0.515443
vt 0.500000 0.532511
vt 0.250043 0.532511
vt 0.234421 0.515443
vt 0.234421 0.532511
vt 0.733912 0.515443
vt 0.749957 0.515443
vt 0.749957 0.532511
vt 0.733912 0.532511
vt 0.609356 0.515443
vt 0.624978 0.515443
vt 0.624978 0.532511
vt 0.609356 0.532511
vt 0.109865 0.515443
vt 0.125065 0.515443
vt 0.125065 0.532511
vt 0.109865 0.532511
vt 0.048220 0.515443
vt 0.064265 0.515443
vt 0.064265 0.532511
vt 0.048220 0.532511
vt 0.670579 0.515443
vt 0.685779 0.515443
vt 0.685779 0.532511
vt 0.670579 0.532511
vt 0.016131 0.515443
vt 0.032176 0.515443
vt 0.032176 0.532511
vt 0.016131 0.532511
vt 0.701823 0.515443
vt 0.717868 0.515443
vt 0.717868 0.532511
vt 0.701823 0.532511
vt 0.000087 0.515443
vt 0.000087 0.532511
vt 0.640178 0.515443
vt 0.655379 0.515443
vt 0.655379 0.532511
vt 0.640178 0.532511
vt 0.079465 0.515443
vt 0.094665 0.515443
vt 0.094665 0.532511
vt 0.079465 0.532511
vt 0.546867 0.515443
vt 0.562489 0.515443
vt 0.562489 0.532511
vt 0.546867 0.532511
vt 0.171932 0.515443
vt 0.187554 0.515443
vt 0.187554 0.532511
vt 0.171932 0.532511
vt 0.140687 0.515443
vt 0.156310 0.515443
vt 0.156310 0.532511
vt 0.140687 0.532511
vt 0.578112 0.515443
vt 0.593734 0.515443
vt 0.593734 0.532511
vt 0.578112 0.532511
vt 0.515622 0.515443
vt 0.531245 0.515443
vt 0.531245 0.532511
vt 0.515622 0.532511
vt 0.203176 0.515443
vt 0.218799 0.515443
vt 0.218799 0.532511
vt 0.203176 0.532511
vt 0.250043 0.201276
vt 0.500000 0.201276
vt 0.500000 0.217532
vt 0.250043 0.217532
vt 0.218799 0.507721
vt 0.234421 0.507721
vt 0.500000 0.507721
vt 0.515622 0.507722
vt 0.531245 0.507722
vt 0.546867 0.507721
vt 0.187554 0.507721
vt 0.203176 0.507721
vt 0.156310 0.507721
vt 0.171932 0.507721
vt 0.562489 0.507721
vt 0.578111 0.507721
vt 0.593734 0.507721
vt 0.609356 0.507722
vt 0.125065 0.507721
vt 0.140687 0.507721
vt 0.094665 0.507721
vt 0.109865 0.507721
vt 0.624978 0.507721
vt 0.640178 0.507721
vt 0.655379 0.507721
vt 0.670579 0.507721
vt 0.064265 0.507721
vt 0.079465 0.507721
vt 0.032176 0.507721
vt 0.048220 0.507721
vt 0.685779 0.507721
vt 0.701823 0.507722
vt 0.717868 0.507721
vt 0.733912 0.507721
vt 0.000087 0.507721
vt 0.016131 0.507721
vt 0.749957 0.507721
vt 0.250043 0.507721
vt 0.500000 0.234600
vt 0.250043 0.234600
vt 0.250043 0.136671
vt 0.500000 0.136671
vt 0.500000 0.153343
vt 0.250043 0.153343
vt 0.218799 0.580861
vt 0.234421 0.580861
vt 0.234421 0.596700
vt 0.218799 0.596700
vt 0.500000 0.580861
vt 0.515622 0.580861
vt 0.515622 0.596700
vt 0.500000 0.596700
vt 0.531245 0.580861
vt 0.546867 0.580861
vt 0.546867 0.596700
vt 0.531245 0.596700
vt 0.187554 0.580861
vt 0.203176 0.580861
vt 0.203176 0.596700
vt 0.187554 0.596700
vt 0.156310 0.580861
vt 0.171932 0.580861
vt 0.171932 0.596700
vt 0.156310 0.596700
vt 0.562489 0.580861
vt 0.578112 0.580861
vt 0.578112 0.596700
vt 0.562489 0.596700
vt 0.593734 0.580861
vt 0.609356 0.580861
vt 0.609356 0.596700
vt 0.593734 0.596700
vt 0.125065 0.580861
vt 0.140687 0.580861
vt 0.140687 0.596700
vt 0.125065 0.596700
vt 0.094665 0.580861
vt 0.109865 0.580861
vt 0.109865 0.596700
vt 0.094665 0.596700
vt 0.624978 0.580861
vt 0.640178 0.580861
vt 0.640178 0.596700
vt 0.624978 0.596700
vt 0.655379 0.580861
vt 0.670579 0.580861
vt 0.670579 0.596700
vt 0.655379 0.596700
vt 0.064265 0.580861
vt 0.079465 0.580861
vt 0.079465 0.596700
vt 0.064265 0.596700
vt 0.032176 0.580861
vt 0.048220 0.580861
vt 0.048220 0.596700
vt 0.032176 0.596700
vt 0.685779 0.580861
vt 0.701823 0.580861
vt 0.701823 0.596700
vt 0.685779 0.596700
vt 0.717868 0.580861
vt 0.733912 0.580861
vt 0.733912 0.596700
vt 0.717868 0.596700
vt 0.000087 0.580861
vt 0.016131 0.580861
vt 0.016131 0.596700
vt 0.000087 0.596700
vt 0.749957 0.580861
vt 0.749957 0.596700
vt 0.250043 0.580861
vt 0.250043 0.596700
vt 0.218799 0.675012
vt 0.234421 0.675012
vt 0.234421 0.690001
vt 0.218799 0.690001
vt 0.500000 0.675012
vt 0.515622 0.675012
vt 0.515622 0.690001
vt 0.500000 0.690001
vt 0.531245 0.675012
vt 0.546867 0.675012
vt 0.546867 0.690001
vt 0.531245 0.690001
vt 0.187554 0.675012
vt 0.203176 0.675012
vt 0.203176 0.690001
vt 0.187554 0.690001
vt 0.156310 0.675012
vt 0.171932 0.675012
vt 0.171932 0.690001
vt 0.156310 0.690001
vt 0.562489 0.675012
vt 0.578112 0.675012
vt 0.578112 0.690001
vt 0.562489 0.690001
vt 0.593734 0.675012
vt 0.609356 0.675012
vt 0.609356 0.690001
vt 0.593734 0.690001
vt 0.125065 0.675012
vt 0.140687 0.675012
vt 0.140687 0.690001
vt 0.125065 0.690001
vt 0.094665 0.675012
vt 0.109865 0.675012
vt 0.109865 0.690001
vt 0.094665 0.690001
vt 0.624978 0.675012
vt 0.640178 0.675012
vt 0.640178 0.690001
vt 0.624978 0.690001
vt 0.655379 0.675012
vt 0.670579 0.675012
vt 0.670579 0.690001
vt 0.655379 0.690001
vt 0.064265 0.675012
vt 0.079465 0.675012
vt 0.079465 0.690001
vt 0.064265 0.690001
vt 0.032176 0.675012
vt 0.048220 0.675012
vt 0.048220 0.690001
vt 0.032176 0.690001
vt 0.685779 0.675012
vt 0.701823 0.675012
vt 0.701823 0.690001
vt 0.685779 0.690001
vt 0.717868 0.675012
vt 0.733912 0.675012
vt 0.733912 0.690001
vt 0.717868 0.690001
vt 0.000087 0.675012
vt 0.016131 0.675012
vt 0.016131 0.690001
vt 0.000087 0.690001
vt 0.250043 0.045886
vt 0.500000 0.045886
vt 0.500000 0.060042
vt 0.250043 0.060042
vt 0.250043 0.675012
vt 0.250043 0.690001
vt 0.749957 0.675012
vt 0.749957 0.690001
vt 0.733912 0.645034
vt 0.749957 0.645034
vt 0.749957 0.660023
vt 0.733912 0.660023
vt 0.234421 0.645034
vt 0.250043 0.645034
vt 0.250043 0.660023
vt 0.234421 0.660023
vt 0.500000 0.645034
vt 0.500000 0.660023
vt 0.109865 0.645034
vt 0.125065 0.645034
vt 0.125065 0.660023
vt 0.109865 0.660023
vt 0.609356 0.645034
vt 0.624978 0.645034
vt 0.624978 0.660023
vt 0.609356 0.660023
vt 0.048220 0.645034
vt 0.064265 0.645034
vt 0.064265 0.660023
vt 0.048220 0.660023
vt 0.670579 0.645034
vt 0.685779 0.645034
vt 0.685779 0.660023
vt 0.670579 0.660023
vt 0.016131 0.645034
vt 0.032176 0.645034
vt 0.032176 0.660023
vt 0.016131 0.660023
vt 0.701823 0.645034
vt 0.717868 0.645034
vt 0.717868 0.660023
vt 0.701823 0.660023
vt 0.000087 0.645034
vt 0.000087 0.660023
vt 0.640178 0.645034
vt 0.655379 0.645034
vt 0.655379 0.660023
vt 0.640178 0.660023
vt 0.079465 0.645034
vt 0.094665 0.645034
vt 0.094665 0.660023
vt 0.079465 0.660023
vt 0.546867 0.645034
vt 0.562489 0.645034
vt 0.562489 0.660023
vt 0.546867 0.660023
vt 0.171932 0.645034
vt 0.187554 0.645034
vt 0.187554 0.660023
vt 0.171932 0.660023
vt 0.140687 0.645034
vt 0.156310 0.645034
vt 0.156310 0.660023
vt 0.140687 0.660023
vt 0.578112 0.645034
vt 0.593734 0.645034
vt 0.593734 0.660023
vt 0.578112 0.660023
vt 0.515622 0.645034
vt 0.531245 0.645034
vt 0.531245 0.660023
vt 0.515622 0.660023
vt 0.203176 0.645034
vt 0.218799 0.645034
vt 0.218799 0.660023
vt 0.203176 0.660023
vt 0.250043 0.075031
vt 0.500000 0.075031
vt 0.500000 0.090020
vt 0.250043 0.090020
vt 0.250043 0.015076
vt 0.500000 0.015076
vt 0.500000 0.030065
vt 0.250043 0.030065
vt 0.218799 0.704157
vt 0.234421 0.704157
vt 0.234421 0.719979
vt 0.218799 0.719979
vt 0.500000 0.704157
vt 0.515622 0.704157
vt 0.515622 0.719979
vt 0.500000 0.719979
vt 0.531245 0.704157
vt 0.546867 0.704157
vt 0.546867 0.719979
vt 0.531245 0.719979
vt 0.187554 0.704157
vt 0.203176 0.704157
vt 0.203176 0.719979
vt 0.187554 0.719979
vt 0.156310 0.704157
vt 0.171932 0.704157
vt 0.171932 0.719979
vt 0.156310 0.719979
vt 0.562489 0.704157
vt 0.578112 0.704157
vt 0.578112 0.719979
vt 0.562489 0.719979
vt 0.593734 0.704157
vt 0.609356 0.704157
vt 0.609356 0.719979
vt 0.593734 0.719979
vt 0.125065 0.704157
vt 0.140687 0.704157
vt 0.140687 0.719979
vt 0.125065 0.719979
vt 0.094665 0.704157
vt 0.109865 0.704157
vt 0.109865 0.719979
vt 0.094665 0.719979
vt 0.624978 0.704157
vt 0.640179 0.704157
vt 0.640178 0.719979
vt 0.624978 0.719979
vt 0.655379 0.704157
vt 0.670579 0.704157
vt 0.670579 0.719979
vt 0.655379 0.719979
vt 0.064265 0.704157
vt 0.079465 0.704157
vt 0.079465 0.719979
vt 0.064265 0.719979
vt 0.032176 0.704157
vt 0.048220 0.704157
vt 0.048220 0.719979
vt 0.032176 0.719979
vt 0.685779 0.704157
vt 0.701823 0.704157
vt 0.701823 0.719979
vt 0.685779 0.719979
vt 0.717868 0.704157
vt 0.733912 0.704157
vt 0.733912 0.719979
vt 0.717868 0.719979
vt 0.000087 0.704157
vt 0.016131 0.704157
vt 0.016131 0.719979
vt 0.000087 0.719979
vt 0.250043 0.704157
vt 0.250043 0.719979
vt 0.749957 0.704157
vt 0.749957 0.719979
vt 0.250043 0.000087
vt 0.500000 0.000087
vt 0.234421 0.500000
vt 0.733912 0.500000
vt 0.749957 0.500000
vt 0.609356 0.500000
vt 0.624978 0.500000
vt 0.109865 0.500000
vt 0.125065 0.500000
vt 0.048220 0.500000
vt 0.064265 0.500000
vt 0.670579 0.500000
vt 0.685779 0.500000
vt 0.016131 0.500000
vt 0.032176 0.500000
vt 0.701823 0.500000
vt 0.717868 0.500000
vt 0.000087 0.500000
vt 0.640178 0.500000
vt 0.655379 0.500000
vt 0.079465 0.500000
vt 0.094665 0.500000
vt 0.546867 0.500000
vt 0.562489 0.500000
vt 0.171932 0.500000
vt 0.187554 0.500000
vt 0.140687 0.500000
vt 0.156310 0.500000
vt 0.578112 0.500000
vt 0.593734 0.500000
vt 0.515622 0.500000
vt 0.531245 0.500000
vt 0.203176 0.500000
vt 0.218799 0.500000
s 0
usemtl Material
f 520/1/1 543/2/1 7/3/1 32/4/1
f 34/5/2 32/6/2 7/7/2 8/8/2
f 581/9/3 579/10/3 5/11/3 6/12/3
f 542/13/4 544/14/4 4/15/4 97/16/4
f 544/14/5 512/17/5 3/18/5 4/15/5
f 100/19/6 98/20/6 1/21/6 2/22/6
f 340/23/5 308/24/5 10/25/5 12/26/5
f 338/27/4 340/23/4 12/26/4 102/28/4
f 411/29/3 409/30/3 11/31/3 9/32/3
f 316/33/7 339/34/7 11/35/7 36/36/7
f 330/37/8 309/38/8 18/39/8 78/40/8
f 324/41/4 310/42/4 17/43/4 60/44/4
f 58/45/6 56/46/6 16/47/6 13/48/6
f 528/49/4 513/50/4 15/51/4 55/52/4
f 76/53/2 74/54/2 14/55/2 15/56/2
f 534/57/9 514/58/9 14/59/9 74/60/9
f 522/61/4 515/62/4 22/63/4 37/64/4
f 40/65/6 38/66/6 23/67/6 19/68/6
f 318/69/4 311/70/4 21/71/4 42/72/4
f 322/73/10 312/74/10 24/75/10 54/76/10
f 52/77/2 50/78/2 20/79/2 22/80/2
f 526/81/11 516/82/11 20/83/11 50/84/11
f 315/85/4 313/86/4 27/87/4 33/88/4
f 31/89/6 35/90/6 29/91/6 25/92/6
f 519/93/4 517/94/4 28/95/4 34/96/4
f 317/97/12 314/98/12 30/99/12 39/100/12
f 37/101/2 41/102/2 26/103/2 28/104/2
f 521/105/13 518/106/13 26/107/13 41/108/13
f 511/109/4 519/93/4 34/96/4 8/110/4
f 6/12/6 5/11/6 35/90/6 31/89/6
f 307/111/4 315/85/4 33/88/4 9/112/4
f 314/98/14 316/33/14 36/36/14 30/99/14
f 28/104/2 26/103/2 32/6/2 34/5/2
f 518/106/15 520/1/15 32/4/15 26/107/15
f 516/82/16 521/105/16 41/108/16 20/83/16
f 22/80/2 20/79/2 41/102/2 37/101/2
f 312/74/17 317/97/17 39/100/17 24/75/17
f 313/86/4 318/69/4 42/72/4 27/87/4
f 25/92/6 29/91/6 38/66/6 40/65/6
f 517/94/4 522/61/4 37/64/4 28/95/4
f 527/113/18 523/114/18 47/115/18 59/116/18
f 55/117/2 59/118/2 47/119/2 43/120/2
f 323/121/19 319/122/19 45/123/19 57/124/19
f 525/125/4 524/126/4 43/127/4 52/128/4
f 49/129/6 53/130/6 44/131/6 46/132/6
f 321/133/4 320/134/4 48/135/4 51/136/4
f 311/70/4 321/133/4 51/136/4 21/71/4
f 19/68/6 23/67/6 53/130/6 49/129/6
f 515/62/4 525/125/4 52/128/4 22/63/4
f 523/114/20 526/81/20 50/84/20 47/115/20
f 43/120/2 47/119/2 50/78/2 52/77/2
f 319/122/21 322/73/21 54/76/21 45/123/21
f 309/38/22 323/121/22 57/124/22 18/39/22
f 15/56/2 14/55/2 59/118/2 55/117/2
f 514/58/23 527/113/23 59/116/23 14/59/23
f 524/126/4 528/49/4 55/52/4 43/127/4
f 46/132/6 44/131/6 56/46/6 58/45/6
f 320/134/4 324/41/4 60/44/4 48/135/4
f 540/137/24 529/138/24 65/139/24 92/140/24
f 94/141/2 92/142/2 65/143/2 61/144/2
f 336/145/25 325/146/25 63/147/25 96/148/25
f 332/149/4 326/150/4 66/151/4 84/152/4
f 82/153/6 80/154/6 62/155/6 64/156/6
f 536/157/4 530/158/4 61/159/4 79/160/4
f 533/161/4 531/162/4 70/163/4 76/164/4
f 73/165/6 77/166/6 71/167/6 67/168/6
f 329/169/4 327/170/4 69/171/4 75/172/4
f 535/173/26 532/174/26 68/175/26 83/176/26
f 79/177/2 83/178/2 68/179/2 70/180/2
f 331/181/27 328/182/27 72/183/27 81/184/27
f 310/42/4 329/169/4 75/172/4 17/43/4
f 13/48/6 16/47/6 77/166/6 73/165/6
f 513/50/4 533/161/4 76/164/4 15/51/4
f 532/174/28 534/57/28 74/60/28 68/175/28
f 70/180/2 68/179/2 74/54/2 76/53/2
f 328/182/29 330/37/29 78/40/29 72/183/29
f 325/146/30 331/181/30 81/184/30 63/147/30
f 61/144/2 65/143/2 83/178/2 79/177/2
f 529/138/31 535/173/31 83/176/31 65/139/31
f 531/162/4 536/157/4 79/160/4 70/163/4
f 67/168/6 71/167/6 80/154/6 82/153/6
f 327/170/4 332/149/4 84/152/4 69/171/4
f 337/185/32 333/186/32 87/187/32 99/188/32
f 97/189/2 101/190/2 89/191/2 85/192/2
f 541/193/33 537/194/33 89/195/33 101/196/33
f 335/197/4 334/198/4 90/199/4 93/200/4
f 91/201/6 95/202/6 86/203/6 88/204/6
f 539/205/4 538/206/4 85/207/4 94/208/4
f 530/158/4 539/205/4 94/208/4 61/159/4
f 64/156/6 62/155/6 95/202/6 91/201/6
f 326/150/4 335/197/4 93/200/4 66/151/4
f 333/186/34 336/145/34 96/148/34 87/187/34
f 85/192/2 89/191/2 92/142/2 94/141/2
f 537/194/35 540/137/35 92/140/35 89/195/35
f 512/17/36 541/193/36 101/196/36 3/18/36
f 4/15/2 3/18/2 101/190/2 97/189/2
f 308/24/37 337/185/37 99/188/37 10/25/37
f 334/198/4 338/27/4 102/28/4 90/199/4
f 88/204/6 86/203/6 98/20/6 100/19/6
f 538/206/4 542/13/4 97/16/4 85/207/4
f 198/209/4 202/210/4 136/211/4 132/212/4
f 172/213/38 201/214/38 135/215/38 106/216/38
f 197/217/39 200/218/39 134/219/39 131/220/39
f 190/221/4 199/222/4 133/223/4 124/224/4
f 199/222/4 198/209/4 132/212/4 133/223/4
f 201/214/40 197/217/40 131/220/40 135/215/40
f 191/225/4 196/226/4 130/227/4 125/228/4
f 189/229/38 195/230/38 129/231/38 123/232/38
f 192/233/41 194/234/41 128/235/41 126/236/41
f 174/237/4 193/238/4 127/239/4 108/240/4
f 195/230/42 192/233/42 126/236/42 129/231/42
f 193/238/4 191/225/4 125/228/4 127/239/4
f 196/226/4 190/221/4 124/224/4 130/227/4
f 200/218/43 189/229/43 123/232/43 134/219/43
f 184/241/4 188/242/4 122/243/4 118/244/4
f 173/245/44 187/246/44 121/247/44 107/248/44
f 183/249/45 186/250/45 120/251/45 117/252/45
f 175/253/4 185/254/4 119/255/4 109/256/4
f 185/254/4 184/241/4 118/244/4 119/255/4
f 187/246/46 183/249/46 117/252/46 121/247/46
f 177/257/4 182/258/4 116/259/4 111/260/4
f 176/261/47 181/262/47 115/263/47 110/264/47
f 178/265/48 180/266/48 114/267/48 112/268/48
f 171/269/4 179/270/4 113/271/4 105/272/4
f 181/262/49 178/265/49 112/268/49 115/263/49
f 179/270/4 177/257/4 111/260/4 113/271/4
f 186/250/50 176/261/50 110/264/50 120/251/50
f 182/258/4 175/253/4 109/256/4 116/259/4
f 188/242/4 174/237/4 108/240/4 122/243/4
f 194/234/51 173/245/51 107/248/51 128/235/51
f 180/266/52 203/273/52 103/274/52 114/267/52
f 202/210/4 204/275/4 104/276/4 136/211/4
f 204/275/5 172/213/5 106/216/5 104/276/5
f 275/277/3 273/278/3 103/279/3 105/280/3
f 206/281/5 208/282/5 140/283/5 138/284/5
f 238/285/4 206/281/4 138/284/4 170/286/4
f 216/287/53 205/288/53 137/289/53 148/290/53
f 230/291/54 209/292/54 141/293/54 162/294/54
f 224/295/4 210/296/4 142/297/4 156/298/4
f 218/299/4 211/300/4 143/301/4 150/302/4
f 222/303/55 212/304/55 144/305/55 154/306/55
f 215/307/4 213/308/4 145/309/4 147/310/4
f 217/311/56 214/312/56 146/313/56 149/314/56
f 207/315/4 215/307/4 147/310/4 139/316/4
f 214/312/57 216/287/57 148/290/57 146/313/57
f 212/304/58 217/311/58 149/314/58 144/305/58
f 213/308/4 218/299/4 150/302/4 145/309/4
f 223/317/38 219/318/38 151/319/38 155/320/38
f 221/321/4 220/322/4 152/323/4 153/324/4
f 211/300/4 221/321/4 153/324/4 143/301/4
f 219/318/38 222/303/38 154/306/38 151/319/38
f 209/292/59 223/317/59 155/320/59 141/293/59
f 220/322/4 224/295/4 156/298/4 152/323/4
f 236/325/60 225/326/60 157/327/60 168/328/60
f 232/329/4 226/330/4 158/331/4 164/332/4
f 229/333/4 227/334/4 159/335/4 161/336/4
f 231/337/38 228/338/38 160/339/38 163/340/38
f 210/296/4 229/333/4 161/336/4 142/297/4
f 228/338/38 230/291/38 162/294/38 160/339/38
f 225/326/38 231/337/38 163/340/38 157/327/38
f 227/334/4 232/329/4 164/332/4 159/335/4
f 237/341/61 233/342/61 165/343/61 169/344/61
f 235/345/4 234/346/4 166/347/4 167/348/4
f 226/330/4 235/345/4 167/348/4 158/331/4
f 233/342/62 236/325/62 168/328/62 165/343/62
f 208/282/38 237/341/38 169/344/38 140/283/38
f 234/346/4 238/285/4 170/286/4 166/347/4
f 171/349/3 203/350/3 137/351/3 139/352/3
f 105/280/3 103/279/3 203/350/3 171/349/3
f 138/284/5 140/283/5 172/213/5 204/275/5
f 170/286/4 138/284/4 204/275/4 202/210/4
f 148/290/63 137/289/63 203/273/63 180/266/63
f 162/294/64 141/293/64 173/245/64 194/234/64
f 156/298/4 142/297/4 174/237/4 188/242/4
f 150/302/4 143/301/4 175/253/4 182/258/4
f 154/306/65 144/305/65 176/261/65 186/250/65
f 147/310/4 145/309/4 177/257/4 179/270/4
f 149/314/66 146/313/66 178/265/66 181/262/66
f 139/316/4 147/310/4 179/270/4 171/269/4
f 146/313/67 148/290/67 180/266/67 178/265/67
f 144/305/68 149/314/68 181/262/68 176/261/68
f 145/309/4 150/302/4 182/258/4 177/257/4
f 155/320/69 151/319/69 183/249/69 187/246/69
f 153/324/4 152/323/4 184/241/4 185/254/4
f 143/301/4 153/324/4 185/254/4 175/253/4
f 151/319/70 154/306/70 186/250/70 183/249/70
f 141/293/71 155/320/71 187/246/71 173/245/71
f 152/323/4 156/298/4 188/242/4 184/241/4
f 168/328/72 157/327/72 189/229/72 200/218/72
f 164/332/4 158/331/4 190/221/4 196/226/4
f 161/336/4 159/335/4 191/225/4 193/238/4
f 163/340/73 160/339/73 192/233/73 195/230/73
f 142/297/4 161/336/4 193/238/4 174/237/4
f 160/339/74 162/294/74 194/234/74 192/233/74
f 157/327/38 163/340/38 195/230/38 189/229/38
f 159/335/4 164/332/4 196/226/4 191/225/4
f 169/344/75 165/343/75 197/217/75 201/214/75
f 167/348/4 166/347/4 198/209/4 199/222/4
f 158/331/4 167/348/4 199/222/4 190/221/4
f 165/343/76 168/328/76 200/218/76 197/217/76
f 140/283/38 169/344/38 201/214/38 172/213/38
f 166/347/4 170/286/4 202/210/4 198/209/4
f 608/353/4 612/354/4 238/285/4 234/346/4
f 582/355/77 611/356/77 237/341/77 208/282/77
f 607/357/78 610/358/78 236/325/78 233/342/78
f 600/359/4 609/360/4 235/345/4 226/330/4
f 609/360/4 608/353/4 234/346/4 235/345/4
f 611/356/79 607/357/79 233/342/79 237/341/79
f 601/361/4 606/362/4 232/329/4 227/334/4
f 599/363/80 605/364/80 231/337/80 225/326/80
f 602/365/81 604/366/81 230/291/81 228/338/81
f 584/367/4 603/368/4 229/333/4 210/296/4
f 605/364/82 602/365/82 228/338/82 231/337/82
f 603/368/4 601/361/4 227/334/4 229/333/4
f 606/362/4 600/359/4 226/330/4 232/329/4
f 610/358/83 599/363/83 225/326/83 236/325/83
f 594/369/4 598/370/4 224/295/4 220/322/4
f 583/371/84 597/372/84 223/317/84 209/292/84
f 593/373/85 596/374/85 222/303/85 219/318/85
f 585/375/4 595/376/4 221/321/4 211/300/4
f 595/376/4 594/369/4 220/322/4 221/321/4
f 597/372/86 593/373/86 219/318/86 223/317/86
f 587/377/4 592/378/4 218/299/4 213/308/4
f 586/379/87 591/380/87 217/311/87 212/304/87
f 588/381/88 590/382/88 216/287/88 214/312/88
f 581/383/4 589/384/4 215/307/4 207/315/4
f 591/380/89 588/381/89 214/312/89 217/311/89
f 589/384/4 587/377/4 213/308/4 215/307/4
f 596/374/90 586/379/90 212/304/90 222/303/90
f 592/378/4 585/375/4 211/300/4 218/299/4
f 598/370/4 584/367/4 210/296/4 224/295/4
f 604/366/91 583/371/91 209/292/91 230/291/91
f 590/382/92 579/385/92 205/288/92 216/287/92
f 612/354/4 580/386/4 206/281/4 238/285/4
f 580/386/5 582/355/5 208/282/5 206/281/5
f 139/352/3 137/351/3 205/387/3 207/388/3
f 307/389/3 339/390/3 271/391/3 239/392/3
f 302/393/4 306/394/4 270/395/4 266/396/4
f 276/397/93 305/398/93 269/399/93 240/400/93
f 301/401/94 304/402/94 268/403/94 265/404/94
f 294/405/4 303/406/4 267/407/4 258/408/4
f 303/406/4 302/393/4 266/396/4 267/407/4
f 305/398/95 301/401/95 265/404/95 269/399/95
f 295/409/4 300/410/4 264/411/4 259/412/4
f 293/413/38 299/414/38 263/415/38 257/416/38
f 296/417/96 298/418/96 262/419/96 260/420/96
f 278/421/4 297/422/4 261/423/4 242/424/4
f 299/414/38 296/417/38 260/420/38 263/415/38
f 297/422/4 295/409/4 259/412/4 261/423/4
f 300/410/4 294/405/4 258/408/4 264/411/4
f 304/402/97 293/413/97 257/416/97 268/403/97
f 288/425/4 292/426/4 256/427/4 252/428/4
f 277/429/98 291/430/98 255/431/98 241/432/98
f 287/433/99 290/434/99 254/435/99 251/436/99
f 279/437/4 289/438/4 253/439/4 243/440/4
f 289/438/4 288/425/4 252/428/4 253/439/4
f 291/430/100 287/433/100 251/436/100 255/431/100
f 281/441/4 286/442/4 250/443/4 245/444/4
f 280/445/101 285/446/101 249/447/101 244/448/101
f 282/449/102 284/450/102 248/451/102 246/452/102
f 275/453/4 283/454/4 247/455/4 239/456/4
f 285/446/103 282/449/103 246/452/103 249/447/103
f 283/454/4 281/441/4 245/444/4 247/455/4
f 290/434/104 280/445/104 244/448/104 254/435/104
f 286/442/4 279/437/4 243/440/4 250/443/4
f 292/426/4 278/421/4 242/424/4 256/427/4
f 298/418/105 277/429/105 241/432/105 262/419/105
f 284/450/106 273/457/106 271/458/106 248/451/106
f 306/394/4 274/459/4 272/460/4 270/395/4
f 274/459/5 276/397/5 240/400/5 272/460/5
f 104/276/5 106/216/5 276/397/5 274/459/5
f 136/211/4 104/276/4 274/459/4 306/394/4
f 114/267/107 103/274/107 273/457/107 284/450/107
f 128/235/108 107/248/108 277/429/108 298/418/108
f 122/243/4 108/240/4 278/421/4 292/426/4
f 116/259/4 109/256/4 279/437/4 286/442/4
f 120/251/109 110/264/109 280/445/109 290/434/109
f 113/271/4 111/260/4 281/441/4 283/454/4
f 115/263/110 112/268/110 282/449/110 285/446/110
f 105/272/4 113/271/4 283/454/4 275/453/4
f 112/268/111 114/267/111 284/450/111 282/449/111
f 110/264/112 115/263/112 285/446/112 280/445/112
f 111/260/4 116/259/4 286/442/4 281/441/4
f 121/247/113 117/252/113 287/433/113 291/430/113
f 119/255/4 118/244/4 288/425/4 289/438/4
f 109/256/4 119/255/4 289/438/4 279/437/4
f 117/252/114 120/251/114 290/434/114 287/433/114
f 107/248/115 121/247/115 291/430/115 277/429/115
f 118/244/4 122/243/4 292/426/4 288/425/4
f 134/219/116 123/232/116 293/413/116 304/402/116
f 130/227/4 124/224/4 294/405/4 300/410/4
f 127/239/4 125/228/4 295/409/4 297/422/4
f 129/231/38 126/236/38 296/417/38 299/414/38
f 108/240/4 127/239/4 297/422/4 278/421/4
f 126/236/117 128/235/117 298/418/117 296/417/117
f 123/232/38 129/231/38 299/414/38 293/413/38
f 125/228/4 130/227/4 300/410/4 295/409/4
f 135/215/118 131/220/118 301/401/118 305/398/118
f 133/223/4 132/212/4 302/393/4 303/406/4
f 124/224/4 133/223/4 303/406/4 294/405/4
f 131/220/119 134/219/119 304/402/119 301/401/119
f 106/216/38 135/215/38 305/398/38 276/397/38
f 132/212/4 136/211/4 306/394/4 302/393/4
f 239/392/3 271/391/3 273/278/3 275/277/3
f 9/32/3 11/31/3 339/390/3 307/389/3
f 266/396/4 270/395/4 338/27/4 334/198/4
f 240/400/120 269/399/120 337/185/120 308/24/120
f 265/404/121 268/403/121 336/145/121 333/186/121
f 258/408/4 267/407/4 335/197/4 326/150/4
f 267/407/4 266/396/4 334/198/4 335/197/4
f 269/399/122 265/404/122 333/186/122 337/185/122
f 259/412/4 264/411/4 332/149/4 327/170/4
f 257/416/38 263/415/38 331/181/38 325/146/38
f 260/420/123 262/419/123 330/37/123 328/182/123
f 242/424/4 261/423/4 329/169/4 310/42/4
f 263/415/124 260/420/124 328/182/124 331/181/124
f 261/423/4 259/412/4 327/170/4 329/169/4
f 264/411/4 258/408/4 326/150/4 332/149/4
f 268/403/125 257/416/125 325/146/125 336/145/125
f 252/428/4 256/427/4 324/41/4 320/134/4
f 241/432/126 255/431/126 323/121/126 309/38/126
f 251/436/127 254/435/127 322/73/127 319/122/127
f 243/440/4 253/439/4 321/133/4 311/70/4
f 253/439/4 252/428/4 320/134/4 321/133/4
f 255/431/128 251/436/128 319/122/128 323/121/128
f 245/444/4 250/443/4 318/69/4 313/86/4
f 244/448/129 249/447/129 317/97/129 312/74/129
f 246/452/130 248/451/130 316/33/130 314/98/130
f 239/456/4 247/455/4 315/85/4 307/111/4
f 249/447/131 246/452/131 314/98/131 317/97/131
f 247/455/4 245/444/4 313/86/4 315/85/4
f 254/435/132 244/448/132 312/74/132 322/73/132
f 250/443/4 243/440/4 311/70/4 318/69/4
f 256/427/4 242/424/4 310/42/4 324/41/4
f 262/419/133 241/432/133 309/38/133 330/37/133
f 248/451/134 271/458/134 339/34/134 316/33/134
f 270/395/4 272/460/4 340/23/4 338/27/4
f 272/460/5 240/400/5 308/24/5 340/23/5
f 470/461/4 474/462/4 374/463/4 370/464/4
f 444/465/135 473/466/135 373/467/135 342/468/135
f 469/469/136 472/470/136 372/471/136 369/472/136
f 462/473/4 471/474/4 371/475/4 362/476/4
f 471/474/4 470/461/4 370/464/4 371/475/4
f 473/466/137 469/469/137 369/472/137 373/467/137
f 463/477/4 468/478/4 368/479/4 363/480/4
f 461/481/138 467/482/138 367/483/138 361/484/138
f 464/485/139 466/486/139 366/487/139 364/488/139
f 445/489/4 465/490/4 365/491/4 345/492/4
f 467/482/140 464/485/140 364/488/140 367/483/140
f 465/490/4 463/477/4 363/480/4 365/491/4
f 468/478/4 462/473/4 362/476/4 368/479/4
f 472/470/141 461/481/141 361/484/141 372/471/141
f 456/493/4 460/494/4 360/495/4 356/496/4
f 446/497/142 459/498/142 359/499/142 346/500/142
f 455/501/143 458/502/143 358/503/143 355/504/143
f 447/505/4 457/506/4 357/507/4 347/508/4
f 457/506/4 456/493/4 356/496/4 357/507/4
f 459/498/144 455/501/144 355/504/144 359/499/144
f 449/509/4 454/510/4 354/511/4 349/512/4
f 448/513/145 453/514/145 353/515/145 348/516/145
f 450/517/146 452/518/146 352/519/146 350/520/146
f 443/521/4 451/522/4 351/523/4 341/524/4
f 453/514/147 450/517/147 350/520/147 353/515/147
f 451/522/4 449/509/4 349/512/4 351/523/4
f 458/502/148 448/513/148 348/516/148 358/503/148
f 454/510/4 447/505/4 347/508/4 354/511/4
f 466/486/149 446/497/149 346/500/149 366/487/149
f 460/494/4 445/489/4 345/492/4 360/495/4
f 547/525/3 545/526/3 343/527/3 341/528/3
f 476/529/5 444/465/5 342/468/5 344/530/5
f 474/462/4 476/529/4 344/530/4 374/463/4
f 452/518/150 475/531/150 343/532/150 352/519/150
f 420/533/151 409/534/151 375/535/151 386/536/151
f 442/537/4 410/538/4 376/539/4 408/540/4
f 410/538/5 412/541/5 378/542/5 376/539/5
f 428/543/4 413/544/4 379/545/4 394/546/4
f 434/547/152 414/548/152 380/549/152 400/550/152
f 422/551/4 415/552/4 381/553/4 388/554/4
f 426/555/153 416/556/153 382/557/153 392/558/153
f 419/559/4 417/560/4 383/561/4 385/562/4
f 421/563/154 418/564/154 384/565/154 387/566/154
f 411/567/4 419/559/4 385/562/4 377/568/4
f 418/564/155 420/533/155 386/536/155 384/565/155
f 416/556/156 421/563/156 387/566/156 382/557/156
f 417/560/4 422/551/4 388/554/4 383/561/4
f 427/569/157 423/570/157 389/571/157 393/572/157
f 425/573/4 424/574/4 390/575/4 391/576/4
f 415/552/4 425/573/4 391/576/4 381/553/4
f 423/570/158 426/555/158 392/558/158 389/571/158
f 414/548/159 427/569/159 393/572/159 380/549/159
f 424/574/4 428/543/4 394/546/4 390/575/4
f 440/577/160 429/578/160 395/579/160 406/580/160
f 436/581/4 430/582/4 396/583/4 402/584/4
f 433/585/4 431/586/4 397/587/4 399/588/4
f 435/589/161 432/590/161 398/591/161 401/592/161
f 413/544/4 433/585/4 399/588/4 379/545/4
f 432/590/162 434/547/162 400/550/162 398/591/162
f 429/578/163 435/589/163 401/592/163 395/579/163
f 431/586/4 436/581/4 402/584/4 397/587/4
f 441/593/164 437/594/164 403/595/164 407/596/164
f 439/597/4 438/598/4 404/599/4 405/600/4
f 430/582/4 439/597/4 405/600/4 396/583/4
f 437/594/165 440/577/165 406/580/165 403/595/165
f 412/541/166 441/593/166 407/596/166 378/542/166
f 438/598/4 442/537/4 408/540/4 404/599/4
f 443/601/3 475/602/3 375/603/3 377/604/3
f 90/199/4 102/28/4 442/537/4 438/598/4
f 10/25/167 99/188/167 441/593/167 412/541/167
f 87/187/168 96/148/168 440/577/168 437/594/168
f 66/151/4 93/200/4 439/597/4 430/582/4
f 93/200/4 90/199/4 438/598/4 439/597/4
f 99/188/169 87/187/169 437/594/169 441/593/169
f 69/171/4 84/152/4 436/581/4 431/586/4
f 63/147/170 81/184/170 435/589/170 429/578/170
f 72/183/171 78/40/171 434/547/171 432/590/171
f 17/43/4 75/172/4 433/585/4 413/544/4
f 81/184/172 72/183/172 432/590/172 435/589/172
f 75/172/4 69/171/4 431/586/4 433/585/4
f 84/152/4 66/151/4 430/582/4 436/581/4
f 96/148/38 63/147/38 429/578/38 440/577/38
f 48/135/4 60/44/4 428/543/4 424/574/4
f 18/39/173 57/124/173 427/569/173 414/548/173
f 45/123/174 54/76/174 426/555/174 423/570/174
f 21/71/4 51/136/4 425/573/4 415/552/4
f 51/136/4 48/135/4 424/574/4 425/573/4
f 57/124/175 45/123/175 423/570/175 427/569/175
f 27/87/4 42/72/4 422/551/4 417/560/4
f 24/75/176 39/100/176 421/563/176 416/556/176
f 30/99/177 36/36/177 420/533/177 418/564/177
f 9/112/4 33/88/4 419/559/4 411/567/4
f 39/100/178 30/99/178 418/564/178 421/563/178
f 33/88/4 27/87/4 417/560/4 419/559/4
f 54/76/179 24/75/179 416/556/179 426/555/179
f 42/72/4 21/71/4 415/552/4 422/551/4
f 78/40/180 18/39/180 414/548/180 434/547/180
f 60/44/4 17/43/4 413/544/4 428/543/4
f 12/26/5 10/25/5 412/541/5 410/538/5
f 102/28/4 12/26/4 410/538/4 442/537/4
f 36/36/181 11/35/181 409/534/181 420/533/181
f 377/604/3 375/603/3 409/30/3 411/29/3
f 341/528/3 343/527/3 475/602/3 443/601/3
f 386/536/182 375/535/182 475/531/182 452/518/182
f 408/540/4 376/539/4 476/529/4 474/462/4
f 376/539/5 378/542/5 444/465/5 476/529/5
f 394/546/4 379/545/4 445/489/4 460/494/4
f 400/550/183 380/549/183 446/497/183 466/486/183
f 388/554/4 381/553/4 447/505/4 454/510/4
f 392/558/184 382/557/184 448/513/184 458/502/184
f 385/562/4 383/561/4 449/509/4 451/522/4
f 387/566/185 384/565/185 450/517/185 453/514/185
f 377/568/4 385/562/4 451/522/4 443/521/4
f 384/565/186 386/536/186 452/518/186 450/517/186
f 382/557/187 387/566/187 453/514/187 448/513/187
f 383/561/4 388/554/4 454/510/4 449/509/4
f 393/572/188 389/571/188 455/501/188 459/498/188
f 391/576/4 390/575/4 456/493/4 457/506/4
f 381/553/4 391/576/4 457/506/4 447/505/4
f 389/571/189 392/558/189 458/502/189 455/501/189
f 380/549/190 393/572/190 459/498/190 446/497/190
f 390/575/4 394/546/4 460/494/4 456/493/4
f 406/580/191 395/579/191 461/481/191 472/470/191
f 402/584/4 396/583/4 462/473/4 468/478/4
f 399/588/4 397/587/4 463/477/4 465/490/4
f 401/592/192 398/591/192 464/485/192 467/482/192
f 379/545/4 399/588/4 465/490/4 445/489/4
f 398/591/193 400/550/193 466/486/193 464/485/193
f 395/579/194 401/592/194 467/482/194 461/481/194
f 397/587/4 402/584/4 468/478/4 463/477/4
f 407/596/195 403/595/195 469/469/195 473/466/195
f 405/600/4 404/599/4 470/461/4 471/474/4
f 396/583/4 405/600/4 471/474/4 462/473/4
f 403/595/196 406/580/196 472/470/196 469/469/196
f 378/542/197 407/596/197 473/466/197 444/465/197
f 404/599/4 408/540/4 474/462/4 470/461/4
f 511/605/3 543/606/3 509/607/3 477/608/3
f 574/609/4 578/610/4 508/611/4 504/612/4
f 548/613/198 577/614/198 507/615/198 478/616/198
f 573/617/199 576/618/199 506/619/199 503/620/199
f 566/621/4 575/622/4 505/623/4 496/624/4
f 575/622/4 574/609/4 504/612/4 505/623/4
f 577/614/200 573/617/200 503/620/200 507/615/200
f 567/625/4 572/626/4 502/627/4 497/628/4
f 565/629/201 571/630/201 501/631/201 495/632/201
f 568/633/202 570/634/202 500/635/202 498/636/202
f 549/637/4 569/638/4 499/639/4 479/640/4
f 571/630/203 568/633/203 498/636/203 501/631/203
f 569/638/4 567/625/4 497/628/4 499/639/4
f 572/626/4 566/621/4 496/624/4 502/627/4
f 576/618/204 565/629/204 495/632/204 506/619/204
f 560/641/4 564/642/4 494/643/4 490/644/4
f 550/645/205 563/646/205 493/647/205 480/648/205
f 559/649/206 562/650/206 492/651/206 489/652/206
f 551/653/4 561/654/4 491/655/4 481/656/4
f 561/654/4 560/641/4 490/644/4 491/655/4
f 563/646/207 559/649/207 489/652/207 493/647/207
f 553/657/4 558/658/4 488/659/4 483/660/4
f 552/661/208 557/662/208 487/663/208 482/664/208
f 554/665/209 556/666/209 486/667/209 484/668/209
f 547/669/4 555/670/4 485/671/4 477/672/4
f 557/662/210 554/665/210 484/668/210 487/663/210
f 555/670/4 553/657/4 483/660/4 485/671/4
f 562/650/211 552/661/211 482/664/211 492/651/211
f 558/658/4 551/653/4 481/656/4 488/659/4
f 570/634/38 550/645/38 480/648/38 500/635/38
f 564/642/4 549/637/4 479/640/4 494/643/4
f 546/673/5 548/613/5 478/616/5 510/674/5
f 578/610/4 546/673/4 510/674/4 508/611/4
f 556/666/212 545/675/212 509/676/212 486/667/212
f 8/677/3 7/678/3 543/606/3 511/605/3
f 504/612/4 508/611/4 542/13/4 538/206/4
f 478/616/213 507/615/213 541/193/213 512/17/213
f 503/620/214 506/619/214 540/137/214 537/194/214
f 496/624/4 505/623/4 539/205/4 530/158/4
f 505/623/4 504/612/4 538/206/4 539/205/4
f 507/615/215 503/620/215 537/194/215 541/193/215
f 497/628/4 502/627/4 536/157/4 531/162/4
f 495/632/216 501/631/216 535/173/216 529/138/216
f 498/636/217 500/635/217 534/57/217 532/174/217
f 479/640/4 499/639/4 533/161/4 513/50/4
f 501/631/218 498/636/218 532/174/218 535/173/218
f 499/639/4 497/628/4 531/162/4 533/161/4
f 502/627/4 496/624/4 530/158/4 536/157/4
f 506/619/219 495/632/219 529/138/219 540/137/219
f 490/644/4 494/643/4 528/49/4 524/126/4
f 480/648/220 493/647/220 527/113/220 514/58/220
f 489/652/221 492/651/221 526/81/221 523/114/221
f 481/656/4 491/655/4 525/125/4 515/62/4
f 491/655/4 490/644/4 524/126/4 525/125/4
f 493/647/222 489/652/222 523/114/222 527/113/222
f 483/660/4 488/659/4 522/61/4 517/94/4
f 482/664/223 487/663/223 521/105/223 516/82/223
f 484/668/224 486/667/224 520/1/224 518/106/224
f 477/672/4 485/671/4 519/93/4 511/109/4
f 487/663/225 484/668/225 518/106/225 521/105/225
f 485/671/4 483/660/4 517/94/4 519/93/4
f 492/651/226 482/664/226 516/82/226 526/81/226
f 488/659/4 481/656/4 515/62/4 522/61/4
f 500/635/227 480/648/227 514/58/227 534/57/227
f 494/643/4 479/640/4 513/50/4 528/49/4
f 510/674/5 478/616/5 512/17/5 544/14/5
f 508/611/4 510/674/4 544/14/4 542/13/4
f 486/667/228 509/676/228 543/2/228 520/1/228
f 352/519/229 343/532/229 545/675/229 556/666/229
f 374/463/4 344/530/4 546/673/4 578/610/4
f 344/530/5 342/468/5 548/613/5 546/673/5
f 360/495/4 345/492/4 549/637/4 564/642/4
f 366/487/230 346/500/230 550/645/230 570/634/230
f 354/511/4 347/508/4 551/653/4 558/658/4
f 358/503/231 348/516/231 552/661/231 562/650/231
f 351/523/4 349/512/4 553/657/4 555/670/4
f 353/515/232 350/520/232 554/665/232 557/662/232
f 341/524/4 351/523/4 555/670/4 547/669/4
f 350/520/233 352/519/233 556/666/233 554/665/233
f 348/516/234 353/515/234 557/662/234 552/661/234
f 349/512/4 354/511/4 558/658/4 553/657/4
f 359/499/235 355/504/235 559/649/235 563/646/235
f 357/507/4 356/496/4 560/641/4 561/654/4
f 347/508/4 357/507/4 561/654/4 551/653/4
f 355/504/236 358/503/236 562/650/236 559/649/236
f 346/500/237 359/499/237 563/646/237 550/645/237
f 356/496/4 360/495/4 564/642/4 560/641/4
f 372/471/238 361/484/238 565/629/238 576/618/238
f 368/479/4 362/476/4 566/621/4 572/626/4
f 365/491/4 363/480/4 567/625/4 569/638/4
f 367/483/239 364/488/239 568/633/239 571/630/239
f 345/492/4 365/491/4 569/638/4 549/637/4
f 364/488/240 366/487/240 570/634/240 568/633/240
f 361/484/241 367/483/241 571/630/241 565/629/241
f 363/480/4 368/479/4 572/626/4 567/625/4
f 373/467/242 369/472/242 573/617/242 577/614/242
f 371/475/4 370/464/4 574/609/4 575/622/4
f 362/476/4 371/475/4 575/622/4 566/621/4
f 369/472/243 372/471/243 576/618/243 573/617/243
f 342/468/38 373/467/38 577/614/38 548/613/38
f 370/464/4 374/463/4 578/610/4 574/609/4
f 477/608/3 509/607/3 545/526/3 547/525/3
f 2/22/5 1/21/5 582/355/5 580/386/5
f 100/679/4 2/22/4 580/386/4 612/354/4
f 35/680/244 5/681/244 579/385/244 590/382/244
f 77/682/245 16/683/245 583/371/245 604/366/245
f 58/684/4 13/685/4 584/367/4 598/370/4
f 40/686/4 19/687/4 585/375/4 592/378/4
f 53/688/246 23/689/246 586/379/246 596/374/246
f 31/690/4 25/691/4 587/377/4 589/384/4
f 38/692/247 29/693/247 588/381/247 591/380/247
f 6/694/4 31/690/4 589/384/4 581/383/4
f 29/693/248 35/680/248 590/382/248 588/381/248
f 23/689/249 38/692/249 591/380/249 586/379/249
f 25/691/4 40/686/4 592/378/4 587/377/4
f 56/695/250 44/696/250 593/373/250 597/372/250
f 49/697/4 46/698/4 594/369/4 595/376/4
f 19/687/4 49/697/4 595/376/4 585/375/4
f 44/696/251 53/688/251 596/374/251 593/373/251
f 16/683/252 56/695/252 597/372/252 583/371/252
f 46/698/4 58/684/4 598/370/4 594/369/4
f 95/699/253 62/700/253 599/363/253 610/358/253
f 82/701/4 64/702/4 600/359/4 606/362/4
f 73/703/4 67/704/4 601/361/4 603/368/4
f 80/705/254 71/706/254 602/365/254 605/364/254
f 13/685/4 73/703/4 603/368/4 584/367/4
f 71/706/255 77/682/255 604/366/255 602/365/255
f 62/700/256 80/705/256 605/364/256 599/363/256
f 67/704/4 82/701/4 606/362/4 601/361/4
f 98/707/257 86/708/257 607/357/257 611/356/257
f 91/709/4 88/710/4 608/353/4 609/360/4
f 64/702/4 91/709/4 609/360/4 600/359/4
f 86/708/258 95/699/258 610/358/258 607/357/258
f 1/21/259 98/707/259 611/356/259 582/355/259
f 88/710/4 100/679/4 612/354/4 608/353/4
f 207/388/3 205/387/3 579/10/3 581/9/3
